<svg width="975" height="600" viewBox="0 0 975 600" fill="none" xmlns="http://www.w3.org/2000/svg">
<rect width="974.026" height="600" fill="white"/>
<path d="M487 128H325" stroke="black" stroke-dasharray="4 4"/>
<path d="M283.35 177.793L325.132 128" stroke="black" stroke-dasharray="4 4"/>
<path d="M284 178H184" stroke="black" stroke-dasharray="4 4"/>
<path d="M132 240.816L184.708 178" stroke="black" stroke-dasharray="4 4"/>
<path d="M132 241V449" stroke="black" stroke-dasharray="4 4"/>
<path d="M273.421 589.421L132 448" stroke="black" stroke-dasharray="4 4"/>
<path d="M470.272 147.543C470.33 148.092 470.822 148.49 471.371 148.432L480.322 147.49C480.871 147.432 481.269 146.94 481.212 146.39C481.154 145.841 480.662 145.443 480.112 145.501L472.156 146.339L471.318 138.383C471.261 137.833 470.768 137.435 470.219 137.493C469.67 137.551 469.272 138.043 469.329 138.592L470.272 147.543ZM486.223 127.371L470.489 146.809L472.044 148.067L487.777 128.629L486.223 127.371Z" fill="#FF0404"/>
<path d="M522.707 128.707C523.098 128.317 523.098 127.683 522.707 127.293L516.343 120.929C515.953 120.538 515.319 120.538 514.929 120.929C514.538 121.319 514.538 121.953 514.929 122.343L520.586 128L514.929 133.657C514.538 134.047 514.538 134.681 514.929 135.071C515.319 135.462 515.953 135.462 516.343 135.071L522.707 128.707ZM487 129H522V127L487 127V129Z" fill="#3CB339"/>
<path d="M487.808 92.2944C487.419 91.9028 486.785 91.901 486.394 92.2905L480.012 98.6364C479.62 99.0258 479.618 99.659 480.008 100.051C480.397 100.442 481.03 100.444 481.422 100.055L487.095 94.4138L492.736 100.087C493.125 100.478 493.758 100.48 494.15 100.091C494.542 99.7011 494.543 99.068 494.154 98.6764L487.808 92.2944ZM488 128.003L488.099 93.0024L486.099 92.9967L486 127.997L488 128.003Z" fill="#030DFF"/>
<path d="M466.67 119.081C465.734 119.081 464.883 118.874 464.118 118.46C463.362 118.037 462.768 117.461 462.336 116.732C461.913 116.003 461.702 115.184 461.702 114.275C461.702 113.366 461.913 112.547 462.336 111.818C462.768 111.089 463.362 110.518 464.118 110.104C464.883 109.681 465.734 109.469 466.67 109.469C467.606 109.469 468.447 109.676 469.194 110.09C469.95 110.504 470.544 111.08 470.976 111.818C471.408 112.547 471.624 113.366 471.624 114.275C471.624 115.184 471.408 116.008 470.976 116.746C470.544 117.475 469.95 118.046 469.194 118.46C468.447 118.874 467.606 119.081 466.67 119.081ZM466.67 118.19C467.417 118.19 468.092 118.024 468.695 117.691C469.298 117.349 469.77 116.881 470.112 116.287C470.454 115.684 470.625 115.013 470.625 114.275C470.625 113.537 470.454 112.871 470.112 112.277C469.77 111.674 469.298 111.206 468.695 110.873C468.092 110.531 467.417 110.36 466.67 110.36C465.923 110.36 465.243 110.531 464.631 110.873C464.028 111.206 463.551 111.674 463.2 112.277C462.858 112.871 462.687 113.537 462.687 114.275C462.687 115.013 462.858 115.684 463.2 116.287C463.551 116.881 464.028 117.349 464.631 117.691C465.243 118.024 465.923 118.19 466.67 118.19Z" fill="black"/>
<path d="M474.83 120.334C475.106 120.394 475.318 120.514 475.466 120.694C475.618 120.87 475.694 121.098 475.694 121.378C475.694 121.738 475.56 122.016 475.292 122.212C475.028 122.404 474.636 122.5 474.116 122.5H472.184V118.3H473.996C474.464 118.3 474.826 118.394 475.082 118.582C475.342 118.77 475.472 119.036 475.472 119.38C475.472 119.612 475.414 119.81 475.298 119.974C475.186 120.134 475.03 120.254 474.83 120.334ZM472.628 118.666V120.19H473.966C474.306 120.19 474.568 120.126 474.752 119.998C474.936 119.866 475.028 119.676 475.028 119.428C475.028 119.18 474.936 118.992 474.752 118.864C474.568 118.732 474.306 118.666 473.966 118.666H472.628ZM474.11 122.134C474.486 122.134 474.77 122.07 474.962 121.942C475.154 121.814 475.25 121.614 475.25 121.342C475.25 120.818 474.87 120.556 474.11 120.556H472.628V122.134H474.11Z" fill="black"/>
<path d="M499.7 96.41V97H495.42V96.53L498.73 92.34H495.48V91.74H499.64V92.21L496.33 96.41H499.7Z" fill="black"/>
<path d="M524.41 113.74L521.78 119.63C521.567 120.123 521.32 120.473 521.04 120.68C520.76 120.887 520.423 120.99 520.03 120.99C519.777 120.99 519.54 120.95 519.32 120.87C519.1 120.79 518.91 120.67 518.75 120.51L519.08 119.98C519.347 120.247 519.667 120.38 520.04 120.38C520.28 120.38 520.483 120.313 520.65 120.18C520.823 120.047 520.983 119.82 521.13 119.5L521.36 118.99L519.01 113.74H519.75L521.73 118.21L523.71 113.74H524.41Z" fill="black"/>
<path d="M473.34 136L471.67 133.8L469.99 136H469.19L471.27 133.3L469.29 130.74H470.09L471.67 132.8L473.25 130.74H474.03L472.05 133.3L474.15 136H473.34Z" fill="black"/>
<circle cx="272" cy="589" r="10" fill="black"/>
<path d="M269.28 41H270.76V53.72H278.6V55H269.28V41ZM289.761 50.18H280.961C281.041 51.2733 281.461 52.16 282.221 52.84C282.981 53.5067 283.941 53.84 285.101 53.84C285.754 53.84 286.354 53.7267 286.901 53.5C287.448 53.26 287.921 52.9133 288.321 52.46L289.121 53.38C288.654 53.94 288.068 54.3667 287.361 54.66C286.668 54.9533 285.901 55.1 285.061 55.1C283.981 55.1 283.021 54.8733 282.181 54.42C281.354 53.9533 280.708 53.3133 280.241 52.5C279.774 51.6867 279.541 50.7667 279.541 49.74C279.541 48.7133 279.761 47.7933 280.201 46.98C280.654 46.1667 281.268 45.5333 282.041 45.08C282.828 44.6267 283.708 44.4 284.681 44.4C285.654 44.4 286.528 44.6267 287.301 45.08C288.074 45.5333 288.681 46.1667 289.121 46.98C289.561 47.78 289.781 48.7 289.781 49.74L289.761 50.18ZM284.681 45.62C283.668 45.62 282.814 45.9467 282.121 46.6C281.441 47.24 281.054 48.08 280.961 49.12H288.421C288.328 48.08 287.934 47.24 287.241 46.6C286.561 45.9467 285.708 45.62 284.681 45.62ZM296.151 41.26C295.538 41.26 295.071 41.4267 294.751 41.76C294.445 42.0933 294.291 42.5867 294.291 43.24V44.48H297.531V45.68H294.331V55H292.911V45.68H291.031V44.48H292.911V43.18C292.911 42.22 293.185 41.46 293.731 40.9C294.291 40.34 295.078 40.06 296.091 40.06C296.491 40.06 296.878 40.12 297.251 40.24C297.625 40.3467 297.938 40.5067 298.191 40.72L297.711 41.78C297.298 41.4333 296.778 41.26 296.151 41.26ZM304.989 54.36C304.722 54.6 304.389 54.7867 303.989 54.92C303.602 55.04 303.195 55.1 302.769 55.1C301.782 55.1 301.022 54.8333 300.489 54.3C299.955 53.7667 299.689 53.0133 299.689 52.04V45.68H297.809V44.48H299.689V42.18H301.109V44.48H304.309V45.68H301.109V51.96C301.109 52.5867 301.262 53.0667 301.569 53.4C301.889 53.72 302.342 53.88 302.929 53.88C303.222 53.88 303.502 53.8333 303.769 53.74C304.049 53.6467 304.289 53.5133 304.489 53.34L304.989 54.36ZM313.108 41H314.588V53.72H322.428V55H313.108V41ZM333.589 50.18H324.789C324.869 51.2733 325.289 52.16 326.049 52.84C326.809 53.5067 327.769 53.84 328.929 53.84C329.583 53.84 330.183 53.7267 330.729 53.5C331.276 53.26 331.749 52.9133 332.149 52.46L332.949 53.38C332.483 53.94 331.896 54.3667 331.189 54.66C330.496 54.9533 329.729 55.1 328.889 55.1C327.809 55.1 326.849 54.8733 326.009 54.42C325.183 53.9533 324.536 53.3133 324.069 52.5C323.603 51.6867 323.369 50.7667 323.369 49.74C323.369 48.7133 323.589 47.7933 324.029 46.98C324.483 46.1667 325.096 45.5333 325.869 45.08C326.656 44.6267 327.536 44.4 328.509 44.4C329.483 44.4 330.356 44.6267 331.129 45.08C331.903 45.5333 332.509 46.1667 332.949 46.98C333.389 47.78 333.609 48.7 333.609 49.74L333.589 50.18ZM328.509 45.62C327.496 45.62 326.643 45.9467 325.949 46.6C325.269 47.24 324.883 48.08 324.789 49.12H332.249C332.156 48.08 331.763 47.24 331.069 46.6C330.389 45.9467 329.536 45.62 328.509 45.62ZM346.24 44.48V53.72C346.24 55.5067 345.8 56.8267 344.92 57.68C344.053 58.5467 342.74 58.98 340.98 58.98C340.006 58.98 339.08 58.8333 338.2 58.54C337.333 58.26 336.626 57.8667 336.08 57.36L336.8 56.28C337.306 56.7333 337.92 57.0867 338.64 57.34C339.373 57.5933 340.14 57.72 340.94 57.72C342.273 57.72 343.253 57.4067 343.88 56.78C344.506 56.1667 344.82 55.2067 344.82 53.9V52.56C344.38 53.2267 343.8 53.7333 343.08 54.08C342.373 54.4267 341.586 54.6 340.72 54.6C339.733 54.6 338.833 54.3867 338.02 53.96C337.22 53.52 336.586 52.9133 336.12 52.14C335.666 51.3533 335.44 50.4667 335.44 49.48C335.44 48.4933 335.666 47.6133 336.12 46.84C336.586 46.0667 337.22 45.4667 338.02 45.04C338.82 44.6133 339.72 44.4 340.72 44.4C341.613 44.4 342.42 44.58 343.14 44.94C343.86 45.3 344.44 45.82 344.88 46.5V44.48H346.24ZM340.86 53.34C341.62 53.34 342.306 53.18 342.92 52.86C343.533 52.5267 344.006 52.0667 344.34 51.48C344.686 50.8933 344.86 50.2267 344.86 49.48C344.86 48.7333 344.686 48.0733 344.34 47.5C344.006 46.9133 343.533 46.46 342.92 46.14C342.32 45.8067 341.633 45.64 340.86 45.64C340.1 45.64 339.413 45.8 338.8 46.12C338.2 46.44 337.726 46.8933 337.38 47.48C337.046 48.0667 336.88 48.7333 336.88 49.48C336.88 50.2267 337.046 50.8933 337.38 51.48C337.726 52.0667 338.2 52.5267 338.8 52.86C339.413 53.18 340.1 53.34 340.86 53.34Z" fill="black"/>
<rect x="296" y="168.198" width="20" height="26" transform="rotate(90 296 168.198)" fill="#C4C4C4"/>
<ellipse cx="296" cy="178.198" rx="10" ry="5" transform="rotate(90 296 178.198)" fill="#C4C4C4"/>
<path d="M270 187.698C268.911 187.698 267.79 186.802 266.912 185.045C266.048 183.319 265.5 180.898 265.5 178.198C265.5 175.497 266.048 173.077 266.912 171.35C267.79 169.594 268.911 168.698 270 168.698C271.089 168.698 272.21 169.594 273.088 171.35C273.952 173.077 274.5 175.497 274.5 178.198C274.5 180.898 273.952 183.319 273.088 185.045C272.21 186.802 271.089 187.698 270 187.698Z" fill="white" stroke="#C4C4C4"/>
<path d="M301.113 193.743C301.663 193.695 302.07 193.21 302.022 192.659L301.238 183.694C301.19 183.143 300.705 182.736 300.154 182.785C299.604 182.833 299.197 183.318 299.245 183.868L299.943 191.837L291.973 192.535C291.423 192.583 291.016 193.068 291.064 193.618C291.112 194.168 291.597 194.575 292.147 194.527L301.113 193.743ZM288.126 183.228L300.383 193.513L301.669 191.98L289.412 181.696L288.126 183.228Z" fill="#FF0404"/>
<path d="M283.707 152.293C283.317 151.902 282.683 151.902 282.293 152.293L275.929 158.657C275.538 159.047 275.538 159.681 275.929 160.071C276.319 160.462 276.953 160.462 277.343 160.071L283 154.414L288.657 160.071C289.047 160.462 289.681 160.462 290.071 160.071C290.462 159.681 290.462 159.047 290.071 158.657L283.707 152.293ZM284 169V153H282V169H284Z" fill="#3CB339"/>
<path d="M253.296 177.305C252.904 177.693 252.901 178.326 253.289 178.719L259.62 185.116C260.008 185.509 260.642 185.512 261.034 185.123C261.427 184.735 261.43 184.102 261.041 183.709L255.414 178.023L261.1 172.396C261.493 172.007 261.496 171.374 261.108 170.981C260.719 170.589 260.086 170.586 259.694 170.974L253.296 177.305ZM270.006 177.099L254.005 177.016L253.995 179.016L269.995 179.099L270.006 177.099Z" fill="#030DFF"/>
<path d="M269.17 203.279C268.234 203.279 267.383 203.072 266.618 202.658C265.862 202.235 265.268 201.659 264.836 200.93C264.413 200.201 264.202 199.382 264.202 198.473C264.202 197.564 264.413 196.745 264.836 196.016C265.268 195.287 265.862 194.715 266.618 194.301C267.383 193.878 268.234 193.667 269.17 193.667C270.106 193.667 270.947 193.874 271.694 194.288C272.45 194.702 273.044 195.278 273.476 196.016C273.908 196.745 274.124 197.564 274.124 198.473C274.124 199.382 273.908 200.205 273.476 200.943C273.044 201.672 272.45 202.244 271.694 202.658C270.947 203.072 270.106 203.279 269.17 203.279ZM269.17 202.388C269.917 202.388 270.592 202.221 271.195 201.888C271.798 201.546 272.27 201.078 272.612 200.484C272.954 199.881 273.125 199.211 273.125 198.473C273.125 197.735 272.954 197.069 272.612 196.475C272.27 195.872 271.798 195.404 271.195 195.071C270.592 194.729 269.917 194.558 269.17 194.558C268.423 194.558 267.743 194.729 267.131 195.071C266.528 195.404 266.051 195.872 265.7 196.475C265.358 197.069 265.187 197.735 265.187 198.473C265.187 199.211 265.358 199.881 265.7 200.484C266.051 201.078 266.528 201.546 267.131 201.888C267.743 202.221 268.423 202.388 269.17 202.388Z" fill="black"/>
<path d="M276.552 207L275.592 205.65C275.484 205.662 275.372 205.668 275.256 205.668H274.128V207H273.684V202.8H275.256C275.792 202.8 276.212 202.928 276.516 203.184C276.82 203.44 276.972 203.792 276.972 204.24C276.972 204.568 276.888 204.846 276.72 205.074C276.556 205.298 276.32 205.46 276.012 205.56L277.038 207H276.552ZM275.244 205.29C275.66 205.29 275.978 205.198 276.198 205.014C276.418 204.83 276.528 204.572 276.528 204.24C276.528 203.9 276.418 203.64 276.198 203.46C275.978 203.276 275.66 203.184 275.244 203.184H274.128V205.29H275.244Z" fill="black"/>
<path d="M249.7 170.608V171.198H245.42V170.728L248.73 166.538H245.48V165.938H249.64V166.408L246.33 170.608H249.7Z" fill="black"/>
<path d="M272.41 141.938L269.78 147.828C269.567 148.321 269.32 148.671 269.04 148.878C268.76 149.084 268.423 149.188 268.03 149.188C267.777 149.188 267.54 149.148 267.32 149.068C267.1 148.988 266.91 148.868 266.75 148.708L267.08 148.178C267.347 148.444 267.667 148.578 268.04 148.578C268.28 148.578 268.483 148.511 268.65 148.378C268.823 148.244 268.983 148.018 269.13 147.698L269.36 147.188L267.01 141.938H267.75L269.73 146.408L271.71 141.938H272.41Z" fill="black"/>
<path d="M288.34 197.198L286.67 194.998L284.99 197.198H284.19L286.27 194.498L284.29 191.938H285.09L286.67 193.998L288.25 191.938H289.03L287.05 194.498L289.15 197.198H288.34Z" fill="black"/>
<path d="M131.293 215.293C131.683 214.902 132.317 214.902 132.707 215.293L139.071 221.657C139.462 222.047 139.462 222.681 139.071 223.071C138.681 223.462 138.047 223.462 137.657 223.071L132 217.414L126.343 223.071C125.953 223.462 125.319 223.462 124.929 223.071C124.538 222.681 124.538 222.047 124.929 221.657L131.293 215.293ZM131 251V216H133V251H131Z" fill="#3CB339"/>
<path d="M158.707 240.293C159.098 240.683 159.098 241.317 158.707 241.707L152.343 248.071C151.953 248.462 151.319 248.462 150.929 248.071C150.538 247.681 150.538 247.047 150.929 246.657L156.586 241L150.929 235.343C150.538 234.953 150.538 234.319 150.929 233.929C151.319 233.538 151.953 233.538 152.343 233.929L158.707 240.293ZM136 240H158V242H136V240Z" fill="#FF0404"/>
<path d="M114.67 227.081C113.734 227.081 112.884 226.874 112.119 226.46C111.363 226.037 110.769 225.461 110.337 224.732C109.914 224.003 109.702 223.184 109.702 222.275C109.702 221.366 109.914 220.547 110.337 219.818C110.769 219.089 111.363 218.517 112.119 218.103C112.884 217.68 113.734 217.469 114.67 217.469C115.606 217.469 116.448 217.676 117.195 218.09C117.951 218.504 118.545 219.08 118.977 219.818C119.409 220.547 119.625 221.366 119.625 222.275C119.625 223.184 119.409 224.007 118.977 224.745C118.545 225.474 117.951 226.046 117.195 226.46C116.448 226.874 115.606 227.081 114.67 227.081ZM114.67 226.19C115.417 226.19 116.092 226.023 116.695 225.69C117.298 225.348 117.771 224.88 118.113 224.286C118.455 223.683 118.626 223.013 118.626 222.275C118.626 221.537 118.455 220.871 118.113 220.277C117.771 219.674 117.298 219.206 116.695 218.873C116.092 218.531 115.417 218.36 114.67 218.36C113.923 218.36 113.244 218.531 112.632 218.873C112.029 219.206 111.552 219.674 111.201 220.277C110.859 220.871 110.688 221.537 110.688 222.275C110.688 223.013 110.859 223.683 111.201 224.286C111.552 224.88 112.029 225.348 112.632 225.69C113.244 226.023 113.923 226.19 114.67 226.19Z" fill="black"/>
<path d="M123.694 226.3V230.5H123.256V228.562H120.628V230.5H120.184V226.3H120.628V228.172H123.256V226.3H123.694Z" fill="black"/>
<path d="M116.7 254.41V255H112.42V254.53L115.73 250.34H112.48V249.74H116.64V250.21L113.33 254.41H116.7Z" fill="black"/>
<path d="M156.66 234L158.33 231.8L160.01 234H160.81L158.73 231.3L160.71 228.74H159.91L158.33 230.8L156.75 228.74H155.97L157.95 231.3L155.85 234H156.66Z" fill="black"/>
<path d="M146.41 212.74L143.78 218.63C143.567 219.123 143.32 219.473 143.04 219.68C142.76 219.887 142.423 219.99 142.03 219.99C141.777 219.99 141.54 219.95 141.32 219.87C141.1 219.79 140.91 219.67 140.75 219.51L141.08 218.98C141.347 219.247 141.667 219.38 142.04 219.38C142.28 219.38 142.483 219.313 142.65 219.18C142.823 219.047 142.983 218.82 143.13 218.5L143.36 217.99L141.01 212.74H141.75L143.73 217.21L145.71 212.74H146.41Z" fill="black"/>
<rect x="139.025" y="248.919" width="19.9529" height="4" transform="rotate(-140 139.025 248.919)" fill="#C4C4C4"/>
<circle cx="134" cy="239.734" r="9.5" fill="#C4C4C4" stroke="#C4C4C4"/>
<circle cx="132" cy="241.734" r="9.5" fill="white" stroke="#C4C4C4"/>
<path d="M121.007 254.306C121.062 254.856 121.552 255.257 122.102 255.202L131.057 254.311C131.607 254.256 132.008 253.766 131.953 253.217C131.899 252.667 131.409 252.266 130.859 252.321L122.899 253.113L122.106 245.152C122.052 244.603 121.562 244.202 121.012 244.256C120.463 244.311 120.062 244.801 120.116 245.35L121.007 254.306ZM131.226 241.366L121.229 253.574L122.776 254.841L132.774 242.634L131.226 241.366Z" fill="#030DFF"/>
<path d="M131.293 472.707C131.683 473.098 132.317 473.098 132.707 472.707L139.071 466.343C139.462 465.953 139.462 465.319 139.071 464.929C138.681 464.538 138.047 464.538 137.657 464.929L132 470.586L126.343 464.929C125.953 464.538 125.319 464.538 124.929 464.929C124.538 465.319 124.538 465.953 124.929 466.343L131.293 472.707ZM131 437V472H133V437H131Z" fill="#3CB339"/>
<path d="M108.293 445.293C107.902 445.683 107.902 446.317 108.293 446.707L114.657 453.071C115.047 453.462 115.681 453.462 116.071 453.071C116.462 452.681 116.462 452.047 116.071 451.657L110.414 446L116.071 440.343C116.462 439.953 116.462 439.319 116.071 438.929C115.681 438.538 115.047 438.538 114.657 438.929L108.293 445.293ZM131 445H109V447H131V445Z" fill="#FF0404"/>
<path d="M147.67 433.081C146.734 433.081 145.884 432.874 145.119 432.46C144.363 432.037 143.769 431.461 143.337 430.732C142.914 430.003 142.702 429.184 142.702 428.275C142.702 427.366 142.914 426.547 143.337 425.818C143.769 425.089 144.363 424.517 145.119 424.103C145.884 423.68 146.734 423.469 147.67 423.469C148.606 423.469 149.448 423.676 150.195 424.09C150.951 424.504 151.545 425.08 151.977 425.818C152.409 426.547 152.625 427.366 152.625 428.275C152.625 429.184 152.409 430.007 151.977 430.745C151.545 431.474 150.951 432.046 150.195 432.46C149.448 432.874 148.606 433.081 147.67 433.081ZM147.67 432.19C148.417 432.19 149.092 432.023 149.695 431.69C150.298 431.348 150.771 430.88 151.113 430.286C151.455 429.683 151.626 429.013 151.626 428.275C151.626 427.537 151.455 426.871 151.113 426.277C150.771 425.674 150.298 425.206 149.695 424.873C149.092 424.531 148.417 424.36 147.67 424.36C146.923 424.36 146.244 424.531 145.632 424.873C145.029 425.206 144.552 425.674 144.201 426.277C143.859 426.871 143.688 427.537 143.688 428.275C143.688 429.013 143.859 429.683 144.201 430.286C144.552 430.88 145.029 431.348 145.632 431.69C146.244 432.023 146.923 432.19 147.67 432.19Z" fill="black"/>
<path d="M155.008 436.536C154.592 436.536 154.216 436.444 153.88 436.26C153.548 436.076 153.286 435.822 153.094 435.498C152.906 435.17 152.812 434.804 152.812 434.4C152.812 433.996 152.906 433.632 153.094 433.308C153.286 432.98 153.55 432.724 153.886 432.54C154.222 432.356 154.598 432.264 155.014 432.264C155.326 432.264 155.614 432.316 155.878 432.42C156.142 432.524 156.366 432.676 156.55 432.876L156.268 433.158C155.94 432.826 155.526 432.66 155.026 432.66C154.694 432.66 154.392 432.736 154.12 432.888C153.848 433.04 153.634 433.248 153.478 433.512C153.326 433.776 153.25 434.072 153.25 434.4C153.25 434.728 153.326 435.024 153.478 435.288C153.634 435.552 153.848 435.76 154.12 435.912C154.392 436.064 154.694 436.14 155.026 436.14C155.53 436.14 155.944 435.972 156.268 435.636L156.55 435.918C156.366 436.118 156.14 436.272 155.872 436.38C155.608 436.484 155.32 436.536 155.008 436.536Z" fill="black"/>
<path d="M116.7 459.41V460H112.42V459.53L115.73 455.34H112.48V454.74H116.64V455.21L113.33 459.41H116.7Z" fill="black"/>
<path d="M110.34 439L108.67 436.8L106.99 439H106.19L108.27 436.3L106.29 433.74H107.09L108.67 435.8L110.25 433.74H111.03L109.05 436.3L111.15 439H110.34Z" fill="black"/>
<path d="M146.41 470.74L143.78 476.63C143.567 477.123 143.32 477.473 143.04 477.68C142.76 477.887 142.423 477.99 142.03 477.99C141.777 477.99 141.54 477.95 141.32 477.87C141.1 477.79 140.91 477.67 140.75 477.51L141.08 476.98C141.347 477.247 141.667 477.38 142.04 477.38C142.28 477.38 142.483 477.313 142.65 477.18C142.823 477.047 142.983 476.82 143.13 476.5L143.36 475.99L141.01 470.74H141.75L143.73 475.21L145.71 470.74H146.41Z" fill="black"/>
<rect x="139.025" y="453.919" width="19.9529" height="4" transform="rotate(-140 139.025 453.919)" fill="#C4C4C4"/>
<circle cx="134" cy="444.734" r="9.5" fill="#C4C4C4" stroke="#C4C4C4"/>
<circle cx="132" cy="446.734" r="9.5" fill="white" stroke="#C4C4C4"/>
<path d="M121.007 459.306C121.062 459.856 121.552 460.257 122.102 460.202L131.057 459.311C131.607 459.256 132.008 458.766 131.953 458.217C131.899 457.667 131.409 457.266 130.859 457.321L122.899 458.113L122.106 450.152C122.052 449.603 121.562 449.202 121.012 449.256C120.463 449.311 120.062 449.801 120.116 450.35L121.007 459.306ZM131.226 446.366L121.229 458.574L122.776 459.841L132.774 447.634L131.226 446.366Z" fill="#030DFF"/>
<path d="M487 128H649" stroke="black" stroke-dasharray="4 4"/>
<path d="M690.65 177.793L648.868 128" stroke="black" stroke-dasharray="4 4"/>
<path d="M690 178H790" stroke="black" stroke-dasharray="4 4"/>
<path d="M842 240.816L789.292 178" stroke="black" stroke-dasharray="4 4"/>
<path d="M842 241V449" stroke="black" stroke-dasharray="4 4"/>
<path d="M700.579 589.421L842 448" stroke="black" stroke-dasharray="4 4"/>
<circle r="10" transform="matrix(-1 0 0 1 702 589)" fill="black"/>
<path d="M636.84 55L633.64 50.5C633.28 50.54 632.907 50.56 632.52 50.56H628.76V55H627.28V41H632.52C634.307 41 635.707 41.4267 636.72 42.28C637.733 43.1333 638.24 44.3067 638.24 45.8C638.24 46.8933 637.96 47.82 637.4 48.58C636.853 49.3267 636.067 49.8667 635.04 50.2L638.46 55H636.84ZM632.48 49.3C633.867 49.3 634.927 48.9933 635.66 48.38C636.393 47.7667 636.76 46.9067 636.76 45.8C636.76 44.6667 636.393 43.8 635.66 43.2C634.927 42.5867 633.867 42.28 632.48 42.28H628.76V49.3H632.48ZM641.433 44.48H642.853V55H641.433V44.48ZM642.153 42.18C641.86 42.18 641.613 42.08 641.413 41.88C641.213 41.68 641.113 41.44 641.113 41.16C641.113 40.8933 641.213 40.66 641.413 40.46C641.613 40.26 641.86 40.16 642.153 40.16C642.446 40.16 642.693 40.26 642.893 40.46C643.093 40.6467 643.193 40.8733 643.193 41.14C643.193 41.4333 643.093 41.68 642.893 41.88C642.693 42.08 642.446 42.18 642.153 42.18ZM656.544 44.48V53.72C656.544 55.5067 656.104 56.8267 655.224 57.68C654.358 58.5467 653.044 58.98 651.284 58.98C650.311 58.98 649.384 58.8333 648.504 58.54C647.638 58.26 646.931 57.8667 646.384 57.36L647.104 56.28C647.611 56.7333 648.224 57.0867 648.944 57.34C649.678 57.5933 650.444 57.72 651.244 57.72C652.578 57.72 653.558 57.4067 654.184 56.78C654.811 56.1667 655.124 55.2067 655.124 53.9V52.56C654.684 53.2267 654.104 53.7333 653.384 54.08C652.678 54.4267 651.891 54.6 651.024 54.6C650.038 54.6 649.138 54.3867 648.324 53.96C647.524 53.52 646.891 52.9133 646.424 52.14C645.971 51.3533 645.744 50.4667 645.744 49.48C645.744 48.4933 645.971 47.6133 646.424 46.84C646.891 46.0667 647.524 45.4667 648.324 45.04C649.124 44.6133 650.024 44.4 651.024 44.4C651.918 44.4 652.724 44.58 653.444 44.94C654.164 45.3 654.744 45.82 655.184 46.5V44.48H656.544ZM651.164 53.34C651.924 53.34 652.611 53.18 653.224 52.86C653.838 52.5267 654.311 52.0667 654.644 51.48C654.991 50.8933 655.164 50.2267 655.164 49.48C655.164 48.7333 654.991 48.0733 654.644 47.5C654.311 46.9133 653.838 46.46 653.224 46.14C652.624 45.8067 651.938 45.64 651.164 45.64C650.404 45.64 649.718 45.8 649.104 46.12C648.504 46.44 648.031 46.8933 647.684 47.48C647.351 48.0667 647.184 48.7333 647.184 49.48C647.184 50.2267 647.351 50.8933 647.684 51.48C648.031 52.0667 648.504 52.5267 649.104 52.86C649.718 53.18 650.404 53.34 651.164 53.34ZM665.875 44.4C667.195 44.4 668.242 44.7867 669.015 45.56C669.802 46.32 670.195 47.4333 670.195 48.9V55H668.775V49.04C668.775 47.9467 668.502 47.1133 667.955 46.54C667.408 45.9667 666.628 45.68 665.615 45.68C664.482 45.68 663.582 46.02 662.915 46.7C662.262 47.3667 661.935 48.2933 661.935 49.48V55H660.515V40.16H661.935V46.32C662.322 45.7067 662.855 45.2333 663.535 44.9C664.215 44.5667 664.995 44.4 665.875 44.4ZM679.59 54.36C679.324 54.6 678.99 54.7867 678.59 54.92C678.204 55.04 677.797 55.1 677.37 55.1C676.384 55.1 675.624 54.8333 675.09 54.3C674.557 53.7667 674.29 53.0133 674.29 52.04V45.68H672.41V44.48H674.29V42.18H675.71V44.48H678.91V45.68H675.71V51.96C675.71 52.5867 675.864 53.0667 676.17 53.4C676.49 53.72 676.944 53.88 677.53 53.88C677.824 53.88 678.104 53.8333 678.37 53.74C678.65 53.6467 678.89 53.5133 679.09 53.34L679.59 54.36ZM687.71 41H689.19V53.72H697.03V55H687.71V41ZM708.191 50.18H699.391C699.471 51.2733 699.891 52.16 700.651 52.84C701.411 53.5067 702.371 53.84 703.531 53.84C704.184 53.84 704.784 53.7267 705.331 53.5C705.877 53.26 706.351 52.9133 706.751 52.46L707.551 53.38C707.084 53.94 706.497 54.3667 705.791 54.66C705.097 54.9533 704.331 55.1 703.491 55.1C702.411 55.1 701.451 54.8733 700.611 54.42C699.784 53.9533 699.137 53.3133 698.671 52.5C698.204 51.6867 697.971 50.7667 697.971 49.74C697.971 48.7133 698.191 47.7933 698.631 46.98C699.084 46.1667 699.697 45.5333 700.471 45.08C701.257 44.6267 702.137 44.4 703.111 44.4C704.084 44.4 704.957 44.6267 705.731 45.08C706.504 45.5333 707.111 46.1667 707.551 46.98C707.991 47.78 708.211 48.7 708.211 49.74L708.191 50.18ZM703.111 45.62C702.097 45.62 701.244 45.9467 700.551 46.6C699.871 47.24 699.484 48.08 699.391 49.12H706.851C706.757 48.08 706.364 47.24 705.671 46.6C704.991 45.9467 704.137 45.62 703.111 45.62ZM720.841 44.48V53.72C720.841 55.5067 720.401 56.8267 719.521 57.68C718.654 58.5467 717.341 58.98 715.581 58.98C714.608 58.98 713.681 58.8333 712.801 58.54C711.934 58.26 711.228 57.8667 710.681 57.36L711.401 56.28C711.908 56.7333 712.521 57.0867 713.241 57.34C713.974 57.5933 714.741 57.72 715.541 57.72C716.874 57.72 717.854 57.4067 718.481 56.78C719.108 56.1667 719.421 55.2067 719.421 53.9V52.56C718.981 53.2267 718.401 53.7333 717.681 54.08C716.974 54.4267 716.188 54.6 715.321 54.6C714.334 54.6 713.434 54.3867 712.621 53.96C711.821 53.52 711.188 52.9133 710.721 52.14C710.268 51.3533 710.041 50.4667 710.041 49.48C710.041 48.4933 710.268 47.6133 710.721 46.84C711.188 46.0667 711.821 45.4667 712.621 45.04C713.421 44.6133 714.321 44.4 715.321 44.4C716.214 44.4 717.021 44.58 717.741 44.94C718.461 45.3 719.041 45.82 719.481 46.5V44.48H720.841ZM715.461 53.34C716.221 53.34 716.908 53.18 717.521 52.86C718.134 52.5267 718.608 52.0667 718.941 51.48C719.288 50.8933 719.461 50.2267 719.461 49.48C719.461 48.7333 719.288 48.0733 718.941 47.5C718.608 46.9133 718.134 46.46 717.521 46.14C716.921 45.8067 716.234 45.64 715.461 45.64C714.701 45.64 714.014 45.8 713.401 46.12C712.801 46.44 712.328 46.8933 711.981 47.48C711.648 48.0667 711.481 48.7333 711.481 49.48C711.481 50.2267 711.648 50.8933 711.981 51.48C712.328 52.0667 712.801 52.5267 713.401 52.86C714.014 53.18 714.701 53.34 715.461 53.34Z" fill="black"/>
<rect width="20" height="26" transform="matrix(0 1 1 0 678 168.198)" fill="#C4C4C4"/>
<ellipse rx="10" ry="5" transform="matrix(0 1 1 0 678 178.198)" fill="#C4C4C4"/>
<path d="M704 187.698C705.089 187.698 706.21 186.802 707.088 185.045C707.952 183.319 708.5 180.898 708.5 178.198C708.5 175.497 707.952 173.077 707.088 171.35C706.21 169.594 705.089 168.698 704 168.698C702.911 168.698 701.79 169.594 700.912 171.35C700.048 173.077 699.5 175.497 699.5 178.198C699.5 180.898 700.048 183.319 700.912 185.045C701.79 186.802 702.911 187.698 704 187.698Z" fill="white" stroke="#C4C4C4"/>
<path d="M672.913 191.281C672.363 191.233 671.956 190.748 672.004 190.197L672.788 181.232C672.836 180.682 673.321 180.275 673.871 180.323C674.422 180.371 674.829 180.856 674.78 181.406L674.083 189.376L682.053 190.073C682.603 190.121 683.01 190.606 682.962 191.156C682.914 191.706 682.429 192.113 681.878 192.065L672.913 191.281ZM685.899 180.766L673.643 191.051L672.357 189.519L684.614 179.234L685.899 180.766Z" fill="#FF0404"/>
<path d="M690.293 202.707C690.683 203.098 691.317 203.098 691.707 202.707L698.071 196.343C698.462 195.953 698.462 195.319 698.071 194.929C697.681 194.538 697.047 194.538 696.657 194.929L691 200.586L685.343 194.929C684.953 194.538 684.319 194.538 683.929 194.929C683.538 195.319 683.538 195.953 683.929 196.343L690.293 202.707ZM690 186V202H692V186H690Z" fill="#3CB339"/>
<path d="M720.704 177.305C721.096 177.693 721.099 178.326 720.711 178.719L714.38 185.116C713.992 185.509 713.358 185.512 712.966 185.123C712.573 184.735 712.57 184.102 712.959 183.709L718.586 178.023L712.9 172.396C712.507 172.007 712.504 171.374 712.892 170.981C713.281 170.589 713.914 170.586 714.306 170.974L720.704 177.305ZM703.994 177.099L719.995 177.016L720.005 179.016L704.005 179.099L703.994 177.099Z" fill="#030DFF"/>
<path d="M691.67 162.081C690.734 162.081 689.883 161.874 689.118 161.46C688.362 161.037 687.768 160.461 687.336 159.732C686.913 159.003 686.702 158.184 686.702 157.275C686.702 156.366 686.913 155.547 687.336 154.818C687.768 154.089 688.362 153.518 689.118 153.104C689.883 152.681 690.734 152.469 691.67 152.469C692.606 152.469 693.447 152.676 694.194 153.09C694.95 153.504 695.544 154.08 695.976 154.818C696.408 155.547 696.624 156.366 696.624 157.275C696.624 158.184 696.408 159.008 695.976 159.746C695.544 160.475 694.95 161.046 694.194 161.46C693.447 161.874 692.606 162.081 691.67 162.081ZM691.67 161.19C692.417 161.19 693.092 161.024 693.695 160.691C694.298 160.349 694.77 159.881 695.112 159.287C695.454 158.684 695.625 158.013 695.625 157.275C695.625 156.537 695.454 155.871 695.112 155.277C694.77 154.674 694.298 154.206 693.695 153.873C693.092 153.531 692.417 153.36 691.67 153.36C690.923 153.36 690.243 153.531 689.631 153.873C689.028 154.206 688.551 154.674 688.2 155.277C687.858 155.871 687.687 156.537 687.687 157.275C687.687 158.013 687.858 158.684 688.2 159.287C688.551 159.881 689.028 160.349 689.631 160.691C690.243 161.024 690.923 161.19 691.67 161.19Z" fill="black"/>
<path d="M699.052 165.802L698.092 164.452C697.984 164.464 697.872 164.47 697.756 164.47H696.628V165.802H696.184V161.602H697.756C698.292 161.602 698.712 161.73 699.016 161.986C699.32 162.242 699.472 162.594 699.472 163.042C699.472 163.37 699.388 163.648 699.22 163.876C699.056 164.1 698.82 164.262 698.512 164.362L699.538 165.802H699.052ZM697.744 164.092C698.16 164.092 698.478 164 698.698 163.816C698.918 163.632 699.028 163.374 699.028 163.042C699.028 162.702 698.918 162.442 698.698 162.262C698.478 162.078 698.16 161.986 697.744 161.986H696.628V164.092H697.744Z" fill="black"/>
<path d="M721.7 171.41V172H717.42V171.53L720.73 167.34H717.48V166.74H721.64V167.21L718.33 171.41H721.7Z" fill="black"/>
<path d="M685.41 201.74L682.78 207.63C682.567 208.123 682.32 208.473 682.04 208.68C681.76 208.887 681.423 208.99 681.03 208.99C680.777 208.99 680.54 208.95 680.32 208.87C680.1 208.79 679.91 208.67 679.75 208.51L680.08 207.98C680.347 208.247 680.667 208.38 681.04 208.38C681.28 208.38 681.483 208.313 681.65 208.18C681.823 208.047 681.983 207.82 682.13 207.5L682.36 206.99L680.01 201.74H680.75L682.73 206.21L684.71 201.74H685.41Z" fill="black"/>
<path d="M668.34 183L666.67 180.8L664.99 183H664.19L666.27 180.3L664.29 177.74H665.09L666.67 179.8L668.25 177.74H669.03L667.05 180.3L669.15 183H668.34Z" fill="black"/>
<path d="M815.293 240.293C814.902 240.683 814.902 241.317 815.293 241.707L821.657 248.071C822.047 248.462 822.681 248.462 823.071 248.071C823.462 247.681 823.462 247.047 823.071 246.657L817.414 241L823.071 235.343C823.462 234.953 823.462 234.319 823.071 233.929C822.681 233.538 822.047 233.538 821.657 233.929L815.293 240.293ZM838 240H816V242H838V240Z" fill="#FF0404"/>
<path d="M856.67 233.081C855.734 233.081 854.884 232.874 854.119 232.46C853.363 232.037 852.769 231.461 852.337 230.732C851.914 230.003 851.702 229.184 851.702 228.275C851.702 227.366 851.914 226.547 852.337 225.818C852.769 225.089 853.363 224.517 854.119 224.103C854.884 223.68 855.734 223.469 856.67 223.469C857.606 223.469 858.448 223.676 859.195 224.09C859.951 224.504 860.545 225.08 860.977 225.818C861.409 226.547 861.625 227.366 861.625 228.275C861.625 229.184 861.409 230.007 860.977 230.745C860.545 231.474 859.951 232.046 859.195 232.46C858.448 232.874 857.606 233.081 856.67 233.081ZM856.67 232.19C857.417 232.19 858.092 232.023 858.695 231.69C859.298 231.348 859.771 230.88 860.113 230.286C860.455 229.683 860.626 229.013 860.626 228.275C860.626 227.537 860.455 226.871 860.113 226.277C859.771 225.674 859.298 225.206 858.695 224.873C858.092 224.531 857.417 224.36 856.67 224.36C855.923 224.36 855.244 224.531 854.632 224.873C854.029 225.206 853.552 225.674 853.201 226.277C852.859 226.871 852.688 227.537 852.688 228.275C852.688 229.013 852.859 229.683 853.201 230.286C853.552 230.88 854.029 231.348 854.632 231.69C855.244 232.023 855.923 232.19 856.67 232.19Z" fill="black"/>
<path d="M865.694 232.3V236.5H865.256V234.562H862.628V236.5H862.184V232.3H862.628V234.172H865.256V232.3H865.694Z" fill="black"/>
<path d="M860.7 253.41V254H856.42V253.53L859.73 249.34H856.48V248.74H860.64V249.21L857.33 253.41H860.7Z" fill="black"/>
<path d="M812.66 236L814.33 233.8L816.01 236H816.81L814.73 233.3L816.71 230.74H815.91L814.33 232.8L812.75 230.74H811.97L813.95 233.3L811.85 236H812.66Z" fill="black"/>
<path d="M852.41 266.74L849.78 272.63C849.567 273.123 849.32 273.473 849.04 273.68C848.76 273.887 848.423 273.99 848.03 273.99C847.777 273.99 847.54 273.95 847.32 273.87C847.1 273.79 846.91 273.67 846.75 273.51L847.08 272.98C847.347 273.247 847.667 273.38 848.04 273.38C848.28 273.38 848.483 273.313 848.65 273.18C848.823 273.047 848.983 272.82 849.13 272.5L849.36 271.99L847.01 266.74H847.75L849.73 271.21L851.71 266.74H852.41Z" fill="black"/>
<path d="M841.293 265.707C841.683 266.098 842.317 266.098 842.707 265.707L849.071 259.343C849.462 258.953 849.462 258.319 849.071 257.929C848.681 257.538 848.047 257.538 847.657 257.929L842 263.586L836.343 257.929C835.953 257.538 835.319 257.538 834.929 257.929C834.538 258.319 834.538 258.953 834.929 259.343L841.293 265.707ZM841 246V265H843V246H841Z" fill="#3CB339"/>
<rect width="19.9529" height="4" transform="matrix(0.766044 -0.642788 -0.642788 -0.766044 834.975 248.919)" fill="#C4C4C4"/>
<circle r="9.5" transform="matrix(-1 0 0 1 840 239.734)" fill="#C4C4C4" stroke="#C4C4C4"/>
<circle r="9.5" transform="matrix(-1 0 0 1 842 241.734)" fill="white" stroke="#C4C4C4"/>
<path d="M852.993 254.306C852.938 254.856 852.448 255.257 851.898 255.202L842.943 254.311C842.393 254.256 841.992 253.766 842.047 253.217C842.101 252.667 842.591 252.266 843.141 252.321L851.101 253.113L851.894 245.152C851.948 244.603 852.438 244.202 852.988 244.256C853.537 244.311 853.938 244.801 853.884 245.35L852.993 254.306ZM842.774 241.366L852.771 253.574L851.224 254.841L841.226 242.634L842.774 241.366Z" fill="#030DFF"/>
<path d="M765.491 426.293C765.1 426.683 765.1 427.317 765.491 427.707L771.855 434.071C772.245 434.462 772.878 434.462 773.269 434.071C773.659 433.681 773.659 433.047 773.269 432.657L767.612 427L773.269 421.343C773.659 420.953 773.659 420.319 773.269 419.929C772.878 419.538 772.245 419.538 771.855 419.929L765.491 426.293ZM788.198 426H766.198V428H788.198V426Z" fill="#FF0404"/>
<path d="M806.868 419.081C805.932 419.081 805.081 418.874 804.316 418.46C803.56 418.037 802.966 417.461 802.534 416.732C802.111 416.003 801.9 415.184 801.9 414.275C801.9 413.366 802.111 412.547 802.534 411.818C802.966 411.089 803.56 410.517 804.316 410.103C805.081 409.68 805.932 409.469 806.868 409.469C807.804 409.469 808.645 409.676 809.392 410.09C810.148 410.504 810.742 411.08 811.174 411.818C811.606 412.547 811.822 413.366 811.822 414.275C811.822 415.184 811.606 416.007 811.174 416.745C810.742 417.474 810.148 418.046 809.392 418.46C808.645 418.874 807.804 419.081 806.868 419.081ZM806.868 418.19C807.615 418.19 808.29 418.023 808.893 417.69C809.496 417.348 809.968 416.88 810.31 416.286C810.652 415.683 810.823 415.013 810.823 414.275C810.823 413.537 810.652 412.871 810.31 412.277C809.968 411.674 809.496 411.206 808.893 410.873C808.29 410.531 807.615 410.36 806.868 410.36C806.121 410.36 805.441 410.531 804.829 410.873C804.226 411.206 803.749 411.674 803.398 412.277C803.056 412.871 802.885 413.537 802.885 414.275C802.885 415.013 803.056 415.683 803.398 416.286C803.749 416.88 804.226 417.348 804.829 417.69C805.441 418.023 806.121 418.19 806.868 418.19Z" fill="black"/>
<path d="M814.206 422.536C813.79 422.536 813.414 422.444 813.078 422.26C812.746 422.076 812.484 421.822 812.292 421.498C812.104 421.17 812.01 420.804 812.01 420.4C812.01 419.996 812.104 419.632 812.292 419.308C812.484 418.98 812.748 418.724 813.084 418.54C813.42 418.356 813.796 418.264 814.212 418.264C814.524 418.264 814.812 418.316 815.076 418.42C815.34 418.524 815.564 418.676 815.748 418.876L815.466 419.158C815.138 418.826 814.724 418.66 814.224 418.66C813.892 418.66 813.59 418.736 813.318 418.888C813.046 419.04 812.832 419.248 812.676 419.512C812.524 419.776 812.448 420.072 812.448 420.4C812.448 420.728 812.524 421.024 812.676 421.288C812.832 421.552 813.046 421.76 813.318 421.912C813.59 422.064 813.892 422.14 814.224 422.14C814.728 422.14 815.142 421.972 815.466 421.636L815.748 421.918C815.564 422.118 815.338 422.272 815.07 422.38C814.806 422.484 814.518 422.536 814.206 422.536Z" fill="black"/>
<path d="M810.898 439.41V440H806.618V439.53L809.928 435.34H806.678V434.74H810.838V435.21L807.528 439.41H810.898Z" fill="black"/>
<path d="M762.858 422L764.528 419.8L766.208 422H767.008L764.928 419.3L766.908 416.74H766.108L764.528 418.8L762.948 416.74H762.168L764.148 419.3L762.048 422H762.858Z" fill="black"/>
<path d="M802.608 452.74L799.978 458.63C799.764 459.123 799.518 459.473 799.238 459.68C798.958 459.887 798.621 459.99 798.228 459.99C797.974 459.99 797.738 459.95 797.518 459.87C797.298 459.79 797.108 459.67 796.948 459.51L797.278 458.98C797.544 459.247 797.864 459.38 798.238 459.38C798.478 459.38 798.681 459.313 798.848 459.18C799.021 459.047 799.181 458.82 799.328 458.5L799.558 457.99L797.208 452.74H797.948L799.928 457.21L801.908 452.74H802.608Z" fill="black"/>
<path d="M791.491 451.707C791.881 452.098 792.514 452.098 792.905 451.707L799.269 445.343C799.659 444.953 799.659 444.319 799.269 443.929C798.878 443.538 798.245 443.538 797.855 443.929L792.198 449.586L786.541 443.929C786.15 443.538 785.517 443.538 785.127 443.929C784.736 444.319 784.736 444.953 785.127 445.343L791.491 451.707ZM791.198 432V451H793.198V432H791.198Z" fill="#3CB339"/>
<rect width="19.9529" height="4" transform="matrix(0.766044 -0.642788 -0.642788 -0.766044 785.173 434.919)" fill="#C4C4C4"/>
<circle r="9.5" transform="matrix(-1 0 0 1 790.198 425.734)" fill="#C4C4C4" stroke="#C4C4C4"/>
<circle r="9.5" transform="matrix(-1 0 0 1 792.198 427.734)" fill="white" stroke="#C4C4C4"/>
<path d="M803.19 440.306C803.136 440.856 802.646 441.257 802.096 441.202L793.14 440.311C792.591 440.256 792.19 439.766 792.244 439.217C792.299 438.667 792.789 438.266 793.338 438.321L801.299 439.113L802.091 431.152C802.146 430.603 802.636 430.202 803.185 430.256C803.735 430.311 804.136 430.801 804.082 431.35L803.19 440.306ZM792.971 427.366L802.969 439.574L801.422 440.841L791.424 428.634L792.971 427.366Z" fill="#030DFF"/>
</svg>
