<?xml version="1.0" encoding="utf-8" standalone="no"?>
<!DOCTYPE svg PUBLIC "-//W3C//DTD SVG 1.1//EN"
  "http://www.w3.org/Graphics/SVG/1.1/DTD/svg11.dtd">
<!-- Created with matplotlib (https://matplotlib.org/) -->
<svg height="345.6pt" version="1.1" viewBox="0 0 460.8 345.6" width="460.8pt" xmlns="http://www.w3.org/2000/svg" xmlns:xlink="http://www.w3.org/1999/xlink">
 <metadata>
  <rdf:RDF xmlns:cc="http://creativecommons.org/ns#" xmlns:dc="http://purl.org/dc/elements/1.1/" xmlns:rdf="http://www.w3.org/1999/02/22-rdf-syntax-ns#">
   <cc:Work>
    <dc:type rdf:resource="http://purl.org/dc/dcmitype/StillImage"/>
    <dc:date>2021-05-03T16:08:35.073782</dc:date>
    <dc:format>image/svg+xml</dc:format>
    <dc:creator>
     <cc:Agent>
      <dc:title>Matplotlib v3.3.4, https://matplotlib.org/</dc:title>
     </cc:Agent>
    </dc:creator>
   </cc:Work>
  </rdf:RDF>
 </metadata>
 <defs>
  <style type="text/css">*{stroke-linecap:butt;stroke-linejoin:round;}</style>
 </defs>
 <g id="figure_1">
  <g id="patch_1">
   <path d="M 0 345.6 
L 460.8 345.6 
L 460.8 0 
L 0 0 
z
" style="fill:#ffffff;"/>
  </g>
  <g id="axes_1">
   <g id="patch_2">
    <path d="M 57.6 162.432 
L 414.72 162.432 
L 414.72 41.472 
L 57.6 41.472 
z
" style="fill:#ffffff;"/>
   </g>
   <g id="matplotlib.axis_1">
    <g id="xtick_1">
     <g id="line2d_1">
      <path clip-path="url(#p10dc1a0ddf)" d="M 73.832637 162.432 
L 73.832637 41.472 
" style="fill:none;stroke:#b0b0b0;stroke-linecap:square;stroke-width:0.8;"/>
     </g>
     <g id="line2d_2">
      <defs>
       <path d="M 0 0 
L 0 3.5 
" id="mb1b7b3c016" style="stroke:#000000;stroke-width:0.8;"/>
      </defs>
      <g>
       <use style="stroke:#000000;stroke-width:0.8;" x="73.832637" xlink:href="#mb1b7b3c016" y="162.432"/>
      </g>
     </g>
     <g id="text_1">
      <!-- 0 -->
      <g transform="translate(70.651387 177.030437)scale(0.1 -0.1)">
       <defs>
        <path d="M 31.78125 66.40625 
Q 24.171875 66.40625 20.328125 58.90625 
Q 16.5 51.421875 16.5 36.375 
Q 16.5 21.390625 20.328125 13.890625 
Q 24.171875 6.390625 31.78125 6.390625 
Q 39.453125 6.390625 43.28125 13.890625 
Q 47.125 21.390625 47.125 36.375 
Q 47.125 51.421875 43.28125 58.90625 
Q 39.453125 66.40625 31.78125 66.40625 
z
M 31.78125 74.21875 
Q 44.046875 74.21875 50.515625 64.515625 
Q 56.984375 54.828125 56.984375 36.375 
Q 56.984375 17.96875 50.515625 8.265625 
Q 44.046875 -1.421875 31.78125 -1.421875 
Q 19.53125 -1.421875 13.0625 8.265625 
Q 6.59375 17.96875 6.59375 36.375 
Q 6.59375 54.828125 13.0625 64.515625 
Q 19.53125 74.21875 31.78125 74.21875 
z
" id="DejaVuSans-48"/>
       </defs>
       <use xlink:href="#DejaVuSans-48"/>
      </g>
     </g>
    </g>
    <g id="xtick_2">
     <g id="line2d_3">
      <path clip-path="url(#p10dc1a0ddf)" d="M 143.650074 162.432 
L 143.650074 41.472 
" style="fill:none;stroke:#b0b0b0;stroke-linecap:square;stroke-width:0.8;"/>
     </g>
     <g id="line2d_4">
      <g>
       <use style="stroke:#000000;stroke-width:0.8;" x="143.650074" xlink:href="#mb1b7b3c016" y="162.432"/>
      </g>
     </g>
     <g id="text_2">
      <!-- 5 -->
      <g transform="translate(140.468824 177.030437)scale(0.1 -0.1)">
       <defs>
        <path d="M 10.796875 72.90625 
L 49.515625 72.90625 
L 49.515625 64.59375 
L 19.828125 64.59375 
L 19.828125 46.734375 
Q 21.96875 47.46875 24.109375 47.828125 
Q 26.265625 48.1875 28.421875 48.1875 
Q 40.625 48.1875 47.75 41.5 
Q 54.890625 34.8125 54.890625 23.390625 
Q 54.890625 11.625 47.5625 5.09375 
Q 40.234375 -1.421875 26.90625 -1.421875 
Q 22.3125 -1.421875 17.546875 -0.640625 
Q 12.796875 0.140625 7.71875 1.703125 
L 7.71875 11.625 
Q 12.109375 9.234375 16.796875 8.0625 
Q 21.484375 6.890625 26.703125 6.890625 
Q 35.15625 6.890625 40.078125 11.328125 
Q 45.015625 15.765625 45.015625 23.390625 
Q 45.015625 31 40.078125 35.4375 
Q 35.15625 39.890625 26.703125 39.890625 
Q 22.75 39.890625 18.8125 39.015625 
Q 14.890625 38.140625 10.796875 36.28125 
z
" id="DejaVuSans-53"/>
       </defs>
       <use xlink:href="#DejaVuSans-53"/>
      </g>
     </g>
    </g>
    <g id="xtick_3">
     <g id="line2d_5">
      <path clip-path="url(#p10dc1a0ddf)" d="M 213.46751 162.432 
L 213.46751 41.472 
" style="fill:none;stroke:#b0b0b0;stroke-linecap:square;stroke-width:0.8;"/>
     </g>
     <g id="line2d_6">
      <g>
       <use style="stroke:#000000;stroke-width:0.8;" x="213.46751" xlink:href="#mb1b7b3c016" y="162.432"/>
      </g>
     </g>
     <g id="text_3">
      <!-- 10 -->
      <g transform="translate(207.10501 177.030437)scale(0.1 -0.1)">
       <defs>
        <path d="M 12.40625 8.296875 
L 28.515625 8.296875 
L 28.515625 63.921875 
L 10.984375 60.40625 
L 10.984375 69.390625 
L 28.421875 72.90625 
L 38.28125 72.90625 
L 38.28125 8.296875 
L 54.390625 8.296875 
L 54.390625 0 
L 12.40625 0 
z
" id="DejaVuSans-49"/>
       </defs>
       <use xlink:href="#DejaVuSans-49"/>
       <use x="63.623047" xlink:href="#DejaVuSans-48"/>
      </g>
     </g>
    </g>
    <g id="xtick_4">
     <g id="line2d_7">
      <path clip-path="url(#p10dc1a0ddf)" d="M 283.284947 162.432 
L 283.284947 41.472 
" style="fill:none;stroke:#b0b0b0;stroke-linecap:square;stroke-width:0.8;"/>
     </g>
     <g id="line2d_8">
      <g>
       <use style="stroke:#000000;stroke-width:0.8;" x="283.284947" xlink:href="#mb1b7b3c016" y="162.432"/>
      </g>
     </g>
     <g id="text_4">
      <!-- 15 -->
      <g transform="translate(276.922447 177.030437)scale(0.1 -0.1)">
       <use xlink:href="#DejaVuSans-49"/>
       <use x="63.623047" xlink:href="#DejaVuSans-53"/>
      </g>
     </g>
    </g>
    <g id="xtick_5">
     <g id="line2d_9">
      <path clip-path="url(#p10dc1a0ddf)" d="M 353.102383 162.432 
L 353.102383 41.472 
" style="fill:none;stroke:#b0b0b0;stroke-linecap:square;stroke-width:0.8;"/>
     </g>
     <g id="line2d_10">
      <g>
       <use style="stroke:#000000;stroke-width:0.8;" x="353.102383" xlink:href="#mb1b7b3c016" y="162.432"/>
      </g>
     </g>
     <g id="text_5">
      <!-- 20 -->
      <g transform="translate(346.739883 177.030437)scale(0.1 -0.1)">
       <defs>
        <path d="M 19.1875 8.296875 
L 53.609375 8.296875 
L 53.609375 0 
L 7.328125 0 
L 7.328125 8.296875 
Q 12.9375 14.109375 22.625 23.890625 
Q 32.328125 33.6875 34.8125 36.53125 
Q 39.546875 41.84375 41.421875 45.53125 
Q 43.3125 49.21875 43.3125 52.78125 
Q 43.3125 58.59375 39.234375 62.25 
Q 35.15625 65.921875 28.609375 65.921875 
Q 23.96875 65.921875 18.8125 64.3125 
Q 13.671875 62.703125 7.8125 59.421875 
L 7.8125 69.390625 
Q 13.765625 71.78125 18.9375 73 
Q 24.125 74.21875 28.421875 74.21875 
Q 39.75 74.21875 46.484375 68.546875 
Q 53.21875 62.890625 53.21875 53.421875 
Q 53.21875 48.921875 51.53125 44.890625 
Q 49.859375 40.875 45.40625 35.40625 
Q 44.1875 33.984375 37.640625 27.21875 
Q 31.109375 20.453125 19.1875 8.296875 
z
" id="DejaVuSans-50"/>
       </defs>
       <use xlink:href="#DejaVuSans-50"/>
       <use x="63.623047" xlink:href="#DejaVuSans-48"/>
      </g>
     </g>
    </g>
   </g>
   <g id="matplotlib.axis_2">
    <g id="ytick_1">
     <g id="line2d_11">
      <path clip-path="url(#p10dc1a0ddf)" d="M 57.6 151.007934 
L 414.72 151.007934 
" style="fill:none;stroke:#b0b0b0;stroke-linecap:square;stroke-width:0.8;"/>
     </g>
     <g id="line2d_12">
      <defs>
       <path d="M 0 0 
L -3.5 0 
" id="mf0fc2a2060" style="stroke:#000000;stroke-width:0.8;"/>
      </defs>
      <g>
       <use style="stroke:#000000;stroke-width:0.8;" x="57.6" xlink:href="#mf0fc2a2060" y="151.007934"/>
      </g>
     </g>
     <g id="text_6">
      <!-- 0.0 -->
      <g transform="translate(34.696875 154.807152)scale(0.1 -0.1)">
       <defs>
        <path d="M 10.6875 12.40625 
L 21 12.40625 
L 21 0 
L 10.6875 0 
z
" id="DejaVuSans-46"/>
       </defs>
       <use xlink:href="#DejaVuSans-48"/>
       <use x="63.623047" xlink:href="#DejaVuSans-46"/>
       <use x="95.410156" xlink:href="#DejaVuSans-48"/>
      </g>
     </g>
    </g>
    <g id="ytick_2">
     <g id="line2d_13">
      <path clip-path="url(#p10dc1a0ddf)" d="M 57.6 126.750431 
L 414.72 126.750431 
" style="fill:none;stroke:#b0b0b0;stroke-linecap:square;stroke-width:0.8;"/>
     </g>
     <g id="line2d_14">
      <g>
       <use style="stroke:#000000;stroke-width:0.8;" x="57.6" xlink:href="#mf0fc2a2060" y="126.750431"/>
      </g>
     </g>
     <g id="text_7">
      <!-- 0.2 -->
      <g transform="translate(34.696875 130.54965)scale(0.1 -0.1)">
       <use xlink:href="#DejaVuSans-48"/>
       <use x="63.623047" xlink:href="#DejaVuSans-46"/>
       <use x="95.410156" xlink:href="#DejaVuSans-50"/>
      </g>
     </g>
    </g>
    <g id="ytick_3">
     <g id="line2d_15">
      <path clip-path="url(#p10dc1a0ddf)" d="M 57.6 102.492928 
L 414.72 102.492928 
" style="fill:none;stroke:#b0b0b0;stroke-linecap:square;stroke-width:0.8;"/>
     </g>
     <g id="line2d_16">
      <g>
       <use style="stroke:#000000;stroke-width:0.8;" x="57.6" xlink:href="#mf0fc2a2060" y="102.492928"/>
      </g>
     </g>
     <g id="text_8">
      <!-- 0.4 -->
      <g transform="translate(34.696875 106.292147)scale(0.1 -0.1)">
       <defs>
        <path d="M 37.796875 64.3125 
L 12.890625 25.390625 
L 37.796875 25.390625 
z
M 35.203125 72.90625 
L 47.609375 72.90625 
L 47.609375 25.390625 
L 58.015625 25.390625 
L 58.015625 17.1875 
L 47.609375 17.1875 
L 47.609375 0 
L 37.796875 0 
L 37.796875 17.1875 
L 4.890625 17.1875 
L 4.890625 26.703125 
z
" id="DejaVuSans-52"/>
       </defs>
       <use xlink:href="#DejaVuSans-48"/>
       <use x="63.623047" xlink:href="#DejaVuSans-46"/>
       <use x="95.410156" xlink:href="#DejaVuSans-52"/>
      </g>
     </g>
    </g>
    <g id="ytick_4">
     <g id="line2d_17">
      <path clip-path="url(#p10dc1a0ddf)" d="M 57.6 78.235426 
L 414.72 78.235426 
" style="fill:none;stroke:#b0b0b0;stroke-linecap:square;stroke-width:0.8;"/>
     </g>
     <g id="line2d_18">
      <g>
       <use style="stroke:#000000;stroke-width:0.8;" x="57.6" xlink:href="#mf0fc2a2060" y="78.235426"/>
      </g>
     </g>
     <g id="text_9">
      <!-- 0.6 -->
      <g transform="translate(34.696875 82.034645)scale(0.1 -0.1)">
       <defs>
        <path d="M 33.015625 40.375 
Q 26.375 40.375 22.484375 35.828125 
Q 18.609375 31.296875 18.609375 23.390625 
Q 18.609375 15.53125 22.484375 10.953125 
Q 26.375 6.390625 33.015625 6.390625 
Q 39.65625 6.390625 43.53125 10.953125 
Q 47.40625 15.53125 47.40625 23.390625 
Q 47.40625 31.296875 43.53125 35.828125 
Q 39.65625 40.375 33.015625 40.375 
z
M 52.59375 71.296875 
L 52.59375 62.3125 
Q 48.875 64.0625 45.09375 64.984375 
Q 41.3125 65.921875 37.59375 65.921875 
Q 27.828125 65.921875 22.671875 59.328125 
Q 17.53125 52.734375 16.796875 39.40625 
Q 19.671875 43.65625 24.015625 45.921875 
Q 28.375 48.1875 33.59375 48.1875 
Q 44.578125 48.1875 50.953125 41.515625 
Q 57.328125 34.859375 57.328125 23.390625 
Q 57.328125 12.15625 50.6875 5.359375 
Q 44.046875 -1.421875 33.015625 -1.421875 
Q 20.359375 -1.421875 13.671875 8.265625 
Q 6.984375 17.96875 6.984375 36.375 
Q 6.984375 53.65625 15.1875 63.9375 
Q 23.390625 74.21875 37.203125 74.21875 
Q 40.921875 74.21875 44.703125 73.484375 
Q 48.484375 72.75 52.59375 71.296875 
z
" id="DejaVuSans-54"/>
       </defs>
       <use xlink:href="#DejaVuSans-48"/>
       <use x="63.623047" xlink:href="#DejaVuSans-46"/>
       <use x="95.410156" xlink:href="#DejaVuSans-54"/>
      </g>
     </g>
    </g>
    <g id="ytick_5">
     <g id="line2d_19">
      <path clip-path="url(#p10dc1a0ddf)" d="M 57.6 53.977923 
L 414.72 53.977923 
" style="fill:none;stroke:#b0b0b0;stroke-linecap:square;stroke-width:0.8;"/>
     </g>
     <g id="line2d_20">
      <g>
       <use style="stroke:#000000;stroke-width:0.8;" x="57.6" xlink:href="#mf0fc2a2060" y="53.977923"/>
      </g>
     </g>
     <g id="text_10">
      <!-- 0.8 -->
      <g transform="translate(34.696875 57.777142)scale(0.1 -0.1)">
       <defs>
        <path d="M 31.78125 34.625 
Q 24.75 34.625 20.71875 30.859375 
Q 16.703125 27.09375 16.703125 20.515625 
Q 16.703125 13.921875 20.71875 10.15625 
Q 24.75 6.390625 31.78125 6.390625 
Q 38.8125 6.390625 42.859375 10.171875 
Q 46.921875 13.96875 46.921875 20.515625 
Q 46.921875 27.09375 42.890625 30.859375 
Q 38.875 34.625 31.78125 34.625 
z
M 21.921875 38.8125 
Q 15.578125 40.375 12.03125 44.71875 
Q 8.5 49.078125 8.5 55.328125 
Q 8.5 64.0625 14.71875 69.140625 
Q 20.953125 74.21875 31.78125 74.21875 
Q 42.671875 74.21875 48.875 69.140625 
Q 55.078125 64.0625 55.078125 55.328125 
Q 55.078125 49.078125 51.53125 44.71875 
Q 48 40.375 41.703125 38.8125 
Q 48.828125 37.15625 52.796875 32.3125 
Q 56.78125 27.484375 56.78125 20.515625 
Q 56.78125 9.90625 50.3125 4.234375 
Q 43.84375 -1.421875 31.78125 -1.421875 
Q 19.734375 -1.421875 13.25 4.234375 
Q 6.78125 9.90625 6.78125 20.515625 
Q 6.78125 27.484375 10.78125 32.3125 
Q 14.796875 37.15625 21.921875 38.8125 
z
M 18.3125 54.390625 
Q 18.3125 48.734375 21.84375 45.5625 
Q 25.390625 42.390625 31.78125 42.390625 
Q 38.140625 42.390625 41.71875 45.5625 
Q 45.3125 48.734375 45.3125 54.390625 
Q 45.3125 60.0625 41.71875 63.234375 
Q 38.140625 66.40625 31.78125 66.40625 
Q 25.390625 66.40625 21.84375 63.234375 
Q 18.3125 60.0625 18.3125 54.390625 
z
" id="DejaVuSans-56"/>
       </defs>
       <use xlink:href="#DejaVuSans-48"/>
       <use x="63.623047" xlink:href="#DejaVuSans-46"/>
       <use x="95.410156" xlink:href="#DejaVuSans-56"/>
      </g>
     </g>
    </g>
    <g id="text_11">
     <!-- thigh angles, rad -->
     <g transform="translate(28.617187 144.351219)rotate(-90)scale(0.1 -0.1)">
      <defs>
       <path d="M 18.3125 70.21875 
L 18.3125 54.6875 
L 36.8125 54.6875 
L 36.8125 47.703125 
L 18.3125 47.703125 
L 18.3125 18.015625 
Q 18.3125 11.328125 20.140625 9.421875 
Q 21.96875 7.515625 27.59375 7.515625 
L 36.8125 7.515625 
L 36.8125 0 
L 27.59375 0 
Q 17.1875 0 13.234375 3.875 
Q 9.28125 7.765625 9.28125 18.015625 
L 9.28125 47.703125 
L 2.6875 47.703125 
L 2.6875 54.6875 
L 9.28125 54.6875 
L 9.28125 70.21875 
z
" id="DejaVuSans-116"/>
       <path d="M 54.890625 33.015625 
L 54.890625 0 
L 45.90625 0 
L 45.90625 32.71875 
Q 45.90625 40.484375 42.875 44.328125 
Q 39.84375 48.1875 33.796875 48.1875 
Q 26.515625 48.1875 22.3125 43.546875 
Q 18.109375 38.921875 18.109375 30.90625 
L 18.109375 0 
L 9.078125 0 
L 9.078125 75.984375 
L 18.109375 75.984375 
L 18.109375 46.1875 
Q 21.34375 51.125 25.703125 53.5625 
Q 30.078125 56 35.796875 56 
Q 45.21875 56 50.046875 50.171875 
Q 54.890625 44.34375 54.890625 33.015625 
z
" id="DejaVuSans-104"/>
       <path d="M 9.421875 54.6875 
L 18.40625 54.6875 
L 18.40625 0 
L 9.421875 0 
z
M 9.421875 75.984375 
L 18.40625 75.984375 
L 18.40625 64.59375 
L 9.421875 64.59375 
z
" id="DejaVuSans-105"/>
       <path d="M 45.40625 27.984375 
Q 45.40625 37.75 41.375 43.109375 
Q 37.359375 48.484375 30.078125 48.484375 
Q 22.859375 48.484375 18.828125 43.109375 
Q 14.796875 37.75 14.796875 27.984375 
Q 14.796875 18.265625 18.828125 12.890625 
Q 22.859375 7.515625 30.078125 7.515625 
Q 37.359375 7.515625 41.375 12.890625 
Q 45.40625 18.265625 45.40625 27.984375 
z
M 54.390625 6.78125 
Q 54.390625 -7.171875 48.1875 -13.984375 
Q 42 -20.796875 29.203125 -20.796875 
Q 24.46875 -20.796875 20.265625 -20.09375 
Q 16.0625 -19.390625 12.109375 -17.921875 
L 12.109375 -9.1875 
Q 16.0625 -11.328125 19.921875 -12.34375 
Q 23.78125 -13.375 27.78125 -13.375 
Q 36.625 -13.375 41.015625 -8.765625 
Q 45.40625 -4.15625 45.40625 5.171875 
L 45.40625 9.625 
Q 42.625 4.78125 38.28125 2.390625 
Q 33.9375 0 27.875 0 
Q 17.828125 0 11.671875 7.65625 
Q 5.515625 15.328125 5.515625 27.984375 
Q 5.515625 40.671875 11.671875 48.328125 
Q 17.828125 56 27.875 56 
Q 33.9375 56 38.28125 53.609375 
Q 42.625 51.21875 45.40625 46.390625 
L 45.40625 54.6875 
L 54.390625 54.6875 
z
" id="DejaVuSans-103"/>
       <path id="DejaVuSans-32"/>
       <path d="M 34.28125 27.484375 
Q 23.390625 27.484375 19.1875 25 
Q 14.984375 22.515625 14.984375 16.5 
Q 14.984375 11.71875 18.140625 8.90625 
Q 21.296875 6.109375 26.703125 6.109375 
Q 34.1875 6.109375 38.703125 11.40625 
Q 43.21875 16.703125 43.21875 25.484375 
L 43.21875 27.484375 
z
M 52.203125 31.203125 
L 52.203125 0 
L 43.21875 0 
L 43.21875 8.296875 
Q 40.140625 3.328125 35.546875 0.953125 
Q 30.953125 -1.421875 24.3125 -1.421875 
Q 15.921875 -1.421875 10.953125 3.296875 
Q 6 8.015625 6 15.921875 
Q 6 25.140625 12.171875 29.828125 
Q 18.359375 34.515625 30.609375 34.515625 
L 43.21875 34.515625 
L 43.21875 35.40625 
Q 43.21875 41.609375 39.140625 45 
Q 35.0625 48.390625 27.6875 48.390625 
Q 23 48.390625 18.546875 47.265625 
Q 14.109375 46.140625 10.015625 43.890625 
L 10.015625 52.203125 
Q 14.9375 54.109375 19.578125 55.046875 
Q 24.21875 56 28.609375 56 
Q 40.484375 56 46.34375 49.84375 
Q 52.203125 43.703125 52.203125 31.203125 
z
" id="DejaVuSans-97"/>
       <path d="M 54.890625 33.015625 
L 54.890625 0 
L 45.90625 0 
L 45.90625 32.71875 
Q 45.90625 40.484375 42.875 44.328125 
Q 39.84375 48.1875 33.796875 48.1875 
Q 26.515625 48.1875 22.3125 43.546875 
Q 18.109375 38.921875 18.109375 30.90625 
L 18.109375 0 
L 9.078125 0 
L 9.078125 54.6875 
L 18.109375 54.6875 
L 18.109375 46.1875 
Q 21.34375 51.125 25.703125 53.5625 
Q 30.078125 56 35.796875 56 
Q 45.21875 56 50.046875 50.171875 
Q 54.890625 44.34375 54.890625 33.015625 
z
" id="DejaVuSans-110"/>
       <path d="M 9.421875 75.984375 
L 18.40625 75.984375 
L 18.40625 0 
L 9.421875 0 
z
" id="DejaVuSans-108"/>
       <path d="M 56.203125 29.59375 
L 56.203125 25.203125 
L 14.890625 25.203125 
Q 15.484375 15.921875 20.484375 11.0625 
Q 25.484375 6.203125 34.421875 6.203125 
Q 39.59375 6.203125 44.453125 7.46875 
Q 49.3125 8.734375 54.109375 11.28125 
L 54.109375 2.78125 
Q 49.265625 0.734375 44.1875 -0.34375 
Q 39.109375 -1.421875 33.890625 -1.421875 
Q 20.796875 -1.421875 13.15625 6.1875 
Q 5.515625 13.8125 5.515625 26.8125 
Q 5.515625 40.234375 12.765625 48.109375 
Q 20.015625 56 32.328125 56 
Q 43.359375 56 49.78125 48.890625 
Q 56.203125 41.796875 56.203125 29.59375 
z
M 47.21875 32.234375 
Q 47.125 39.59375 43.09375 43.984375 
Q 39.0625 48.390625 32.421875 48.390625 
Q 24.90625 48.390625 20.390625 44.140625 
Q 15.875 39.890625 15.1875 32.171875 
z
" id="DejaVuSans-101"/>
       <path d="M 44.28125 53.078125 
L 44.28125 44.578125 
Q 40.484375 46.53125 36.375 47.5 
Q 32.28125 48.484375 27.875 48.484375 
Q 21.1875 48.484375 17.84375 46.4375 
Q 14.5 44.390625 14.5 40.28125 
Q 14.5 37.15625 16.890625 35.375 
Q 19.28125 33.59375 26.515625 31.984375 
L 29.59375 31.296875 
Q 39.15625 29.25 43.1875 25.515625 
Q 47.21875 21.78125 47.21875 15.09375 
Q 47.21875 7.46875 41.1875 3.015625 
Q 35.15625 -1.421875 24.609375 -1.421875 
Q 20.21875 -1.421875 15.453125 -0.5625 
Q 10.6875 0.296875 5.421875 2 
L 5.421875 11.28125 
Q 10.40625 8.6875 15.234375 7.390625 
Q 20.0625 6.109375 24.8125 6.109375 
Q 31.15625 6.109375 34.5625 8.28125 
Q 37.984375 10.453125 37.984375 14.40625 
Q 37.984375 18.0625 35.515625 20.015625 
Q 33.0625 21.96875 24.703125 23.78125 
L 21.578125 24.515625 
Q 13.234375 26.265625 9.515625 29.90625 
Q 5.8125 33.546875 5.8125 39.890625 
Q 5.8125 47.609375 11.28125 51.796875 
Q 16.75 56 26.8125 56 
Q 31.78125 56 36.171875 55.265625 
Q 40.578125 54.546875 44.28125 53.078125 
z
" id="DejaVuSans-115"/>
       <path d="M 11.71875 12.40625 
L 22.015625 12.40625 
L 22.015625 4 
L 14.015625 -11.625 
L 7.71875 -11.625 
L 11.71875 4 
z
" id="DejaVuSans-44"/>
       <path d="M 41.109375 46.296875 
Q 39.59375 47.171875 37.8125 47.578125 
Q 36.03125 48 33.890625 48 
Q 26.265625 48 22.1875 43.046875 
Q 18.109375 38.09375 18.109375 28.8125 
L 18.109375 0 
L 9.078125 0 
L 9.078125 54.6875 
L 18.109375 54.6875 
L 18.109375 46.1875 
Q 20.953125 51.171875 25.484375 53.578125 
Q 30.03125 56 36.53125 56 
Q 37.453125 56 38.578125 55.875 
Q 39.703125 55.765625 41.0625 55.515625 
z
" id="DejaVuSans-114"/>
       <path d="M 45.40625 46.390625 
L 45.40625 75.984375 
L 54.390625 75.984375 
L 54.390625 0 
L 45.40625 0 
L 45.40625 8.203125 
Q 42.578125 3.328125 38.25 0.953125 
Q 33.9375 -1.421875 27.875 -1.421875 
Q 17.96875 -1.421875 11.734375 6.484375 
Q 5.515625 14.40625 5.515625 27.296875 
Q 5.515625 40.1875 11.734375 48.09375 
Q 17.96875 56 27.875 56 
Q 33.9375 56 38.25 53.625 
Q 42.578125 51.265625 45.40625 46.390625 
z
M 14.796875 27.296875 
Q 14.796875 17.390625 18.875 11.75 
Q 22.953125 6.109375 30.078125 6.109375 
Q 37.203125 6.109375 41.296875 11.75 
Q 45.40625 17.390625 45.40625 27.296875 
Q 45.40625 37.203125 41.296875 42.84375 
Q 37.203125 48.484375 30.078125 48.484375 
Q 22.953125 48.484375 18.875 42.84375 
Q 14.796875 37.203125 14.796875 27.296875 
z
" id="DejaVuSans-100"/>
      </defs>
      <use xlink:href="#DejaVuSans-116"/>
      <use x="39.208984" xlink:href="#DejaVuSans-104"/>
      <use x="102.587891" xlink:href="#DejaVuSans-105"/>
      <use x="130.371094" xlink:href="#DejaVuSans-103"/>
      <use x="193.847656" xlink:href="#DejaVuSans-104"/>
      <use x="257.226562" xlink:href="#DejaVuSans-32"/>
      <use x="289.013672" xlink:href="#DejaVuSans-97"/>
      <use x="350.292969" xlink:href="#DejaVuSans-110"/>
      <use x="413.671875" xlink:href="#DejaVuSans-103"/>
      <use x="477.148438" xlink:href="#DejaVuSans-108"/>
      <use x="504.931641" xlink:href="#DejaVuSans-101"/>
      <use x="566.455078" xlink:href="#DejaVuSans-115"/>
      <use x="618.554688" xlink:href="#DejaVuSans-44"/>
      <use x="650.341797" xlink:href="#DejaVuSans-32"/>
      <use x="682.128906" xlink:href="#DejaVuSans-114"/>
      <use x="723.242188" xlink:href="#DejaVuSans-97"/>
      <use x="784.521484" xlink:href="#DejaVuSans-100"/>
     </g>
    </g>
   </g>
   <g id="line2d_21">
    <path clip-path="url(#p10dc1a0ddf)" d="M 73.832727 151.891657 
L 75.23033 144.114894 
L 75.935671 136.338132 
L 77.326396 120.784607 
L 79.426357 96.747341 
L 80.1251 89.677557 
L 82.916326 69.528672 
L 85.003853 58.923996 
L 88.497458 51.500723 
L 89.197965 51.500723 
L 89.896006 51.500723 
L 91.297024 54.328637 
L 94.084106 70.942629 
L 96.877959 94.979895 
L 97.574115 100.989211 
L 103.862353 136.338132 
L 106.651718 106.998528 
L 107.351117 99.575255 
L 108.052144 92.50547 
L 108.747255 86.142665 
L 114.337309 52.91468 
L 116.425494 51.500723 
L 117.817787 51.500723 
L 127.600122 123.96601 
L 128.293009 131.389283 
L 128.997641 138.105578 
L 129.687119 145.175362 
L 130.394601 148.710254 
L 131.79019 137.04511 
L 134.583081 107.352017 
L 140.165095 61.75191 
L 141.563739 55.742593 
L 145.047247 51.500723 
L 145.754299 51.500723 
L 148.5478 61.75191 
L 152.735504 94.272916 
L 159.711105 137.04511 
L 160.415122 127.147412 
L 161.105798 119.724139 
L 165.29802 80.840327 
L 166.698262 70.58914 
L 168.789687 58.570507 
L 173.673394 51.500723 
L 179.262755 81.900794 
L 188.341697 127.854391 
L 189.039517 119.37065 
L 189.739745 113.361333 
L 190.431171 107.705506 
L 193.922519 75.891478 
L 194.62292 70.942629 
L 199.506264 51.500723 
L 200.20782 51.500723 
L 204.391299 61.398421 
L 206.491137 75.891478 
L 207.19203 81.193816 
L 216.269587 127.854391 
L 216.969046 119.724139 
L 220.454717 86.142665 
L 222.546099 70.235651 
L 227.432249 51.500723 
L 228.827681 51.500723 
L 229.526161 51.500723 
L 234.421161 75.1845 
L 236.515016 94.272916 
L 237.208416 100.282233 
L 237.911893 108.058995 
L 242.792081 146.235829 
L 244.192939 128.20788 
L 246.289158 108.058995 
L 249.079033 81.193816 
L 252.565317 58.923996 
L 263.740132 87.556622 
L 264.434523 93.919427 
L 270.020452 148.356764 
L 270.730837 146.235829 
L 279.79552 62.105399 
L 280.496247 58.923996 
L 284.681617 51.147234 
L 286.086501 51.147234 
L 290.273123 75.537989 
L 290.97335 81.193816 
L 296.553493 137.398599 
L 298.657343 146.235829 
L 302.843582 100.282233 
L 303.540354 93.212449 
L 309.119654 55.742593 
L 318.197291 75.1845 
L 320.294389 93.919427 
L 323.084087 122.198563 
L 326.572555 146.235829 
L 330.067592 108.412485 
L 330.769141 100.989211 
L 331.460993 93.919427 
L 334.958526 65.99378 
L 344.031582 61.044931 
L 344.732073 65.640291 
L 350.31115 114.421801 
L 353.805854 148.003275 
L 354.503621 146.942808 
L 355.19749 138.812556 
L 357.999081 108.412485 
L 360.088415 86.849643 
L 362.87848 66.347269 
L 364.278836 58.923996 
L 364.972725 56.096083 
L 369.16701 51.500723 
L 373.35821 69.882161 
L 374.054532 74.83101 
L 374.747163 80.840327 
L 378.94059 121.845074 
L 380.334547 136.691621 
L 381.036842 144.114894 
L 388.711636 81.547305 
L 389.409114 76.951946 
L 390.114651 70.942629 
L 396.399403 51.147234 
L 397.78795 51.147234 
L 398.487273 53.975147 
" style="fill:none;stroke:#1f77b4;stroke-linecap:square;stroke-width:1.5;"/>
   </g>
   <g id="line2d_22">
    <path clip-path="url(#p10dc1a0ddf)" d="M 73.832727 148.602559 
L 75.23033 136.746374 
L 75.935671 128.9146 
L 77.326396 113.600884 
L 79.426357 92.002345 
L 80.1251 85.428078 
L 82.916326 63.408605 
L 85.003853 52.505426 
L 88.497458 47.312393 
L 89.197965 48.355927 
L 89.896006 50.080656 
L 91.297024 55.531778 
L 94.084106 73.471704 
L 96.877959 98.905142 
L 97.574115 106.079868 
L 103.862353 129.075652 
L 106.651718 99.085969 
L 107.351117 92.160675 
L 108.052144 85.557041 
L 108.747255 79.387814 
L 114.337309 48.380446 
L 116.425494 47.299482 
L 117.817787 50.023767 
L 127.600122 128.783647 
L 128.293009 136.479736 
L 128.997641 143.964318 
L 129.687119 148.593063 
L 130.394601 144.333037 
L 131.79019 129.223843 
L 134.583081 99.184893 
L 140.165095 55.659868 
L 141.563739 50.166721 
L 145.047247 48.291222 
L 145.754299 50.010254 
L 148.5478 63.249943 
L 152.735504 98.655237 
L 159.711105 129.449262 
L 160.415122 121.63193 
L 161.105798 114.07682 
L 165.29802 73.850978 
L 166.698262 63.678039 
L 168.789687 52.653158 
L 173.673394 49.946197 
L 179.262755 85.044805 
L 188.341697 121.792784 
L 189.039517 114.157119 
L 189.739745 106.679809 
L 190.431171 99.531488 
L 193.922519 68.631935 
L 194.62292 63.78564 
L 199.506264 46.970182 
L 200.20782 47.260687 
L 204.391299 63.000871 
L 206.491137 78.757453 
L 207.19203 84.936758 
L 216.269587 121.939124 
L 216.969046 114.282835 
L 220.454717 79.879286 
L 222.546099 63.903204 
L 227.432249 46.971737 
L 228.827681 48.209229 
L 229.526161 49.861519 
L 234.421161 78.66285 
L 236.515016 98.212565 
L 237.208416 105.332072 
L 237.911893 112.804299 
L 242.792081 137.680183 
L 244.192939 122.135581 
L 246.289158 99.778096 
L 249.079033 74.1899 
L 252.565317 52.843642 
L 263.740132 91.166731 
L 264.434523 97.99488 
L 270.020452 145.09476 
L 270.730837 137.706292 
L 279.79552 56.027553 
L 280.496247 52.884695 
L 284.681617 48.156581 
L 286.086501 52.106374 
L 290.273123 78.405241 
L 290.97335 84.554244 
L 296.553493 143.051245 
L 298.657343 137.866238 
L 302.843582 93.08756 
L 303.540354 86.474482 
L 309.119654 50.444509 
L 318.197291 78.261404 
L 320.294389 97.769685 
L 323.084087 127.625347 
L 326.572555 138.149496 
L 330.067592 100.235823 
L 330.769141 93.239384 
L 331.460993 86.663961 
L 334.958526 59.89429 
L 344.031582 62.584602 
L 344.732073 67.289144 
L 350.31115 119.716875 
L 353.805854 145.445975 
L 354.503621 138.259499 
L 355.19749 130.580968 
L 357.999081 100.334128 
L 360.088415 80.503036 
L 362.87848 60.01768 
L 364.278836 53.050434 
L 364.972725 50.53613 
L 369.16701 49.679585 
L 373.35821 72.392407 
L 374.054532 78.049727 
L 374.747163 84.105251 
L 378.94059 127.338392 
L 380.334547 142.617505 
L 381.036842 148.323362 
L 388.711636 74.778201 
L 389.409114 69.376521 
L 390.114651 64.419968 
L 396.399403 48.072145 
L 397.78795 51.871303 
L 398.487273 54.768868 
" style="fill:none;stroke:#ff7f0e;stroke-linecap:square;stroke-width:1.5;"/>
   </g>
   <g id="line2d_23">
    <path clip-path="url(#p10dc1a0ddf)" d="M 73.832727 147.718836 
L 75.23033 143.639414 
L 75.935671 143.584402 
L 77.326396 143.824211 
L 79.426357 146.262938 
L 80.1251 146.758455 
L 82.916326 144.887867 
L 85.003853 144.589364 
L 88.497458 146.819604 
L 89.197965 147.863137 
L 89.896006 149.587867 
L 91.297024 152.211075 
L 94.084106 153.537008 
L 96.877959 154.933181 
L 97.574115 156.098591 
L 103.862353 143.745454 
L 106.651718 143.095374 
L 107.351117 143.593354 
L 108.052144 144.059504 
L 108.747255 144.253083 
L 114.337309 146.4737 
L 116.425494 146.806692 
L 117.817787 149.530978 
L 127.600122 155.825571 
L 128.293009 156.098387 
L 128.997641 156.866674 
L 129.687119 154.425635 
L 130.394601 146.630717 
L 131.79019 143.186667 
L 134.583081 142.840809 
L 140.165095 144.915892 
L 141.563739 145.432061 
L 145.047247 147.798433 
L 145.754299 149.517464 
L 148.5478 152.505967 
L 152.735504 155.390254 
L 159.711105 143.412086 
L 160.415122 145.492451 
L 161.105798 145.360614 
L 165.29802 144.018585 
L 166.698262 144.096833 
L 168.789687 145.090585 
L 173.673394 149.453408 
L 179.262755 154.151945 
L 188.341697 144.946327 
L 189.039517 145.794402 
L 189.739745 144.326409 
L 190.431171 142.833916 
L 193.922519 143.748391 
L 194.62292 143.850945 
L 199.506264 146.477392 
L 200.20782 146.767898 
L 204.391299 152.610384 
L 206.491137 153.873908 
L 207.19203 154.750876 
L 216.269587 145.092666 
L 216.969046 145.56663 
L 220.454717 144.744554 
L 222.546099 144.675487 
L 227.432249 146.478948 
L 228.827681 147.716439 
L 229.526161 149.368729 
L 234.421161 154.486284 
L 236.515016 154.947582 
L 237.208416 156.057772 
L 237.911893 155.753237 
L 242.792081 142.452288 
L 244.192939 144.935635 
L 246.289158 142.727034 
L 249.079033 144.004017 
L 252.565317 144.92758 
L 263.740132 154.618042 
L 264.434523 155.083386 
L 270.020452 147.745929 
L 270.730837 142.478396 
L 279.79552 144.930088 
L 280.496247 144.968633 
L 284.681617 148.017281 
L 286.086501 151.967074 
L 290.273123 153.875186 
L 290.97335 154.368362 
L 296.553493 156.660579 
L 298.657343 142.638342 
L 302.843582 143.813261 
L 303.540354 144.269966 
L 309.119654 145.709849 
L 318.197291 154.084838 
L 320.294389 154.858191 
L 323.084087 156.434717 
L 326.572555 142.9216 
L 330.067592 142.831272 
L 330.769141 143.258106 
L 331.460993 143.752467 
L 334.958526 144.908443 
L 344.031582 152.547604 
L 344.732073 152.656786 
L 350.31115 156.303007 
L 353.805854 148.450633 
L 354.503621 142.324625 
L 355.19749 142.776346 
L 357.999081 142.929577 
L 360.088415 144.661327 
L 362.87848 144.678344 
L 364.278836 145.134372 
L 364.972725 145.447981 
L 369.16701 149.186796 
L 373.35821 153.518179 
L 374.054532 154.22665 
L 374.747163 154.272858 
L 378.94059 156.501251 
L 380.334547 156.933818 
L 381.036842 155.216402 
L 388.711636 144.238829 
L 389.409114 143.432509 
L 390.114651 144.485272 
L 396.399403 147.932844 
L 397.78795 151.732003 
L 398.487273 151.801654 
" style="fill:none;stroke:#2ca02c;stroke-linecap:square;stroke-width:1.5;"/>
   </g>
   <g id="patch_3">
    <path d="M 57.6 162.432 
L 57.6 41.472 
" style="fill:none;stroke:#000000;stroke-linecap:square;stroke-linejoin:miter;stroke-width:0.8;"/>
   </g>
   <g id="patch_4">
    <path d="M 414.72 162.432 
L 414.72 41.472 
" style="fill:none;stroke:#000000;stroke-linecap:square;stroke-linejoin:miter;stroke-width:0.8;"/>
   </g>
   <g id="patch_5">
    <path d="M 57.6 162.432 
L 414.72 162.432 
" style="fill:none;stroke:#000000;stroke-linecap:square;stroke-linejoin:miter;stroke-width:0.8;"/>
   </g>
   <g id="patch_6">
    <path d="M 57.6 41.472 
L 414.72 41.472 
" style="fill:none;stroke:#000000;stroke-linecap:square;stroke-linejoin:miter;stroke-width:0.8;"/>
   </g>
   <g id="legend_1">
    <g id="patch_7">
     <path d="M 346.660625 125.747312 
L 407.72 125.747312 
Q 409.72 125.747312 409.72 123.747312 
L 409.72 80.156687 
Q 409.72 78.156687 407.72 78.156687 
L 346.660625 78.156687 
Q 344.660625 78.156687 344.660625 80.156687 
L 344.660625 123.747312 
Q 344.660625 125.747312 346.660625 125.747312 
z
" style="fill:#ffffff;opacity:0.8;stroke:#cccccc;stroke-linejoin:miter;"/>
    </g>
    <g id="line2d_24">
     <path d="M 348.660625 86.255125 
L 368.660625 86.255125 
" style="fill:none;stroke:#1f77b4;stroke-linecap:square;stroke-width:1.5;"/>
    </g>
    <g id="line2d_25"/>
    <g id="text_12">
     <!-- q_cur -->
     <g transform="translate(376.660625 89.755125)scale(0.1 -0.1)">
      <defs>
       <path d="M 14.796875 27.296875 
Q 14.796875 17.390625 18.875 11.75 
Q 22.953125 6.109375 30.078125 6.109375 
Q 37.203125 6.109375 41.296875 11.75 
Q 45.40625 17.390625 45.40625 27.296875 
Q 45.40625 37.203125 41.296875 42.84375 
Q 37.203125 48.484375 30.078125 48.484375 
Q 22.953125 48.484375 18.875 42.84375 
Q 14.796875 37.203125 14.796875 27.296875 
z
M 45.40625 8.203125 
Q 42.578125 3.328125 38.25 0.953125 
Q 33.9375 -1.421875 27.875 -1.421875 
Q 17.96875 -1.421875 11.734375 6.484375 
Q 5.515625 14.40625 5.515625 27.296875 
Q 5.515625 40.1875 11.734375 48.09375 
Q 17.96875 56 27.875 56 
Q 33.9375 56 38.25 53.625 
Q 42.578125 51.265625 45.40625 46.390625 
L 45.40625 54.6875 
L 54.390625 54.6875 
L 54.390625 -20.796875 
L 45.40625 -20.796875 
z
" id="DejaVuSans-113"/>
       <path d="M 50.984375 -16.609375 
L 50.984375 -23.578125 
L -0.984375 -23.578125 
L -0.984375 -16.609375 
z
" id="DejaVuSans-95"/>
       <path d="M 48.78125 52.59375 
L 48.78125 44.1875 
Q 44.96875 46.296875 41.140625 47.34375 
Q 37.3125 48.390625 33.40625 48.390625 
Q 24.65625 48.390625 19.8125 42.84375 
Q 14.984375 37.3125 14.984375 27.296875 
Q 14.984375 17.28125 19.8125 11.734375 
Q 24.65625 6.203125 33.40625 6.203125 
Q 37.3125 6.203125 41.140625 7.25 
Q 44.96875 8.296875 48.78125 10.40625 
L 48.78125 2.09375 
Q 45.015625 0.34375 40.984375 -0.53125 
Q 36.96875 -1.421875 32.421875 -1.421875 
Q 20.0625 -1.421875 12.78125 6.34375 
Q 5.515625 14.109375 5.515625 27.296875 
Q 5.515625 40.671875 12.859375 48.328125 
Q 20.21875 56 33.015625 56 
Q 37.15625 56 41.109375 55.140625 
Q 45.0625 54.296875 48.78125 52.59375 
z
" id="DejaVuSans-99"/>
       <path d="M 8.5 21.578125 
L 8.5 54.6875 
L 17.484375 54.6875 
L 17.484375 21.921875 
Q 17.484375 14.15625 20.5 10.265625 
Q 23.53125 6.390625 29.59375 6.390625 
Q 36.859375 6.390625 41.078125 11.03125 
Q 45.3125 15.671875 45.3125 23.6875 
L 45.3125 54.6875 
L 54.296875 54.6875 
L 54.296875 0 
L 45.3125 0 
L 45.3125 8.40625 
Q 42.046875 3.421875 37.71875 1 
Q 33.40625 -1.421875 27.6875 -1.421875 
Q 18.265625 -1.421875 13.375 4.4375 
Q 8.5 10.296875 8.5 21.578125 
z
M 31.109375 56 
z
" id="DejaVuSans-117"/>
      </defs>
      <use xlink:href="#DejaVuSans-113"/>
      <use x="63.476562" xlink:href="#DejaVuSans-95"/>
      <use x="113.476562" xlink:href="#DejaVuSans-99"/>
      <use x="168.457031" xlink:href="#DejaVuSans-117"/>
      <use x="231.835938" xlink:href="#DejaVuSans-114"/>
     </g>
    </g>
    <g id="line2d_26">
     <path d="M 348.660625 101.211375 
L 368.660625 101.211375 
" style="fill:none;stroke:#ff7f0e;stroke-linecap:square;stroke-width:1.5;"/>
    </g>
    <g id="line2d_27"/>
    <g id="text_13">
     <!-- q_des -->
     <g transform="translate(376.660625 104.711375)scale(0.1 -0.1)">
      <use xlink:href="#DejaVuSans-113"/>
      <use x="63.476562" xlink:href="#DejaVuSans-95"/>
      <use x="113.476562" xlink:href="#DejaVuSans-100"/>
      <use x="176.953125" xlink:href="#DejaVuSans-101"/>
      <use x="238.476562" xlink:href="#DejaVuSans-115"/>
     </g>
    </g>
    <g id="line2d_28">
     <path d="M 348.660625 116.167625 
L 368.660625 116.167625 
" style="fill:none;stroke:#2ca02c;stroke-linecap:square;stroke-width:1.5;"/>
    </g>
    <g id="line2d_29"/>
    <g id="text_14">
     <!-- error -->
     <g transform="translate(376.660625 119.667625)scale(0.1 -0.1)">
      <defs>
       <path d="M 30.609375 48.390625 
Q 23.390625 48.390625 19.1875 42.75 
Q 14.984375 37.109375 14.984375 27.296875 
Q 14.984375 17.484375 19.15625 11.84375 
Q 23.34375 6.203125 30.609375 6.203125 
Q 37.796875 6.203125 41.984375 11.859375 
Q 46.1875 17.53125 46.1875 27.296875 
Q 46.1875 37.015625 41.984375 42.703125 
Q 37.796875 48.390625 30.609375 48.390625 
z
M 30.609375 56 
Q 42.328125 56 49.015625 48.375 
Q 55.71875 40.765625 55.71875 27.296875 
Q 55.71875 13.875 49.015625 6.21875 
Q 42.328125 -1.421875 30.609375 -1.421875 
Q 18.84375 -1.421875 12.171875 6.21875 
Q 5.515625 13.875 5.515625 27.296875 
Q 5.515625 40.765625 12.171875 48.375 
Q 18.84375 56 30.609375 56 
z
" id="DejaVuSans-111"/>
      </defs>
      <use xlink:href="#DejaVuSans-101"/>
      <use x="61.523438" xlink:href="#DejaVuSans-114"/>
      <use x="100.886719" xlink:href="#DejaVuSans-114"/>
      <use x="139.75" xlink:href="#DejaVuSans-111"/>
      <use x="200.931641" xlink:href="#DejaVuSans-114"/>
     </g>
    </g>
   </g>
  </g>
  <g id="axes_2">
   <g id="patch_8">
    <path d="M 57.6 307.584 
L 414.72 307.584 
L 414.72 186.624 
L 57.6 186.624 
z
" style="fill:#ffffff;"/>
   </g>
   <g id="matplotlib.axis_3">
    <g id="xtick_6">
     <g id="line2d_30">
      <path clip-path="url(#pc46d54475e)" d="M 73.832637 307.584 
L 73.832637 186.624 
" style="fill:none;stroke:#b0b0b0;stroke-linecap:square;stroke-width:0.8;"/>
     </g>
     <g id="line2d_31">
      <g>
       <use style="stroke:#000000;stroke-width:0.8;" x="73.832637" xlink:href="#mb1b7b3c016" y="307.584"/>
      </g>
     </g>
     <g id="text_15">
      <!-- 0 -->
      <g transform="translate(70.651387 322.182437)scale(0.1 -0.1)">
       <use xlink:href="#DejaVuSans-48"/>
      </g>
     </g>
    </g>
    <g id="xtick_7">
     <g id="line2d_32">
      <path clip-path="url(#pc46d54475e)" d="M 143.650074 307.584 
L 143.650074 186.624 
" style="fill:none;stroke:#b0b0b0;stroke-linecap:square;stroke-width:0.8;"/>
     </g>
     <g id="line2d_33">
      <g>
       <use style="stroke:#000000;stroke-width:0.8;" x="143.650074" xlink:href="#mb1b7b3c016" y="307.584"/>
      </g>
     </g>
     <g id="text_16">
      <!-- 5 -->
      <g transform="translate(140.468824 322.182437)scale(0.1 -0.1)">
       <use xlink:href="#DejaVuSans-53"/>
      </g>
     </g>
    </g>
    <g id="xtick_8">
     <g id="line2d_34">
      <path clip-path="url(#pc46d54475e)" d="M 213.46751 307.584 
L 213.46751 186.624 
" style="fill:none;stroke:#b0b0b0;stroke-linecap:square;stroke-width:0.8;"/>
     </g>
     <g id="line2d_35">
      <g>
       <use style="stroke:#000000;stroke-width:0.8;" x="213.46751" xlink:href="#mb1b7b3c016" y="307.584"/>
      </g>
     </g>
     <g id="text_17">
      <!-- 10 -->
      <g transform="translate(207.10501 322.182437)scale(0.1 -0.1)">
       <use xlink:href="#DejaVuSans-49"/>
       <use x="63.623047" xlink:href="#DejaVuSans-48"/>
      </g>
     </g>
    </g>
    <g id="xtick_9">
     <g id="line2d_36">
      <path clip-path="url(#pc46d54475e)" d="M 283.284947 307.584 
L 283.284947 186.624 
" style="fill:none;stroke:#b0b0b0;stroke-linecap:square;stroke-width:0.8;"/>
     </g>
     <g id="line2d_37">
      <g>
       <use style="stroke:#000000;stroke-width:0.8;" x="283.284947" xlink:href="#mb1b7b3c016" y="307.584"/>
      </g>
     </g>
     <g id="text_18">
      <!-- 15 -->
      <g transform="translate(276.922447 322.182437)scale(0.1 -0.1)">
       <use xlink:href="#DejaVuSans-49"/>
       <use x="63.623047" xlink:href="#DejaVuSans-53"/>
      </g>
     </g>
    </g>
    <g id="xtick_10">
     <g id="line2d_38">
      <path clip-path="url(#pc46d54475e)" d="M 353.102383 307.584 
L 353.102383 186.624 
" style="fill:none;stroke:#b0b0b0;stroke-linecap:square;stroke-width:0.8;"/>
     </g>
     <g id="line2d_39">
      <g>
       <use style="stroke:#000000;stroke-width:0.8;" x="353.102383" xlink:href="#mb1b7b3c016" y="307.584"/>
      </g>
     </g>
     <g id="text_19">
      <!-- 20 -->
      <g transform="translate(346.739883 322.182437)scale(0.1 -0.1)">
       <use xlink:href="#DejaVuSans-50"/>
       <use x="63.623047" xlink:href="#DejaVuSans-48"/>
      </g>
     </g>
    </g>
    <g id="text_20">
     <!-- time, sec -->
     <g transform="translate(213.255313 335.860562)scale(0.1 -0.1)">
      <defs>
       <path d="M 52 44.1875 
Q 55.375 50.25 60.0625 53.125 
Q 64.75 56 71.09375 56 
Q 79.640625 56 84.28125 50.015625 
Q 88.921875 44.046875 88.921875 33.015625 
L 88.921875 0 
L 79.890625 0 
L 79.890625 32.71875 
Q 79.890625 40.578125 77.09375 44.375 
Q 74.3125 48.1875 68.609375 48.1875 
Q 61.625 48.1875 57.5625 43.546875 
Q 53.515625 38.921875 53.515625 30.90625 
L 53.515625 0 
L 44.484375 0 
L 44.484375 32.71875 
Q 44.484375 40.625 41.703125 44.40625 
Q 38.921875 48.1875 33.109375 48.1875 
Q 26.21875 48.1875 22.15625 43.53125 
Q 18.109375 38.875 18.109375 30.90625 
L 18.109375 0 
L 9.078125 0 
L 9.078125 54.6875 
L 18.109375 54.6875 
L 18.109375 46.1875 
Q 21.1875 51.21875 25.484375 53.609375 
Q 29.78125 56 35.6875 56 
Q 41.65625 56 45.828125 52.96875 
Q 50 49.953125 52 44.1875 
z
" id="DejaVuSans-109"/>
      </defs>
      <use xlink:href="#DejaVuSans-116"/>
      <use x="39.208984" xlink:href="#DejaVuSans-105"/>
      <use x="66.992188" xlink:href="#DejaVuSans-109"/>
      <use x="164.404297" xlink:href="#DejaVuSans-101"/>
      <use x="225.927734" xlink:href="#DejaVuSans-44"/>
      <use x="257.714844" xlink:href="#DejaVuSans-32"/>
      <use x="289.501953" xlink:href="#DejaVuSans-115"/>
      <use x="341.601562" xlink:href="#DejaVuSans-101"/>
      <use x="403.125" xlink:href="#DejaVuSans-99"/>
     </g>
    </g>
   </g>
   <g id="matplotlib.axis_4">
    <g id="ytick_6">
     <g id="line2d_40">
      <path clip-path="url(#pc46d54475e)" d="M 57.6 288.057002 
L 414.72 288.057002 
" style="fill:none;stroke:#b0b0b0;stroke-linecap:square;stroke-width:0.8;"/>
     </g>
     <g id="line2d_41">
      <g>
       <use style="stroke:#000000;stroke-width:0.8;" x="57.6" xlink:href="#mf0fc2a2060" y="288.057002"/>
      </g>
     </g>
     <g id="text_21">
      <!-- −1.5 -->
      <g transform="translate(26.317187 291.856221)scale(0.1 -0.1)">
       <defs>
        <path d="M 10.59375 35.5 
L 73.1875 35.5 
L 73.1875 27.203125 
L 10.59375 27.203125 
z
" id="DejaVuSans-8722"/>
       </defs>
       <use xlink:href="#DejaVuSans-8722"/>
       <use x="83.789062" xlink:href="#DejaVuSans-49"/>
       <use x="147.412109" xlink:href="#DejaVuSans-46"/>
       <use x="179.199219" xlink:href="#DejaVuSans-53"/>
      </g>
     </g>
    </g>
    <g id="ytick_7">
     <g id="line2d_42">
      <path clip-path="url(#pc46d54475e)" d="M 57.6 258.280671 
L 414.72 258.280671 
" style="fill:none;stroke:#b0b0b0;stroke-linecap:square;stroke-width:0.8;"/>
     </g>
     <g id="line2d_43">
      <g>
       <use style="stroke:#000000;stroke-width:0.8;" x="57.6" xlink:href="#mf0fc2a2060" y="258.280671"/>
      </g>
     </g>
     <g id="text_22">
      <!-- −1.0 -->
      <g transform="translate(26.317187 262.07989)scale(0.1 -0.1)">
       <use xlink:href="#DejaVuSans-8722"/>
       <use x="83.789062" xlink:href="#DejaVuSans-49"/>
       <use x="147.412109" xlink:href="#DejaVuSans-46"/>
       <use x="179.199219" xlink:href="#DejaVuSans-48"/>
      </g>
     </g>
    </g>
    <g id="ytick_8">
     <g id="line2d_44">
      <path clip-path="url(#pc46d54475e)" d="M 57.6 228.50434 
L 414.72 228.50434 
" style="fill:none;stroke:#b0b0b0;stroke-linecap:square;stroke-width:0.8;"/>
     </g>
     <g id="line2d_45">
      <g>
       <use style="stroke:#000000;stroke-width:0.8;" x="57.6" xlink:href="#mf0fc2a2060" y="228.50434"/>
      </g>
     </g>
     <g id="text_23">
      <!-- −0.5 -->
      <g transform="translate(26.317187 232.303558)scale(0.1 -0.1)">
       <use xlink:href="#DejaVuSans-8722"/>
       <use x="83.789062" xlink:href="#DejaVuSans-48"/>
       <use x="147.412109" xlink:href="#DejaVuSans-46"/>
       <use x="179.199219" xlink:href="#DejaVuSans-53"/>
      </g>
     </g>
    </g>
    <g id="ytick_9">
     <g id="line2d_46">
      <path clip-path="url(#pc46d54475e)" d="M 57.6 198.728008 
L 414.72 198.728008 
" style="fill:none;stroke:#b0b0b0;stroke-linecap:square;stroke-width:0.8;"/>
     </g>
     <g id="line2d_47">
      <g>
       <use style="stroke:#000000;stroke-width:0.8;" x="57.6" xlink:href="#mf0fc2a2060" y="198.728008"/>
      </g>
     </g>
     <g id="text_24">
      <!-- 0.0 -->
      <g transform="translate(34.696875 202.527227)scale(0.1 -0.1)">
       <use xlink:href="#DejaVuSans-48"/>
       <use x="63.623047" xlink:href="#DejaVuSans-46"/>
       <use x="95.410156" xlink:href="#DejaVuSans-48"/>
      </g>
     </g>
    </g>
    <g id="text_25">
     <!-- knee angles, rad -->
     <g transform="translate(20.2375 288.859469)rotate(-90)scale(0.1 -0.1)">
      <defs>
       <path d="M 9.078125 75.984375 
L 18.109375 75.984375 
L 18.109375 31.109375 
L 44.921875 54.6875 
L 56.390625 54.6875 
L 27.390625 29.109375 
L 57.625 0 
L 45.90625 0 
L 18.109375 26.703125 
L 18.109375 0 
L 9.078125 0 
z
" id="DejaVuSans-107"/>
      </defs>
      <use xlink:href="#DejaVuSans-107"/>
      <use x="57.910156" xlink:href="#DejaVuSans-110"/>
      <use x="121.289062" xlink:href="#DejaVuSans-101"/>
      <use x="182.8125" xlink:href="#DejaVuSans-101"/>
      <use x="244.335938" xlink:href="#DejaVuSans-32"/>
      <use x="276.123047" xlink:href="#DejaVuSans-97"/>
      <use x="337.402344" xlink:href="#DejaVuSans-110"/>
      <use x="400.78125" xlink:href="#DejaVuSans-103"/>
      <use x="464.257812" xlink:href="#DejaVuSans-108"/>
      <use x="492.041016" xlink:href="#DejaVuSans-101"/>
      <use x="553.564453" xlink:href="#DejaVuSans-115"/>
      <use x="605.664062" xlink:href="#DejaVuSans-44"/>
      <use x="637.451172" xlink:href="#DejaVuSans-32"/>
      <use x="669.238281" xlink:href="#DejaVuSans-114"/>
      <use x="710.351562" xlink:href="#DejaVuSans-97"/>
      <use x="771.630859" xlink:href="#DejaVuSans-100"/>
     </g>
    </g>
   </g>
   <g id="line2d_48">
    <path clip-path="url(#pc46d54475e)" d="M 73.832727 198.438734 
L 75.23033 208.274063 
L 75.935671 215.795198 
L 77.326396 229.333239 
L 79.426357 251.896642 
L 80.1251 258.607808 
L 82.916326 281.74976 
L 85.003853 293.899285 
L 88.497458 300.379031 
L 89.197965 300.379031 
L 89.896006 300.263321 
L 91.297024 296.560609 
L 94.084106 280.592662 
L 96.877959 257.335001 
L 97.574115 250.276706 
L 103.862353 216.489456 
L 106.651718 245.879735 
L 107.351117 252.590901 
L 108.052144 259.070647 
L 108.747255 265.318974 
L 114.337309 298.064836 
L 116.425494 300.379031 
L 117.817787 300.147612 
L 127.600122 228.638981 
L 128.293009 221.464976 
L 128.997641 214.406681 
L 129.687119 206.885546 
L 130.394601 206.075578 
L 131.79019 215.910907 
L 134.583081 245.995445 
L 140.165095 290.080863 
L 141.563739 296.09777 
L 145.047247 300.031902 
L 145.754299 300.031902 
L 148.5478 289.618024 
L 152.735504 257.450711 
L 159.711105 216.142327 
L 160.415122 224.1263 
L 161.105798 230.721757 
L 165.29802 270.757333 
L 166.698262 281.51834 
L 168.789687 293.205026 
L 173.673394 300.031902 
L 179.262755 269.947365 
L 188.341697 223.432042 
L 189.039517 230.721757 
L 189.739745 238.358601 
L 190.431171 245.301186 
L 193.922519 276.195692 
L 194.62292 281.63405 
L 199.506264 300.379031 
L 200.20782 300.379031 
L 204.391299 289.849443 
L 206.491137 275.501433 
L 207.19203 270.178784 
L 216.269587 222.969203 
L 216.969046 230.953176 
L 220.454717 264.856135 
L 222.546099 281.286921 
L 227.432249 300.263321 
L 228.827681 300.263321 
L 229.526161 300.147612 
L 234.421161 275.964272 
L 236.515016 257.450711 
L 237.208416 251.086674 
L 237.911893 244.028379 
L 242.792081 209.084032 
L 244.192939 222.853493 
L 246.289158 244.838347 
L 249.079033 270.410204 
L 252.565317 293.205026 
L 263.740132 264.277586 
L 264.434523 257.68213 
L 270.020452 205.844159 
L 270.730837 208.852612 
L 279.79552 289.618024 
L 280.496247 293.205026 
L 284.681617 300.379031 
L 286.086501 299.106224 
L 290.273123 275.964272 
L 290.97335 270.178784 
L 296.553493 215.216649 
L 298.657343 209.084032 
L 302.843582 251.896642 
L 303.540354 258.144969 
L 309.119654 295.634931 
L 318.197291 276.079982 
L 320.294389 257.79784 
L 323.084087 230.143208 
L 326.572555 208.621193 
L 330.067592 244.491218 
L 330.769141 252.243772 
L 331.460993 257.450711 
L 334.958526 285.568182 
L 344.031582 290.196572 
L 344.732073 285.683892 
L 350.31115 237.085793 
L 353.805854 205.844159 
L 354.503621 208.389773 
L 355.19749 216.258037 
L 357.999081 244.606928 
L 360.088415 264.277586 
L 362.87848 285.568182 
L 364.278836 292.857897 
L 364.972725 296.09777 
L 369.16701 300.031902 
L 373.35821 281.402631 
L 374.054532 276.079982 
L 374.747163 270.988752 
L 378.94059 230.606047 
L 380.334547 216.142327 
L 381.036842 208.505483 
L 388.711636 269.947365 
L 389.409114 275.038594 
L 390.114651 281.286921 
L 396.399403 300.379031 
L 397.78795 299.221933 
L 398.487273 297.486287 
" style="fill:none;stroke:#1f77b4;stroke-linecap:square;stroke-width:1.5;"/>
   </g>
   <g id="line2d_49">
    <path clip-path="url(#pc46d54475e)" d="M 73.832727 203.779223 
L 75.23033 215.189475 
L 75.935671 222.73769 
L 77.326396 237.518723 
L 79.426357 258.407288 
L 80.1251 264.773773 
L 82.916326 286.122722 
L 85.003853 296.708107 
L 88.497458 301.75327 
L 89.197965 300.739259 
L 89.896006 299.06354 
L 91.297024 293.768994 
L 94.084106 276.361309 
L 96.877959 251.726661 
L 97.574115 244.787458 
L 103.862353 222.582389 
L 106.651718 251.551712 
L 107.351117 258.254008 
L 108.052144 264.648851 
L 108.747255 270.626274 
L 114.337309 300.715437 
L 116.425494 301.765816 
L 117.817787 299.118809 
L 127.600122 222.86397 
L 128.293009 215.446322 
L 128.997641 208.240454 
L 129.687119 203.788353 
L 130.394601 207.885682 
L 131.79019 222.439491 
L 134.583081 251.456004 
L 140.165095 293.644612 
L 141.563739 298.979927 
L 145.047247 300.802131 
L 145.754299 299.131938 
L 148.5478 286.276691 
L 152.735504 251.968449 
L 159.711105 222.222131 
L 160.415122 229.763662 
L 161.105798 237.058946 
L 165.29802 275.993561 
L 166.698262 285.861261 
L 168.789687 296.564617 
L 173.673394 299.19417 
L 179.262755 265.145043 
L 188.341697 229.60841 
L 189.039517 236.981376 
L 189.739745 244.207433 
L 190.431171 251.120685 
L 193.922519 281.054993 
L 194.62292 285.756847 
L 199.506264 302.085818 
L 200.20782 301.803516 
L 204.391299 286.5184 
L 206.491137 271.23721 
L 207.19203 265.249709 
L 216.269587 229.467169 
L 216.969046 236.859933 
L 220.454717 270.14997 
L 222.546099 285.642764 
L 227.432249 302.084309 
L 228.827681 300.881802 
L 229.526161 299.276437 
L 234.421161 271.3289 
L 236.515016 252.396756 
L 237.208416 245.510479 
L 237.911893 238.288314 
L 242.792081 214.290031 
L 244.192939 229.27756 
L 246.289158 250.882107 
L 249.079033 275.664947 
L 252.565317 296.379603 
L 263.740132 259.21629 
L 264.434523 252.607383 
L 270.020452 207.152838 
L 270.730837 214.264886 
L 279.79552 293.287581 
L 280.496247 296.339728 
L 284.681617 300.932958 
L 286.086501 297.095715 
L 290.273123 271.578581 
L 290.97335 265.620261 
L 296.553493 209.11908 
L 298.657343 214.110838 
L 302.843582 257.356724 
L 303.540354 263.760199 
L 309.119654 298.71006 
L 318.197291 271.717994 
L 320.294389 252.825282 
L 323.084087 223.981029 
L 326.572555 213.838037 
L 330.067592 250.4393 
L 330.769141 257.209757 
L 331.460993 263.576675 
L 334.958526 289.533557 
L 344.031582 286.922374 
L 344.732073 282.35758 
L 350.31115 231.612256 
L 353.805854 206.81497 
L 354.503621 213.732097 
L 355.19749 221.130978 
L 357.999081 250.344201 
L 360.088415 269.545497 
L 362.87848 289.413783 
L 364.278836 296.178754 
L 364.972725 298.621053 
L 369.16701 299.453191 
L 373.35821 277.407868 
L 374.054532 271.923164 
L 374.747163 266.055226 
L 378.94059 224.257793 
L 380.334547 209.5365 
L 381.036842 204.047666 
L 388.711636 275.094563 
L 389.409114 280.332763 
L 390.114651 285.141321 
L 396.399403 301.015003 
L 397.78795 297.32405 
L 398.487273 294.50984 
" style="fill:none;stroke:#ff7f0e;stroke-linecap:square;stroke-width:1.5;"/>
   </g>
   <g id="line2d_50">
    <path clip-path="url(#pc46d54475e)" d="M 73.832727 204.068497 
L 75.23033 205.64342 
L 75.935671 205.670501 
L 77.326396 206.913492 
L 79.426357 205.238654 
L 80.1251 204.893973 
L 82.916326 203.10097 
L 85.003853 201.536831 
L 88.497458 200.102247 
L 89.197965 199.088237 
L 89.896006 197.528227 
L 91.297024 195.936393 
L 94.084106 194.496655 
L 96.877959 193.119669 
L 97.574115 193.238761 
L 103.862353 204.820941 
L 106.651718 204.399986 
L 107.351117 204.391115 
L 108.052144 204.306212 
L 108.747255 204.035308 
L 114.337309 201.378609 
L 116.425494 200.114793 
L 117.817787 197.699206 
L 127.600122 192.952997 
L 128.293009 192.709355 
L 128.997641 192.561781 
L 129.687119 195.630815 
L 130.394601 200.538112 
L 131.79019 205.256592 
L 134.583081 204.188567 
L 140.165095 202.291757 
L 141.563739 201.610166 
L 145.047247 199.498237 
L 145.754299 197.828044 
L 148.5478 195.386676 
L 152.735504 193.245746 
L 159.711105 204.807812 
L 160.415122 204.36537 
L 161.105798 205.065198 
L 165.29802 203.964236 
L 166.698262 203.070929 
L 168.789687 202.087599 
L 173.673394 197.890276 
L 179.262755 193.925687 
L 188.341697 204.904376 
L 189.039517 204.987628 
L 189.739745 204.576841 
L 190.431171 204.547507 
L 193.922519 203.58731 
L 194.62292 202.850805 
L 199.506264 200.434796 
L 200.20782 200.152493 
L 204.391299 195.396965 
L 206.491137 194.463785 
L 207.19203 193.798934 
L 216.269587 205.225974 
L 216.969046 204.634766 
L 220.454717 204.021843 
L 222.546099 203.083852 
L 227.432249 200.548996 
L 228.827681 199.346489 
L 229.526161 197.856834 
L 234.421161 194.092636 
L 236.515016 193.674054 
L 237.208416 193.151813 
L 237.911893 192.987944 
L 242.792081 203.934008 
L 244.192939 205.152075 
L 246.289158 204.771768 
L 249.079033 203.982752 
L 252.565317 201.902586 
L 263.740132 193.666712 
L 264.434523 193.653262 
L 270.020452 200.036688 
L 270.730837 204.140282 
L 279.79552 202.397566 
L 280.496247 201.862711 
L 284.681617 199.281936 
L 286.086501 196.7175 
L 290.273123 194.342317 
L 290.97335 194.169485 
L 296.553493 192.63044 
L 298.657343 203.754815 
L 302.843582 204.18809 
L 303.540354 204.343238 
L 309.119654 201.803138 
L 318.197291 194.36602 
L 320.294389 193.75545 
L 323.084087 192.56583 
L 326.572555 203.944852 
L 330.067592 204.67609 
L 330.769141 203.693994 
L 331.460993 204.853973 
L 334.958526 202.693383 
L 344.031582 195.45381 
L 344.732073 195.401696 
L 350.31115 193.254471 
L 353.805854 199.69882 
L 354.503621 204.070332 
L 355.19749 203.60095 
L 357.999081 204.465282 
L 360.088415 203.995918 
L 362.87848 202.57361 
L 364.278836 202.048866 
L 364.972725 201.251291 
L 369.16701 198.149298 
L 373.35821 194.733246 
L 374.054532 194.57119 
L 374.747163 193.794482 
L 378.94059 192.379754 
L 380.334547 192.122182 
L 381.036842 194.270192 
L 388.711636 203.875206 
L 389.409114 204.022177 
L 390.114651 202.582408 
L 396.399403 199.36398 
L 397.78795 196.830125 
L 398.487273 195.751561 
" style="fill:none;stroke:#2ca02c;stroke-linecap:square;stroke-width:1.5;"/>
   </g>
   <g id="patch_9">
    <path d="M 57.6 307.584 
L 57.6 186.624 
" style="fill:none;stroke:#000000;stroke-linecap:square;stroke-linejoin:miter;stroke-width:0.8;"/>
   </g>
   <g id="patch_10">
    <path d="M 414.72 307.584 
L 414.72 186.624 
" style="fill:none;stroke:#000000;stroke-linecap:square;stroke-linejoin:miter;stroke-width:0.8;"/>
   </g>
   <g id="patch_11">
    <path d="M 57.6 307.584 
L 414.72 307.584 
" style="fill:none;stroke:#000000;stroke-linecap:square;stroke-linejoin:miter;stroke-width:0.8;"/>
   </g>
   <g id="patch_12">
    <path d="M 57.6 186.624 
L 414.72 186.624 
" style="fill:none;stroke:#000000;stroke-linecap:square;stroke-linejoin:miter;stroke-width:0.8;"/>
   </g>
   <g id="legend_2">
    <g id="patch_13">
     <path d="M 346.660625 270.899312 
L 407.72 270.899312 
Q 409.72 270.899312 409.72 268.899312 
L 409.72 225.308687 
Q 409.72 223.308687 407.72 223.308687 
L 346.660625 223.308687 
Q 344.660625 223.308687 344.660625 225.308687 
L 344.660625 268.899312 
Q 344.660625 270.899312 346.660625 270.899312 
z
" style="fill:#ffffff;opacity:0.8;stroke:#cccccc;stroke-linejoin:miter;"/>
    </g>
    <g id="line2d_51">
     <path d="M 348.660625 231.407125 
L 368.660625 231.407125 
" style="fill:none;stroke:#1f77b4;stroke-linecap:square;stroke-width:1.5;"/>
    </g>
    <g id="line2d_52"/>
    <g id="text_26">
     <!-- q_cur -->
     <g transform="translate(376.660625 234.907125)scale(0.1 -0.1)">
      <use xlink:href="#DejaVuSans-113"/>
      <use x="63.476562" xlink:href="#DejaVuSans-95"/>
      <use x="113.476562" xlink:href="#DejaVuSans-99"/>
      <use x="168.457031" xlink:href="#DejaVuSans-117"/>
      <use x="231.835938" xlink:href="#DejaVuSans-114"/>
     </g>
    </g>
    <g id="line2d_53">
     <path d="M 348.660625 246.363375 
L 368.660625 246.363375 
" style="fill:none;stroke:#ff7f0e;stroke-linecap:square;stroke-width:1.5;"/>
    </g>
    <g id="line2d_54"/>
    <g id="text_27">
     <!-- q_des -->
     <g transform="translate(376.660625 249.863375)scale(0.1 -0.1)">
      <use xlink:href="#DejaVuSans-113"/>
      <use x="63.476562" xlink:href="#DejaVuSans-95"/>
      <use x="113.476562" xlink:href="#DejaVuSans-100"/>
      <use x="176.953125" xlink:href="#DejaVuSans-101"/>
      <use x="238.476562" xlink:href="#DejaVuSans-115"/>
     </g>
    </g>
    <g id="line2d_55">
     <path d="M 348.660625 261.319625 
L 368.660625 261.319625 
" style="fill:none;stroke:#2ca02c;stroke-linecap:square;stroke-width:1.5;"/>
    </g>
    <g id="line2d_56"/>
    <g id="text_28">
     <!-- error -->
     <g transform="translate(376.660625 264.819625)scale(0.1 -0.1)">
      <use xlink:href="#DejaVuSans-101"/>
      <use x="61.523438" xlink:href="#DejaVuSans-114"/>
      <use x="100.886719" xlink:href="#DejaVuSans-114"/>
      <use x="139.75" xlink:href="#DejaVuSans-111"/>
      <use x="200.931641" xlink:href="#DejaVuSans-114"/>
     </g>
    </g>
   </g>
  </g>
 </g>
 <defs>
  <clipPath id="p10dc1a0ddf">
   <rect height="120.96" width="357.12" x="57.6" y="41.472"/>
  </clipPath>
  <clipPath id="pc46d54475e">
   <rect height="120.96" width="357.12" x="57.6" y="186.624"/>
  </clipPath>
 </defs>
</svg>
