<?xml version="1.0" encoding="utf-8" standalone="no"?>
<!DOCTYPE svg PUBLIC "-//W3C//DTD SVG 1.1//EN"
  "http://www.w3.org/Graphics/SVG/1.1/DTD/svg11.dtd">
<!-- Created with matplotlib (https://matplotlib.org/) -->
<svg height="345.6pt" version="1.1" viewBox="0 0 460.8 345.6" width="460.8pt" xmlns="http://www.w3.org/2000/svg" xmlns:xlink="http://www.w3.org/1999/xlink">
 <metadata>
  <rdf:RDF xmlns:cc="http://creativecommons.org/ns#" xmlns:dc="http://purl.org/dc/elements/1.1/" xmlns:rdf="http://www.w3.org/1999/02/22-rdf-syntax-ns#">
   <cc:Work>
    <dc:type rdf:resource="http://purl.org/dc/dcmitype/StillImage"/>
    <dc:date>2021-05-03T16:08:17.511264</dc:date>
    <dc:format>image/svg+xml</dc:format>
    <dc:creator>
     <cc:Agent>
      <dc:title>Matplotlib v3.3.4, https://matplotlib.org/</dc:title>
     </cc:Agent>
    </dc:creator>
   </cc:Work>
  </rdf:RDF>
 </metadata>
 <defs>
  <style type="text/css">*{stroke-linecap:butt;stroke-linejoin:round;}</style>
 </defs>
 <g id="figure_1">
  <g id="patch_1">
   <path d="M 0 345.6 
L 460.8 345.6 
L 460.8 0 
L 0 0 
z
" style="fill:#ffffff;"/>
  </g>
  <g id="axes_1">
   <g id="patch_2">
    <path d="M 57.6 162.432 
L 414.72 162.432 
L 414.72 41.472 
L 57.6 41.472 
z
" style="fill:#ffffff;"/>
   </g>
   <g id="matplotlib.axis_1">
    <g id="xtick_1">
     <g id="line2d_1">
      <path clip-path="url(#p683f706a53)" d="M 73.832615 162.432 
L 73.832615 41.472 
" style="fill:none;stroke:#b0b0b0;stroke-linecap:square;stroke-width:0.8;"/>
     </g>
     <g id="line2d_2">
      <defs>
       <path d="M 0 0 
L 0 3.5 
" id="m0f9c190780" style="stroke:#000000;stroke-width:0.8;"/>
      </defs>
      <g>
       <use style="stroke:#000000;stroke-width:0.8;" x="73.832615" xlink:href="#m0f9c190780" y="162.432"/>
      </g>
     </g>
     <g id="text_1">
      <!-- 0.0 -->
      <g transform="translate(65.881052 177.030437)scale(0.1 -0.1)">
       <defs>
        <path d="M 31.78125 66.40625 
Q 24.171875 66.40625 20.328125 58.90625 
Q 16.5 51.421875 16.5 36.375 
Q 16.5 21.390625 20.328125 13.890625 
Q 24.171875 6.390625 31.78125 6.390625 
Q 39.453125 6.390625 43.28125 13.890625 
Q 47.125 21.390625 47.125 36.375 
Q 47.125 51.421875 43.28125 58.90625 
Q 39.453125 66.40625 31.78125 66.40625 
z
M 31.78125 74.21875 
Q 44.046875 74.21875 50.515625 64.515625 
Q 56.984375 54.828125 56.984375 36.375 
Q 56.984375 17.96875 50.515625 8.265625 
Q 44.046875 -1.421875 31.78125 -1.421875 
Q 19.53125 -1.421875 13.0625 8.265625 
Q 6.59375 17.96875 6.59375 36.375 
Q 6.59375 54.828125 13.0625 64.515625 
Q 19.53125 74.21875 31.78125 74.21875 
z
" id="DejaVuSans-48"/>
        <path d="M 10.6875 12.40625 
L 21 12.40625 
L 21 0 
L 10.6875 0 
z
" id="DejaVuSans-46"/>
       </defs>
       <use xlink:href="#DejaVuSans-48"/>
       <use x="63.623047" xlink:href="#DejaVuSans-46"/>
       <use x="95.410156" xlink:href="#DejaVuSans-48"/>
      </g>
     </g>
    </g>
    <g id="xtick_2">
     <g id="line2d_3">
      <path clip-path="url(#p683f706a53)" d="M 114.515263 162.432 
L 114.515263 41.472 
" style="fill:none;stroke:#b0b0b0;stroke-linecap:square;stroke-width:0.8;"/>
     </g>
     <g id="line2d_4">
      <g>
       <use style="stroke:#000000;stroke-width:0.8;" x="114.515263" xlink:href="#m0f9c190780" y="162.432"/>
      </g>
     </g>
     <g id="text_2">
      <!-- 2.5 -->
      <g transform="translate(106.5637 177.030437)scale(0.1 -0.1)">
       <defs>
        <path d="M 19.1875 8.296875 
L 53.609375 8.296875 
L 53.609375 0 
L 7.328125 0 
L 7.328125 8.296875 
Q 12.9375 14.109375 22.625 23.890625 
Q 32.328125 33.6875 34.8125 36.53125 
Q 39.546875 41.84375 41.421875 45.53125 
Q 43.3125 49.21875 43.3125 52.78125 
Q 43.3125 58.59375 39.234375 62.25 
Q 35.15625 65.921875 28.609375 65.921875 
Q 23.96875 65.921875 18.8125 64.3125 
Q 13.671875 62.703125 7.8125 59.421875 
L 7.8125 69.390625 
Q 13.765625 71.78125 18.9375 73 
Q 24.125 74.21875 28.421875 74.21875 
Q 39.75 74.21875 46.484375 68.546875 
Q 53.21875 62.890625 53.21875 53.421875 
Q 53.21875 48.921875 51.53125 44.890625 
Q 49.859375 40.875 45.40625 35.40625 
Q 44.1875 33.984375 37.640625 27.21875 
Q 31.109375 20.453125 19.1875 8.296875 
z
" id="DejaVuSans-50"/>
        <path d="M 10.796875 72.90625 
L 49.515625 72.90625 
L 49.515625 64.59375 
L 19.828125 64.59375 
L 19.828125 46.734375 
Q 21.96875 47.46875 24.109375 47.828125 
Q 26.265625 48.1875 28.421875 48.1875 
Q 40.625 48.1875 47.75 41.5 
Q 54.890625 34.8125 54.890625 23.390625 
Q 54.890625 11.625 47.5625 5.09375 
Q 40.234375 -1.421875 26.90625 -1.421875 
Q 22.3125 -1.421875 17.546875 -0.640625 
Q 12.796875 0.140625 7.71875 1.703125 
L 7.71875 11.625 
Q 12.109375 9.234375 16.796875 8.0625 
Q 21.484375 6.890625 26.703125 6.890625 
Q 35.15625 6.890625 40.078125 11.328125 
Q 45.015625 15.765625 45.015625 23.390625 
Q 45.015625 31 40.078125 35.4375 
Q 35.15625 39.890625 26.703125 39.890625 
Q 22.75 39.890625 18.8125 39.015625 
Q 14.890625 38.140625 10.796875 36.28125 
z
" id="DejaVuSans-53"/>
       </defs>
       <use xlink:href="#DejaVuSans-50"/>
       <use x="63.623047" xlink:href="#DejaVuSans-46"/>
       <use x="95.410156" xlink:href="#DejaVuSans-53"/>
      </g>
     </g>
    </g>
    <g id="xtick_3">
     <g id="line2d_5">
      <path clip-path="url(#p683f706a53)" d="M 155.19791 162.432 
L 155.19791 41.472 
" style="fill:none;stroke:#b0b0b0;stroke-linecap:square;stroke-width:0.8;"/>
     </g>
     <g id="line2d_6">
      <g>
       <use style="stroke:#000000;stroke-width:0.8;" x="155.19791" xlink:href="#m0f9c190780" y="162.432"/>
      </g>
     </g>
     <g id="text_3">
      <!-- 5.0 -->
      <g transform="translate(147.246348 177.030437)scale(0.1 -0.1)">
       <use xlink:href="#DejaVuSans-53"/>
       <use x="63.623047" xlink:href="#DejaVuSans-46"/>
       <use x="95.410156" xlink:href="#DejaVuSans-48"/>
      </g>
     </g>
    </g>
    <g id="xtick_4">
     <g id="line2d_7">
      <path clip-path="url(#p683f706a53)" d="M 195.880558 162.432 
L 195.880558 41.472 
" style="fill:none;stroke:#b0b0b0;stroke-linecap:square;stroke-width:0.8;"/>
     </g>
     <g id="line2d_8">
      <g>
       <use style="stroke:#000000;stroke-width:0.8;" x="195.880558" xlink:href="#m0f9c190780" y="162.432"/>
      </g>
     </g>
     <g id="text_4">
      <!-- 7.5 -->
      <g transform="translate(187.928996 177.030437)scale(0.1 -0.1)">
       <defs>
        <path d="M 8.203125 72.90625 
L 55.078125 72.90625 
L 55.078125 68.703125 
L 28.609375 0 
L 18.3125 0 
L 43.21875 64.59375 
L 8.203125 64.59375 
z
" id="DejaVuSans-55"/>
       </defs>
       <use xlink:href="#DejaVuSans-55"/>
       <use x="63.623047" xlink:href="#DejaVuSans-46"/>
       <use x="95.410156" xlink:href="#DejaVuSans-53"/>
      </g>
     </g>
    </g>
    <g id="xtick_5">
     <g id="line2d_9">
      <path clip-path="url(#p683f706a53)" d="M 236.563206 162.432 
L 236.563206 41.472 
" style="fill:none;stroke:#b0b0b0;stroke-linecap:square;stroke-width:0.8;"/>
     </g>
     <g id="line2d_10">
      <g>
       <use style="stroke:#000000;stroke-width:0.8;" x="236.563206" xlink:href="#m0f9c190780" y="162.432"/>
      </g>
     </g>
     <g id="text_5">
      <!-- 10.0 -->
      <g transform="translate(225.430394 177.030437)scale(0.1 -0.1)">
       <defs>
        <path d="M 12.40625 8.296875 
L 28.515625 8.296875 
L 28.515625 63.921875 
L 10.984375 60.40625 
L 10.984375 69.390625 
L 28.421875 72.90625 
L 38.28125 72.90625 
L 38.28125 8.296875 
L 54.390625 8.296875 
L 54.390625 0 
L 12.40625 0 
z
" id="DejaVuSans-49"/>
       </defs>
       <use xlink:href="#DejaVuSans-49"/>
       <use x="63.623047" xlink:href="#DejaVuSans-48"/>
       <use x="127.246094" xlink:href="#DejaVuSans-46"/>
       <use x="159.033203" xlink:href="#DejaVuSans-48"/>
      </g>
     </g>
    </g>
    <g id="xtick_6">
     <g id="line2d_11">
      <path clip-path="url(#p683f706a53)" d="M 277.245854 162.432 
L 277.245854 41.472 
" style="fill:none;stroke:#b0b0b0;stroke-linecap:square;stroke-width:0.8;"/>
     </g>
     <g id="line2d_12">
      <g>
       <use style="stroke:#000000;stroke-width:0.8;" x="277.245854" xlink:href="#m0f9c190780" y="162.432"/>
      </g>
     </g>
     <g id="text_6">
      <!-- 12.5 -->
      <g transform="translate(266.113042 177.030437)scale(0.1 -0.1)">
       <use xlink:href="#DejaVuSans-49"/>
       <use x="63.623047" xlink:href="#DejaVuSans-50"/>
       <use x="127.246094" xlink:href="#DejaVuSans-46"/>
       <use x="159.033203" xlink:href="#DejaVuSans-53"/>
      </g>
     </g>
    </g>
    <g id="xtick_7">
     <g id="line2d_13">
      <path clip-path="url(#p683f706a53)" d="M 317.928502 162.432 
L 317.928502 41.472 
" style="fill:none;stroke:#b0b0b0;stroke-linecap:square;stroke-width:0.8;"/>
     </g>
     <g id="line2d_14">
      <g>
       <use style="stroke:#000000;stroke-width:0.8;" x="317.928502" xlink:href="#m0f9c190780" y="162.432"/>
      </g>
     </g>
     <g id="text_7">
      <!-- 15.0 -->
      <g transform="translate(306.795689 177.030437)scale(0.1 -0.1)">
       <use xlink:href="#DejaVuSans-49"/>
       <use x="63.623047" xlink:href="#DejaVuSans-53"/>
       <use x="127.246094" xlink:href="#DejaVuSans-46"/>
       <use x="159.033203" xlink:href="#DejaVuSans-48"/>
      </g>
     </g>
    </g>
    <g id="xtick_8">
     <g id="line2d_15">
      <path clip-path="url(#p683f706a53)" d="M 358.61115 162.432 
L 358.61115 41.472 
" style="fill:none;stroke:#b0b0b0;stroke-linecap:square;stroke-width:0.8;"/>
     </g>
     <g id="line2d_16">
      <g>
       <use style="stroke:#000000;stroke-width:0.8;" x="358.61115" xlink:href="#m0f9c190780" y="162.432"/>
      </g>
     </g>
     <g id="text_8">
      <!-- 17.5 -->
      <g transform="translate(347.478337 177.030437)scale(0.1 -0.1)">
       <use xlink:href="#DejaVuSans-49"/>
       <use x="63.623047" xlink:href="#DejaVuSans-55"/>
       <use x="127.246094" xlink:href="#DejaVuSans-46"/>
       <use x="159.033203" xlink:href="#DejaVuSans-53"/>
      </g>
     </g>
    </g>
    <g id="xtick_9">
     <g id="line2d_17">
      <path clip-path="url(#p683f706a53)" d="M 399.293798 162.432 
L 399.293798 41.472 
" style="fill:none;stroke:#b0b0b0;stroke-linecap:square;stroke-width:0.8;"/>
     </g>
     <g id="line2d_18">
      <g>
       <use style="stroke:#000000;stroke-width:0.8;" x="399.293798" xlink:href="#m0f9c190780" y="162.432"/>
      </g>
     </g>
     <g id="text_9">
      <!-- 20.0 -->
      <g transform="translate(388.160985 177.030437)scale(0.1 -0.1)">
       <use xlink:href="#DejaVuSans-50"/>
       <use x="63.623047" xlink:href="#DejaVuSans-48"/>
       <use x="127.246094" xlink:href="#DejaVuSans-46"/>
       <use x="159.033203" xlink:href="#DejaVuSans-48"/>
      </g>
     </g>
    </g>
   </g>
   <g id="matplotlib.axis_2">
    <g id="ytick_1">
     <g id="line2d_19">
      <path clip-path="url(#p683f706a53)" d="M 57.6 145.652105 
L 414.72 145.652105 
" style="fill:none;stroke:#b0b0b0;stroke-linecap:square;stroke-width:0.8;"/>
     </g>
     <g id="line2d_20">
      <defs>
       <path d="M 0 0 
L -3.5 0 
" id="me9f9c3950a" style="stroke:#000000;stroke-width:0.8;"/>
      </defs>
      <g>
       <use style="stroke:#000000;stroke-width:0.8;" x="57.6" xlink:href="#me9f9c3950a" y="145.652105"/>
      </g>
     </g>
     <g id="text_10">
      <!-- 0.0 -->
      <g transform="translate(34.696875 149.451324)scale(0.1 -0.1)">
       <use xlink:href="#DejaVuSans-48"/>
       <use x="63.623047" xlink:href="#DejaVuSans-46"/>
       <use x="95.410156" xlink:href="#DejaVuSans-48"/>
      </g>
     </g>
    </g>
    <g id="ytick_2">
     <g id="line2d_21">
      <path clip-path="url(#p683f706a53)" d="M 57.6 124.960566 
L 414.72 124.960566 
" style="fill:none;stroke:#b0b0b0;stroke-linecap:square;stroke-width:0.8;"/>
     </g>
     <g id="line2d_22">
      <g>
       <use style="stroke:#000000;stroke-width:0.8;" x="57.6" xlink:href="#me9f9c3950a" y="124.960566"/>
      </g>
     </g>
     <g id="text_11">
      <!-- 0.1 -->
      <g transform="translate(34.696875 128.759785)scale(0.1 -0.1)">
       <use xlink:href="#DejaVuSans-48"/>
       <use x="63.623047" xlink:href="#DejaVuSans-46"/>
       <use x="95.410156" xlink:href="#DejaVuSans-49"/>
      </g>
     </g>
    </g>
    <g id="ytick_3">
     <g id="line2d_23">
      <path clip-path="url(#p683f706a53)" d="M 57.6 104.269028 
L 414.72 104.269028 
" style="fill:none;stroke:#b0b0b0;stroke-linecap:square;stroke-width:0.8;"/>
     </g>
     <g id="line2d_24">
      <g>
       <use style="stroke:#000000;stroke-width:0.8;" x="57.6" xlink:href="#me9f9c3950a" y="104.269028"/>
      </g>
     </g>
     <g id="text_12">
      <!-- 0.2 -->
      <g transform="translate(34.696875 108.068247)scale(0.1 -0.1)">
       <use xlink:href="#DejaVuSans-48"/>
       <use x="63.623047" xlink:href="#DejaVuSans-46"/>
       <use x="95.410156" xlink:href="#DejaVuSans-50"/>
      </g>
     </g>
    </g>
    <g id="ytick_4">
     <g id="line2d_25">
      <path clip-path="url(#p683f706a53)" d="M 57.6 83.577489 
L 414.72 83.577489 
" style="fill:none;stroke:#b0b0b0;stroke-linecap:square;stroke-width:0.8;"/>
     </g>
     <g id="line2d_26">
      <g>
       <use style="stroke:#000000;stroke-width:0.8;" x="57.6" xlink:href="#me9f9c3950a" y="83.577489"/>
      </g>
     </g>
     <g id="text_13">
      <!-- 0.3 -->
      <g transform="translate(34.696875 87.376708)scale(0.1 -0.1)">
       <defs>
        <path d="M 40.578125 39.3125 
Q 47.65625 37.796875 51.625 33 
Q 55.609375 28.21875 55.609375 21.1875 
Q 55.609375 10.40625 48.1875 4.484375 
Q 40.765625 -1.421875 27.09375 -1.421875 
Q 22.515625 -1.421875 17.65625 -0.515625 
Q 12.796875 0.390625 7.625 2.203125 
L 7.625 11.71875 
Q 11.71875 9.328125 16.59375 8.109375 
Q 21.484375 6.890625 26.8125 6.890625 
Q 36.078125 6.890625 40.9375 10.546875 
Q 45.796875 14.203125 45.796875 21.1875 
Q 45.796875 27.640625 41.28125 31.265625 
Q 36.765625 34.90625 28.71875 34.90625 
L 20.21875 34.90625 
L 20.21875 43.015625 
L 29.109375 43.015625 
Q 36.375 43.015625 40.234375 45.921875 
Q 44.09375 48.828125 44.09375 54.296875 
Q 44.09375 59.90625 40.109375 62.90625 
Q 36.140625 65.921875 28.71875 65.921875 
Q 24.65625 65.921875 20.015625 65.03125 
Q 15.375 64.15625 9.8125 62.3125 
L 9.8125 71.09375 
Q 15.4375 72.65625 20.34375 73.4375 
Q 25.25 74.21875 29.59375 74.21875 
Q 40.828125 74.21875 47.359375 69.109375 
Q 53.90625 64.015625 53.90625 55.328125 
Q 53.90625 49.265625 50.4375 45.09375 
Q 46.96875 40.921875 40.578125 39.3125 
z
" id="DejaVuSans-51"/>
       </defs>
       <use xlink:href="#DejaVuSans-48"/>
       <use x="63.623047" xlink:href="#DejaVuSans-46"/>
       <use x="95.410156" xlink:href="#DejaVuSans-51"/>
      </g>
     </g>
    </g>
    <g id="ytick_5">
     <g id="line2d_27">
      <path clip-path="url(#p683f706a53)" d="M 57.6 62.885951 
L 414.72 62.885951 
" style="fill:none;stroke:#b0b0b0;stroke-linecap:square;stroke-width:0.8;"/>
     </g>
     <g id="line2d_28">
      <g>
       <use style="stroke:#000000;stroke-width:0.8;" x="57.6" xlink:href="#me9f9c3950a" y="62.885951"/>
      </g>
     </g>
     <g id="text_14">
      <!-- 0.4 -->
      <g transform="translate(34.696875 66.685169)scale(0.1 -0.1)">
       <defs>
        <path d="M 37.796875 64.3125 
L 12.890625 25.390625 
L 37.796875 25.390625 
z
M 35.203125 72.90625 
L 47.609375 72.90625 
L 47.609375 25.390625 
L 58.015625 25.390625 
L 58.015625 17.1875 
L 47.609375 17.1875 
L 47.609375 0 
L 37.796875 0 
L 37.796875 17.1875 
L 4.890625 17.1875 
L 4.890625 26.703125 
z
" id="DejaVuSans-52"/>
       </defs>
       <use xlink:href="#DejaVuSans-48"/>
       <use x="63.623047" xlink:href="#DejaVuSans-46"/>
       <use x="95.410156" xlink:href="#DejaVuSans-52"/>
      </g>
     </g>
    </g>
    <g id="ytick_6">
     <g id="line2d_29">
      <path clip-path="url(#p683f706a53)" d="M 57.6 42.194412 
L 414.72 42.194412 
" style="fill:none;stroke:#b0b0b0;stroke-linecap:square;stroke-width:0.8;"/>
     </g>
     <g id="line2d_30">
      <g>
       <use style="stroke:#000000;stroke-width:0.8;" x="57.6" xlink:href="#me9f9c3950a" y="42.194412"/>
      </g>
     </g>
     <g id="text_15">
      <!-- 0.5 -->
      <g transform="translate(34.696875 45.993631)scale(0.1 -0.1)">
       <use xlink:href="#DejaVuSans-48"/>
       <use x="63.623047" xlink:href="#DejaVuSans-46"/>
       <use x="95.410156" xlink:href="#DejaVuSans-53"/>
      </g>
     </g>
    </g>
    <g id="text_16">
     <!-- thigh angles, rad -->
     <g transform="translate(28.617187 144.351219)rotate(-90)scale(0.1 -0.1)">
      <defs>
       <path d="M 18.3125 70.21875 
L 18.3125 54.6875 
L 36.8125 54.6875 
L 36.8125 47.703125 
L 18.3125 47.703125 
L 18.3125 18.015625 
Q 18.3125 11.328125 20.140625 9.421875 
Q 21.96875 7.515625 27.59375 7.515625 
L 36.8125 7.515625 
L 36.8125 0 
L 27.59375 0 
Q 17.1875 0 13.234375 3.875 
Q 9.28125 7.765625 9.28125 18.015625 
L 9.28125 47.703125 
L 2.6875 47.703125 
L 2.6875 54.6875 
L 9.28125 54.6875 
L 9.28125 70.21875 
z
" id="DejaVuSans-116"/>
       <path d="M 54.890625 33.015625 
L 54.890625 0 
L 45.90625 0 
L 45.90625 32.71875 
Q 45.90625 40.484375 42.875 44.328125 
Q 39.84375 48.1875 33.796875 48.1875 
Q 26.515625 48.1875 22.3125 43.546875 
Q 18.109375 38.921875 18.109375 30.90625 
L 18.109375 0 
L 9.078125 0 
L 9.078125 75.984375 
L 18.109375 75.984375 
L 18.109375 46.1875 
Q 21.34375 51.125 25.703125 53.5625 
Q 30.078125 56 35.796875 56 
Q 45.21875 56 50.046875 50.171875 
Q 54.890625 44.34375 54.890625 33.015625 
z
" id="DejaVuSans-104"/>
       <path d="M 9.421875 54.6875 
L 18.40625 54.6875 
L 18.40625 0 
L 9.421875 0 
z
M 9.421875 75.984375 
L 18.40625 75.984375 
L 18.40625 64.59375 
L 9.421875 64.59375 
z
" id="DejaVuSans-105"/>
       <path d="M 45.40625 27.984375 
Q 45.40625 37.75 41.375 43.109375 
Q 37.359375 48.484375 30.078125 48.484375 
Q 22.859375 48.484375 18.828125 43.109375 
Q 14.796875 37.75 14.796875 27.984375 
Q 14.796875 18.265625 18.828125 12.890625 
Q 22.859375 7.515625 30.078125 7.515625 
Q 37.359375 7.515625 41.375 12.890625 
Q 45.40625 18.265625 45.40625 27.984375 
z
M 54.390625 6.78125 
Q 54.390625 -7.171875 48.1875 -13.984375 
Q 42 -20.796875 29.203125 -20.796875 
Q 24.46875 -20.796875 20.265625 -20.09375 
Q 16.0625 -19.390625 12.109375 -17.921875 
L 12.109375 -9.1875 
Q 16.0625 -11.328125 19.921875 -12.34375 
Q 23.78125 -13.375 27.78125 -13.375 
Q 36.625 -13.375 41.015625 -8.765625 
Q 45.40625 -4.15625 45.40625 5.171875 
L 45.40625 9.625 
Q 42.625 4.78125 38.28125 2.390625 
Q 33.9375 0 27.875 0 
Q 17.828125 0 11.671875 7.65625 
Q 5.515625 15.328125 5.515625 27.984375 
Q 5.515625 40.671875 11.671875 48.328125 
Q 17.828125 56 27.875 56 
Q 33.9375 56 38.28125 53.609375 
Q 42.625 51.21875 45.40625 46.390625 
L 45.40625 54.6875 
L 54.390625 54.6875 
z
" id="DejaVuSans-103"/>
       <path id="DejaVuSans-32"/>
       <path d="M 34.28125 27.484375 
Q 23.390625 27.484375 19.1875 25 
Q 14.984375 22.515625 14.984375 16.5 
Q 14.984375 11.71875 18.140625 8.90625 
Q 21.296875 6.109375 26.703125 6.109375 
Q 34.1875 6.109375 38.703125 11.40625 
Q 43.21875 16.703125 43.21875 25.484375 
L 43.21875 27.484375 
z
M 52.203125 31.203125 
L 52.203125 0 
L 43.21875 0 
L 43.21875 8.296875 
Q 40.140625 3.328125 35.546875 0.953125 
Q 30.953125 -1.421875 24.3125 -1.421875 
Q 15.921875 -1.421875 10.953125 3.296875 
Q 6 8.015625 6 15.921875 
Q 6 25.140625 12.171875 29.828125 
Q 18.359375 34.515625 30.609375 34.515625 
L 43.21875 34.515625 
L 43.21875 35.40625 
Q 43.21875 41.609375 39.140625 45 
Q 35.0625 48.390625 27.6875 48.390625 
Q 23 48.390625 18.546875 47.265625 
Q 14.109375 46.140625 10.015625 43.890625 
L 10.015625 52.203125 
Q 14.9375 54.109375 19.578125 55.046875 
Q 24.21875 56 28.609375 56 
Q 40.484375 56 46.34375 49.84375 
Q 52.203125 43.703125 52.203125 31.203125 
z
" id="DejaVuSans-97"/>
       <path d="M 54.890625 33.015625 
L 54.890625 0 
L 45.90625 0 
L 45.90625 32.71875 
Q 45.90625 40.484375 42.875 44.328125 
Q 39.84375 48.1875 33.796875 48.1875 
Q 26.515625 48.1875 22.3125 43.546875 
Q 18.109375 38.921875 18.109375 30.90625 
L 18.109375 0 
L 9.078125 0 
L 9.078125 54.6875 
L 18.109375 54.6875 
L 18.109375 46.1875 
Q 21.34375 51.125 25.703125 53.5625 
Q 30.078125 56 35.796875 56 
Q 45.21875 56 50.046875 50.171875 
Q 54.890625 44.34375 54.890625 33.015625 
z
" id="DejaVuSans-110"/>
       <path d="M 9.421875 75.984375 
L 18.40625 75.984375 
L 18.40625 0 
L 9.421875 0 
z
" id="DejaVuSans-108"/>
       <path d="M 56.203125 29.59375 
L 56.203125 25.203125 
L 14.890625 25.203125 
Q 15.484375 15.921875 20.484375 11.0625 
Q 25.484375 6.203125 34.421875 6.203125 
Q 39.59375 6.203125 44.453125 7.46875 
Q 49.3125 8.734375 54.109375 11.28125 
L 54.109375 2.78125 
Q 49.265625 0.734375 44.1875 -0.34375 
Q 39.109375 -1.421875 33.890625 -1.421875 
Q 20.796875 -1.421875 13.15625 6.1875 
Q 5.515625 13.8125 5.515625 26.8125 
Q 5.515625 40.234375 12.765625 48.109375 
Q 20.015625 56 32.328125 56 
Q 43.359375 56 49.78125 48.890625 
Q 56.203125 41.796875 56.203125 29.59375 
z
M 47.21875 32.234375 
Q 47.125 39.59375 43.09375 43.984375 
Q 39.0625 48.390625 32.421875 48.390625 
Q 24.90625 48.390625 20.390625 44.140625 
Q 15.875 39.890625 15.1875 32.171875 
z
" id="DejaVuSans-101"/>
       <path d="M 44.28125 53.078125 
L 44.28125 44.578125 
Q 40.484375 46.53125 36.375 47.5 
Q 32.28125 48.484375 27.875 48.484375 
Q 21.1875 48.484375 17.84375 46.4375 
Q 14.5 44.390625 14.5 40.28125 
Q 14.5 37.15625 16.890625 35.375 
Q 19.28125 33.59375 26.515625 31.984375 
L 29.59375 31.296875 
Q 39.15625 29.25 43.1875 25.515625 
Q 47.21875 21.78125 47.21875 15.09375 
Q 47.21875 7.46875 41.1875 3.015625 
Q 35.15625 -1.421875 24.609375 -1.421875 
Q 20.21875 -1.421875 15.453125 -0.5625 
Q 10.6875 0.296875 5.421875 2 
L 5.421875 11.28125 
Q 10.40625 8.6875 15.234375 7.390625 
Q 20.0625 6.109375 24.8125 6.109375 
Q 31.15625 6.109375 34.5625 8.28125 
Q 37.984375 10.453125 37.984375 14.40625 
Q 37.984375 18.0625 35.515625 20.015625 
Q 33.0625 21.96875 24.703125 23.78125 
L 21.578125 24.515625 
Q 13.234375 26.265625 9.515625 29.90625 
Q 5.8125 33.546875 5.8125 39.890625 
Q 5.8125 47.609375 11.28125 51.796875 
Q 16.75 56 26.8125 56 
Q 31.78125 56 36.171875 55.265625 
Q 40.578125 54.546875 44.28125 53.078125 
z
" id="DejaVuSans-115"/>
       <path d="M 11.71875 12.40625 
L 22.015625 12.40625 
L 22.015625 4 
L 14.015625 -11.625 
L 7.71875 -11.625 
L 11.71875 4 
z
" id="DejaVuSans-44"/>
       <path d="M 41.109375 46.296875 
Q 39.59375 47.171875 37.8125 47.578125 
Q 36.03125 48 33.890625 48 
Q 26.265625 48 22.1875 43.046875 
Q 18.109375 38.09375 18.109375 28.8125 
L 18.109375 0 
L 9.078125 0 
L 9.078125 54.6875 
L 18.109375 54.6875 
L 18.109375 46.1875 
Q 20.953125 51.171875 25.484375 53.578125 
Q 30.03125 56 36.53125 56 
Q 37.453125 56 38.578125 55.875 
Q 39.703125 55.765625 41.0625 55.515625 
z
" id="DejaVuSans-114"/>
       <path d="M 45.40625 46.390625 
L 45.40625 75.984375 
L 54.390625 75.984375 
L 54.390625 0 
L 45.40625 0 
L 45.40625 8.203125 
Q 42.578125 3.328125 38.25 0.953125 
Q 33.9375 -1.421875 27.875 -1.421875 
Q 17.96875 -1.421875 11.734375 6.484375 
Q 5.515625 14.40625 5.515625 27.296875 
Q 5.515625 40.1875 11.734375 48.09375 
Q 17.96875 56 27.875 56 
Q 33.9375 56 38.25 53.625 
Q 42.578125 51.265625 45.40625 46.390625 
z
M 14.796875 27.296875 
Q 14.796875 17.390625 18.875 11.75 
Q 22.953125 6.109375 30.078125 6.109375 
Q 37.203125 6.109375 41.296875 11.75 
Q 45.40625 17.390625 45.40625 27.296875 
Q 45.40625 37.203125 41.296875 42.84375 
Q 37.203125 48.484375 30.078125 48.484375 
Q 22.953125 48.484375 18.875 42.84375 
Q 14.796875 37.203125 14.796875 27.296875 
z
" id="DejaVuSans-100"/>
      </defs>
      <use xlink:href="#DejaVuSans-116"/>
      <use x="39.208984" xlink:href="#DejaVuSans-104"/>
      <use x="102.587891" xlink:href="#DejaVuSans-105"/>
      <use x="130.371094" xlink:href="#DejaVuSans-103"/>
      <use x="193.847656" xlink:href="#DejaVuSans-104"/>
      <use x="257.226562" xlink:href="#DejaVuSans-32"/>
      <use x="289.013672" xlink:href="#DejaVuSans-97"/>
      <use x="350.292969" xlink:href="#DejaVuSans-110"/>
      <use x="413.671875" xlink:href="#DejaVuSans-103"/>
      <use x="477.148438" xlink:href="#DejaVuSans-108"/>
      <use x="504.931641" xlink:href="#DejaVuSans-101"/>
      <use x="566.455078" xlink:href="#DejaVuSans-115"/>
      <use x="618.554688" xlink:href="#DejaVuSans-44"/>
      <use x="650.341797" xlink:href="#DejaVuSans-32"/>
      <use x="682.128906" xlink:href="#DejaVuSans-114"/>
      <use x="723.242188" xlink:href="#DejaVuSans-97"/>
      <use x="784.521484" xlink:href="#DejaVuSans-100"/>
     </g>
    </g>
   </g>
   <g id="line2d_31">
    <path clip-path="url(#p683f706a53)" d="M 73.832727 147.762778 
L 76.280198 118.816409 
L 81.162375 48.259636 
L 81.984896 47.053537 
L 83.61054 48.862685 
L 90.926539 141.129235 
L 92.557075 121.831656 
L 94.178653 91.076139 
L 96.618748 59.717574 
L 106.390524 134.495692 
L 108.830922 117.61031 
L 115.329745 50.671833 
L 116.962691 52.480981 
L 120.210925 92.282238 
L 125.911348 98.312732 
L 129.989781 53.68708 
L 134.863729 70.572462 
L 135.673071 81.42735 
L 138.115789 120.625557 
L 140.553211 134.495692 
L 141.369928 118.21336 
L 144.628774 69.366363 
L 149.509317 53.084031 
L 150.320153 59.717574 
L 158.460155 98.915781 
L 163.337719 51.274883 
L 166.596599 59.717574 
L 170.657345 120.022508 
L 178.796136 54.290129 
L 182.05024 53.084031 
L 187.749864 134.495692 
L 201.584198 92.282238 
L 204.833673 142.335334 
L 206.462774 118.21336 
L 208.9051 77.206004 
L 212.162456 50.671833 
L 220.29535 133.892643 
L 223.549381 98.915781 
L 228.433815 51.274883 
L 231.697107 59.717574 
L 239.015496 118.816409 
L 242.268944 69.969412 
L 247.147323 52.480981 
L 254.46447 136.30484 
L 257.733259 78.412103 
L 260.984128 51.274883 
L 270.744055 136.907889 
L 273.179909 87.457843 
L 280.503637 59.114524 
L 283.765334 104.946274 
L 288.64424 100.12188 
L 290.272968 77.809054 
L 295.159475 50.671833 
L 302.477394 142.335334 
L 305.724681 87.457843 
L 306.544844 78.412103 
L 309.798941 51.877932 
L 314.687919 80.824301 
L 317.130183 119.419459 
L 318.74525 141.732284 
L 320.375658 120.625557 
L 322.002928 87.457843 
L 325.254514 54.290129 
L 326.879409 51.274883 
L 328.522163 53.084031 
L 332.579397 104.343225 
L 336.648725 119.419459 
L 338.273589 87.457843 
L 341.524877 53.68708 
L 345.599311 58.511475 
L 348.047868 91.679189 
L 350.483082 132.686544 
L 354.543731 87.457843 
L 356.182938 71.175511 
L 359.425306 50.671833 
L 362.687454 69.366363 
L 366.756847 132.686544 
L 370.011441 100.724929 
L 370.826043 87.457843 
L 372.455214 71.175511 
L 375.704205 50.671833 
L 376.512949 50.671833 
L 378.968528 68.160264 
L 382.212887 119.419459 
L 383.840133 141.732284 
L 396.041327 79.015153 
L 398.487273 118.816409 
" style="fill:none;stroke:#1f77b4;stroke-linecap:square;stroke-width:1.5;"/>
   </g>
   <g id="line2d_32">
    <path clip-path="url(#p683f706a53)" d="M 73.832727 141.548557 
L 76.280198 103.011843 
L 81.162375 48.246253 
L 81.984896 46.970182 
L 83.61054 52.134708 
L 90.926539 132.170734 
L 92.557075 103.088875 
L 94.178653 77.392492 
L 96.618748 52.125698 
L 106.390524 141.548558 
L 108.830922 103.218494 
L 115.329745 48.193242 
L 116.962691 58.183799 
L 120.210925 102.699107 
L 125.911348 89.869671 
L 129.989781 48.298775 
L 134.863729 76.981036 
L 135.673071 89.073907 
L 138.115789 131.666663 
L 140.553211 118.191894 
L 141.369928 103.628718 
L 144.628774 58.575391 
L 149.509317 58.039572 
L 150.320153 66.411041 
L 158.460155 90.090402 
L 163.337719 46.973334 
L 166.596599 66.354564 
L 170.657345 131.304221 
L 178.796136 48.421818 
L 182.05024 57.845345 
L 187.749864 141.490124 
L 201.584198 102.123537 
L 204.833673 133.218676 
L 206.462774 104.193294 
L 208.9051 67.552407 
L 212.162456 46.977244 
L 220.29535 141.445622 
L 223.549381 90.667826 
L 228.433815 46.979765 
L 231.697107 66.06853 
L 239.015496 104.365846 
L 242.268944 59.0176 
L 247.147323 57.595636 
L 254.46447 119.241782 
L 257.733259 67.740646 
L 260.984128 46.983422 
L 270.744055 119.272872 
L 273.179909 78.711184 
L 280.503637 65.639657 
L 283.765334 115.857237 
L 288.64424 91.15713 
L 290.272968 68.01545 
L 295.159475 51.480634 
L 302.477394 133.952044 
L 305.724681 78.966228 
L 306.544844 68.129035 
L 309.798941 46.994647 
L 314.687919 87.818137 
L 317.130183 130.280936 
L 318.74525 134.172674 
L 320.375658 105.177152 
L 322.002928 79.010124 
L 325.254514 48.678023 
L 326.879409 47.885202 
L 328.522163 57.317642 
L 332.579397 115.31748 
L 336.648725 105.321523 
L 338.273589 79.162931 
L 341.524877 48.717938 
L 345.599311 65.303641 
L 348.047868 100.950195 
L 350.483082 141.177064 
L 354.543731 79.323247 
L 356.182938 59.538749 
L 359.425306 47.841193 
L 362.687454 75.398483 
L 366.756847 141.135238 
L 370.011441 91.793316 
L 370.826043 79.308952 
L 372.455214 59.625132 
L 375.704205 47.83498 
L 376.512949 51.175406 
L 378.968528 75.395267 
L 382.212887 129.535889 
L 383.840133 134.667536 
L 396.041327 86.987135 
L 398.487273 129.414247 
" style="fill:none;stroke:#ff7f0e;stroke-linecap:square;stroke-width:1.5;"/>
   </g>
   <g id="line2d_33">
    <path clip-path="url(#p683f706a53)" d="M 73.832727 139.437885 
L 76.280198 129.847539 
L 81.162375 145.638722 
L 81.984896 145.568749 
L 83.61054 148.924128 
L 90.926539 136.693604 
L 92.557075 126.909324 
L 94.178653 131.968458 
L 96.618748 138.06023 
L 106.390524 152.704971 
L 108.830922 131.260289 
L 115.329745 143.173513 
L 116.962691 151.354923 
L 120.210925 156.068974 
L 125.911348 137.209044 
L 129.989781 140.2638 
L 134.863729 152.060679 
L 135.673071 153.298662 
L 138.115789 156.69321 
L 140.553211 129.348307 
L 141.369928 131.067463 
L 144.628774 134.861132 
L 149.509317 150.607646 
L 150.320153 152.345572 
L 158.460155 136.826726 
L 163.337719 141.350556 
L 166.596599 152.289095 
L 170.657345 156.933818 
L 178.796136 139.783793 
L 182.05024 150.413419 
L 187.749864 152.646537 
L 201.584198 155.493404 
L 204.833673 136.535447 
L 206.462774 131.632039 
L 208.9051 135.998507 
L 212.162456 141.957515 
L 220.29535 153.205084 
L 223.549381 137.40415 
L 228.433815 141.356987 
L 231.697107 152.003061 
L 239.015496 131.201541 
L 242.268944 134.700293 
L 247.147323 150.76676 
L 254.46447 128.589047 
L 257.733259 134.980648 
L 260.984128 141.360644 
L 270.744055 128.017087 
L 273.179909 136.905446 
L 280.503637 152.177238 
L 283.765334 156.563067 
L 288.64424 136.687355 
L 290.272968 135.858501 
L 295.159475 146.460906 
L 302.477394 137.268816 
L 305.724681 137.16049 
L 306.544844 135.369037 
L 309.798941 140.76882 
L 314.687919 152.645941 
L 317.130183 156.513583 
L 318.74525 138.092494 
L 320.375658 130.2037 
L 322.002928 137.204385 
L 325.254514 140.039998 
L 326.879409 142.262425 
L 328.522163 149.885716 
L 332.579397 156.62636 
L 336.648725 131.55417 
L 338.273589 137.357193 
L 341.524877 140.682963 
L 345.599311 152.444271 
L 348.047868 154.923111 
L 350.483082 154.142625 
L 354.543731 137.517509 
L 356.182938 134.015342 
L 359.425306 142.821464 
L 362.687454 151.684225 
L 366.756847 154.100799 
L 370.011441 136.720492 
L 370.826043 137.503213 
L 372.455214 134.101726 
L 375.704205 142.815251 
L 376.512949 146.155677 
L 378.968528 152.887108 
L 382.212887 155.768536 
L 383.840133 138.587356 
L 396.041327 153.624087 
L 398.487273 156.249943 
" style="fill:none;stroke:#2ca02c;stroke-linecap:square;stroke-width:1.5;"/>
   </g>
   <g id="patch_3">
    <path d="M 57.6 162.432 
L 57.6 41.472 
" style="fill:none;stroke:#000000;stroke-linecap:square;stroke-linejoin:miter;stroke-width:0.8;"/>
   </g>
   <g id="patch_4">
    <path d="M 414.72 162.432 
L 414.72 41.472 
" style="fill:none;stroke:#000000;stroke-linecap:square;stroke-linejoin:miter;stroke-width:0.8;"/>
   </g>
   <g id="patch_5">
    <path d="M 57.6 162.432 
L 414.72 162.432 
" style="fill:none;stroke:#000000;stroke-linecap:square;stroke-linejoin:miter;stroke-width:0.8;"/>
   </g>
   <g id="patch_6">
    <path d="M 57.6 41.472 
L 414.72 41.472 
" style="fill:none;stroke:#000000;stroke-linecap:square;stroke-linejoin:miter;stroke-width:0.8;"/>
   </g>
   <g id="legend_1">
    <g id="patch_7">
     <path d="M 205.630313 125.747312 
L 266.689687 125.747312 
Q 268.689687 125.747312 268.689687 123.747312 
L 268.689687 80.156687 
Q 268.689687 78.156687 266.689687 78.156687 
L 205.630313 78.156687 
Q 203.630313 78.156687 203.630313 80.156687 
L 203.630313 123.747312 
Q 203.630313 125.747312 205.630313 125.747312 
z
" style="fill:#ffffff;opacity:0.8;stroke:#cccccc;stroke-linejoin:miter;"/>
    </g>
    <g id="line2d_34">
     <path d="M 207.630313 86.255125 
L 227.630313 86.255125 
" style="fill:none;stroke:#1f77b4;stroke-linecap:square;stroke-width:1.5;"/>
    </g>
    <g id="line2d_35"/>
    <g id="text_17">
     <!-- q_cur -->
     <g transform="translate(235.630313 89.755125)scale(0.1 -0.1)">
      <defs>
       <path d="M 14.796875 27.296875 
Q 14.796875 17.390625 18.875 11.75 
Q 22.953125 6.109375 30.078125 6.109375 
Q 37.203125 6.109375 41.296875 11.75 
Q 45.40625 17.390625 45.40625 27.296875 
Q 45.40625 37.203125 41.296875 42.84375 
Q 37.203125 48.484375 30.078125 48.484375 
Q 22.953125 48.484375 18.875 42.84375 
Q 14.796875 37.203125 14.796875 27.296875 
z
M 45.40625 8.203125 
Q 42.578125 3.328125 38.25 0.953125 
Q 33.9375 -1.421875 27.875 -1.421875 
Q 17.96875 -1.421875 11.734375 6.484375 
Q 5.515625 14.40625 5.515625 27.296875 
Q 5.515625 40.1875 11.734375 48.09375 
Q 17.96875 56 27.875 56 
Q 33.9375 56 38.25 53.625 
Q 42.578125 51.265625 45.40625 46.390625 
L 45.40625 54.6875 
L 54.390625 54.6875 
L 54.390625 -20.796875 
L 45.40625 -20.796875 
z
" id="DejaVuSans-113"/>
       <path d="M 50.984375 -16.609375 
L 50.984375 -23.578125 
L -0.984375 -23.578125 
L -0.984375 -16.609375 
z
" id="DejaVuSans-95"/>
       <path d="M 48.78125 52.59375 
L 48.78125 44.1875 
Q 44.96875 46.296875 41.140625 47.34375 
Q 37.3125 48.390625 33.40625 48.390625 
Q 24.65625 48.390625 19.8125 42.84375 
Q 14.984375 37.3125 14.984375 27.296875 
Q 14.984375 17.28125 19.8125 11.734375 
Q 24.65625 6.203125 33.40625 6.203125 
Q 37.3125 6.203125 41.140625 7.25 
Q 44.96875 8.296875 48.78125 10.40625 
L 48.78125 2.09375 
Q 45.015625 0.34375 40.984375 -0.53125 
Q 36.96875 -1.421875 32.421875 -1.421875 
Q 20.0625 -1.421875 12.78125 6.34375 
Q 5.515625 14.109375 5.515625 27.296875 
Q 5.515625 40.671875 12.859375 48.328125 
Q 20.21875 56 33.015625 56 
Q 37.15625 56 41.109375 55.140625 
Q 45.0625 54.296875 48.78125 52.59375 
z
" id="DejaVuSans-99"/>
       <path d="M 8.5 21.578125 
L 8.5 54.6875 
L 17.484375 54.6875 
L 17.484375 21.921875 
Q 17.484375 14.15625 20.5 10.265625 
Q 23.53125 6.390625 29.59375 6.390625 
Q 36.859375 6.390625 41.078125 11.03125 
Q 45.3125 15.671875 45.3125 23.6875 
L 45.3125 54.6875 
L 54.296875 54.6875 
L 54.296875 0 
L 45.3125 0 
L 45.3125 8.40625 
Q 42.046875 3.421875 37.71875 1 
Q 33.40625 -1.421875 27.6875 -1.421875 
Q 18.265625 -1.421875 13.375 4.4375 
Q 8.5 10.296875 8.5 21.578125 
z
M 31.109375 56 
z
" id="DejaVuSans-117"/>
      </defs>
      <use xlink:href="#DejaVuSans-113"/>
      <use x="63.476562" xlink:href="#DejaVuSans-95"/>
      <use x="113.476562" xlink:href="#DejaVuSans-99"/>
      <use x="168.457031" xlink:href="#DejaVuSans-117"/>
      <use x="231.835938" xlink:href="#DejaVuSans-114"/>
     </g>
    </g>
    <g id="line2d_36">
     <path d="M 207.630313 101.211375 
L 227.630313 101.211375 
" style="fill:none;stroke:#ff7f0e;stroke-linecap:square;stroke-width:1.5;"/>
    </g>
    <g id="line2d_37"/>
    <g id="text_18">
     <!-- q_des -->
     <g transform="translate(235.630313 104.711375)scale(0.1 -0.1)">
      <use xlink:href="#DejaVuSans-113"/>
      <use x="63.476562" xlink:href="#DejaVuSans-95"/>
      <use x="113.476562" xlink:href="#DejaVuSans-100"/>
      <use x="176.953125" xlink:href="#DejaVuSans-101"/>
      <use x="238.476562" xlink:href="#DejaVuSans-115"/>
     </g>
    </g>
    <g id="line2d_38">
     <path d="M 207.630313 116.167625 
L 227.630313 116.167625 
" style="fill:none;stroke:#2ca02c;stroke-linecap:square;stroke-width:1.5;"/>
    </g>
    <g id="line2d_39"/>
    <g id="text_19">
     <!-- error -->
     <g transform="translate(235.630313 119.667625)scale(0.1 -0.1)">
      <defs>
       <path d="M 30.609375 48.390625 
Q 23.390625 48.390625 19.1875 42.75 
Q 14.984375 37.109375 14.984375 27.296875 
Q 14.984375 17.484375 19.15625 11.84375 
Q 23.34375 6.203125 30.609375 6.203125 
Q 37.796875 6.203125 41.984375 11.859375 
Q 46.1875 17.53125 46.1875 27.296875 
Q 46.1875 37.015625 41.984375 42.703125 
Q 37.796875 48.390625 30.609375 48.390625 
z
M 30.609375 56 
Q 42.328125 56 49.015625 48.375 
Q 55.71875 40.765625 55.71875 27.296875 
Q 55.71875 13.875 49.015625 6.21875 
Q 42.328125 -1.421875 30.609375 -1.421875 
Q 18.84375 -1.421875 12.171875 6.21875 
Q 5.515625 13.875 5.515625 27.296875 
Q 5.515625 40.765625 12.171875 48.375 
Q 18.84375 56 30.609375 56 
z
" id="DejaVuSans-111"/>
      </defs>
      <use xlink:href="#DejaVuSans-101"/>
      <use x="61.523438" xlink:href="#DejaVuSans-114"/>
      <use x="100.886719" xlink:href="#DejaVuSans-114"/>
      <use x="139.75" xlink:href="#DejaVuSans-111"/>
      <use x="200.931641" xlink:href="#DejaVuSans-114"/>
     </g>
    </g>
   </g>
  </g>
  <g id="axes_2">
   <g id="patch_8">
    <path d="M 57.6 307.584 
L 414.72 307.584 
L 414.72 186.624 
L 57.6 186.624 
z
" style="fill:#ffffff;"/>
   </g>
   <g id="matplotlib.axis_3">
    <g id="xtick_10">
     <g id="line2d_40">
      <path clip-path="url(#pe03f9864a2)" d="M 73.832615 307.584 
L 73.832615 186.624 
" style="fill:none;stroke:#b0b0b0;stroke-linecap:square;stroke-width:0.8;"/>
     </g>
     <g id="line2d_41">
      <g>
       <use style="stroke:#000000;stroke-width:0.8;" x="73.832615" xlink:href="#m0f9c190780" y="307.584"/>
      </g>
     </g>
     <g id="text_20">
      <!-- 0.0 -->
      <g transform="translate(65.881052 322.182437)scale(0.1 -0.1)">
       <use xlink:href="#DejaVuSans-48"/>
       <use x="63.623047" xlink:href="#DejaVuSans-46"/>
       <use x="95.410156" xlink:href="#DejaVuSans-48"/>
      </g>
     </g>
    </g>
    <g id="xtick_11">
     <g id="line2d_42">
      <path clip-path="url(#pe03f9864a2)" d="M 114.515263 307.584 
L 114.515263 186.624 
" style="fill:none;stroke:#b0b0b0;stroke-linecap:square;stroke-width:0.8;"/>
     </g>
     <g id="line2d_43">
      <g>
       <use style="stroke:#000000;stroke-width:0.8;" x="114.515263" xlink:href="#m0f9c190780" y="307.584"/>
      </g>
     </g>
     <g id="text_21">
      <!-- 2.5 -->
      <g transform="translate(106.5637 322.182437)scale(0.1 -0.1)">
       <use xlink:href="#DejaVuSans-50"/>
       <use x="63.623047" xlink:href="#DejaVuSans-46"/>
       <use x="95.410156" xlink:href="#DejaVuSans-53"/>
      </g>
     </g>
    </g>
    <g id="xtick_12">
     <g id="line2d_44">
      <path clip-path="url(#pe03f9864a2)" d="M 155.19791 307.584 
L 155.19791 186.624 
" style="fill:none;stroke:#b0b0b0;stroke-linecap:square;stroke-width:0.8;"/>
     </g>
     <g id="line2d_45">
      <g>
       <use style="stroke:#000000;stroke-width:0.8;" x="155.19791" xlink:href="#m0f9c190780" y="307.584"/>
      </g>
     </g>
     <g id="text_22">
      <!-- 5.0 -->
      <g transform="translate(147.246348 322.182437)scale(0.1 -0.1)">
       <use xlink:href="#DejaVuSans-53"/>
       <use x="63.623047" xlink:href="#DejaVuSans-46"/>
       <use x="95.410156" xlink:href="#DejaVuSans-48"/>
      </g>
     </g>
    </g>
    <g id="xtick_13">
     <g id="line2d_46">
      <path clip-path="url(#pe03f9864a2)" d="M 195.880558 307.584 
L 195.880558 186.624 
" style="fill:none;stroke:#b0b0b0;stroke-linecap:square;stroke-width:0.8;"/>
     </g>
     <g id="line2d_47">
      <g>
       <use style="stroke:#000000;stroke-width:0.8;" x="195.880558" xlink:href="#m0f9c190780" y="307.584"/>
      </g>
     </g>
     <g id="text_23">
      <!-- 7.5 -->
      <g transform="translate(187.928996 322.182437)scale(0.1 -0.1)">
       <use xlink:href="#DejaVuSans-55"/>
       <use x="63.623047" xlink:href="#DejaVuSans-46"/>
       <use x="95.410156" xlink:href="#DejaVuSans-53"/>
      </g>
     </g>
    </g>
    <g id="xtick_14">
     <g id="line2d_48">
      <path clip-path="url(#pe03f9864a2)" d="M 236.563206 307.584 
L 236.563206 186.624 
" style="fill:none;stroke:#b0b0b0;stroke-linecap:square;stroke-width:0.8;"/>
     </g>
     <g id="line2d_49">
      <g>
       <use style="stroke:#000000;stroke-width:0.8;" x="236.563206" xlink:href="#m0f9c190780" y="307.584"/>
      </g>
     </g>
     <g id="text_24">
      <!-- 10.0 -->
      <g transform="translate(225.430394 322.182437)scale(0.1 -0.1)">
       <use xlink:href="#DejaVuSans-49"/>
       <use x="63.623047" xlink:href="#DejaVuSans-48"/>
       <use x="127.246094" xlink:href="#DejaVuSans-46"/>
       <use x="159.033203" xlink:href="#DejaVuSans-48"/>
      </g>
     </g>
    </g>
    <g id="xtick_15">
     <g id="line2d_50">
      <path clip-path="url(#pe03f9864a2)" d="M 277.245854 307.584 
L 277.245854 186.624 
" style="fill:none;stroke:#b0b0b0;stroke-linecap:square;stroke-width:0.8;"/>
     </g>
     <g id="line2d_51">
      <g>
       <use style="stroke:#000000;stroke-width:0.8;" x="277.245854" xlink:href="#m0f9c190780" y="307.584"/>
      </g>
     </g>
     <g id="text_25">
      <!-- 12.5 -->
      <g transform="translate(266.113042 322.182437)scale(0.1 -0.1)">
       <use xlink:href="#DejaVuSans-49"/>
       <use x="63.623047" xlink:href="#DejaVuSans-50"/>
       <use x="127.246094" xlink:href="#DejaVuSans-46"/>
       <use x="159.033203" xlink:href="#DejaVuSans-53"/>
      </g>
     </g>
    </g>
    <g id="xtick_16">
     <g id="line2d_52">
      <path clip-path="url(#pe03f9864a2)" d="M 317.928502 307.584 
L 317.928502 186.624 
" style="fill:none;stroke:#b0b0b0;stroke-linecap:square;stroke-width:0.8;"/>
     </g>
     <g id="line2d_53">
      <g>
       <use style="stroke:#000000;stroke-width:0.8;" x="317.928502" xlink:href="#m0f9c190780" y="307.584"/>
      </g>
     </g>
     <g id="text_26">
      <!-- 15.0 -->
      <g transform="translate(306.795689 322.182437)scale(0.1 -0.1)">
       <use xlink:href="#DejaVuSans-49"/>
       <use x="63.623047" xlink:href="#DejaVuSans-53"/>
       <use x="127.246094" xlink:href="#DejaVuSans-46"/>
       <use x="159.033203" xlink:href="#DejaVuSans-48"/>
      </g>
     </g>
    </g>
    <g id="xtick_17">
     <g id="line2d_54">
      <path clip-path="url(#pe03f9864a2)" d="M 358.61115 307.584 
L 358.61115 186.624 
" style="fill:none;stroke:#b0b0b0;stroke-linecap:square;stroke-width:0.8;"/>
     </g>
     <g id="line2d_55">
      <g>
       <use style="stroke:#000000;stroke-width:0.8;" x="358.61115" xlink:href="#m0f9c190780" y="307.584"/>
      </g>
     </g>
     <g id="text_27">
      <!-- 17.5 -->
      <g transform="translate(347.478337 322.182437)scale(0.1 -0.1)">
       <use xlink:href="#DejaVuSans-49"/>
       <use x="63.623047" xlink:href="#DejaVuSans-55"/>
       <use x="127.246094" xlink:href="#DejaVuSans-46"/>
       <use x="159.033203" xlink:href="#DejaVuSans-53"/>
      </g>
     </g>
    </g>
    <g id="xtick_18">
     <g id="line2d_56">
      <path clip-path="url(#pe03f9864a2)" d="M 399.293798 307.584 
L 399.293798 186.624 
" style="fill:none;stroke:#b0b0b0;stroke-linecap:square;stroke-width:0.8;"/>
     </g>
     <g id="line2d_57">
      <g>
       <use style="stroke:#000000;stroke-width:0.8;" x="399.293798" xlink:href="#m0f9c190780" y="307.584"/>
      </g>
     </g>
     <g id="text_28">
      <!-- 20.0 -->
      <g transform="translate(388.160985 322.182437)scale(0.1 -0.1)">
       <use xlink:href="#DejaVuSans-50"/>
       <use x="63.623047" xlink:href="#DejaVuSans-48"/>
       <use x="127.246094" xlink:href="#DejaVuSans-46"/>
       <use x="159.033203" xlink:href="#DejaVuSans-48"/>
      </g>
     </g>
    </g>
    <g id="text_29">
     <!-- time, sec -->
     <g transform="translate(213.255313 335.860562)scale(0.1 -0.1)">
      <defs>
       <path d="M 52 44.1875 
Q 55.375 50.25 60.0625 53.125 
Q 64.75 56 71.09375 56 
Q 79.640625 56 84.28125 50.015625 
Q 88.921875 44.046875 88.921875 33.015625 
L 88.921875 0 
L 79.890625 0 
L 79.890625 32.71875 
Q 79.890625 40.578125 77.09375 44.375 
Q 74.3125 48.1875 68.609375 48.1875 
Q 61.625 48.1875 57.5625 43.546875 
Q 53.515625 38.921875 53.515625 30.90625 
L 53.515625 0 
L 44.484375 0 
L 44.484375 32.71875 
Q 44.484375 40.625 41.703125 44.40625 
Q 38.921875 48.1875 33.109375 48.1875 
Q 26.21875 48.1875 22.15625 43.53125 
Q 18.109375 38.875 18.109375 30.90625 
L 18.109375 0 
L 9.078125 0 
L 9.078125 54.6875 
L 18.109375 54.6875 
L 18.109375 46.1875 
Q 21.1875 51.21875 25.484375 53.609375 
Q 29.78125 56 35.6875 56 
Q 41.65625 56 45.828125 52.96875 
Q 50 49.953125 52 44.1875 
z
" id="DejaVuSans-109"/>
      </defs>
      <use xlink:href="#DejaVuSans-116"/>
      <use x="39.208984" xlink:href="#DejaVuSans-105"/>
      <use x="66.992188" xlink:href="#DejaVuSans-109"/>
      <use x="164.404297" xlink:href="#DejaVuSans-101"/>
      <use x="225.927734" xlink:href="#DejaVuSans-44"/>
      <use x="257.714844" xlink:href="#DejaVuSans-32"/>
      <use x="289.501953" xlink:href="#DejaVuSans-115"/>
      <use x="341.601562" xlink:href="#DejaVuSans-101"/>
      <use x="403.125" xlink:href="#DejaVuSans-99"/>
     </g>
    </g>
   </g>
   <g id="matplotlib.axis_4">
    <g id="ytick_7">
     <g id="line2d_58">
      <path clip-path="url(#pe03f9864a2)" d="M 57.6 303.763768 
L 414.72 303.763768 
" style="fill:none;stroke:#b0b0b0;stroke-linecap:square;stroke-width:0.8;"/>
     </g>
     <g id="line2d_59">
      <g>
       <use style="stroke:#000000;stroke-width:0.8;" x="57.6" xlink:href="#me9f9c3950a" y="303.763768"/>
      </g>
     </g>
     <g id="text_30">
      <!-- −1.00 -->
      <g transform="translate(19.954687 307.562987)scale(0.1 -0.1)">
       <defs>
        <path d="M 10.59375 35.5 
L 73.1875 35.5 
L 73.1875 27.203125 
L 10.59375 27.203125 
z
" id="DejaVuSans-8722"/>
       </defs>
       <use xlink:href="#DejaVuSans-8722"/>
       <use x="83.789062" xlink:href="#DejaVuSans-49"/>
       <use x="147.412109" xlink:href="#DejaVuSans-46"/>
       <use x="179.199219" xlink:href="#DejaVuSans-48"/>
       <use x="242.822266" xlink:href="#DejaVuSans-48"/>
      </g>
     </g>
    </g>
    <g id="ytick_8">
     <g id="line2d_60">
      <path clip-path="url(#pe03f9864a2)" d="M 57.6 278.72065 
L 414.72 278.72065 
" style="fill:none;stroke:#b0b0b0;stroke-linecap:square;stroke-width:0.8;"/>
     </g>
     <g id="line2d_61">
      <g>
       <use style="stroke:#000000;stroke-width:0.8;" x="57.6" xlink:href="#me9f9c3950a" y="278.72065"/>
      </g>
     </g>
     <g id="text_31">
      <!-- −0.75 -->
      <g transform="translate(19.954687 282.519868)scale(0.1 -0.1)">
       <use xlink:href="#DejaVuSans-8722"/>
       <use x="83.789062" xlink:href="#DejaVuSans-48"/>
       <use x="147.412109" xlink:href="#DejaVuSans-46"/>
       <use x="179.199219" xlink:href="#DejaVuSans-55"/>
       <use x="242.822266" xlink:href="#DejaVuSans-53"/>
      </g>
     </g>
    </g>
    <g id="ytick_9">
     <g id="line2d_62">
      <path clip-path="url(#pe03f9864a2)" d="M 57.6 253.677531 
L 414.72 253.677531 
" style="fill:none;stroke:#b0b0b0;stroke-linecap:square;stroke-width:0.8;"/>
     </g>
     <g id="line2d_63">
      <g>
       <use style="stroke:#000000;stroke-width:0.8;" x="57.6" xlink:href="#me9f9c3950a" y="253.677531"/>
      </g>
     </g>
     <g id="text_32">
      <!-- −0.50 -->
      <g transform="translate(19.954687 257.47675)scale(0.1 -0.1)">
       <use xlink:href="#DejaVuSans-8722"/>
       <use x="83.789062" xlink:href="#DejaVuSans-48"/>
       <use x="147.412109" xlink:href="#DejaVuSans-46"/>
       <use x="179.199219" xlink:href="#DejaVuSans-53"/>
       <use x="242.822266" xlink:href="#DejaVuSans-48"/>
      </g>
     </g>
    </g>
    <g id="ytick_10">
     <g id="line2d_64">
      <path clip-path="url(#pe03f9864a2)" d="M 57.6 228.634412 
L 414.72 228.634412 
" style="fill:none;stroke:#b0b0b0;stroke-linecap:square;stroke-width:0.8;"/>
     </g>
     <g id="line2d_65">
      <g>
       <use style="stroke:#000000;stroke-width:0.8;" x="57.6" xlink:href="#me9f9c3950a" y="228.634412"/>
      </g>
     </g>
     <g id="text_33">
      <!-- −0.25 -->
      <g transform="translate(19.954687 232.433631)scale(0.1 -0.1)">
       <use xlink:href="#DejaVuSans-8722"/>
       <use x="83.789062" xlink:href="#DejaVuSans-48"/>
       <use x="147.412109" xlink:href="#DejaVuSans-46"/>
       <use x="179.199219" xlink:href="#DejaVuSans-50"/>
       <use x="242.822266" xlink:href="#DejaVuSans-53"/>
      </g>
     </g>
    </g>
    <g id="ytick_11">
     <g id="line2d_66">
      <path clip-path="url(#pe03f9864a2)" d="M 57.6 203.591294 
L 414.72 203.591294 
" style="fill:none;stroke:#b0b0b0;stroke-linecap:square;stroke-width:0.8;"/>
     </g>
     <g id="line2d_67">
      <g>
       <use style="stroke:#000000;stroke-width:0.8;" x="57.6" xlink:href="#me9f9c3950a" y="203.591294"/>
      </g>
     </g>
     <g id="text_34">
      <!-- 0.00 -->
      <g transform="translate(28.334375 207.390513)scale(0.1 -0.1)">
       <use xlink:href="#DejaVuSans-48"/>
       <use x="63.623047" xlink:href="#DejaVuSans-46"/>
       <use x="95.410156" xlink:href="#DejaVuSans-48"/>
       <use x="159.033203" xlink:href="#DejaVuSans-48"/>
      </g>
     </g>
    </g>
    <g id="text_35">
     <!-- knee angles, rad -->
     <g transform="translate(13.875 288.859469)rotate(-90)scale(0.1 -0.1)">
      <defs>
       <path d="M 9.078125 75.984375 
L 18.109375 75.984375 
L 18.109375 31.109375 
L 44.921875 54.6875 
L 56.390625 54.6875 
L 27.390625 29.109375 
L 57.625 0 
L 45.90625 0 
L 18.109375 26.703125 
L 18.109375 0 
L 9.078125 0 
z
" id="DejaVuSans-107"/>
      </defs>
      <use xlink:href="#DejaVuSans-107"/>
      <use x="57.910156" xlink:href="#DejaVuSans-110"/>
      <use x="121.289062" xlink:href="#DejaVuSans-101"/>
      <use x="182.8125" xlink:href="#DejaVuSans-101"/>
      <use x="244.335938" xlink:href="#DejaVuSans-32"/>
      <use x="276.123047" xlink:href="#DejaVuSans-97"/>
      <use x="337.402344" xlink:href="#DejaVuSans-110"/>
      <use x="400.78125" xlink:href="#DejaVuSans-103"/>
      <use x="464.257812" xlink:href="#DejaVuSans-108"/>
      <use x="492.041016" xlink:href="#DejaVuSans-101"/>
      <use x="553.564453" xlink:href="#DejaVuSans-115"/>
      <use x="605.664062" xlink:href="#DejaVuSans-44"/>
      <use x="637.451172" xlink:href="#DejaVuSans-32"/>
      <use x="669.238281" xlink:href="#DejaVuSans-114"/>
      <use x="710.351562" xlink:href="#DejaVuSans-97"/>
      <use x="771.630859" xlink:href="#DejaVuSans-100"/>
     </g>
    </g>
   </g>
   <g id="line2d_68">
    <path clip-path="url(#pe03f9864a2)" d="M 73.832727 206.802744 
L 76.280198 234.440676 
L 81.162375 295.555541 
L 81.984896 298.280407 
L 83.61054 299.253574 
L 90.926539 215.755877 
L 92.557075 236.970909 
L 94.178653 262.662508 
L 96.618748 291.273607 
L 106.390524 218.87001 
L 108.830922 237.554809 
L 115.329745 299.837474 
L 116.962691 296.723341 
L 120.210925 259.353742 
L 125.911348 250.984509 
L 129.989781 296.139441 
L 134.863729 280.958041 
L 135.673071 270.642475 
L 138.115789 232.494343 
L 140.553211 224.70901 
L 141.369928 236.192376 
L 144.628774 284.656074 
L 149.509317 296.917974 
L 150.320153 290.105808 
L 158.460155 251.373776 
L 163.337719 298.669674 
L 166.596599 290.689707 
L 170.657345 232.883609 
L 178.796136 295.750174 
L 182.05024 297.112607 
L 187.749864 220.03781 
L 201.584198 259.159109 
L 204.833673 215.755877 
L 206.462774 236.970909 
L 208.9051 274.340508 
L 212.162456 298.864307 
L 220.29535 220.427077 
L 223.549381 250.400609 
L 228.433815 297.696507 
L 231.697107 290.495074 
L 239.015496 236.387009 
L 242.268944 283.488274 
L 247.147323 297.696507 
L 254.46447 223.346576 
L 257.733259 273.756608 
L 260.984128 298.864307 
L 270.744055 222.95731 
L 273.179909 261.300075 
L 280.503637 290.689707 
L 283.765334 247.286476 
L 288.64424 249.622076 
L 290.272968 273.951241 
L 295.159475 299.837474 
L 302.477394 215.171977 
L 305.724681 261.105442 
L 306.544844 274.729775 
L 309.798941 298.085774 
L 314.687919 272.394175 
L 317.130183 233.662143 
L 318.74525 215.36661 
L 320.375658 235.413843 
L 322.002928 260.326909 
L 325.254514 296.528707 
L 326.879409 300.032107 
L 328.522163 297.696507 
L 332.579397 248.454276 
L 336.648725 236.387009 
L 338.273589 261.105442 
L 341.524877 296.723341 
L 345.599311 290.689707 
L 348.047868 260.521542 
L 350.483082 221.594877 
L 354.543731 260.716175 
L 356.182938 282.515108 
L 359.425306 300.032107 
L 362.687454 282.904374 
L 366.756847 221.78951 
L 370.011441 249.232809 
L 370.826043 260.716175 
L 372.455214 282.515108 
L 375.704205 300.22674 
L 376.512949 300.032107 
L 378.968528 282.904374 
L 382.212887 234.051409 
L 383.840133 215.171977 
L 396.041327 272.588808 
L 398.487273 234.246043 
" style="fill:none;stroke:#1f77b4;stroke-linecap:square;stroke-width:1.5;"/>
   </g>
   <g id="line2d_69">
    <path clip-path="url(#pe03f9864a2)" d="M 73.832727 212.087852 
L 76.280198 248.684128 
L 81.162375 300.867912 
L 81.984896 302.085818 
L 83.61054 297.15721 
L 90.926539 220.982004 
L 92.557075 248.61086 
L 94.178653 273.073662 
L 96.618748 297.165806 
L 106.390524 212.087852 
L 108.830922 248.487575 
L 115.329745 300.918505 
L 116.962691 291.386188 
L 120.210925 248.981589 
L 125.911348 261.190154 
L 129.989781 300.817787 
L 134.863729 273.465702 
L 135.673071 261.947765 
L 138.115789 221.460302 
L 140.553211 234.254106 
L 141.369928 248.097403 
L 144.628774 291.012664 
L 149.509317 291.523763 
L 150.320153 283.540264 
L 158.460155 260.980013 
L 163.337719 302.082809 
L 166.596599 283.594111 
L 170.657345 221.804226 
L 178.796136 300.700357 
L 182.05024 291.709033 
L 187.749864 212.143246 
L 201.584198 249.529066 
L 204.833673 219.987714 
L 206.462774 247.560446 
L 208.9051 282.452092 
L 212.162456 302.079078 
L 220.29535 212.185435 
L 223.549381 260.430306 
L 228.433815 302.076671 
L 231.697107 283.866827 
L 239.015496 247.396339 
L 242.268944 290.590867 
L 247.147323 291.94723 
L 254.46447 233.25674 
L 257.733259 282.272632 
L 260.984128 302.07318 
L 270.744055 233.227206 
L 273.179909 271.817267 
L 280.503637 284.27574 
L 283.765334 236.472278 
L 288.64424 259.964508 
L 290.272968 282.010649 
L 295.159475 297.78133 
L 302.477394 219.291951 
L 305.724681 271.574282 
L 306.544844 281.902364 
L 309.798941 302.062467 
L 314.687919 263.143409 
L 317.130183 222.775292 
L 318.74525 219.082644 
L 320.375658 246.62477 
L 322.002928 271.532463 
L 325.254514 300.455842 
L 326.879409 301.212498 
L 328.522163 292.212412 
L 332.579397 236.985164 
L 336.648725 246.487474 
L 338.273589 271.386884 
L 341.524877 300.417748 
L 345.599311 284.596124 
L 348.047868 250.645207 
L 350.483082 212.44003 
L 354.543731 271.234152 
L 356.182938 290.093787 
L 359.425306 301.254501 
L 362.687454 274.97367 
L 366.756847 212.479683 
L 370.011441 259.358904 
L 370.826043 271.247772 
L 372.455214 290.011395 
L 375.704205 301.260431 
L 376.512949 298.072588 
L 378.968528 274.976734 
L 382.212887 223.482376 
L 383.840133 218.613195 
L 396.041327 263.934679 
L 398.487273 223.597825 
" style="fill:none;stroke:#ff7f0e;stroke-linecap:square;stroke-width:1.5;"/>
   </g>
   <g id="line2d_70">
    <path clip-path="url(#pe03f9864a2)" d="M 73.832727 208.876402 
L 76.280198 217.834746 
L 81.162375 208.903665 
L 81.984896 207.396705 
L 83.61054 201.49493 
L 90.926539 208.817421 
L 92.557075 215.231245 
L 94.178653 214.002448 
L 96.618748 209.483493 
L 106.390524 196.809136 
L 108.830922 214.52406 
L 115.329745 204.672325 
L 116.962691 198.254141 
L 120.210925 193.219141 
L 125.911348 213.796939 
L 129.989781 208.26964 
L 134.863729 196.098955 
L 135.673071 194.896584 
L 138.115789 192.557253 
L 140.553211 213.13639 
L 141.369928 215.496321 
L 144.628774 209.947883 
L 149.509317 198.197083 
L 150.320153 197.025751 
L 158.460155 213.197531 
L 163.337719 207.004429 
L 166.596599 196.495697 
L 170.657345 192.511911 
L 178.796136 208.541476 
L 182.05024 198.18772 
L 187.749864 195.69673 
L 201.584198 193.961251 
L 204.833673 207.823131 
L 206.462774 214.18083 
L 208.9051 211.702877 
L 212.162456 206.806065 
L 220.29535 195.349652 
L 223.549381 213.620991 
L 228.433815 207.971457 
L 231.697107 196.963047 
L 239.015496 214.600623 
L 242.268944 210.693886 
L 247.147323 197.842017 
L 254.46447 213.501457 
L 257.733259 212.107317 
L 260.984128 206.800167 
L 270.744055 213.86119 
L 273.179909 214.108485 
L 280.503637 197.177326 
L 283.765334 192.777096 
L 288.64424 213.933726 
L 290.272968 211.650701 
L 295.159475 201.53515 
L 302.477394 207.711268 
L 305.724681 214.060134 
L 306.544844 210.763883 
L 309.798941 207.567987 
L 314.687919 194.340529 
L 317.130183 192.704443 
L 318.74525 207.307328 
L 320.375658 214.802221 
L 322.002928 214.796848 
L 325.254514 207.518429 
L 326.879409 204.771684 
L 328.522163 198.107199 
L 332.579397 192.122182 
L 336.648725 213.691758 
L 338.273589 213.872736 
L 341.524877 207.285701 
L 345.599311 197.49771 
L 348.047868 193.714959 
L 350.483082 194.436447 
L 354.543731 214.10927 
L 356.182938 211.169973 
L 359.425306 204.813687 
L 362.687454 195.660589 
L 366.756847 194.281467 
L 370.011441 213.717389 
L 370.826043 214.12289 
L 372.455214 211.087581 
L 375.704205 204.624984 
L 376.512949 201.631775 
L 378.968528 195.663654 
L 382.212887 193.02226 
L 383.840133 207.032512 
L 396.041327 194.937165 
L 398.487273 192.943076 
" style="fill:none;stroke:#2ca02c;stroke-linecap:square;stroke-width:1.5;"/>
   </g>
   <g id="patch_9">
    <path d="M 57.6 307.584 
L 57.6 186.624 
" style="fill:none;stroke:#000000;stroke-linecap:square;stroke-linejoin:miter;stroke-width:0.8;"/>
   </g>
   <g id="patch_10">
    <path d="M 414.72 307.584 
L 414.72 186.624 
" style="fill:none;stroke:#000000;stroke-linecap:square;stroke-linejoin:miter;stroke-width:0.8;"/>
   </g>
   <g id="patch_11">
    <path d="M 57.6 307.584 
L 414.72 307.584 
" style="fill:none;stroke:#000000;stroke-linecap:square;stroke-linejoin:miter;stroke-width:0.8;"/>
   </g>
   <g id="patch_12">
    <path d="M 57.6 186.624 
L 414.72 186.624 
" style="fill:none;stroke:#000000;stroke-linecap:square;stroke-linejoin:miter;stroke-width:0.8;"/>
   </g>
   <g id="legend_2">
    <g id="patch_13">
     <path d="M 205.630313 270.899312 
L 266.689687 270.899312 
Q 268.689687 270.899312 268.689687 268.899312 
L 268.689687 225.308687 
Q 268.689687 223.308687 266.689687 223.308687 
L 205.630313 223.308687 
Q 203.630313 223.308687 203.630313 225.308687 
L 203.630313 268.899312 
Q 203.630313 270.899312 205.630313 270.899312 
z
" style="fill:#ffffff;opacity:0.8;stroke:#cccccc;stroke-linejoin:miter;"/>
    </g>
    <g id="line2d_71">
     <path d="M 207.630313 231.407125 
L 227.630313 231.407125 
" style="fill:none;stroke:#1f77b4;stroke-linecap:square;stroke-width:1.5;"/>
    </g>
    <g id="line2d_72"/>
    <g id="text_36">
     <!-- q_cur -->
     <g transform="translate(235.630313 234.907125)scale(0.1 -0.1)">
      <use xlink:href="#DejaVuSans-113"/>
      <use x="63.476562" xlink:href="#DejaVuSans-95"/>
      <use x="113.476562" xlink:href="#DejaVuSans-99"/>
      <use x="168.457031" xlink:href="#DejaVuSans-117"/>
      <use x="231.835938" xlink:href="#DejaVuSans-114"/>
     </g>
    </g>
    <g id="line2d_73">
     <path d="M 207.630313 246.363375 
L 227.630313 246.363375 
" style="fill:none;stroke:#ff7f0e;stroke-linecap:square;stroke-width:1.5;"/>
    </g>
    <g id="line2d_74"/>
    <g id="text_37">
     <!-- q_des -->
     <g transform="translate(235.630313 249.863375)scale(0.1 -0.1)">
      <use xlink:href="#DejaVuSans-113"/>
      <use x="63.476562" xlink:href="#DejaVuSans-95"/>
      <use x="113.476562" xlink:href="#DejaVuSans-100"/>
      <use x="176.953125" xlink:href="#DejaVuSans-101"/>
      <use x="238.476562" xlink:href="#DejaVuSans-115"/>
     </g>
    </g>
    <g id="line2d_75">
     <path d="M 207.630313 261.319625 
L 227.630313 261.319625 
" style="fill:none;stroke:#2ca02c;stroke-linecap:square;stroke-width:1.5;"/>
    </g>
    <g id="line2d_76"/>
    <g id="text_38">
     <!-- error -->
     <g transform="translate(235.630313 264.819625)scale(0.1 -0.1)">
      <use xlink:href="#DejaVuSans-101"/>
      <use x="61.523438" xlink:href="#DejaVuSans-114"/>
      <use x="100.886719" xlink:href="#DejaVuSans-114"/>
      <use x="139.75" xlink:href="#DejaVuSans-111"/>
      <use x="200.931641" xlink:href="#DejaVuSans-114"/>
     </g>
    </g>
   </g>
  </g>
 </g>
 <defs>
  <clipPath id="p683f706a53">
   <rect height="120.96" width="357.12" x="57.6" y="41.472"/>
  </clipPath>
  <clipPath id="pe03f9864a2">
   <rect height="120.96" width="357.12" x="57.6" y="186.624"/>
  </clipPath>
 </defs>
</svg>
