<?xml version="1.0" encoding="utf-8" standalone="no"?>
<!DOCTYPE svg PUBLIC "-//W3C//DTD SVG 1.1//EN"
  "http://www.w3.org/Graphics/SVG/1.1/DTD/svg11.dtd">
<!-- Created with matplotlib (https://matplotlib.org/) -->
<svg height="345.6pt" version="1.1" viewBox="0 0 460.8 345.6" width="460.8pt" xmlns="http://www.w3.org/2000/svg" xmlns:xlink="http://www.w3.org/1999/xlink">
 <metadata>
  <rdf:RDF xmlns:cc="http://creativecommons.org/ns#" xmlns:dc="http://purl.org/dc/elements/1.1/" xmlns:rdf="http://www.w3.org/1999/02/22-rdf-syntax-ns#">
   <cc:Work>
    <dc:type rdf:resource="http://purl.org/dc/dcmitype/StillImage"/>
    <dc:date>2021-05-03T16:04:59.941691</dc:date>
    <dc:format>image/svg+xml</dc:format>
    <dc:creator>
     <cc:Agent>
      <dc:title>Matplotlib v3.3.4, https://matplotlib.org/</dc:title>
     </cc:Agent>
    </dc:creator>
   </cc:Work>
  </rdf:RDF>
 </metadata>
 <defs>
  <style type="text/css">*{stroke-linecap:butt;stroke-linejoin:round;}</style>
 </defs>
 <g id="figure_1">
  <g id="patch_1">
   <path d="M 0 345.6 
L 460.8 345.6 
L 460.8 0 
L 0 0 
z
" style="fill:#ffffff;"/>
  </g>
  <g id="axes_1">
   <g id="patch_2">
    <path d="M 57.6 162.432 
L 414.72 162.432 
L 414.72 41.472 
L 57.6 41.472 
z
" style="fill:#ffffff;"/>
   </g>
   <g id="matplotlib.axis_1">
    <g id="xtick_1">
     <g id="line2d_1">
      <path clip-path="url(#paf4761d91c)" d="M 73.832652 162.432 
L 73.832652 41.472 
" style="fill:none;stroke:#b0b0b0;stroke-linecap:square;stroke-width:0.8;"/>
     </g>
     <g id="line2d_2">
      <defs>
       <path d="M 0 0 
L 0 3.5 
" id="m44b7bfa32e" style="stroke:#000000;stroke-width:0.8;"/>
      </defs>
      <g>
       <use style="stroke:#000000;stroke-width:0.8;" x="73.832652" xlink:href="#m44b7bfa32e" y="162.432"/>
      </g>
     </g>
     <g id="text_1">
      <!-- 0 -->
      <g transform="translate(70.651402 177.030437)scale(0.1 -0.1)">
       <defs>
        <path d="M 31.78125 66.40625 
Q 24.171875 66.40625 20.328125 58.90625 
Q 16.5 51.421875 16.5 36.375 
Q 16.5 21.390625 20.328125 13.890625 
Q 24.171875 6.390625 31.78125 6.390625 
Q 39.453125 6.390625 43.28125 13.890625 
Q 47.125 21.390625 47.125 36.375 
Q 47.125 51.421875 43.28125 58.90625 
Q 39.453125 66.40625 31.78125 66.40625 
z
M 31.78125 74.21875 
Q 44.046875 74.21875 50.515625 64.515625 
Q 56.984375 54.828125 56.984375 36.375 
Q 56.984375 17.96875 50.515625 8.265625 
Q 44.046875 -1.421875 31.78125 -1.421875 
Q 19.53125 -1.421875 13.0625 8.265625 
Q 6.59375 17.96875 6.59375 36.375 
Q 6.59375 54.828125 13.0625 64.515625 
Q 19.53125 74.21875 31.78125 74.21875 
z
" id="DejaVuSans-48"/>
       </defs>
       <use xlink:href="#DejaVuSans-48"/>
      </g>
     </g>
    </g>
    <g id="xtick_2">
     <g id="line2d_3">
      <path clip-path="url(#paf4761d91c)" d="M 126.195199 162.432 
L 126.195199 41.472 
" style="fill:none;stroke:#b0b0b0;stroke-linecap:square;stroke-width:0.8;"/>
     </g>
     <g id="line2d_4">
      <g>
       <use style="stroke:#000000;stroke-width:0.8;" x="126.195199" xlink:href="#m44b7bfa32e" y="162.432"/>
      </g>
     </g>
     <g id="text_2">
      <!-- 5 -->
      <g transform="translate(123.013949 177.030437)scale(0.1 -0.1)">
       <defs>
        <path d="M 10.796875 72.90625 
L 49.515625 72.90625 
L 49.515625 64.59375 
L 19.828125 64.59375 
L 19.828125 46.734375 
Q 21.96875 47.46875 24.109375 47.828125 
Q 26.265625 48.1875 28.421875 48.1875 
Q 40.625 48.1875 47.75 41.5 
Q 54.890625 34.8125 54.890625 23.390625 
Q 54.890625 11.625 47.5625 5.09375 
Q 40.234375 -1.421875 26.90625 -1.421875 
Q 22.3125 -1.421875 17.546875 -0.640625 
Q 12.796875 0.140625 7.71875 1.703125 
L 7.71875 11.625 
Q 12.109375 9.234375 16.796875 8.0625 
Q 21.484375 6.890625 26.703125 6.890625 
Q 35.15625 6.890625 40.078125 11.328125 
Q 45.015625 15.765625 45.015625 23.390625 
Q 45.015625 31 40.078125 35.4375 
Q 35.15625 39.890625 26.703125 39.890625 
Q 22.75 39.890625 18.8125 39.015625 
Q 14.890625 38.140625 10.796875 36.28125 
z
" id="DejaVuSans-53"/>
       </defs>
       <use xlink:href="#DejaVuSans-53"/>
      </g>
     </g>
    </g>
    <g id="xtick_3">
     <g id="line2d_5">
      <path clip-path="url(#paf4761d91c)" d="M 178.557745 162.432 
L 178.557745 41.472 
" style="fill:none;stroke:#b0b0b0;stroke-linecap:square;stroke-width:0.8;"/>
     </g>
     <g id="line2d_6">
      <g>
       <use style="stroke:#000000;stroke-width:0.8;" x="178.557745" xlink:href="#m44b7bfa32e" y="162.432"/>
      </g>
     </g>
     <g id="text_3">
      <!-- 10 -->
      <g transform="translate(172.195245 177.030437)scale(0.1 -0.1)">
       <defs>
        <path d="M 12.40625 8.296875 
L 28.515625 8.296875 
L 28.515625 63.921875 
L 10.984375 60.40625 
L 10.984375 69.390625 
L 28.421875 72.90625 
L 38.28125 72.90625 
L 38.28125 8.296875 
L 54.390625 8.296875 
L 54.390625 0 
L 12.40625 0 
z
" id="DejaVuSans-49"/>
       </defs>
       <use xlink:href="#DejaVuSans-49"/>
       <use x="63.623047" xlink:href="#DejaVuSans-48"/>
      </g>
     </g>
    </g>
    <g id="xtick_4">
     <g id="line2d_7">
      <path clip-path="url(#paf4761d91c)" d="M 230.920291 162.432 
L 230.920291 41.472 
" style="fill:none;stroke:#b0b0b0;stroke-linecap:square;stroke-width:0.8;"/>
     </g>
     <g id="line2d_8">
      <g>
       <use style="stroke:#000000;stroke-width:0.8;" x="230.920291" xlink:href="#m44b7bfa32e" y="162.432"/>
      </g>
     </g>
     <g id="text_4">
      <!-- 15 -->
      <g transform="translate(224.557791 177.030437)scale(0.1 -0.1)">
       <use xlink:href="#DejaVuSans-49"/>
       <use x="63.623047" xlink:href="#DejaVuSans-53"/>
      </g>
     </g>
    </g>
    <g id="xtick_5">
     <g id="line2d_9">
      <path clip-path="url(#paf4761d91c)" d="M 283.282837 162.432 
L 283.282837 41.472 
" style="fill:none;stroke:#b0b0b0;stroke-linecap:square;stroke-width:0.8;"/>
     </g>
     <g id="line2d_10">
      <g>
       <use style="stroke:#000000;stroke-width:0.8;" x="283.282837" xlink:href="#m44b7bfa32e" y="162.432"/>
      </g>
     </g>
     <g id="text_5">
      <!-- 20 -->
      <g transform="translate(276.920337 177.030437)scale(0.1 -0.1)">
       <defs>
        <path d="M 19.1875 8.296875 
L 53.609375 8.296875 
L 53.609375 0 
L 7.328125 0 
L 7.328125 8.296875 
Q 12.9375 14.109375 22.625 23.890625 
Q 32.328125 33.6875 34.8125 36.53125 
Q 39.546875 41.84375 41.421875 45.53125 
Q 43.3125 49.21875 43.3125 52.78125 
Q 43.3125 58.59375 39.234375 62.25 
Q 35.15625 65.921875 28.609375 65.921875 
Q 23.96875 65.921875 18.8125 64.3125 
Q 13.671875 62.703125 7.8125 59.421875 
L 7.8125 69.390625 
Q 13.765625 71.78125 18.9375 73 
Q 24.125 74.21875 28.421875 74.21875 
Q 39.75 74.21875 46.484375 68.546875 
Q 53.21875 62.890625 53.21875 53.421875 
Q 53.21875 48.921875 51.53125 44.890625 
Q 49.859375 40.875 45.40625 35.40625 
Q 44.1875 33.984375 37.640625 27.21875 
Q 31.109375 20.453125 19.1875 8.296875 
z
" id="DejaVuSans-50"/>
       </defs>
       <use xlink:href="#DejaVuSans-50"/>
       <use x="63.623047" xlink:href="#DejaVuSans-48"/>
      </g>
     </g>
    </g>
    <g id="xtick_6">
     <g id="line2d_11">
      <path clip-path="url(#paf4761d91c)" d="M 335.645383 162.432 
L 335.645383 41.472 
" style="fill:none;stroke:#b0b0b0;stroke-linecap:square;stroke-width:0.8;"/>
     </g>
     <g id="line2d_12">
      <g>
       <use style="stroke:#000000;stroke-width:0.8;" x="335.645383" xlink:href="#m44b7bfa32e" y="162.432"/>
      </g>
     </g>
     <g id="text_6">
      <!-- 25 -->
      <g transform="translate(329.282883 177.030437)scale(0.1 -0.1)">
       <use xlink:href="#DejaVuSans-50"/>
       <use x="63.623047" xlink:href="#DejaVuSans-53"/>
      </g>
     </g>
    </g>
    <g id="xtick_7">
     <g id="line2d_13">
      <path clip-path="url(#paf4761d91c)" d="M 388.00793 162.432 
L 388.00793 41.472 
" style="fill:none;stroke:#b0b0b0;stroke-linecap:square;stroke-width:0.8;"/>
     </g>
     <g id="line2d_14">
      <g>
       <use style="stroke:#000000;stroke-width:0.8;" x="388.00793" xlink:href="#m44b7bfa32e" y="162.432"/>
      </g>
     </g>
     <g id="text_7">
      <!-- 30 -->
      <g transform="translate(381.64543 177.030437)scale(0.1 -0.1)">
       <defs>
        <path d="M 40.578125 39.3125 
Q 47.65625 37.796875 51.625 33 
Q 55.609375 28.21875 55.609375 21.1875 
Q 55.609375 10.40625 48.1875 4.484375 
Q 40.765625 -1.421875 27.09375 -1.421875 
Q 22.515625 -1.421875 17.65625 -0.515625 
Q 12.796875 0.390625 7.625 2.203125 
L 7.625 11.71875 
Q 11.71875 9.328125 16.59375 8.109375 
Q 21.484375 6.890625 26.8125 6.890625 
Q 36.078125 6.890625 40.9375 10.546875 
Q 45.796875 14.203125 45.796875 21.1875 
Q 45.796875 27.640625 41.28125 31.265625 
Q 36.765625 34.90625 28.71875 34.90625 
L 20.21875 34.90625 
L 20.21875 43.015625 
L 29.109375 43.015625 
Q 36.375 43.015625 40.234375 45.921875 
Q 44.09375 48.828125 44.09375 54.296875 
Q 44.09375 59.90625 40.109375 62.90625 
Q 36.140625 65.921875 28.71875 65.921875 
Q 24.65625 65.921875 20.015625 65.03125 
Q 15.375 64.15625 9.8125 62.3125 
L 9.8125 71.09375 
Q 15.4375 72.65625 20.34375 73.4375 
Q 25.25 74.21875 29.59375 74.21875 
Q 40.828125 74.21875 47.359375 69.109375 
Q 53.90625 64.015625 53.90625 55.328125 
Q 53.90625 49.265625 50.4375 45.09375 
Q 46.96875 40.921875 40.578125 39.3125 
z
" id="DejaVuSans-51"/>
       </defs>
       <use xlink:href="#DejaVuSans-51"/>
       <use x="63.623047" xlink:href="#DejaVuSans-48"/>
      </g>
     </g>
    </g>
   </g>
   <g id="matplotlib.axis_2">
    <g id="ytick_1">
     <g id="line2d_15">
      <path clip-path="url(#paf4761d91c)" d="M 57.6 149.939905 
L 414.72 149.939905 
" style="fill:none;stroke:#b0b0b0;stroke-linecap:square;stroke-width:0.8;"/>
     </g>
     <g id="line2d_16">
      <defs>
       <path d="M 0 0 
L -3.5 0 
" id="md4a2102ef4" style="stroke:#000000;stroke-width:0.8;"/>
      </defs>
      <g>
       <use style="stroke:#000000;stroke-width:0.8;" x="57.6" xlink:href="#md4a2102ef4" y="149.939905"/>
      </g>
     </g>
     <g id="text_8">
      <!-- 0.0 -->
      <g transform="translate(34.696875 153.739124)scale(0.1 -0.1)">
       <defs>
        <path d="M 10.6875 12.40625 
L 21 12.40625 
L 21 0 
L 10.6875 0 
z
" id="DejaVuSans-46"/>
       </defs>
       <use xlink:href="#DejaVuSans-48"/>
       <use x="63.623047" xlink:href="#DejaVuSans-46"/>
       <use x="95.410156" xlink:href="#DejaVuSans-48"/>
      </g>
     </g>
    </g>
    <g id="ytick_2">
     <g id="line2d_17">
      <path clip-path="url(#paf4761d91c)" d="M 57.6 128.348504 
L 414.72 128.348504 
" style="fill:none;stroke:#b0b0b0;stroke-linecap:square;stroke-width:0.8;"/>
     </g>
     <g id="line2d_18">
      <g>
       <use style="stroke:#000000;stroke-width:0.8;" x="57.6" xlink:href="#md4a2102ef4" y="128.348504"/>
      </g>
     </g>
     <g id="text_9">
      <!-- 0.1 -->
      <g transform="translate(34.696875 132.147723)scale(0.1 -0.1)">
       <use xlink:href="#DejaVuSans-48"/>
       <use x="63.623047" xlink:href="#DejaVuSans-46"/>
       <use x="95.410156" xlink:href="#DejaVuSans-49"/>
      </g>
     </g>
    </g>
    <g id="ytick_3">
     <g id="line2d_19">
      <path clip-path="url(#paf4761d91c)" d="M 57.6 106.757104 
L 414.72 106.757104 
" style="fill:none;stroke:#b0b0b0;stroke-linecap:square;stroke-width:0.8;"/>
     </g>
     <g id="line2d_20">
      <g>
       <use style="stroke:#000000;stroke-width:0.8;" x="57.6" xlink:href="#md4a2102ef4" y="106.757104"/>
      </g>
     </g>
     <g id="text_10">
      <!-- 0.2 -->
      <g transform="translate(34.696875 110.556322)scale(0.1 -0.1)">
       <use xlink:href="#DejaVuSans-48"/>
       <use x="63.623047" xlink:href="#DejaVuSans-46"/>
       <use x="95.410156" xlink:href="#DejaVuSans-50"/>
      </g>
     </g>
    </g>
    <g id="ytick_4">
     <g id="line2d_21">
      <path clip-path="url(#paf4761d91c)" d="M 57.6 85.165703 
L 414.72 85.165703 
" style="fill:none;stroke:#b0b0b0;stroke-linecap:square;stroke-width:0.8;"/>
     </g>
     <g id="line2d_22">
      <g>
       <use style="stroke:#000000;stroke-width:0.8;" x="57.6" xlink:href="#md4a2102ef4" y="85.165703"/>
      </g>
     </g>
     <g id="text_11">
      <!-- 0.3 -->
      <g transform="translate(34.696875 88.964922)scale(0.1 -0.1)">
       <use xlink:href="#DejaVuSans-48"/>
       <use x="63.623047" xlink:href="#DejaVuSans-46"/>
       <use x="95.410156" xlink:href="#DejaVuSans-51"/>
      </g>
     </g>
    </g>
    <g id="ytick_5">
     <g id="line2d_23">
      <path clip-path="url(#paf4761d91c)" d="M 57.6 63.574302 
L 414.72 63.574302 
" style="fill:none;stroke:#b0b0b0;stroke-linecap:square;stroke-width:0.8;"/>
     </g>
     <g id="line2d_24">
      <g>
       <use style="stroke:#000000;stroke-width:0.8;" x="57.6" xlink:href="#md4a2102ef4" y="63.574302"/>
      </g>
     </g>
     <g id="text_12">
      <!-- 0.4 -->
      <g transform="translate(34.696875 67.373521)scale(0.1 -0.1)">
       <defs>
        <path d="M 37.796875 64.3125 
L 12.890625 25.390625 
L 37.796875 25.390625 
z
M 35.203125 72.90625 
L 47.609375 72.90625 
L 47.609375 25.390625 
L 58.015625 25.390625 
L 58.015625 17.1875 
L 47.609375 17.1875 
L 47.609375 0 
L 37.796875 0 
L 37.796875 17.1875 
L 4.890625 17.1875 
L 4.890625 26.703125 
z
" id="DejaVuSans-52"/>
       </defs>
       <use xlink:href="#DejaVuSans-48"/>
       <use x="63.623047" xlink:href="#DejaVuSans-46"/>
       <use x="95.410156" xlink:href="#DejaVuSans-52"/>
      </g>
     </g>
    </g>
    <g id="ytick_6">
     <g id="line2d_25">
      <path clip-path="url(#paf4761d91c)" d="M 57.6 41.982901 
L 414.72 41.982901 
" style="fill:none;stroke:#b0b0b0;stroke-linecap:square;stroke-width:0.8;"/>
     </g>
     <g id="line2d_26">
      <g>
       <use style="stroke:#000000;stroke-width:0.8;" x="57.6" xlink:href="#md4a2102ef4" y="41.982901"/>
      </g>
     </g>
     <g id="text_13">
      <!-- 0.5 -->
      <g transform="translate(34.696875 45.78212)scale(0.1 -0.1)">
       <use xlink:href="#DejaVuSans-48"/>
       <use x="63.623047" xlink:href="#DejaVuSans-46"/>
       <use x="95.410156" xlink:href="#DejaVuSans-53"/>
      </g>
     </g>
    </g>
    <g id="text_14">
     <!-- thigh angles, rad -->
     <g transform="translate(28.617187 144.351219)rotate(-90)scale(0.1 -0.1)">
      <defs>
       <path d="M 18.3125 70.21875 
L 18.3125 54.6875 
L 36.8125 54.6875 
L 36.8125 47.703125 
L 18.3125 47.703125 
L 18.3125 18.015625 
Q 18.3125 11.328125 20.140625 9.421875 
Q 21.96875 7.515625 27.59375 7.515625 
L 36.8125 7.515625 
L 36.8125 0 
L 27.59375 0 
Q 17.1875 0 13.234375 3.875 
Q 9.28125 7.765625 9.28125 18.015625 
L 9.28125 47.703125 
L 2.6875 47.703125 
L 2.6875 54.6875 
L 9.28125 54.6875 
L 9.28125 70.21875 
z
" id="DejaVuSans-116"/>
       <path d="M 54.890625 33.015625 
L 54.890625 0 
L 45.90625 0 
L 45.90625 32.71875 
Q 45.90625 40.484375 42.875 44.328125 
Q 39.84375 48.1875 33.796875 48.1875 
Q 26.515625 48.1875 22.3125 43.546875 
Q 18.109375 38.921875 18.109375 30.90625 
L 18.109375 0 
L 9.078125 0 
L 9.078125 75.984375 
L 18.109375 75.984375 
L 18.109375 46.1875 
Q 21.34375 51.125 25.703125 53.5625 
Q 30.078125 56 35.796875 56 
Q 45.21875 56 50.046875 50.171875 
Q 54.890625 44.34375 54.890625 33.015625 
z
" id="DejaVuSans-104"/>
       <path d="M 9.421875 54.6875 
L 18.40625 54.6875 
L 18.40625 0 
L 9.421875 0 
z
M 9.421875 75.984375 
L 18.40625 75.984375 
L 18.40625 64.59375 
L 9.421875 64.59375 
z
" id="DejaVuSans-105"/>
       <path d="M 45.40625 27.984375 
Q 45.40625 37.75 41.375 43.109375 
Q 37.359375 48.484375 30.078125 48.484375 
Q 22.859375 48.484375 18.828125 43.109375 
Q 14.796875 37.75 14.796875 27.984375 
Q 14.796875 18.265625 18.828125 12.890625 
Q 22.859375 7.515625 30.078125 7.515625 
Q 37.359375 7.515625 41.375 12.890625 
Q 45.40625 18.265625 45.40625 27.984375 
z
M 54.390625 6.78125 
Q 54.390625 -7.171875 48.1875 -13.984375 
Q 42 -20.796875 29.203125 -20.796875 
Q 24.46875 -20.796875 20.265625 -20.09375 
Q 16.0625 -19.390625 12.109375 -17.921875 
L 12.109375 -9.1875 
Q 16.0625 -11.328125 19.921875 -12.34375 
Q 23.78125 -13.375 27.78125 -13.375 
Q 36.625 -13.375 41.015625 -8.765625 
Q 45.40625 -4.15625 45.40625 5.171875 
L 45.40625 9.625 
Q 42.625 4.78125 38.28125 2.390625 
Q 33.9375 0 27.875 0 
Q 17.828125 0 11.671875 7.65625 
Q 5.515625 15.328125 5.515625 27.984375 
Q 5.515625 40.671875 11.671875 48.328125 
Q 17.828125 56 27.875 56 
Q 33.9375 56 38.28125 53.609375 
Q 42.625 51.21875 45.40625 46.390625 
L 45.40625 54.6875 
L 54.390625 54.6875 
z
" id="DejaVuSans-103"/>
       <path id="DejaVuSans-32"/>
       <path d="M 34.28125 27.484375 
Q 23.390625 27.484375 19.1875 25 
Q 14.984375 22.515625 14.984375 16.5 
Q 14.984375 11.71875 18.140625 8.90625 
Q 21.296875 6.109375 26.703125 6.109375 
Q 34.1875 6.109375 38.703125 11.40625 
Q 43.21875 16.703125 43.21875 25.484375 
L 43.21875 27.484375 
z
M 52.203125 31.203125 
L 52.203125 0 
L 43.21875 0 
L 43.21875 8.296875 
Q 40.140625 3.328125 35.546875 0.953125 
Q 30.953125 -1.421875 24.3125 -1.421875 
Q 15.921875 -1.421875 10.953125 3.296875 
Q 6 8.015625 6 15.921875 
Q 6 25.140625 12.171875 29.828125 
Q 18.359375 34.515625 30.609375 34.515625 
L 43.21875 34.515625 
L 43.21875 35.40625 
Q 43.21875 41.609375 39.140625 45 
Q 35.0625 48.390625 27.6875 48.390625 
Q 23 48.390625 18.546875 47.265625 
Q 14.109375 46.140625 10.015625 43.890625 
L 10.015625 52.203125 
Q 14.9375 54.109375 19.578125 55.046875 
Q 24.21875 56 28.609375 56 
Q 40.484375 56 46.34375 49.84375 
Q 52.203125 43.703125 52.203125 31.203125 
z
" id="DejaVuSans-97"/>
       <path d="M 54.890625 33.015625 
L 54.890625 0 
L 45.90625 0 
L 45.90625 32.71875 
Q 45.90625 40.484375 42.875 44.328125 
Q 39.84375 48.1875 33.796875 48.1875 
Q 26.515625 48.1875 22.3125 43.546875 
Q 18.109375 38.921875 18.109375 30.90625 
L 18.109375 0 
L 9.078125 0 
L 9.078125 54.6875 
L 18.109375 54.6875 
L 18.109375 46.1875 
Q 21.34375 51.125 25.703125 53.5625 
Q 30.078125 56 35.796875 56 
Q 45.21875 56 50.046875 50.171875 
Q 54.890625 44.34375 54.890625 33.015625 
z
" id="DejaVuSans-110"/>
       <path d="M 9.421875 75.984375 
L 18.40625 75.984375 
L 18.40625 0 
L 9.421875 0 
z
" id="DejaVuSans-108"/>
       <path d="M 56.203125 29.59375 
L 56.203125 25.203125 
L 14.890625 25.203125 
Q 15.484375 15.921875 20.484375 11.0625 
Q 25.484375 6.203125 34.421875 6.203125 
Q 39.59375 6.203125 44.453125 7.46875 
Q 49.3125 8.734375 54.109375 11.28125 
L 54.109375 2.78125 
Q 49.265625 0.734375 44.1875 -0.34375 
Q 39.109375 -1.421875 33.890625 -1.421875 
Q 20.796875 -1.421875 13.15625 6.1875 
Q 5.515625 13.8125 5.515625 26.8125 
Q 5.515625 40.234375 12.765625 48.109375 
Q 20.015625 56 32.328125 56 
Q 43.359375 56 49.78125 48.890625 
Q 56.203125 41.796875 56.203125 29.59375 
z
M 47.21875 32.234375 
Q 47.125 39.59375 43.09375 43.984375 
Q 39.0625 48.390625 32.421875 48.390625 
Q 24.90625 48.390625 20.390625 44.140625 
Q 15.875 39.890625 15.1875 32.171875 
z
" id="DejaVuSans-101"/>
       <path d="M 44.28125 53.078125 
L 44.28125 44.578125 
Q 40.484375 46.53125 36.375 47.5 
Q 32.28125 48.484375 27.875 48.484375 
Q 21.1875 48.484375 17.84375 46.4375 
Q 14.5 44.390625 14.5 40.28125 
Q 14.5 37.15625 16.890625 35.375 
Q 19.28125 33.59375 26.515625 31.984375 
L 29.59375 31.296875 
Q 39.15625 29.25 43.1875 25.515625 
Q 47.21875 21.78125 47.21875 15.09375 
Q 47.21875 7.46875 41.1875 3.015625 
Q 35.15625 -1.421875 24.609375 -1.421875 
Q 20.21875 -1.421875 15.453125 -0.5625 
Q 10.6875 0.296875 5.421875 2 
L 5.421875 11.28125 
Q 10.40625 8.6875 15.234375 7.390625 
Q 20.0625 6.109375 24.8125 6.109375 
Q 31.15625 6.109375 34.5625 8.28125 
Q 37.984375 10.453125 37.984375 14.40625 
Q 37.984375 18.0625 35.515625 20.015625 
Q 33.0625 21.96875 24.703125 23.78125 
L 21.578125 24.515625 
Q 13.234375 26.265625 9.515625 29.90625 
Q 5.8125 33.546875 5.8125 39.890625 
Q 5.8125 47.609375 11.28125 51.796875 
Q 16.75 56 26.8125 56 
Q 31.78125 56 36.171875 55.265625 
Q 40.578125 54.546875 44.28125 53.078125 
z
" id="DejaVuSans-115"/>
       <path d="M 11.71875 12.40625 
L 22.015625 12.40625 
L 22.015625 4 
L 14.015625 -11.625 
L 7.71875 -11.625 
L 11.71875 4 
z
" id="DejaVuSans-44"/>
       <path d="M 41.109375 46.296875 
Q 39.59375 47.171875 37.8125 47.578125 
Q 36.03125 48 33.890625 48 
Q 26.265625 48 22.1875 43.046875 
Q 18.109375 38.09375 18.109375 28.8125 
L 18.109375 0 
L 9.078125 0 
L 9.078125 54.6875 
L 18.109375 54.6875 
L 18.109375 46.1875 
Q 20.953125 51.171875 25.484375 53.578125 
Q 30.03125 56 36.53125 56 
Q 37.453125 56 38.578125 55.875 
Q 39.703125 55.765625 41.0625 55.515625 
z
" id="DejaVuSans-114"/>
       <path d="M 45.40625 46.390625 
L 45.40625 75.984375 
L 54.390625 75.984375 
L 54.390625 0 
L 45.40625 0 
L 45.40625 8.203125 
Q 42.578125 3.328125 38.25 0.953125 
Q 33.9375 -1.421875 27.875 -1.421875 
Q 17.96875 -1.421875 11.734375 6.484375 
Q 5.515625 14.40625 5.515625 27.296875 
Q 5.515625 40.1875 11.734375 48.09375 
Q 17.96875 56 27.875 56 
Q 33.9375 56 38.25 53.625 
Q 42.578125 51.265625 45.40625 46.390625 
z
M 14.796875 27.296875 
Q 14.796875 17.390625 18.875 11.75 
Q 22.953125 6.109375 30.078125 6.109375 
Q 37.203125 6.109375 41.296875 11.75 
Q 45.40625 17.390625 45.40625 27.296875 
Q 45.40625 37.203125 41.296875 42.84375 
Q 37.203125 48.484375 30.078125 48.484375 
Q 22.953125 48.484375 18.875 42.84375 
Q 14.796875 37.203125 14.796875 27.296875 
z
" id="DejaVuSans-100"/>
      </defs>
      <use xlink:href="#DejaVuSans-116"/>
      <use x="39.208984" xlink:href="#DejaVuSans-104"/>
      <use x="102.587891" xlink:href="#DejaVuSans-105"/>
      <use x="130.371094" xlink:href="#DejaVuSans-103"/>
      <use x="193.847656" xlink:href="#DejaVuSans-104"/>
      <use x="257.226562" xlink:href="#DejaVuSans-32"/>
      <use x="289.013672" xlink:href="#DejaVuSans-97"/>
      <use x="350.292969" xlink:href="#DejaVuSans-110"/>
      <use x="413.671875" xlink:href="#DejaVuSans-103"/>
      <use x="477.148438" xlink:href="#DejaVuSans-108"/>
      <use x="504.931641" xlink:href="#DejaVuSans-101"/>
      <use x="566.455078" xlink:href="#DejaVuSans-115"/>
      <use x="618.554688" xlink:href="#DejaVuSans-44"/>
      <use x="650.341797" xlink:href="#DejaVuSans-32"/>
      <use x="682.128906" xlink:href="#DejaVuSans-114"/>
      <use x="723.242188" xlink:href="#DejaVuSans-97"/>
      <use x="784.521484" xlink:href="#DejaVuSans-100"/>
     </g>
    </g>
   </g>
   <g id="line2d_27">
    <path clip-path="url(#paf4761d91c)" d="M 73.832727 147.108165 
L 74.363166 143.961787 
L 74.888119 142.703236 
L 79.60161 76.000024 
L 86.405909 50.199725 
L 88.503739 65.302339 
L 94.256568 137.039756 
L 96.354154 137.039756 
L 98.446464 106.205252 
L 100.540824 81.034229 
L 102.63609 61.526686 
L 106.822316 52.087552 
L 107.873973 53.346103 
L 110.489216 73.482922 
L 116.253236 144.591063 
L 117.294528 137.669031 
L 118.865333 112.498008 
L 120.959633 86.068433 
L 122.015877 75.370748 
L 124.108701 59.009583 
L 127.773357 52.087552 
L 128.293971 52.716827 
L 130.386361 65.931615 
L 131.43172 74.112197 
L 136.146552 136.41048 
L 137.193677 145.849614 
L 138.240673 137.669031 
L 139.811637 113.127283 
L 143.478697 70.965819 
L 145.573792 56.492481 
L 153.949189 92.990465 
L 157.616684 142.703236 
L 160.756077 113.756559 
L 164.946951 65.931615 
L 165.995602 59.009583 
L 167.040904 54.604654 
L 170.184175 52.087552 
L 172.284475 64.673063 
L 173.848364 79.775677 
L 174.375836 87.326984 
L 176.992583 120.67859 
L 180.138804 137.039756 
L 180.660669 128.229897 
L 182.751336 100.541772 
L 185.372158 70.965819 
L 186.939612 59.638859 
L 189.030601 52.716827 
L 193.227453 64.673063 
L 195.318685 86.068433 
L 197.409512 113.756559 
L 203.699638 100.541772 
L 208.410737 56.492481 
L 212.070649 52.087552 
L 215.736625 80.404953 
L 216.262365 86.697709 
L 222.026761 138.298307 
L 227.786039 66.56089 
L 229.878299 54.604654 
L 231.969788 52.087552 
L 234.065833 55.863205 
L 235.119096 64.673063 
L 236.687898 79.775677 
L 239.298578 113.127283 
L 241.396708 142.703236 
L 245.582087 101.171047 
L 248.732661 66.56089 
L 250.823842 54.604654 
L 252.389856 53.346103 
L 255.533316 59.638859 
L 257.631406 79.775677 
L 259.728922 106.205252 
L 261.290754 128.859173 
L 263.38588 143.961787 
L 266.007748 106.834528 
L 267.581871 87.95626 
L 277.523477 68.448717 
L 278.05485 74.112197 
L 280.150074 98.024669 
L 287.998813 94.249016 
L 289.57392 75.370748 
L 294.806227 53.346103 
L 295.850041 53.346103 
L 297.428694 59.638859 
L 298.467984 68.448717 
L 300.044367 85.439158 
L 304.231446 142.07396 
L 305.80506 138.927582 
L 309.996477 81.034229 
L 310.518911 76.6293 
L 312.083109 62.155961 
L 312.610444 59.638859 
L 313.139849 57.751032 
L 313.661362 53.975379 
L 315.224704 52.087552 
L 315.755125 52.087552 
L 319.41688 69.077993 
L 320.990304 85.439158 
L 325.176849 141.444685 
L 326.750645 138.927582 
L 328.315822 114.385835 
L 332.512705 67.190166 
L 334.598947 54.604654 
L 336.176317 52.087552 
L 338.272267 51.458276 
L 338.796312 55.23393 
L 340.881785 72.853646 
L 342.985945 98.024669 
L 345.077904 127.600622 
L 349.789073 108.093079 
L 352.41105 76.6293 
L 353.453064 67.190166 
L 356.076517 53.346103 
L 359.21544 53.346103 
L 359.737383 55.863205 
L 361.305396 68.448717 
L 363.922967 97.395394 
L 366.545583 134.522653 
L 369.6817 122.566417 
L 370.20712 115.01511 
L 373.354905 76.6293 
L 375.973567 57.121756 
L 377.014562 53.975379 
L 379.106775 53.346103 
L 380.681193 55.23393 
L 383.823387 85.439158 
L 385.391672 105.575976 
L 386.961833 127.600622 
L 389.587803 138.927582 
L 391.679509 108.093079 
L 394.296031 77.258575 
L 396.391622 59.638859 
L 398.487273 52.716827 
L 398.487273 52.716827 
" style="fill:none;stroke:#1f77b4;stroke-linecap:square;stroke-width:1.5;"/>
   </g>
   <g id="line2d_28">
    <path clip-path="url(#paf4761d91c)" d="M 73.832727 145.657897 
L 74.363166 142.375056 
L 74.888119 135.740038 
L 79.60161 72.843732 
L 86.405909 52.295422 
L 88.503739 67.69469 
L 94.256568 142.36253 
L 96.354154 128.438545 
L 98.446464 98.429124 
L 100.540824 73.015759 
L 102.63609 55.314539 
L 106.822316 49.918409 
L 107.873973 55.176484 
L 110.489216 78.450416 
L 116.253236 142.600713 
L 118.348055 113.243995 
L 118.865333 105.851692 
L 120.959633 78.893972 
L 122.015877 67.814813 
L 124.108701 52.384518 
L 127.773357 49.900981 
L 128.293971 52.179023 
L 130.386361 67.423089 
L 131.43172 78.301504 
L 136.146552 142.130629 
L 137.193677 142.759749 
L 138.240673 128.79967 
L 139.811637 105.983454 
L 143.478697 63.232624 
L 145.573792 50.099895 
L 153.949189 97.781943 
L 156.049771 127.860103 
L 157.616684 145.638395 
L 160.756077 106.141392 
L 164.946951 59.13065 
L 165.995602 52.508989 
L 167.040904 48.42416 
L 170.184175 52.074548 
L 172.284475 67.298794 
L 174.375836 90.809019 
L 176.992583 127.672504 
L 180.138804 128.991494 
L 182.751336 92.029745 
L 185.372158 63.384901 
L 186.939612 52.568876 
L 189.030601 46.970182 
L 193.227453 67.179533 
L 195.318685 90.644781 
L 195.841154 97.52137 
L 197.409512 119.764077 
L 203.699638 92.124897 
L 208.410737 50.217515 
L 212.070649 51.952752 
L 215.736625 83.944873 
L 216.262365 90.491231 
L 222.026761 129.331177 
L 227.786039 59.339183 
L 229.878299 48.50385 
L 231.969788 48.116403 
L 234.065833 58.248654 
L 235.119096 66.995304 
L 236.687898 83.892019 
L 239.298578 119.438461 
L 241.396708 145.568517 
L 245.582087 92.499865 
L 248.732661 59.407145 
L 250.823842 48.531483 
L 252.389856 47.197064 
L 255.533316 62.215274 
L 257.631406 83.745663 
L 259.728922 111.794389 
L 261.290754 134.523332 
L 263.38588 137.149916 
L 266.007748 99.569226 
L 267.581871 79.66447 
L 277.523477 71.841456 
L 278.05485 77.554286 
L 280.150074 104.201489 
L 287.998813 86.089783 
L 289.57392 68.651911 
L 294.806227 48.045385 
L 295.850041 51.744466 
L 297.428694 62.083794 
L 298.467984 71.727096 
L 300.044367 89.972402 
L 302.666664 126.797602 
L 304.231446 145.483806 
L 305.80506 129.974752 
L 309.996477 74.081292 
L 310.518911 68.755234 
L 312.083109 56.011777 
L 313.139849 50.414689 
L 313.661362 48.613754 
L 315.224704 47.164257 
L 315.755125 48.030021 
L 319.41688 71.657838 
L 320.990304 89.848776 
L 324.134925 134.202729 
L 325.176849 145.450641 
L 326.750645 130.120377 
L 328.315822 107.34866 
L 332.512705 59.729804 
L 334.598947 48.66521 
L 336.176317 47.160304 
L 338.272267 54.485481 
L 338.796312 57.907093 
L 340.881785 77.10752 
L 342.985945 103.767873 
L 345.077904 134.023868 
L 349.789073 100.132725 
L 352.41105 68.941494 
L 353.453064 59.846747 
L 356.076517 47.495139 
L 359.21544 54.411522 
L 359.737383 57.803775 
L 361.305396 71.424874 
L 363.922967 103.508216 
L 366.545583 140.829501 
L 369.6817 115.189373 
L 370.20712 107.6322 
L 372.306716 80.280874 
L 373.354905 69.056612 
L 375.973567 50.551261 
L 377.014562 47.523788 
L 379.106775 49.417175 
L 380.681193 57.720217 
L 383.823387 89.417903 
L 386.961833 133.636849 
L 389.587803 130.551878 
L 391.679509 100.41833 
L 394.296031 69.198654 
L 396.391622 53.120202 
L 398.487273 46.996634 
L 398.487273 46.996634 
" style="fill:none;stroke:#ff7f0e;stroke-linecap:square;stroke-width:1.5;"/>
   </g>
   <g id="line2d_29">
    <path clip-path="url(#paf4761d91c)" d="M 73.832727 148.489637 
L 74.363166 148.353174 
L 74.888119 142.976707 
L 79.078427 146.19889 
L 79.60161 146.783613 
L 86.405909 152.035602 
L 88.503739 152.332256 
L 94.256568 155.26268 
L 96.354154 141.338695 
L 98.446464 142.163777 
L 100.540824 141.921435 
L 102.63609 143.727758 
L 106.822316 147.770762 
L 107.873973 151.770286 
L 110.489216 154.907399 
L 116.253236 147.949556 
L 117.294528 140.93211 
L 118.348055 143.134585 
L 118.865333 143.293589 
L 120.959633 142.765444 
L 122.015877 142.38397 
L 124.108701 143.31484 
L 127.773357 147.753334 
L 128.293971 149.402101 
L 130.386361 151.431379 
L 131.43172 154.129212 
L 136.146552 155.660054 
L 137.193677 146.85004 
L 138.240673 141.070544 
L 139.811637 142.796075 
L 143.478697 142.20671 
L 145.573792 143.54732 
L 153.949189 154.731383 
L 156.049771 156.492142 
L 157.616684 152.875064 
L 160.756077 142.324738 
L 165.995602 143.439311 
L 167.040904 143.759411 
L 170.184175 149.926901 
L 173.848364 154.387416 
L 174.375836 153.42194 
L 176.992583 156.933818 
L 180.138804 141.891644 
L 180.660669 143.047727 
L 182.751336 141.427879 
L 186.939612 142.869923 
L 189.030601 144.19326 
L 193.227453 152.446374 
L 194.792725 153.621603 
L 195.318685 154.516253 
L 195.841154 154.47081 
L 197.409512 155.947423 
L 203.699638 141.523031 
L 208.410737 143.664939 
L 212.070649 149.805105 
L 215.736625 153.479825 
L 216.262365 153.733427 
L 222.026761 140.972775 
L 227.786039 142.718198 
L 229.878299 143.839101 
L 231.969788 145.968756 
L 234.065833 152.325354 
L 235.119096 152.262146 
L 236.687898 154.056246 
L 239.298578 156.251083 
L 241.396708 152.805186 
L 245.582087 141.268723 
L 250.823842 143.866734 
L 252.389856 143.790866 
L 255.533316 152.516321 
L 257.631406 153.909891 
L 259.728922 155.529042 
L 261.290754 155.604064 
L 263.38588 143.128034 
L 266.007748 142.674603 
L 267.581871 141.648115 
L 277.523477 153.332645 
L 278.05485 153.381994 
L 279.623133 154.553981 
L 280.150074 156.116725 
L 287.998813 141.780672 
L 289.57392 143.221068 
L 294.806227 144.639188 
L 295.850041 148.338268 
L 297.428694 152.38484 
L 300.044367 154.473149 
L 302.666664 156.058917 
L 304.231446 153.349751 
L 305.80506 140.987075 
L 309.996477 142.986968 
L 310.518911 142.06584 
L 312.083109 143.795721 
L 313.139849 142.603562 
L 313.661362 144.578281 
L 315.224704 145.01661 
L 315.755125 145.882374 
L 319.41688 152.519751 
L 320.990304 154.349523 
L 324.134925 155.912737 
L 325.176849 153.945861 
L 326.750645 141.1327 
L 328.315822 142.902731 
L 332.512705 142.479543 
L 334.598947 144.000461 
L 336.176317 145.012658 
L 338.272267 152.96711 
L 338.796312 152.613068 
L 342.985945 155.683109 
L 345.077904 156.363151 
L 349.789073 141.979551 
L 352.41105 142.2521 
L 353.453064 142.596487 
L 356.076517 144.088941 
L 359.21544 151.005324 
L 359.737383 151.880475 
L 361.305396 152.916062 
L 363.40459 154.632274 
L 363.922967 156.052727 
L 366.545583 156.246753 
L 369.6817 142.562861 
L 370.20712 142.556995 
L 372.306716 141.635243 
L 373.354905 142.367217 
L 375.973567 143.369409 
L 377.014562 143.488315 
L 379.106775 146.010977 
L 380.681193 152.426192 
L 383.823387 153.91865 
L 385.391672 155.135617 
L 386.961833 155.976133 
L 389.587803 141.5642 
L 391.679509 142.265156 
L 394.296031 141.879984 
L 396.391622 143.421248 
L 398.487273 144.219711 
L 398.487273 144.219711 
" style="fill:none;stroke:#2ca02c;stroke-linecap:square;stroke-width:1.5;"/>
   </g>
   <g id="patch_3">
    <path d="M 57.6 162.432 
L 57.6 41.472 
" style="fill:none;stroke:#000000;stroke-linecap:square;stroke-linejoin:miter;stroke-width:0.8;"/>
   </g>
   <g id="patch_4">
    <path d="M 414.72 162.432 
L 414.72 41.472 
" style="fill:none;stroke:#000000;stroke-linecap:square;stroke-linejoin:miter;stroke-width:0.8;"/>
   </g>
   <g id="patch_5">
    <path d="M 57.6 162.432 
L 414.72 162.432 
" style="fill:none;stroke:#000000;stroke-linecap:square;stroke-linejoin:miter;stroke-width:0.8;"/>
   </g>
   <g id="patch_6">
    <path d="M 57.6 41.472 
L 414.72 41.472 
" style="fill:none;stroke:#000000;stroke-linecap:square;stroke-linejoin:miter;stroke-width:0.8;"/>
   </g>
   <g id="legend_1">
    <g id="patch_7">
     <path d="M 64.6 125.747312 
L 125.659375 125.747312 
Q 127.659375 125.747312 127.659375 123.747312 
L 127.659375 80.156687 
Q 127.659375 78.156687 125.659375 78.156687 
L 64.6 78.156687 
Q 62.6 78.156687 62.6 80.156687 
L 62.6 123.747312 
Q 62.6 125.747312 64.6 125.747312 
z
" style="fill:#ffffff;opacity:0.8;stroke:#cccccc;stroke-linejoin:miter;"/>
    </g>
    <g id="line2d_30">
     <path d="M 66.6 86.255125 
L 86.6 86.255125 
" style="fill:none;stroke:#1f77b4;stroke-linecap:square;stroke-width:1.5;"/>
    </g>
    <g id="line2d_31"/>
    <g id="text_15">
     <!-- q_cur -->
     <g transform="translate(94.6 89.755125)scale(0.1 -0.1)">
      <defs>
       <path d="M 14.796875 27.296875 
Q 14.796875 17.390625 18.875 11.75 
Q 22.953125 6.109375 30.078125 6.109375 
Q 37.203125 6.109375 41.296875 11.75 
Q 45.40625 17.390625 45.40625 27.296875 
Q 45.40625 37.203125 41.296875 42.84375 
Q 37.203125 48.484375 30.078125 48.484375 
Q 22.953125 48.484375 18.875 42.84375 
Q 14.796875 37.203125 14.796875 27.296875 
z
M 45.40625 8.203125 
Q 42.578125 3.328125 38.25 0.953125 
Q 33.9375 -1.421875 27.875 -1.421875 
Q 17.96875 -1.421875 11.734375 6.484375 
Q 5.515625 14.40625 5.515625 27.296875 
Q 5.515625 40.1875 11.734375 48.09375 
Q 17.96875 56 27.875 56 
Q 33.9375 56 38.25 53.625 
Q 42.578125 51.265625 45.40625 46.390625 
L 45.40625 54.6875 
L 54.390625 54.6875 
L 54.390625 -20.796875 
L 45.40625 -20.796875 
z
" id="DejaVuSans-113"/>
       <path d="M 50.984375 -16.609375 
L 50.984375 -23.578125 
L -0.984375 -23.578125 
L -0.984375 -16.609375 
z
" id="DejaVuSans-95"/>
       <path d="M 48.78125 52.59375 
L 48.78125 44.1875 
Q 44.96875 46.296875 41.140625 47.34375 
Q 37.3125 48.390625 33.40625 48.390625 
Q 24.65625 48.390625 19.8125 42.84375 
Q 14.984375 37.3125 14.984375 27.296875 
Q 14.984375 17.28125 19.8125 11.734375 
Q 24.65625 6.203125 33.40625 6.203125 
Q 37.3125 6.203125 41.140625 7.25 
Q 44.96875 8.296875 48.78125 10.40625 
L 48.78125 2.09375 
Q 45.015625 0.34375 40.984375 -0.53125 
Q 36.96875 -1.421875 32.421875 -1.421875 
Q 20.0625 -1.421875 12.78125 6.34375 
Q 5.515625 14.109375 5.515625 27.296875 
Q 5.515625 40.671875 12.859375 48.328125 
Q 20.21875 56 33.015625 56 
Q 37.15625 56 41.109375 55.140625 
Q 45.0625 54.296875 48.78125 52.59375 
z
" id="DejaVuSans-99"/>
       <path d="M 8.5 21.578125 
L 8.5 54.6875 
L 17.484375 54.6875 
L 17.484375 21.921875 
Q 17.484375 14.15625 20.5 10.265625 
Q 23.53125 6.390625 29.59375 6.390625 
Q 36.859375 6.390625 41.078125 11.03125 
Q 45.3125 15.671875 45.3125 23.6875 
L 45.3125 54.6875 
L 54.296875 54.6875 
L 54.296875 0 
L 45.3125 0 
L 45.3125 8.40625 
Q 42.046875 3.421875 37.71875 1 
Q 33.40625 -1.421875 27.6875 -1.421875 
Q 18.265625 -1.421875 13.375 4.4375 
Q 8.5 10.296875 8.5 21.578125 
z
M 31.109375 56 
z
" id="DejaVuSans-117"/>
      </defs>
      <use xlink:href="#DejaVuSans-113"/>
      <use x="63.476562" xlink:href="#DejaVuSans-95"/>
      <use x="113.476562" xlink:href="#DejaVuSans-99"/>
      <use x="168.457031" xlink:href="#DejaVuSans-117"/>
      <use x="231.835938" xlink:href="#DejaVuSans-114"/>
     </g>
    </g>
    <g id="line2d_32">
     <path d="M 66.6 101.211375 
L 86.6 101.211375 
" style="fill:none;stroke:#ff7f0e;stroke-linecap:square;stroke-width:1.5;"/>
    </g>
    <g id="line2d_33"/>
    <g id="text_16">
     <!-- q_des -->
     <g transform="translate(94.6 104.711375)scale(0.1 -0.1)">
      <use xlink:href="#DejaVuSans-113"/>
      <use x="63.476562" xlink:href="#DejaVuSans-95"/>
      <use x="113.476562" xlink:href="#DejaVuSans-100"/>
      <use x="176.953125" xlink:href="#DejaVuSans-101"/>
      <use x="238.476562" xlink:href="#DejaVuSans-115"/>
     </g>
    </g>
    <g id="line2d_34">
     <path d="M 66.6 116.167625 
L 86.6 116.167625 
" style="fill:none;stroke:#2ca02c;stroke-linecap:square;stroke-width:1.5;"/>
    </g>
    <g id="line2d_35"/>
    <g id="text_17">
     <!-- error -->
     <g transform="translate(94.6 119.667625)scale(0.1 -0.1)">
      <defs>
       <path d="M 30.609375 48.390625 
Q 23.390625 48.390625 19.1875 42.75 
Q 14.984375 37.109375 14.984375 27.296875 
Q 14.984375 17.484375 19.15625 11.84375 
Q 23.34375 6.203125 30.609375 6.203125 
Q 37.796875 6.203125 41.984375 11.859375 
Q 46.1875 17.53125 46.1875 27.296875 
Q 46.1875 37.015625 41.984375 42.703125 
Q 37.796875 48.390625 30.609375 48.390625 
z
M 30.609375 56 
Q 42.328125 56 49.015625 48.375 
Q 55.71875 40.765625 55.71875 27.296875 
Q 55.71875 13.875 49.015625 6.21875 
Q 42.328125 -1.421875 30.609375 -1.421875 
Q 18.84375 -1.421875 12.171875 6.21875 
Q 5.515625 13.875 5.515625 27.296875 
Q 5.515625 40.765625 12.171875 48.375 
Q 18.84375 56 30.609375 56 
z
" id="DejaVuSans-111"/>
      </defs>
      <use xlink:href="#DejaVuSans-101"/>
      <use x="61.523438" xlink:href="#DejaVuSans-114"/>
      <use x="100.886719" xlink:href="#DejaVuSans-114"/>
      <use x="139.75" xlink:href="#DejaVuSans-111"/>
      <use x="200.931641" xlink:href="#DejaVuSans-114"/>
     </g>
    </g>
   </g>
  </g>
  <g id="axes_2">
   <g id="patch_8">
    <path d="M 57.6 307.584 
L 414.72 307.584 
L 414.72 186.624 
L 57.6 186.624 
z
" style="fill:#ffffff;"/>
   </g>
   <g id="matplotlib.axis_3">
    <g id="xtick_8">
     <g id="line2d_36">
      <path clip-path="url(#pe9873e5a2b)" d="M 73.832652 307.584 
L 73.832652 186.624 
" style="fill:none;stroke:#b0b0b0;stroke-linecap:square;stroke-width:0.8;"/>
     </g>
     <g id="line2d_37">
      <g>
       <use style="stroke:#000000;stroke-width:0.8;" x="73.832652" xlink:href="#m44b7bfa32e" y="307.584"/>
      </g>
     </g>
     <g id="text_18">
      <!-- 0 -->
      <g transform="translate(70.651402 322.182437)scale(0.1 -0.1)">
       <use xlink:href="#DejaVuSans-48"/>
      </g>
     </g>
    </g>
    <g id="xtick_9">
     <g id="line2d_38">
      <path clip-path="url(#pe9873e5a2b)" d="M 126.195199 307.584 
L 126.195199 186.624 
" style="fill:none;stroke:#b0b0b0;stroke-linecap:square;stroke-width:0.8;"/>
     </g>
     <g id="line2d_39">
      <g>
       <use style="stroke:#000000;stroke-width:0.8;" x="126.195199" xlink:href="#m44b7bfa32e" y="307.584"/>
      </g>
     </g>
     <g id="text_19">
      <!-- 5 -->
      <g transform="translate(123.013949 322.182437)scale(0.1 -0.1)">
       <use xlink:href="#DejaVuSans-53"/>
      </g>
     </g>
    </g>
    <g id="xtick_10">
     <g id="line2d_40">
      <path clip-path="url(#pe9873e5a2b)" d="M 178.557745 307.584 
L 178.557745 186.624 
" style="fill:none;stroke:#b0b0b0;stroke-linecap:square;stroke-width:0.8;"/>
     </g>
     <g id="line2d_41">
      <g>
       <use style="stroke:#000000;stroke-width:0.8;" x="178.557745" xlink:href="#m44b7bfa32e" y="307.584"/>
      </g>
     </g>
     <g id="text_20">
      <!-- 10 -->
      <g transform="translate(172.195245 322.182437)scale(0.1 -0.1)">
       <use xlink:href="#DejaVuSans-49"/>
       <use x="63.623047" xlink:href="#DejaVuSans-48"/>
      </g>
     </g>
    </g>
    <g id="xtick_11">
     <g id="line2d_42">
      <path clip-path="url(#pe9873e5a2b)" d="M 230.920291 307.584 
L 230.920291 186.624 
" style="fill:none;stroke:#b0b0b0;stroke-linecap:square;stroke-width:0.8;"/>
     </g>
     <g id="line2d_43">
      <g>
       <use style="stroke:#000000;stroke-width:0.8;" x="230.920291" xlink:href="#m44b7bfa32e" y="307.584"/>
      </g>
     </g>
     <g id="text_21">
      <!-- 15 -->
      <g transform="translate(224.557791 322.182437)scale(0.1 -0.1)">
       <use xlink:href="#DejaVuSans-49"/>
       <use x="63.623047" xlink:href="#DejaVuSans-53"/>
      </g>
     </g>
    </g>
    <g id="xtick_12">
     <g id="line2d_44">
      <path clip-path="url(#pe9873e5a2b)" d="M 283.282837 307.584 
L 283.282837 186.624 
" style="fill:none;stroke:#b0b0b0;stroke-linecap:square;stroke-width:0.8;"/>
     </g>
     <g id="line2d_45">
      <g>
       <use style="stroke:#000000;stroke-width:0.8;" x="283.282837" xlink:href="#m44b7bfa32e" y="307.584"/>
      </g>
     </g>
     <g id="text_22">
      <!-- 20 -->
      <g transform="translate(276.920337 322.182437)scale(0.1 -0.1)">
       <use xlink:href="#DejaVuSans-50"/>
       <use x="63.623047" xlink:href="#DejaVuSans-48"/>
      </g>
     </g>
    </g>
    <g id="xtick_13">
     <g id="line2d_46">
      <path clip-path="url(#pe9873e5a2b)" d="M 335.645383 307.584 
L 335.645383 186.624 
" style="fill:none;stroke:#b0b0b0;stroke-linecap:square;stroke-width:0.8;"/>
     </g>
     <g id="line2d_47">
      <g>
       <use style="stroke:#000000;stroke-width:0.8;" x="335.645383" xlink:href="#m44b7bfa32e" y="307.584"/>
      </g>
     </g>
     <g id="text_23">
      <!-- 25 -->
      <g transform="translate(329.282883 322.182437)scale(0.1 -0.1)">
       <use xlink:href="#DejaVuSans-50"/>
       <use x="63.623047" xlink:href="#DejaVuSans-53"/>
      </g>
     </g>
    </g>
    <g id="xtick_14">
     <g id="line2d_48">
      <path clip-path="url(#pe9873e5a2b)" d="M 388.00793 307.584 
L 388.00793 186.624 
" style="fill:none;stroke:#b0b0b0;stroke-linecap:square;stroke-width:0.8;"/>
     </g>
     <g id="line2d_49">
      <g>
       <use style="stroke:#000000;stroke-width:0.8;" x="388.00793" xlink:href="#m44b7bfa32e" y="307.584"/>
      </g>
     </g>
     <g id="text_24">
      <!-- 30 -->
      <g transform="translate(381.64543 322.182437)scale(0.1 -0.1)">
       <use xlink:href="#DejaVuSans-51"/>
       <use x="63.623047" xlink:href="#DejaVuSans-48"/>
      </g>
     </g>
    </g>
    <g id="text_25">
     <!-- time, sec -->
     <g transform="translate(213.255313 335.860562)scale(0.1 -0.1)">
      <defs>
       <path d="M 52 44.1875 
Q 55.375 50.25 60.0625 53.125 
Q 64.75 56 71.09375 56 
Q 79.640625 56 84.28125 50.015625 
Q 88.921875 44.046875 88.921875 33.015625 
L 88.921875 0 
L 79.890625 0 
L 79.890625 32.71875 
Q 79.890625 40.578125 77.09375 44.375 
Q 74.3125 48.1875 68.609375 48.1875 
Q 61.625 48.1875 57.5625 43.546875 
Q 53.515625 38.921875 53.515625 30.90625 
L 53.515625 0 
L 44.484375 0 
L 44.484375 32.71875 
Q 44.484375 40.625 41.703125 44.40625 
Q 38.921875 48.1875 33.109375 48.1875 
Q 26.21875 48.1875 22.15625 43.53125 
Q 18.109375 38.875 18.109375 30.90625 
L 18.109375 0 
L 9.078125 0 
L 9.078125 54.6875 
L 18.109375 54.6875 
L 18.109375 46.1875 
Q 21.1875 51.21875 25.484375 53.609375 
Q 29.78125 56 35.6875 56 
Q 41.65625 56 45.828125 52.96875 
Q 50 49.953125 52 44.1875 
z
" id="DejaVuSans-109"/>
      </defs>
      <use xlink:href="#DejaVuSans-116"/>
      <use x="39.208984" xlink:href="#DejaVuSans-105"/>
      <use x="66.992188" xlink:href="#DejaVuSans-109"/>
      <use x="164.404297" xlink:href="#DejaVuSans-101"/>
      <use x="225.927734" xlink:href="#DejaVuSans-44"/>
      <use x="257.714844" xlink:href="#DejaVuSans-32"/>
      <use x="289.501953" xlink:href="#DejaVuSans-115"/>
      <use x="341.601562" xlink:href="#DejaVuSans-101"/>
      <use x="403.125" xlink:href="#DejaVuSans-99"/>
     </g>
    </g>
   </g>
   <g id="matplotlib.axis_4">
    <g id="ytick_7">
     <g id="line2d_50">
      <path clip-path="url(#pe9873e5a2b)" d="M 57.6 303.837309 
L 414.72 303.837309 
" style="fill:none;stroke:#b0b0b0;stroke-linecap:square;stroke-width:0.8;"/>
     </g>
     <g id="line2d_51">
      <g>
       <use style="stroke:#000000;stroke-width:0.8;" x="57.6" xlink:href="#md4a2102ef4" y="303.837309"/>
      </g>
     </g>
     <g id="text_26">
      <!-- −1.0 -->
      <g transform="translate(26.317187 307.636528)scale(0.1 -0.1)">
       <defs>
        <path d="M 10.59375 35.5 
L 73.1875 35.5 
L 73.1875 27.203125 
L 10.59375 27.203125 
z
" id="DejaVuSans-8722"/>
       </defs>
       <use xlink:href="#DejaVuSans-8722"/>
       <use x="83.789062" xlink:href="#DejaVuSans-49"/>
       <use x="147.412109" xlink:href="#DejaVuSans-46"/>
       <use x="179.199219" xlink:href="#DejaVuSans-48"/>
      </g>
     </g>
    </g>
    <g id="ytick_8">
     <g id="line2d_52">
      <path clip-path="url(#pe9873e5a2b)" d="M 57.6 282.968158 
L 414.72 282.968158 
" style="fill:none;stroke:#b0b0b0;stroke-linecap:square;stroke-width:0.8;"/>
     </g>
     <g id="line2d_53">
      <g>
       <use style="stroke:#000000;stroke-width:0.8;" x="57.6" xlink:href="#md4a2102ef4" y="282.968158"/>
      </g>
     </g>
     <g id="text_27">
      <!-- −0.8 -->
      <g transform="translate(26.317187 286.767377)scale(0.1 -0.1)">
       <defs>
        <path d="M 31.78125 34.625 
Q 24.75 34.625 20.71875 30.859375 
Q 16.703125 27.09375 16.703125 20.515625 
Q 16.703125 13.921875 20.71875 10.15625 
Q 24.75 6.390625 31.78125 6.390625 
Q 38.8125 6.390625 42.859375 10.171875 
Q 46.921875 13.96875 46.921875 20.515625 
Q 46.921875 27.09375 42.890625 30.859375 
Q 38.875 34.625 31.78125 34.625 
z
M 21.921875 38.8125 
Q 15.578125 40.375 12.03125 44.71875 
Q 8.5 49.078125 8.5 55.328125 
Q 8.5 64.0625 14.71875 69.140625 
Q 20.953125 74.21875 31.78125 74.21875 
Q 42.671875 74.21875 48.875 69.140625 
Q 55.078125 64.0625 55.078125 55.328125 
Q 55.078125 49.078125 51.53125 44.71875 
Q 48 40.375 41.703125 38.8125 
Q 48.828125 37.15625 52.796875 32.3125 
Q 56.78125 27.484375 56.78125 20.515625 
Q 56.78125 9.90625 50.3125 4.234375 
Q 43.84375 -1.421875 31.78125 -1.421875 
Q 19.734375 -1.421875 13.25 4.234375 
Q 6.78125 9.90625 6.78125 20.515625 
Q 6.78125 27.484375 10.78125 32.3125 
Q 14.796875 37.15625 21.921875 38.8125 
z
M 18.3125 54.390625 
Q 18.3125 48.734375 21.84375 45.5625 
Q 25.390625 42.390625 31.78125 42.390625 
Q 38.140625 42.390625 41.71875 45.5625 
Q 45.3125 48.734375 45.3125 54.390625 
Q 45.3125 60.0625 41.71875 63.234375 
Q 38.140625 66.40625 31.78125 66.40625 
Q 25.390625 66.40625 21.84375 63.234375 
Q 18.3125 60.0625 18.3125 54.390625 
z
" id="DejaVuSans-56"/>
       </defs>
       <use xlink:href="#DejaVuSans-8722"/>
       <use x="83.789062" xlink:href="#DejaVuSans-48"/>
       <use x="147.412109" xlink:href="#DejaVuSans-46"/>
       <use x="179.199219" xlink:href="#DejaVuSans-56"/>
      </g>
     </g>
    </g>
    <g id="ytick_9">
     <g id="line2d_54">
      <path clip-path="url(#pe9873e5a2b)" d="M 57.6 262.099008 
L 414.72 262.099008 
" style="fill:none;stroke:#b0b0b0;stroke-linecap:square;stroke-width:0.8;"/>
     </g>
     <g id="line2d_55">
      <g>
       <use style="stroke:#000000;stroke-width:0.8;" x="57.6" xlink:href="#md4a2102ef4" y="262.099008"/>
      </g>
     </g>
     <g id="text_28">
      <!-- −0.6 -->
      <g transform="translate(26.317187 265.898226)scale(0.1 -0.1)">
       <defs>
        <path d="M 33.015625 40.375 
Q 26.375 40.375 22.484375 35.828125 
Q 18.609375 31.296875 18.609375 23.390625 
Q 18.609375 15.53125 22.484375 10.953125 
Q 26.375 6.390625 33.015625 6.390625 
Q 39.65625 6.390625 43.53125 10.953125 
Q 47.40625 15.53125 47.40625 23.390625 
Q 47.40625 31.296875 43.53125 35.828125 
Q 39.65625 40.375 33.015625 40.375 
z
M 52.59375 71.296875 
L 52.59375 62.3125 
Q 48.875 64.0625 45.09375 64.984375 
Q 41.3125 65.921875 37.59375 65.921875 
Q 27.828125 65.921875 22.671875 59.328125 
Q 17.53125 52.734375 16.796875 39.40625 
Q 19.671875 43.65625 24.015625 45.921875 
Q 28.375 48.1875 33.59375 48.1875 
Q 44.578125 48.1875 50.953125 41.515625 
Q 57.328125 34.859375 57.328125 23.390625 
Q 57.328125 12.15625 50.6875 5.359375 
Q 44.046875 -1.421875 33.015625 -1.421875 
Q 20.359375 -1.421875 13.671875 8.265625 
Q 6.984375 17.96875 6.984375 36.375 
Q 6.984375 53.65625 15.1875 63.9375 
Q 23.390625 74.21875 37.203125 74.21875 
Q 40.921875 74.21875 44.703125 73.484375 
Q 48.484375 72.75 52.59375 71.296875 
z
" id="DejaVuSans-54"/>
       </defs>
       <use xlink:href="#DejaVuSans-8722"/>
       <use x="83.789062" xlink:href="#DejaVuSans-48"/>
       <use x="147.412109" xlink:href="#DejaVuSans-46"/>
       <use x="179.199219" xlink:href="#DejaVuSans-54"/>
      </g>
     </g>
    </g>
    <g id="ytick_10">
     <g id="line2d_56">
      <path clip-path="url(#pe9873e5a2b)" d="M 57.6 241.229857 
L 414.72 241.229857 
" style="fill:none;stroke:#b0b0b0;stroke-linecap:square;stroke-width:0.8;"/>
     </g>
     <g id="line2d_57">
      <g>
       <use style="stroke:#000000;stroke-width:0.8;" x="57.6" xlink:href="#md4a2102ef4" y="241.229857"/>
      </g>
     </g>
     <g id="text_29">
      <!-- −0.4 -->
      <g transform="translate(26.317187 245.029076)scale(0.1 -0.1)">
       <use xlink:href="#DejaVuSans-8722"/>
       <use x="83.789062" xlink:href="#DejaVuSans-48"/>
       <use x="147.412109" xlink:href="#DejaVuSans-46"/>
       <use x="179.199219" xlink:href="#DejaVuSans-52"/>
      </g>
     </g>
    </g>
    <g id="ytick_11">
     <g id="line2d_58">
      <path clip-path="url(#pe9873e5a2b)" d="M 57.6 220.360706 
L 414.72 220.360706 
" style="fill:none;stroke:#b0b0b0;stroke-linecap:square;stroke-width:0.8;"/>
     </g>
     <g id="line2d_59">
      <g>
       <use style="stroke:#000000;stroke-width:0.8;" x="57.6" xlink:href="#md4a2102ef4" y="220.360706"/>
      </g>
     </g>
     <g id="text_30">
      <!-- −0.2 -->
      <g transform="translate(26.317187 224.159925)scale(0.1 -0.1)">
       <use xlink:href="#DejaVuSans-8722"/>
       <use x="83.789062" xlink:href="#DejaVuSans-48"/>
       <use x="147.412109" xlink:href="#DejaVuSans-46"/>
       <use x="179.199219" xlink:href="#DejaVuSans-50"/>
      </g>
     </g>
    </g>
    <g id="ytick_12">
     <g id="line2d_60">
      <path clip-path="url(#pe9873e5a2b)" d="M 57.6 199.491556 
L 414.72 199.491556 
" style="fill:none;stroke:#b0b0b0;stroke-linecap:square;stroke-width:0.8;"/>
     </g>
     <g id="line2d_61">
      <g>
       <use style="stroke:#000000;stroke-width:0.8;" x="57.6" xlink:href="#md4a2102ef4" y="199.491556"/>
      </g>
     </g>
     <g id="text_31">
      <!-- 0.0 -->
      <g transform="translate(34.696875 203.290774)scale(0.1 -0.1)">
       <use xlink:href="#DejaVuSans-48"/>
       <use x="63.623047" xlink:href="#DejaVuSans-46"/>
       <use x="95.410156" xlink:href="#DejaVuSans-48"/>
      </g>
     </g>
    </g>
    <g id="text_32">
     <!-- knee angles, rad -->
     <g transform="translate(20.2375 288.859469)rotate(-90)scale(0.1 -0.1)">
      <defs>
       <path d="M 9.078125 75.984375 
L 18.109375 75.984375 
L 18.109375 31.109375 
L 44.921875 54.6875 
L 56.390625 54.6875 
L 27.390625 29.109375 
L 57.625 0 
L 45.90625 0 
L 18.109375 26.703125 
L 18.109375 0 
L 9.078125 0 
z
" id="DejaVuSans-107"/>
      </defs>
      <use xlink:href="#DejaVuSans-107"/>
      <use x="57.910156" xlink:href="#DejaVuSans-110"/>
      <use x="121.289062" xlink:href="#DejaVuSans-101"/>
      <use x="182.8125" xlink:href="#DejaVuSans-101"/>
      <use x="244.335938" xlink:href="#DejaVuSans-32"/>
      <use x="276.123047" xlink:href="#DejaVuSans-97"/>
      <use x="337.402344" xlink:href="#DejaVuSans-110"/>
      <use x="400.78125" xlink:href="#DejaVuSans-103"/>
      <use x="464.257812" xlink:href="#DejaVuSans-108"/>
      <use x="492.041016" xlink:href="#DejaVuSans-101"/>
      <use x="553.564453" xlink:href="#DejaVuSans-115"/>
      <use x="605.664062" xlink:href="#DejaVuSans-44"/>
      <use x="637.451172" xlink:href="#DejaVuSans-32"/>
      <use x="669.238281" xlink:href="#DejaVuSans-114"/>
      <use x="710.351562" xlink:href="#DejaVuSans-97"/>
      <use x="771.630859" xlink:href="#DejaVuSans-100"/>
     </g>
    </g>
   </g>
   <g id="line2d_62">
    <path clip-path="url(#pe9873e5a2b)" d="M 73.832727 196.349056 
L 74.363166 208.919056 
L 74.888119 211.149217 
L 79.60161 271.160829 
L 86.405909 298.733732 
L 88.503739 287.177442 
L 94.256568 217.434217 
L 96.354154 218.245184 
L 98.446464 247.440023 
L 100.540824 271.363571 
L 102.63609 290.624054 
L 106.822316 299.747441 
L 107.873973 297.51728 
L 110.489216 278.256797 
L 116.253236 210.946475 
L 117.294528 218.042442 
L 120.959633 265.686797 
L 122.015877 276.432119 
L 124.108701 293.665183 
L 127.773357 299.747441 
L 128.293971 298.733732 
L 130.386361 286.771958 
L 131.43172 276.837603 
L 136.146552 217.636959 
L 137.193677 210.743733 
L 138.240673 218.042442 
L 139.811637 239.330345 
L 143.478697 282.108893 
L 145.573792 295.692603 
L 153.949189 260.212765 
L 156.049771 232.031636 
L 157.616684 212.771152 
L 160.756077 238.316636 
L 164.946951 286.366474 
L 165.995602 293.056958 
L 167.040904 298.125506 
L 170.184175 299.139216 
L 172.284475 287.380184 
L 173.848364 272.580022 
L 174.375836 263.862119 
L 176.992583 232.43712 
L 180.138804 217.434217 
L 180.660669 224.935668 
L 182.751336 252.711313 
L 185.372158 281.500668 
L 186.939612 293.056958 
L 189.030601 299.747441 
L 193.227453 286.9747 
L 195.318685 266.092281 
L 195.841154 260.212765 
L 197.409512 239.533087 
L 203.699638 252.711313 
L 208.410737 295.895345 
L 212.070649 299.139216 
L 215.736625 272.174539 
L 216.262365 265.686797 
L 222.026761 217.231475 
L 227.786039 285.758248 
L 229.878299 297.111796 
L 231.969788 299.5447 
L 234.065833 294.273409 
L 235.119096 287.582925 
L 236.687898 272.377281 
L 241.396708 212.771152 
L 245.582087 252.508571 
L 248.732661 285.555506 
L 250.823842 296.909054 
L 252.389856 299.5447 
L 255.533316 291.23228 
L 257.631406 272.174539 
L 259.728922 247.034539 
L 261.290754 225.543894 
L 263.38588 211.960185 
L 266.007748 246.223571 
L 267.581871 265.281313 
L 277.523477 282.919861 
L 278.05485 277.648571 
L 280.150074 254.53599 
L 287.998813 258.793571 
L 289.57392 276.229377 
L 294.806227 299.747441 
L 295.850041 299.5447 
L 297.428694 291.435022 
L 298.467984 283.528087 
L 300.044367 267.714216 
L 304.231446 213.176636 
L 305.80506 216.825991 
L 310.518911 276.229377 
L 312.083109 289.610345 
L 312.610444 292.448732 
L 313.139849 293.867925 
L 313.661362 298.936474 
L 315.224704 299.747441 
L 315.755125 299.747441 
L 319.41688 282.514377 
L 320.990304 266.497764 
L 325.176849 213.176636 
L 326.750645 216.825991 
L 328.315822 237.505668 
L 332.512705 285.150022 
L 334.598947 297.111796 
L 336.176317 299.747441 
L 338.272267 297.922764 
L 338.796312 294.881635 
L 340.881785 279.067764 
L 342.985945 254.738732 
L 345.077904 226.15212 
L 349.789073 245.412603 
L 352.41105 276.026635 
L 353.453064 285.352764 
L 356.076517 298.733732 
L 359.21544 298.125506 
L 359.737383 294.881635 
L 361.305396 283.122603 
L 363.922967 254.941474 
L 366.545583 219.258894 
L 369.6817 230.612442 
L 372.306716 264.267603 
L 373.354905 276.026635 
L 375.973567 295.084377 
L 377.014562 298.733732 
L 379.106775 299.5447 
L 380.681193 294.881635 
L 383.823387 265.686797 
L 385.391672 247.440023 
L 386.961833 226.557604 
L 389.587803 216.420507 
L 391.679509 244.804378 
L 394.296031 275.41841 
L 396.391622 292.043248 
L 398.487273 299.341958 
L 398.487273 299.341958 
" style="fill:none;stroke:#1f77b4;stroke-linecap:square;stroke-width:1.5;"/>
   </g>
   <g id="line2d_63">
    <path clip-path="url(#pe9873e5a2b)" d="M 73.832727 208.342088 
L 74.363166 211.449217 
L 74.888119 217.731998 
L 79.60161 277.450808 
L 86.405909 297.012736 
L 88.503739 282.35061 
L 94.256568 211.461074 
L 96.354154 224.650153 
L 98.446464 253.126296 
L 100.540824 277.287133 
L 102.63609 294.137194 
L 106.822316 299.277024 
L 107.873973 294.268673 
L 110.489216 272.117165 
L 116.253236 211.235607 
L 118.348055 239.060332 
L 118.865333 246.077092 
L 120.959633 271.695284 
L 122.015877 282.236287 
L 124.108701 296.92787 
L 127.773357 299.293625 
L 128.293971 297.123607 
L 130.386361 282.609105 
L 131.43172 272.258801 
L 136.146552 211.6806 
L 137.193677 211.085066 
L 138.240673 224.307886 
L 139.811637 245.951992 
L 143.478697 286.597832 
L 145.573792 299.104133 
L 153.949189 253.741094 
L 156.049771 225.198411 
L 157.616684 208.360545 
L 160.756077 245.802039 
L 164.946951 290.503211 
L 165.995602 296.80931 
L 167.040904 300.700552 
L 170.184175 297.223123 
L 172.284475 282.727403 
L 174.375836 260.36678 
L 176.992583 225.376227 
L 180.138804 224.126083 
L 182.751336 259.206626 
L 185.372158 286.452869 
L 186.939612 296.752266 
L 189.030601 302.085818 
L 193.227453 282.84091 
L 195.318685 260.522877 
L 195.841154 253.988636 
L 197.409512 232.874705 
L 203.699638 259.116198 
L 208.410737 298.992087 
L 212.070649 297.339137 
L 215.736625 266.892008 
L 216.262365 260.668815 
L 222.026761 223.804153 
L 227.786039 290.30465 
L 229.878299 300.624631 
L 231.969788 300.993756 
L 234.065833 291.343047 
L 235.119096 283.016252 
L 236.687898 266.942263 
L 239.298578 233.183545 
L 241.396708 208.426672 
L 245.582087 258.759857 
L 248.732661 290.23994 
L 250.823842 300.598304 
L 252.389856 301.869652 
L 255.533316 287.566342 
L 257.631406 267.081422 
L 259.728922 240.435996 
L 261.290754 218.884519 
L 263.38588 216.39665 
L 266.007748 252.043309 
L 267.581871 270.962467 
L 277.523477 278.404455 
L 278.05485 272.969536 
L 280.150074 247.643973 
L 287.998813 264.852701 
L 289.57392 281.439616 
L 294.806227 301.061416 
L 295.850041 297.53754 
L 297.428694 287.691515 
L 298.467984 278.513271 
L 300.044367 261.161938 
L 302.666664 226.205538 
L 304.231446 208.506837 
L 305.80506 223.194238 
L 309.996477 276.273366 
L 310.518911 281.341286 
L 312.083109 293.473178 
L 313.139849 298.804256 
L 313.661362 300.519926 
L 315.224704 301.900909 
L 315.755125 301.076055 
L 319.41688 278.579171 
L 320.990304 261.279442 
L 324.134925 219.18823 
L 325.176849 208.538222 
L 326.750645 223.056233 
L 328.315822 244.655868 
L 332.512705 289.932718 
L 334.598947 300.470903 
L 336.176317 301.904675 
L 338.272267 294.926781 
L 338.796312 291.668293 
L 340.881785 273.394503 
L 342.985945 248.055726 
L 345.077904 219.357671 
L 349.789073 251.508069 
L 352.41105 281.164026 
L 353.453064 289.821371 
L 356.076517 301.585658 
L 359.21544 294.99722 
L 359.737383 291.766675 
L 361.305396 278.800842 
L 363.922967 248.302296 
L 366.545583 212.91238 
L 369.6817 237.214422 
L 370.20712 244.386692 
L 372.306716 270.376231 
L 373.354905 281.054474 
L 375.973567 298.674157 
L 377.014562 301.558362 
L 379.106775 299.754523 
L 380.681193 291.846244 
L 383.823387 261.688981 
L 386.961833 219.724316 
L 389.587803 222.647325 
L 391.679509 251.236796 
L 394.296031 280.919299 
L 396.391622 296.227133 
L 398.487273 302.060616 
L 398.487273 302.060616 
" style="fill:none;stroke:#ff7f0e;stroke-linecap:square;stroke-width:1.5;"/>
   </g>
   <g id="line2d_64">
    <path clip-path="url(#pe9873e5a2b)" d="M 73.832727 211.484588 
L 74.363166 202.021717 
L 74.888119 206.074337 
L 79.078427 206.636494 
L 79.60161 205.781535 
L 86.405909 197.77056 
L 88.503739 194.664724 
L 94.256568 193.518413 
L 96.354154 205.896525 
L 98.446464 205.177829 
L 100.540824 205.415118 
L 102.63609 203.004695 
L 106.822316 199.021138 
L 107.873973 196.242949 
L 110.489216 193.351924 
L 116.253236 199.780688 
L 117.294528 205.888202 
L 118.348055 206.520252 
L 118.865333 206.035561 
L 122.015877 205.295723 
L 124.108701 202.754242 
L 127.773357 199.03774 
L 128.293971 197.881431 
L 130.386361 195.328703 
L 131.43172 194.912754 
L 136.146552 193.535197 
L 138.240673 205.756999 
L 139.811637 206.113202 
L 143.478697 203.980494 
L 145.573792 202.903086 
L 153.949189 193.019885 
L 156.049771 192.658331 
L 157.616684 195.080948 
L 160.756077 206.976959 
L 164.946951 203.628293 
L 165.995602 203.243908 
L 167.040904 202.066602 
L 170.184175 197.575463 
L 172.284475 194.838775 
L 173.848364 193.538914 
L 174.375836 195.996217 
L 176.992583 192.430663 
L 180.138804 206.183422 
L 180.660669 205.938143 
L 182.751336 205.986868 
L 185.372158 204.443757 
L 186.939612 203.186864 
L 189.030601 201.829932 
L 193.227453 195.357765 
L 194.792725 194.479702 
L 195.841154 193.267427 
L 197.409512 192.833173 
L 203.699638 205.896441 
L 208.410737 202.588298 
L 212.070649 197.691477 
L 215.736625 194.209025 
L 216.262365 194.473574 
L 222.026761 206.064234 
L 227.786039 204.037958 
L 229.878299 203.004391 
L 231.969788 200.940612 
L 234.065833 196.561194 
L 235.119096 194.924882 
L 236.687898 194.056538 
L 239.298578 192.939271 
L 241.396708 195.147075 
L 245.582087 205.742842 
L 250.823842 203.180805 
L 252.389856 201.816508 
L 255.533316 195.825617 
L 259.728922 192.893012 
L 261.290754 192.832181 
L 263.38588 203.928021 
L 266.007748 205.311293 
L 267.581871 205.172709 
L 277.523477 194.97615 
L 278.05485 194.812521 
L 279.623133 193.583493 
L 280.150074 192.599538 
L 287.998813 205.550686 
L 289.57392 204.701795 
L 294.806227 200.80553 
L 295.850041 197.484396 
L 300.044367 192.939277 
L 302.666664 192.449006 
L 304.231446 194.821756 
L 305.80506 205.859803 
L 309.996477 205.212318 
L 310.518911 204.603464 
L 312.083109 203.354388 
L 312.610444 203.481002 
L 313.139849 204.427886 
L 313.661362 201.075007 
L 315.224704 201.645024 
L 315.755125 200.820169 
L 319.41688 195.556349 
L 320.990304 194.273233 
L 324.134925 192.122182 
L 325.176849 194.853142 
L 326.750645 205.721798 
L 328.315822 206.641756 
L 332.512705 204.274251 
L 336.176317 201.648789 
L 338.272267 196.495573 
L 338.796312 196.278213 
L 340.881785 193.818295 
L 342.985945 192.808549 
L 345.077904 192.697107 
L 349.789073 205.587021 
L 352.41105 204.628947 
L 356.076517 202.343482 
L 359.21544 196.36327 
L 359.737383 196.376596 
L 361.305396 195.169795 
L 363.922967 192.852377 
L 366.545583 193.145042 
L 369.6817 206.093535 
L 370.20712 206.37258 
L 372.306716 205.600183 
L 373.354905 204.519394 
L 375.973567 203.081336 
L 377.014562 202.316186 
L 379.106775 199.701379 
L 380.681193 196.456164 
L 383.823387 195.49374 
L 385.391672 193.458151 
L 386.961833 192.658268 
L 389.587803 205.718374 
L 391.679509 205.923974 
L 394.296031 204.992445 
L 396.391622 203.675441 
L 398.487273 202.210214 
L 398.487273 202.210214 
" style="fill:none;stroke:#2ca02c;stroke-linecap:square;stroke-width:1.5;"/>
   </g>
   <g id="patch_9">
    <path d="M 57.6 307.584 
L 57.6 186.624 
" style="fill:none;stroke:#000000;stroke-linecap:square;stroke-linejoin:miter;stroke-width:0.8;"/>
   </g>
   <g id="patch_10">
    <path d="M 414.72 307.584 
L 414.72 186.624 
" style="fill:none;stroke:#000000;stroke-linecap:square;stroke-linejoin:miter;stroke-width:0.8;"/>
   </g>
   <g id="patch_11">
    <path d="M 57.6 307.584 
L 414.72 307.584 
" style="fill:none;stroke:#000000;stroke-linecap:square;stroke-linejoin:miter;stroke-width:0.8;"/>
   </g>
   <g id="patch_12">
    <path d="M 57.6 186.624 
L 414.72 186.624 
" style="fill:none;stroke:#000000;stroke-linecap:square;stroke-linejoin:miter;stroke-width:0.8;"/>
   </g>
   <g id="legend_2">
    <g id="patch_13">
     <path d="M 64.6 270.899312 
L 125.659375 270.899312 
Q 127.659375 270.899312 127.659375 268.899312 
L 127.659375 225.308687 
Q 127.659375 223.308687 125.659375 223.308687 
L 64.6 223.308687 
Q 62.6 223.308687 62.6 225.308687 
L 62.6 268.899312 
Q 62.6 270.899312 64.6 270.899312 
z
" style="fill:#ffffff;opacity:0.8;stroke:#cccccc;stroke-linejoin:miter;"/>
    </g>
    <g id="line2d_65">
     <path d="M 66.6 231.407125 
L 86.6 231.407125 
" style="fill:none;stroke:#1f77b4;stroke-linecap:square;stroke-width:1.5;"/>
    </g>
    <g id="line2d_66"/>
    <g id="text_33">
     <!-- q_cur -->
     <g transform="translate(94.6 234.907125)scale(0.1 -0.1)">
      <use xlink:href="#DejaVuSans-113"/>
      <use x="63.476562" xlink:href="#DejaVuSans-95"/>
      <use x="113.476562" xlink:href="#DejaVuSans-99"/>
      <use x="168.457031" xlink:href="#DejaVuSans-117"/>
      <use x="231.835938" xlink:href="#DejaVuSans-114"/>
     </g>
    </g>
    <g id="line2d_67">
     <path d="M 66.6 246.363375 
L 86.6 246.363375 
" style="fill:none;stroke:#ff7f0e;stroke-linecap:square;stroke-width:1.5;"/>
    </g>
    <g id="line2d_68"/>
    <g id="text_34">
     <!-- q_des -->
     <g transform="translate(94.6 249.863375)scale(0.1 -0.1)">
      <use xlink:href="#DejaVuSans-113"/>
      <use x="63.476562" xlink:href="#DejaVuSans-95"/>
      <use x="113.476562" xlink:href="#DejaVuSans-100"/>
      <use x="176.953125" xlink:href="#DejaVuSans-101"/>
      <use x="238.476562" xlink:href="#DejaVuSans-115"/>
     </g>
    </g>
    <g id="line2d_69">
     <path d="M 66.6 261.319625 
L 86.6 261.319625 
" style="fill:none;stroke:#2ca02c;stroke-linecap:square;stroke-width:1.5;"/>
    </g>
    <g id="line2d_70"/>
    <g id="text_35">
     <!-- error -->
     <g transform="translate(94.6 264.819625)scale(0.1 -0.1)">
      <use xlink:href="#DejaVuSans-101"/>
      <use x="61.523438" xlink:href="#DejaVuSans-114"/>
      <use x="100.886719" xlink:href="#DejaVuSans-114"/>
      <use x="139.75" xlink:href="#DejaVuSans-111"/>
      <use x="200.931641" xlink:href="#DejaVuSans-114"/>
     </g>
    </g>
   </g>
  </g>
 </g>
 <defs>
  <clipPath id="paf4761d91c">
   <rect height="120.96" width="357.12" x="57.6" y="41.472"/>
  </clipPath>
  <clipPath id="pe9873e5a2b">
   <rect height="120.96" width="357.12" x="57.6" y="186.624"/>
  </clipPath>
 </defs>
</svg>
