<?xml version="1.0" encoding="utf-8" standalone="no"?>
<!DOCTYPE svg PUBLIC "-//W3C//DTD SVG 1.1//EN"
  "http://www.w3.org/Graphics/SVG/1.1/DTD/svg11.dtd">
<!-- Created with matplotlib (https://matplotlib.org/) -->
<svg height="345.6pt" version="1.1" viewBox="0 0 460.8 345.6" width="460.8pt" xmlns="http://www.w3.org/2000/svg" xmlns:xlink="http://www.w3.org/1999/xlink">
 <metadata>
  <rdf:RDF xmlns:cc="http://creativecommons.org/ns#" xmlns:dc="http://purl.org/dc/elements/1.1/" xmlns:rdf="http://www.w3.org/1999/02/22-rdf-syntax-ns#">
   <cc:Work>
    <dc:type rdf:resource="http://purl.org/dc/dcmitype/StillImage"/>
    <dc:date>2021-05-03T16:08:08.363313</dc:date>
    <dc:format>image/svg+xml</dc:format>
    <dc:creator>
     <cc:Agent>
      <dc:title>Matplotlib v3.3.4, https://matplotlib.org/</dc:title>
     </cc:Agent>
    </dc:creator>
   </cc:Work>
  </rdf:RDF>
 </metadata>
 <defs>
  <style type="text/css">*{stroke-linecap:butt;stroke-linejoin:round;}</style>
 </defs>
 <g id="figure_1">
  <g id="patch_1">
   <path d="M 0 345.6 
L 460.8 345.6 
L 460.8 0 
L 0 0 
z
" style="fill:#ffffff;"/>
  </g>
  <g id="axes_1">
   <g id="patch_2">
    <path d="M 57.6 162.432 
L 414.72 162.432 
L 414.72 41.472 
L 57.6 41.472 
z
" style="fill:#ffffff;"/>
   </g>
   <g id="matplotlib.axis_1">
    <g id="xtick_1">
     <g id="line2d_1">
      <path clip-path="url(#p98e54f10fb)" d="M 73.832615 162.432 
L 73.832615 41.472 
" style="fill:none;stroke:#b0b0b0;stroke-linecap:square;stroke-width:0.8;"/>
     </g>
     <g id="line2d_2">
      <defs>
       <path d="M 0 0 
L 0 3.5 
" id="m41951e689f" style="stroke:#000000;stroke-width:0.8;"/>
      </defs>
      <g>
       <use style="stroke:#000000;stroke-width:0.8;" x="73.832615" xlink:href="#m41951e689f" y="162.432"/>
      </g>
     </g>
     <g id="text_1">
      <!-- 0.0 -->
      <g transform="translate(65.881052 177.030437)scale(0.1 -0.1)">
       <defs>
        <path d="M 31.78125 66.40625 
Q 24.171875 66.40625 20.328125 58.90625 
Q 16.5 51.421875 16.5 36.375 
Q 16.5 21.390625 20.328125 13.890625 
Q 24.171875 6.390625 31.78125 6.390625 
Q 39.453125 6.390625 43.28125 13.890625 
Q 47.125 21.390625 47.125 36.375 
Q 47.125 51.421875 43.28125 58.90625 
Q 39.453125 66.40625 31.78125 66.40625 
z
M 31.78125 74.21875 
Q 44.046875 74.21875 50.515625 64.515625 
Q 56.984375 54.828125 56.984375 36.375 
Q 56.984375 17.96875 50.515625 8.265625 
Q 44.046875 -1.421875 31.78125 -1.421875 
Q 19.53125 -1.421875 13.0625 8.265625 
Q 6.59375 17.96875 6.59375 36.375 
Q 6.59375 54.828125 13.0625 64.515625 
Q 19.53125 74.21875 31.78125 74.21875 
z
" id="DejaVuSans-48"/>
        <path d="M 10.6875 12.40625 
L 21 12.40625 
L 21 0 
L 10.6875 0 
z
" id="DejaVuSans-46"/>
       </defs>
       <use xlink:href="#DejaVuSans-48"/>
       <use x="63.623047" xlink:href="#DejaVuSans-46"/>
       <use x="95.410156" xlink:href="#DejaVuSans-48"/>
      </g>
     </g>
    </g>
    <g id="xtick_2">
     <g id="line2d_3">
      <path clip-path="url(#p98e54f10fb)" d="M 114.515263 162.432 
L 114.515263 41.472 
" style="fill:none;stroke:#b0b0b0;stroke-linecap:square;stroke-width:0.8;"/>
     </g>
     <g id="line2d_4">
      <g>
       <use style="stroke:#000000;stroke-width:0.8;" x="114.515263" xlink:href="#m41951e689f" y="162.432"/>
      </g>
     </g>
     <g id="text_2">
      <!-- 2.5 -->
      <g transform="translate(106.5637 177.030437)scale(0.1 -0.1)">
       <defs>
        <path d="M 19.1875 8.296875 
L 53.609375 8.296875 
L 53.609375 0 
L 7.328125 0 
L 7.328125 8.296875 
Q 12.9375 14.109375 22.625 23.890625 
Q 32.328125 33.6875 34.8125 36.53125 
Q 39.546875 41.84375 41.421875 45.53125 
Q 43.3125 49.21875 43.3125 52.78125 
Q 43.3125 58.59375 39.234375 62.25 
Q 35.15625 65.921875 28.609375 65.921875 
Q 23.96875 65.921875 18.8125 64.3125 
Q 13.671875 62.703125 7.8125 59.421875 
L 7.8125 69.390625 
Q 13.765625 71.78125 18.9375 73 
Q 24.125 74.21875 28.421875 74.21875 
Q 39.75 74.21875 46.484375 68.546875 
Q 53.21875 62.890625 53.21875 53.421875 
Q 53.21875 48.921875 51.53125 44.890625 
Q 49.859375 40.875 45.40625 35.40625 
Q 44.1875 33.984375 37.640625 27.21875 
Q 31.109375 20.453125 19.1875 8.296875 
z
" id="DejaVuSans-50"/>
        <path d="M 10.796875 72.90625 
L 49.515625 72.90625 
L 49.515625 64.59375 
L 19.828125 64.59375 
L 19.828125 46.734375 
Q 21.96875 47.46875 24.109375 47.828125 
Q 26.265625 48.1875 28.421875 48.1875 
Q 40.625 48.1875 47.75 41.5 
Q 54.890625 34.8125 54.890625 23.390625 
Q 54.890625 11.625 47.5625 5.09375 
Q 40.234375 -1.421875 26.90625 -1.421875 
Q 22.3125 -1.421875 17.546875 -0.640625 
Q 12.796875 0.140625 7.71875 1.703125 
L 7.71875 11.625 
Q 12.109375 9.234375 16.796875 8.0625 
Q 21.484375 6.890625 26.703125 6.890625 
Q 35.15625 6.890625 40.078125 11.328125 
Q 45.015625 15.765625 45.015625 23.390625 
Q 45.015625 31 40.078125 35.4375 
Q 35.15625 39.890625 26.703125 39.890625 
Q 22.75 39.890625 18.8125 39.015625 
Q 14.890625 38.140625 10.796875 36.28125 
z
" id="DejaVuSans-53"/>
       </defs>
       <use xlink:href="#DejaVuSans-50"/>
       <use x="63.623047" xlink:href="#DejaVuSans-46"/>
       <use x="95.410156" xlink:href="#DejaVuSans-53"/>
      </g>
     </g>
    </g>
    <g id="xtick_3">
     <g id="line2d_5">
      <path clip-path="url(#p98e54f10fb)" d="M 155.19791 162.432 
L 155.19791 41.472 
" style="fill:none;stroke:#b0b0b0;stroke-linecap:square;stroke-width:0.8;"/>
     </g>
     <g id="line2d_6">
      <g>
       <use style="stroke:#000000;stroke-width:0.8;" x="155.19791" xlink:href="#m41951e689f" y="162.432"/>
      </g>
     </g>
     <g id="text_3">
      <!-- 5.0 -->
      <g transform="translate(147.246348 177.030437)scale(0.1 -0.1)">
       <use xlink:href="#DejaVuSans-53"/>
       <use x="63.623047" xlink:href="#DejaVuSans-46"/>
       <use x="95.410156" xlink:href="#DejaVuSans-48"/>
      </g>
     </g>
    </g>
    <g id="xtick_4">
     <g id="line2d_7">
      <path clip-path="url(#p98e54f10fb)" d="M 195.880558 162.432 
L 195.880558 41.472 
" style="fill:none;stroke:#b0b0b0;stroke-linecap:square;stroke-width:0.8;"/>
     </g>
     <g id="line2d_8">
      <g>
       <use style="stroke:#000000;stroke-width:0.8;" x="195.880558" xlink:href="#m41951e689f" y="162.432"/>
      </g>
     </g>
     <g id="text_4">
      <!-- 7.5 -->
      <g transform="translate(187.928996 177.030437)scale(0.1 -0.1)">
       <defs>
        <path d="M 8.203125 72.90625 
L 55.078125 72.90625 
L 55.078125 68.703125 
L 28.609375 0 
L 18.3125 0 
L 43.21875 64.59375 
L 8.203125 64.59375 
z
" id="DejaVuSans-55"/>
       </defs>
       <use xlink:href="#DejaVuSans-55"/>
       <use x="63.623047" xlink:href="#DejaVuSans-46"/>
       <use x="95.410156" xlink:href="#DejaVuSans-53"/>
      </g>
     </g>
    </g>
    <g id="xtick_5">
     <g id="line2d_9">
      <path clip-path="url(#p98e54f10fb)" d="M 236.563206 162.432 
L 236.563206 41.472 
" style="fill:none;stroke:#b0b0b0;stroke-linecap:square;stroke-width:0.8;"/>
     </g>
     <g id="line2d_10">
      <g>
       <use style="stroke:#000000;stroke-width:0.8;" x="236.563206" xlink:href="#m41951e689f" y="162.432"/>
      </g>
     </g>
     <g id="text_5">
      <!-- 10.0 -->
      <g transform="translate(225.430394 177.030437)scale(0.1 -0.1)">
       <defs>
        <path d="M 12.40625 8.296875 
L 28.515625 8.296875 
L 28.515625 63.921875 
L 10.984375 60.40625 
L 10.984375 69.390625 
L 28.421875 72.90625 
L 38.28125 72.90625 
L 38.28125 8.296875 
L 54.390625 8.296875 
L 54.390625 0 
L 12.40625 0 
z
" id="DejaVuSans-49"/>
       </defs>
       <use xlink:href="#DejaVuSans-49"/>
       <use x="63.623047" xlink:href="#DejaVuSans-48"/>
       <use x="127.246094" xlink:href="#DejaVuSans-46"/>
       <use x="159.033203" xlink:href="#DejaVuSans-48"/>
      </g>
     </g>
    </g>
    <g id="xtick_6">
     <g id="line2d_11">
      <path clip-path="url(#p98e54f10fb)" d="M 277.245854 162.432 
L 277.245854 41.472 
" style="fill:none;stroke:#b0b0b0;stroke-linecap:square;stroke-width:0.8;"/>
     </g>
     <g id="line2d_12">
      <g>
       <use style="stroke:#000000;stroke-width:0.8;" x="277.245854" xlink:href="#m41951e689f" y="162.432"/>
      </g>
     </g>
     <g id="text_6">
      <!-- 12.5 -->
      <g transform="translate(266.113042 177.030437)scale(0.1 -0.1)">
       <use xlink:href="#DejaVuSans-49"/>
       <use x="63.623047" xlink:href="#DejaVuSans-50"/>
       <use x="127.246094" xlink:href="#DejaVuSans-46"/>
       <use x="159.033203" xlink:href="#DejaVuSans-53"/>
      </g>
     </g>
    </g>
    <g id="xtick_7">
     <g id="line2d_13">
      <path clip-path="url(#p98e54f10fb)" d="M 317.928502 162.432 
L 317.928502 41.472 
" style="fill:none;stroke:#b0b0b0;stroke-linecap:square;stroke-width:0.8;"/>
     </g>
     <g id="line2d_14">
      <g>
       <use style="stroke:#000000;stroke-width:0.8;" x="317.928502" xlink:href="#m41951e689f" y="162.432"/>
      </g>
     </g>
     <g id="text_7">
      <!-- 15.0 -->
      <g transform="translate(306.795689 177.030437)scale(0.1 -0.1)">
       <use xlink:href="#DejaVuSans-49"/>
       <use x="63.623047" xlink:href="#DejaVuSans-53"/>
       <use x="127.246094" xlink:href="#DejaVuSans-46"/>
       <use x="159.033203" xlink:href="#DejaVuSans-48"/>
      </g>
     </g>
    </g>
    <g id="xtick_8">
     <g id="line2d_15">
      <path clip-path="url(#p98e54f10fb)" d="M 358.61115 162.432 
L 358.61115 41.472 
" style="fill:none;stroke:#b0b0b0;stroke-linecap:square;stroke-width:0.8;"/>
     </g>
     <g id="line2d_16">
      <g>
       <use style="stroke:#000000;stroke-width:0.8;" x="358.61115" xlink:href="#m41951e689f" y="162.432"/>
      </g>
     </g>
     <g id="text_8">
      <!-- 17.5 -->
      <g transform="translate(347.478337 177.030437)scale(0.1 -0.1)">
       <use xlink:href="#DejaVuSans-49"/>
       <use x="63.623047" xlink:href="#DejaVuSans-55"/>
       <use x="127.246094" xlink:href="#DejaVuSans-46"/>
       <use x="159.033203" xlink:href="#DejaVuSans-53"/>
      </g>
     </g>
    </g>
    <g id="xtick_9">
     <g id="line2d_17">
      <path clip-path="url(#p98e54f10fb)" d="M 399.293798 162.432 
L 399.293798 41.472 
" style="fill:none;stroke:#b0b0b0;stroke-linecap:square;stroke-width:0.8;"/>
     </g>
     <g id="line2d_18">
      <g>
       <use style="stroke:#000000;stroke-width:0.8;" x="399.293798" xlink:href="#m41951e689f" y="162.432"/>
      </g>
     </g>
     <g id="text_9">
      <!-- 20.0 -->
      <g transform="translate(388.160985 177.030437)scale(0.1 -0.1)">
       <use xlink:href="#DejaVuSans-50"/>
       <use x="63.623047" xlink:href="#DejaVuSans-48"/>
       <use x="127.246094" xlink:href="#DejaVuSans-46"/>
       <use x="159.033203" xlink:href="#DejaVuSans-48"/>
      </g>
     </g>
    </g>
   </g>
   <g id="matplotlib.axis_2">
    <g id="ytick_1">
     <g id="line2d_19">
      <path clip-path="url(#p98e54f10fb)" d="M 57.6 159.088034 
L 414.72 159.088034 
" style="fill:none;stroke:#b0b0b0;stroke-linecap:square;stroke-width:0.8;"/>
     </g>
     <g id="line2d_20">
      <defs>
       <path d="M 0 0 
L -3.5 0 
" id="maa759496d5" style="stroke:#000000;stroke-width:0.8;"/>
      </defs>
      <g>
       <use style="stroke:#000000;stroke-width:0.8;" x="57.6" xlink:href="#maa759496d5" y="159.088034"/>
      </g>
     </g>
     <g id="text_10">
      <!-- −0.5 -->
      <g transform="translate(26.317187 162.887253)scale(0.1 -0.1)">
       <defs>
        <path d="M 10.59375 35.5 
L 73.1875 35.5 
L 73.1875 27.203125 
L 10.59375 27.203125 
z
" id="DejaVuSans-8722"/>
       </defs>
       <use xlink:href="#DejaVuSans-8722"/>
       <use x="83.789062" xlink:href="#DejaVuSans-48"/>
       <use x="147.412109" xlink:href="#DejaVuSans-46"/>
       <use x="179.199219" xlink:href="#DejaVuSans-53"/>
      </g>
     </g>
    </g>
    <g id="ytick_2">
     <g id="line2d_21">
      <path clip-path="url(#p98e54f10fb)" d="M 57.6 122.980354 
L 414.72 122.980354 
" style="fill:none;stroke:#b0b0b0;stroke-linecap:square;stroke-width:0.8;"/>
     </g>
     <g id="line2d_22">
      <g>
       <use style="stroke:#000000;stroke-width:0.8;" x="57.6" xlink:href="#maa759496d5" y="122.980354"/>
      </g>
     </g>
     <g id="text_11">
      <!-- 0.0 -->
      <g transform="translate(34.696875 126.779573)scale(0.1 -0.1)">
       <use xlink:href="#DejaVuSans-48"/>
       <use x="63.623047" xlink:href="#DejaVuSans-46"/>
       <use x="95.410156" xlink:href="#DejaVuSans-48"/>
      </g>
     </g>
    </g>
    <g id="ytick_3">
     <g id="line2d_23">
      <path clip-path="url(#p98e54f10fb)" d="M 57.6 86.872674 
L 414.72 86.872674 
" style="fill:none;stroke:#b0b0b0;stroke-linecap:square;stroke-width:0.8;"/>
     </g>
     <g id="line2d_24">
      <g>
       <use style="stroke:#000000;stroke-width:0.8;" x="57.6" xlink:href="#maa759496d5" y="86.872674"/>
      </g>
     </g>
     <g id="text_12">
      <!-- 0.5 -->
      <g transform="translate(34.696875 90.671893)scale(0.1 -0.1)">
       <use xlink:href="#DejaVuSans-48"/>
       <use x="63.623047" xlink:href="#DejaVuSans-46"/>
       <use x="95.410156" xlink:href="#DejaVuSans-53"/>
      </g>
     </g>
    </g>
    <g id="ytick_4">
     <g id="line2d_25">
      <path clip-path="url(#p98e54f10fb)" d="M 57.6 50.764994 
L 414.72 50.764994 
" style="fill:none;stroke:#b0b0b0;stroke-linecap:square;stroke-width:0.8;"/>
     </g>
     <g id="line2d_26">
      <g>
       <use style="stroke:#000000;stroke-width:0.8;" x="57.6" xlink:href="#maa759496d5" y="50.764994"/>
      </g>
     </g>
     <g id="text_13">
      <!-- 1.0 -->
      <g transform="translate(34.696875 54.564213)scale(0.1 -0.1)">
       <use xlink:href="#DejaVuSans-49"/>
       <use x="63.623047" xlink:href="#DejaVuSans-46"/>
       <use x="95.410156" xlink:href="#DejaVuSans-48"/>
      </g>
     </g>
    </g>
    <g id="text_14">
     <!-- thigh angles, rad -->
     <g transform="translate(20.2375 144.351219)rotate(-90)scale(0.1 -0.1)">
      <defs>
       <path d="M 18.3125 70.21875 
L 18.3125 54.6875 
L 36.8125 54.6875 
L 36.8125 47.703125 
L 18.3125 47.703125 
L 18.3125 18.015625 
Q 18.3125 11.328125 20.140625 9.421875 
Q 21.96875 7.515625 27.59375 7.515625 
L 36.8125 7.515625 
L 36.8125 0 
L 27.59375 0 
Q 17.1875 0 13.234375 3.875 
Q 9.28125 7.765625 9.28125 18.015625 
L 9.28125 47.703125 
L 2.6875 47.703125 
L 2.6875 54.6875 
L 9.28125 54.6875 
L 9.28125 70.21875 
z
" id="DejaVuSans-116"/>
       <path d="M 54.890625 33.015625 
L 54.890625 0 
L 45.90625 0 
L 45.90625 32.71875 
Q 45.90625 40.484375 42.875 44.328125 
Q 39.84375 48.1875 33.796875 48.1875 
Q 26.515625 48.1875 22.3125 43.546875 
Q 18.109375 38.921875 18.109375 30.90625 
L 18.109375 0 
L 9.078125 0 
L 9.078125 75.984375 
L 18.109375 75.984375 
L 18.109375 46.1875 
Q 21.34375 51.125 25.703125 53.5625 
Q 30.078125 56 35.796875 56 
Q 45.21875 56 50.046875 50.171875 
Q 54.890625 44.34375 54.890625 33.015625 
z
" id="DejaVuSans-104"/>
       <path d="M 9.421875 54.6875 
L 18.40625 54.6875 
L 18.40625 0 
L 9.421875 0 
z
M 9.421875 75.984375 
L 18.40625 75.984375 
L 18.40625 64.59375 
L 9.421875 64.59375 
z
" id="DejaVuSans-105"/>
       <path d="M 45.40625 27.984375 
Q 45.40625 37.75 41.375 43.109375 
Q 37.359375 48.484375 30.078125 48.484375 
Q 22.859375 48.484375 18.828125 43.109375 
Q 14.796875 37.75 14.796875 27.984375 
Q 14.796875 18.265625 18.828125 12.890625 
Q 22.859375 7.515625 30.078125 7.515625 
Q 37.359375 7.515625 41.375 12.890625 
Q 45.40625 18.265625 45.40625 27.984375 
z
M 54.390625 6.78125 
Q 54.390625 -7.171875 48.1875 -13.984375 
Q 42 -20.796875 29.203125 -20.796875 
Q 24.46875 -20.796875 20.265625 -20.09375 
Q 16.0625 -19.390625 12.109375 -17.921875 
L 12.109375 -9.1875 
Q 16.0625 -11.328125 19.921875 -12.34375 
Q 23.78125 -13.375 27.78125 -13.375 
Q 36.625 -13.375 41.015625 -8.765625 
Q 45.40625 -4.15625 45.40625 5.171875 
L 45.40625 9.625 
Q 42.625 4.78125 38.28125 2.390625 
Q 33.9375 0 27.875 0 
Q 17.828125 0 11.671875 7.65625 
Q 5.515625 15.328125 5.515625 27.984375 
Q 5.515625 40.671875 11.671875 48.328125 
Q 17.828125 56 27.875 56 
Q 33.9375 56 38.28125 53.609375 
Q 42.625 51.21875 45.40625 46.390625 
L 45.40625 54.6875 
L 54.390625 54.6875 
z
" id="DejaVuSans-103"/>
       <path id="DejaVuSans-32"/>
       <path d="M 34.28125 27.484375 
Q 23.390625 27.484375 19.1875 25 
Q 14.984375 22.515625 14.984375 16.5 
Q 14.984375 11.71875 18.140625 8.90625 
Q 21.296875 6.109375 26.703125 6.109375 
Q 34.1875 6.109375 38.703125 11.40625 
Q 43.21875 16.703125 43.21875 25.484375 
L 43.21875 27.484375 
z
M 52.203125 31.203125 
L 52.203125 0 
L 43.21875 0 
L 43.21875 8.296875 
Q 40.140625 3.328125 35.546875 0.953125 
Q 30.953125 -1.421875 24.3125 -1.421875 
Q 15.921875 -1.421875 10.953125 3.296875 
Q 6 8.015625 6 15.921875 
Q 6 25.140625 12.171875 29.828125 
Q 18.359375 34.515625 30.609375 34.515625 
L 43.21875 34.515625 
L 43.21875 35.40625 
Q 43.21875 41.609375 39.140625 45 
Q 35.0625 48.390625 27.6875 48.390625 
Q 23 48.390625 18.546875 47.265625 
Q 14.109375 46.140625 10.015625 43.890625 
L 10.015625 52.203125 
Q 14.9375 54.109375 19.578125 55.046875 
Q 24.21875 56 28.609375 56 
Q 40.484375 56 46.34375 49.84375 
Q 52.203125 43.703125 52.203125 31.203125 
z
" id="DejaVuSans-97"/>
       <path d="M 54.890625 33.015625 
L 54.890625 0 
L 45.90625 0 
L 45.90625 32.71875 
Q 45.90625 40.484375 42.875 44.328125 
Q 39.84375 48.1875 33.796875 48.1875 
Q 26.515625 48.1875 22.3125 43.546875 
Q 18.109375 38.921875 18.109375 30.90625 
L 18.109375 0 
L 9.078125 0 
L 9.078125 54.6875 
L 18.109375 54.6875 
L 18.109375 46.1875 
Q 21.34375 51.125 25.703125 53.5625 
Q 30.078125 56 35.796875 56 
Q 45.21875 56 50.046875 50.171875 
Q 54.890625 44.34375 54.890625 33.015625 
z
" id="DejaVuSans-110"/>
       <path d="M 9.421875 75.984375 
L 18.40625 75.984375 
L 18.40625 0 
L 9.421875 0 
z
" id="DejaVuSans-108"/>
       <path d="M 56.203125 29.59375 
L 56.203125 25.203125 
L 14.890625 25.203125 
Q 15.484375 15.921875 20.484375 11.0625 
Q 25.484375 6.203125 34.421875 6.203125 
Q 39.59375 6.203125 44.453125 7.46875 
Q 49.3125 8.734375 54.109375 11.28125 
L 54.109375 2.78125 
Q 49.265625 0.734375 44.1875 -0.34375 
Q 39.109375 -1.421875 33.890625 -1.421875 
Q 20.796875 -1.421875 13.15625 6.1875 
Q 5.515625 13.8125 5.515625 26.8125 
Q 5.515625 40.234375 12.765625 48.109375 
Q 20.015625 56 32.328125 56 
Q 43.359375 56 49.78125 48.890625 
Q 56.203125 41.796875 56.203125 29.59375 
z
M 47.21875 32.234375 
Q 47.125 39.59375 43.09375 43.984375 
Q 39.0625 48.390625 32.421875 48.390625 
Q 24.90625 48.390625 20.390625 44.140625 
Q 15.875 39.890625 15.1875 32.171875 
z
" id="DejaVuSans-101"/>
       <path d="M 44.28125 53.078125 
L 44.28125 44.578125 
Q 40.484375 46.53125 36.375 47.5 
Q 32.28125 48.484375 27.875 48.484375 
Q 21.1875 48.484375 17.84375 46.4375 
Q 14.5 44.390625 14.5 40.28125 
Q 14.5 37.15625 16.890625 35.375 
Q 19.28125 33.59375 26.515625 31.984375 
L 29.59375 31.296875 
Q 39.15625 29.25 43.1875 25.515625 
Q 47.21875 21.78125 47.21875 15.09375 
Q 47.21875 7.46875 41.1875 3.015625 
Q 35.15625 -1.421875 24.609375 -1.421875 
Q 20.21875 -1.421875 15.453125 -0.5625 
Q 10.6875 0.296875 5.421875 2 
L 5.421875 11.28125 
Q 10.40625 8.6875 15.234375 7.390625 
Q 20.0625 6.109375 24.8125 6.109375 
Q 31.15625 6.109375 34.5625 8.28125 
Q 37.984375 10.453125 37.984375 14.40625 
Q 37.984375 18.0625 35.515625 20.015625 
Q 33.0625 21.96875 24.703125 23.78125 
L 21.578125 24.515625 
Q 13.234375 26.265625 9.515625 29.90625 
Q 5.8125 33.546875 5.8125 39.890625 
Q 5.8125 47.609375 11.28125 51.796875 
Q 16.75 56 26.8125 56 
Q 31.78125 56 36.171875 55.265625 
Q 40.578125 54.546875 44.28125 53.078125 
z
" id="DejaVuSans-115"/>
       <path d="M 11.71875 12.40625 
L 22.015625 12.40625 
L 22.015625 4 
L 14.015625 -11.625 
L 7.71875 -11.625 
L 11.71875 4 
z
" id="DejaVuSans-44"/>
       <path d="M 41.109375 46.296875 
Q 39.59375 47.171875 37.8125 47.578125 
Q 36.03125 48 33.890625 48 
Q 26.265625 48 22.1875 43.046875 
Q 18.109375 38.09375 18.109375 28.8125 
L 18.109375 0 
L 9.078125 0 
L 9.078125 54.6875 
L 18.109375 54.6875 
L 18.109375 46.1875 
Q 20.953125 51.171875 25.484375 53.578125 
Q 30.03125 56 36.53125 56 
Q 37.453125 56 38.578125 55.875 
Q 39.703125 55.765625 41.0625 55.515625 
z
" id="DejaVuSans-114"/>
       <path d="M 45.40625 46.390625 
L 45.40625 75.984375 
L 54.390625 75.984375 
L 54.390625 0 
L 45.40625 0 
L 45.40625 8.203125 
Q 42.578125 3.328125 38.25 0.953125 
Q 33.9375 -1.421875 27.875 -1.421875 
Q 17.96875 -1.421875 11.734375 6.484375 
Q 5.515625 14.40625 5.515625 27.296875 
Q 5.515625 40.1875 11.734375 48.09375 
Q 17.96875 56 27.875 56 
Q 33.9375 56 38.25 53.625 
Q 42.578125 51.265625 45.40625 46.390625 
z
M 14.796875 27.296875 
Q 14.796875 17.390625 18.875 11.75 
Q 22.953125 6.109375 30.078125 6.109375 
Q 37.203125 6.109375 41.296875 11.75 
Q 45.40625 17.390625 45.40625 27.296875 
Q 45.40625 37.203125 41.296875 42.84375 
Q 37.203125 48.484375 30.078125 48.484375 
Q 22.953125 48.484375 18.875 42.84375 
Q 14.796875 37.203125 14.796875 27.296875 
z
" id="DejaVuSans-100"/>
      </defs>
      <use xlink:href="#DejaVuSans-116"/>
      <use x="39.208984" xlink:href="#DejaVuSans-104"/>
      <use x="102.587891" xlink:href="#DejaVuSans-105"/>
      <use x="130.371094" xlink:href="#DejaVuSans-103"/>
      <use x="193.847656" xlink:href="#DejaVuSans-104"/>
      <use x="257.226562" xlink:href="#DejaVuSans-32"/>
      <use x="289.013672" xlink:href="#DejaVuSans-97"/>
      <use x="350.292969" xlink:href="#DejaVuSans-110"/>
      <use x="413.671875" xlink:href="#DejaVuSans-103"/>
      <use x="477.148438" xlink:href="#DejaVuSans-108"/>
      <use x="504.931641" xlink:href="#DejaVuSans-101"/>
      <use x="566.455078" xlink:href="#DejaVuSans-115"/>
      <use x="618.554688" xlink:href="#DejaVuSans-44"/>
      <use x="650.341797" xlink:href="#DejaVuSans-32"/>
      <use x="682.128906" xlink:href="#DejaVuSans-114"/>
      <use x="723.242188" xlink:href="#DejaVuSans-97"/>
      <use x="784.521484" xlink:href="#DejaVuSans-100"/>
     </g>
    </g>
   </g>
   <g id="line2d_27">
    <path clip-path="url(#p98e54f10fb)" d="M 73.832727 120.758343 
L 76.280198 78.222702 
L 81.162375 147.422476 
L 81.984896 123.297784 
L 83.61054 132.185829 
L 90.926539 87.745607 
L 92.557075 63.620915 
L 94.178653 87.745607 
L 96.618748 100.442813 
L 106.390524 122.662924 
L 108.830922 102.982254 
L 115.329745 102.982254 
L 116.962691 136.629851 
L 120.210925 137.899571 
L 125.911348 132.185829 
L 129.989781 108.061137 
L 134.863729 118.853762 
L 135.673071 125.202365 
L 138.115789 131.550968 
L 140.553211 80.762144 
L 141.369928 99.173093 
L 144.628774 90.285048 
L 149.509317 137.264711 
L 150.320153 134.72527 
L 158.460155 142.978454 
L 163.337719 90.919909 
L 166.596599 125.837226 
L 170.657345 131.550968 
L 178.796136 103.617115 
L 182.05024 134.09041 
L 187.749864 118.853762 
L 201.584198 124.567505 
L 204.833673 70.604379 
L 206.462774 103.617115 
L 208.9051 94.72907 
L 212.162456 99.173093 
L 220.29535 123.297784 
L 223.549381 142.978454 
L 228.433815 97.268512 
L 231.697107 129.646387 
L 239.015496 103.617115 
L 242.268944 83.301585 
L 247.147323 136.629851 
L 254.46447 57.272312 
L 257.733259 92.189629 
L 260.984128 95.998791 
L 270.744055 56.002591 
L 273.179909 113.77488 
L 280.503637 127.741806 
L 283.765334 130.916108 
L 288.64424 130.916108 
L 290.272968 99.173093 
L 295.159475 118.218902 
L 302.477394 84.571305 
L 305.724681 115.679461 
L 306.544844 107.426277 
L 309.798941 82.031864 
L 314.687919 113.77488 
L 317.130183 130.916108 
L 318.74525 72.50896 
L 320.375658 94.09421 
L 322.002928 113.140019 
L 325.254514 106.156556 
L 326.879409 95.998791 
L 328.522163 132.185829 
L 332.579397 135.994991 
L 336.648725 101.077673 
L 338.273589 113.77488 
L 341.524877 112.505159 
L 345.599311 129.646387 
L 348.047868 127.106946 
L 350.483082 127.106946 
L 354.543731 117.584042 
L 356.182938 87.110747 
L 359.425306 101.712534 
L 362.687454 113.140019 
L 366.756847 132.185829 
L 370.011441 127.106946 
L 370.826043 118.218902 
L 372.455214 83.301585 
L 375.704205 100.442813 
L 376.512949 116.314321 
L 378.968528 123.932645 
L 382.212887 120.758343 
L 383.840133 78.222702 
L 396.041327 127.106946 
L 398.487273 129.646387 
" style="fill:none;stroke:#1f77b4;stroke-linecap:square;stroke-width:1.5;"/>
   </g>
   <g id="line2d_28">
    <path clip-path="url(#p98e54f10fb)" d="M 73.832727 76.958709 
L 76.280198 62.921372 
L 81.162375 139.287499 
L 81.984896 119.753266 
L 83.61054 128.361012 
L 90.926539 66.267936 
L 92.557075 52.993099 
L 94.178653 84.074373 
L 96.618748 93.794938 
L 106.390524 118.776569 
L 108.830922 116.164742 
L 115.329745 105.150283 
L 116.962691 140.037903 
L 120.210925 138.025527 
L 125.911348 133.351833 
L 129.989781 107.060062 
L 134.863729 121.686003 
L 135.673071 128.211144 
L 138.115789 146.615212 
L 140.553211 74.250044 
L 141.369928 110.586384 
L 144.628774 94.742867 
L 149.509317 122.124568 
L 150.320153 130.023208 
L 158.460155 148.670887 
L 163.337719 96.658109 
L 166.596599 123.280388 
L 170.657345 141.946095 
L 178.796136 105.825727 
L 182.05024 142.988942 
L 187.749864 112.020091 
L 201.584198 138.240344 
L 204.833673 50.350563 
L 206.462774 108.178623 
L 208.9051 83.636141 
L 212.162456 109.359599 
L 220.29535 118.035051 
L 223.549381 156.933818 
L 228.433815 96.703 
L 231.697107 127.632419 
L 239.015496 104.11557 
L 242.268944 87.271572 
L 247.147323 141.222922 
L 254.46447 62.60167 
L 257.733259 80.7637 
L 260.984128 94.612322 
L 270.744055 46.970182 
L 273.179909 106.896346 
L 280.503637 139.429208 
L 283.765334 124.54478 
L 288.64424 151.930457 
L 290.272968 91.12368 
L 295.159475 123.864478 
L 302.477394 57.58581 
L 305.724681 106.560401 
L 306.544844 77.126124 
L 309.798941 90.481284 
L 314.687919 120.480733 
L 317.130183 136.896573 
L 318.74525 67.567639 
L 320.375658 100.324753 
L 322.002928 102.634395 
L 325.254514 103.381683 
L 326.879409 100.906917 
L 328.522163 137.189277 
L 332.579397 133.45138 
L 336.648725 104.460778 
L 338.273589 103.701019 
L 341.524877 120.566899 
L 345.599311 137.060751 
L 348.047868 136.375798 
L 350.483082 113.998253 
L 354.543731 109.052459 
L 356.182938 92.0134 
L 359.425306 102.692914 
L 362.687454 116.942078 
L 366.756847 109.473896 
L 370.011441 145.813156 
L 370.826043 108.952671 
L 372.455214 78.861068 
L 375.704205 102.649547 
L 376.512949 121.73393 
L 378.968528 127.454624 
L 382.212887 135.92841 
L 383.840133 64.673264 
L 396.041327 127.308372 
L 398.487273 135.056319 
" style="fill:none;stroke:#ff7f0e;stroke-linecap:square;stroke-width:1.5;"/>
   </g>
   <g id="line2d_29">
    <path clip-path="url(#p98e54f10fb)" d="M 73.832727 79.18072 
L 76.280198 107.679023 
L 81.162375 114.845377 
L 81.984896 119.435836 
L 83.61054 119.155537 
L 90.926539 101.502683 
L 92.557075 112.352538 
L 94.178653 119.30912 
L 96.618748 116.332479 
L 106.390524 119.093999 
L 108.830922 136.162841 
L 115.329745 125.148382 
L 116.962691 126.388406 
L 120.210925 123.10631 
L 125.911348 124.146358 
L 129.989781 121.979279 
L 134.863729 125.812595 
L 135.673071 125.989133 
L 138.115789 138.044598 
L 140.553211 116.468255 
L 141.369928 134.393645 
L 144.628774 127.438173 
L 149.509317 107.840211 
L 150.320153 118.278293 
L 158.460155 128.672788 
L 163.337719 128.718554 
L 166.596599 120.423516 
L 170.657345 133.375481 
L 178.796136 125.188966 
L 182.05024 131.878886 
L 187.749864 116.146683 
L 201.584198 136.653193 
L 204.833673 102.726539 
L 206.462774 127.541863 
L 208.9051 111.887425 
L 212.162456 133.16686 
L 220.29535 117.717621 
L 223.549381 136.935718 
L 228.433815 122.414843 
L 231.697107 120.966386 
L 239.015496 123.47881 
L 242.268944 126.950341 
L 247.147323 127.573425 
L 254.46447 128.309712 
L 257.733259 111.554425 
L 260.984128 121.593885 
L 270.744055 113.947945 
L 273.179909 116.101821 
L 280.503637 134.667756 
L 283.765334 116.609026 
L 288.64424 143.994703 
L 290.272968 114.930942 
L 295.159475 128.62593 
L 302.477394 95.994858 
L 305.724681 113.861295 
L 306.544844 92.680202 
L 309.798941 131.429774 
L 314.687919 129.686207 
L 317.130183 128.960819 
L 318.74525 118.039034 
L 320.375658 129.210897 
L 322.002928 112.47473 
L 325.254514 120.205481 
L 326.879409 127.88848 
L 328.522163 127.983803 
L 332.579397 120.436743 
L 336.648725 126.363459 
L 338.273589 112.906494 
L 341.524877 131.042094 
L 345.599311 130.394718 
L 348.047868 132.249206 
L 350.483082 109.871661 
L 354.543731 114.448772 
L 356.182938 127.883007 
L 359.425306 123.960734 
L 362.687454 126.782412 
L 366.756847 100.268422 
L 370.011441 141.686564 
L 370.826043 113.714123 
L 372.455214 118.539838 
L 375.704205 125.187088 
L 376.512949 128.399963 
L 378.968528 126.502334 
L 382.212887 138.150421 
L 383.840133 109.430916 
L 396.041327 123.18178 
L 398.487273 128.390286 
" style="fill:none;stroke:#2ca02c;stroke-linecap:square;stroke-width:1.5;"/>
   </g>
   <g id="patch_3">
    <path d="M 57.6 162.432 
L 57.6 41.472 
" style="fill:none;stroke:#000000;stroke-linecap:square;stroke-linejoin:miter;stroke-width:0.8;"/>
   </g>
   <g id="patch_4">
    <path d="M 414.72 162.432 
L 414.72 41.472 
" style="fill:none;stroke:#000000;stroke-linecap:square;stroke-linejoin:miter;stroke-width:0.8;"/>
   </g>
   <g id="patch_5">
    <path d="M 57.6 162.432 
L 414.72 162.432 
" style="fill:none;stroke:#000000;stroke-linecap:square;stroke-linejoin:miter;stroke-width:0.8;"/>
   </g>
   <g id="patch_6">
    <path d="M 57.6 41.472 
L 414.72 41.472 
" style="fill:none;stroke:#000000;stroke-linecap:square;stroke-linejoin:miter;stroke-width:0.8;"/>
   </g>
   <g id="legend_1">
    <g id="patch_7">
     <path d="M 345.690313 94.062625 
L 407.72 94.062625 
Q 409.72 94.062625 409.72 92.062625 
L 409.72 48.472 
Q 409.72 46.472 407.72 46.472 
L 345.690313 46.472 
Q 343.690313 46.472 343.690313 48.472 
L 343.690313 92.062625 
Q 343.690313 94.062625 345.690313 94.062625 
z
" style="fill:#ffffff;opacity:0.8;stroke:#cccccc;stroke-linejoin:miter;"/>
    </g>
    <g id="line2d_30">
     <path d="M 347.690313 54.570437 
L 367.690313 54.570437 
" style="fill:none;stroke:#1f77b4;stroke-linecap:square;stroke-width:1.5;"/>
    </g>
    <g id="line2d_31"/>
    <g id="text_15">
     <!-- U_cur -->
     <g transform="translate(375.690313 58.070437)scale(0.1 -0.1)">
      <defs>
       <path d="M 8.6875 72.90625 
L 18.609375 72.90625 
L 18.609375 28.609375 
Q 18.609375 16.890625 22.84375 11.734375 
Q 27.09375 6.59375 36.625 6.59375 
Q 46.09375 6.59375 50.34375 11.734375 
Q 54.59375 16.890625 54.59375 28.609375 
L 54.59375 72.90625 
L 64.5 72.90625 
L 64.5 27.390625 
Q 64.5 13.140625 57.4375 5.859375 
Q 50.390625 -1.421875 36.625 -1.421875 
Q 22.796875 -1.421875 15.734375 5.859375 
Q 8.6875 13.140625 8.6875 27.390625 
z
" id="DejaVuSans-85"/>
       <path d="M 50.984375 -16.609375 
L 50.984375 -23.578125 
L -0.984375 -23.578125 
L -0.984375 -16.609375 
z
" id="DejaVuSans-95"/>
       <path d="M 48.78125 52.59375 
L 48.78125 44.1875 
Q 44.96875 46.296875 41.140625 47.34375 
Q 37.3125 48.390625 33.40625 48.390625 
Q 24.65625 48.390625 19.8125 42.84375 
Q 14.984375 37.3125 14.984375 27.296875 
Q 14.984375 17.28125 19.8125 11.734375 
Q 24.65625 6.203125 33.40625 6.203125 
Q 37.3125 6.203125 41.140625 7.25 
Q 44.96875 8.296875 48.78125 10.40625 
L 48.78125 2.09375 
Q 45.015625 0.34375 40.984375 -0.53125 
Q 36.96875 -1.421875 32.421875 -1.421875 
Q 20.0625 -1.421875 12.78125 6.34375 
Q 5.515625 14.109375 5.515625 27.296875 
Q 5.515625 40.671875 12.859375 48.328125 
Q 20.21875 56 33.015625 56 
Q 37.15625 56 41.109375 55.140625 
Q 45.0625 54.296875 48.78125 52.59375 
z
" id="DejaVuSans-99"/>
       <path d="M 8.5 21.578125 
L 8.5 54.6875 
L 17.484375 54.6875 
L 17.484375 21.921875 
Q 17.484375 14.15625 20.5 10.265625 
Q 23.53125 6.390625 29.59375 6.390625 
Q 36.859375 6.390625 41.078125 11.03125 
Q 45.3125 15.671875 45.3125 23.6875 
L 45.3125 54.6875 
L 54.296875 54.6875 
L 54.296875 0 
L 45.3125 0 
L 45.3125 8.40625 
Q 42.046875 3.421875 37.71875 1 
Q 33.40625 -1.421875 27.6875 -1.421875 
Q 18.265625 -1.421875 13.375 4.4375 
Q 8.5 10.296875 8.5 21.578125 
z
M 31.109375 56 
z
" id="DejaVuSans-117"/>
      </defs>
      <use xlink:href="#DejaVuSans-85"/>
      <use x="73.193359" xlink:href="#DejaVuSans-95"/>
      <use x="123.193359" xlink:href="#DejaVuSans-99"/>
      <use x="178.173828" xlink:href="#DejaVuSans-117"/>
      <use x="241.552734" xlink:href="#DejaVuSans-114"/>
     </g>
    </g>
    <g id="line2d_32">
     <path d="M 347.690313 69.526687 
L 367.690313 69.526687 
" style="fill:none;stroke:#ff7f0e;stroke-linecap:square;stroke-width:1.5;"/>
    </g>
    <g id="line2d_33"/>
    <g id="text_16">
     <!-- U_des -->
     <g transform="translate(375.690313 73.026687)scale(0.1 -0.1)">
      <use xlink:href="#DejaVuSans-85"/>
      <use x="73.193359" xlink:href="#DejaVuSans-95"/>
      <use x="123.193359" xlink:href="#DejaVuSans-100"/>
      <use x="186.669922" xlink:href="#DejaVuSans-101"/>
      <use x="248.193359" xlink:href="#DejaVuSans-115"/>
     </g>
    </g>
    <g id="line2d_34">
     <path d="M 347.690313 84.482937 
L 367.690313 84.482937 
" style="fill:none;stroke:#2ca02c;stroke-linecap:square;stroke-width:1.5;"/>
    </g>
    <g id="line2d_35"/>
    <g id="text_17">
     <!-- error -->
     <g transform="translate(375.690313 87.982937)scale(0.1 -0.1)">
      <defs>
       <path d="M 30.609375 48.390625 
Q 23.390625 48.390625 19.1875 42.75 
Q 14.984375 37.109375 14.984375 27.296875 
Q 14.984375 17.484375 19.15625 11.84375 
Q 23.34375 6.203125 30.609375 6.203125 
Q 37.796875 6.203125 41.984375 11.859375 
Q 46.1875 17.53125 46.1875 27.296875 
Q 46.1875 37.015625 41.984375 42.703125 
Q 37.796875 48.390625 30.609375 48.390625 
z
M 30.609375 56 
Q 42.328125 56 49.015625 48.375 
Q 55.71875 40.765625 55.71875 27.296875 
Q 55.71875 13.875 49.015625 6.21875 
Q 42.328125 -1.421875 30.609375 -1.421875 
Q 18.84375 -1.421875 12.171875 6.21875 
Q 5.515625 13.875 5.515625 27.296875 
Q 5.515625 40.765625 12.171875 48.375 
Q 18.84375 56 30.609375 56 
z
" id="DejaVuSans-111"/>
      </defs>
      <use xlink:href="#DejaVuSans-101"/>
      <use x="61.523438" xlink:href="#DejaVuSans-114"/>
      <use x="100.886719" xlink:href="#DejaVuSans-114"/>
      <use x="139.75" xlink:href="#DejaVuSans-111"/>
      <use x="200.931641" xlink:href="#DejaVuSans-114"/>
     </g>
    </g>
   </g>
  </g>
  <g id="axes_2">
   <g id="patch_8">
    <path d="M 57.6 307.584 
L 414.72 307.584 
L 414.72 186.624 
L 57.6 186.624 
z
" style="fill:#ffffff;"/>
   </g>
   <g id="matplotlib.axis_3">
    <g id="xtick_10">
     <g id="line2d_36">
      <path clip-path="url(#p0c00032468)" d="M 73.832615 307.584 
L 73.832615 186.624 
" style="fill:none;stroke:#b0b0b0;stroke-linecap:square;stroke-width:0.8;"/>
     </g>
     <g id="line2d_37">
      <g>
       <use style="stroke:#000000;stroke-width:0.8;" x="73.832615" xlink:href="#m41951e689f" y="307.584"/>
      </g>
     </g>
     <g id="text_18">
      <!-- 0.0 -->
      <g transform="translate(65.881052 322.182437)scale(0.1 -0.1)">
       <use xlink:href="#DejaVuSans-48"/>
       <use x="63.623047" xlink:href="#DejaVuSans-46"/>
       <use x="95.410156" xlink:href="#DejaVuSans-48"/>
      </g>
     </g>
    </g>
    <g id="xtick_11">
     <g id="line2d_38">
      <path clip-path="url(#p0c00032468)" d="M 114.515263 307.584 
L 114.515263 186.624 
" style="fill:none;stroke:#b0b0b0;stroke-linecap:square;stroke-width:0.8;"/>
     </g>
     <g id="line2d_39">
      <g>
       <use style="stroke:#000000;stroke-width:0.8;" x="114.515263" xlink:href="#m41951e689f" y="307.584"/>
      </g>
     </g>
     <g id="text_19">
      <!-- 2.5 -->
      <g transform="translate(106.5637 322.182437)scale(0.1 -0.1)">
       <use xlink:href="#DejaVuSans-50"/>
       <use x="63.623047" xlink:href="#DejaVuSans-46"/>
       <use x="95.410156" xlink:href="#DejaVuSans-53"/>
      </g>
     </g>
    </g>
    <g id="xtick_12">
     <g id="line2d_40">
      <path clip-path="url(#p0c00032468)" d="M 155.19791 307.584 
L 155.19791 186.624 
" style="fill:none;stroke:#b0b0b0;stroke-linecap:square;stroke-width:0.8;"/>
     </g>
     <g id="line2d_41">
      <g>
       <use style="stroke:#000000;stroke-width:0.8;" x="155.19791" xlink:href="#m41951e689f" y="307.584"/>
      </g>
     </g>
     <g id="text_20">
      <!-- 5.0 -->
      <g transform="translate(147.246348 322.182437)scale(0.1 -0.1)">
       <use xlink:href="#DejaVuSans-53"/>
       <use x="63.623047" xlink:href="#DejaVuSans-46"/>
       <use x="95.410156" xlink:href="#DejaVuSans-48"/>
      </g>
     </g>
    </g>
    <g id="xtick_13">
     <g id="line2d_42">
      <path clip-path="url(#p0c00032468)" d="M 195.880558 307.584 
L 195.880558 186.624 
" style="fill:none;stroke:#b0b0b0;stroke-linecap:square;stroke-width:0.8;"/>
     </g>
     <g id="line2d_43">
      <g>
       <use style="stroke:#000000;stroke-width:0.8;" x="195.880558" xlink:href="#m41951e689f" y="307.584"/>
      </g>
     </g>
     <g id="text_21">
      <!-- 7.5 -->
      <g transform="translate(187.928996 322.182437)scale(0.1 -0.1)">
       <use xlink:href="#DejaVuSans-55"/>
       <use x="63.623047" xlink:href="#DejaVuSans-46"/>
       <use x="95.410156" xlink:href="#DejaVuSans-53"/>
      </g>
     </g>
    </g>
    <g id="xtick_14">
     <g id="line2d_44">
      <path clip-path="url(#p0c00032468)" d="M 236.563206 307.584 
L 236.563206 186.624 
" style="fill:none;stroke:#b0b0b0;stroke-linecap:square;stroke-width:0.8;"/>
     </g>
     <g id="line2d_45">
      <g>
       <use style="stroke:#000000;stroke-width:0.8;" x="236.563206" xlink:href="#m41951e689f" y="307.584"/>
      </g>
     </g>
     <g id="text_22">
      <!-- 10.0 -->
      <g transform="translate(225.430394 322.182437)scale(0.1 -0.1)">
       <use xlink:href="#DejaVuSans-49"/>
       <use x="63.623047" xlink:href="#DejaVuSans-48"/>
       <use x="127.246094" xlink:href="#DejaVuSans-46"/>
       <use x="159.033203" xlink:href="#DejaVuSans-48"/>
      </g>
     </g>
    </g>
    <g id="xtick_15">
     <g id="line2d_46">
      <path clip-path="url(#p0c00032468)" d="M 277.245854 307.584 
L 277.245854 186.624 
" style="fill:none;stroke:#b0b0b0;stroke-linecap:square;stroke-width:0.8;"/>
     </g>
     <g id="line2d_47">
      <g>
       <use style="stroke:#000000;stroke-width:0.8;" x="277.245854" xlink:href="#m41951e689f" y="307.584"/>
      </g>
     </g>
     <g id="text_23">
      <!-- 12.5 -->
      <g transform="translate(266.113042 322.182437)scale(0.1 -0.1)">
       <use xlink:href="#DejaVuSans-49"/>
       <use x="63.623047" xlink:href="#DejaVuSans-50"/>
       <use x="127.246094" xlink:href="#DejaVuSans-46"/>
       <use x="159.033203" xlink:href="#DejaVuSans-53"/>
      </g>
     </g>
    </g>
    <g id="xtick_16">
     <g id="line2d_48">
      <path clip-path="url(#p0c00032468)" d="M 317.928502 307.584 
L 317.928502 186.624 
" style="fill:none;stroke:#b0b0b0;stroke-linecap:square;stroke-width:0.8;"/>
     </g>
     <g id="line2d_49">
      <g>
       <use style="stroke:#000000;stroke-width:0.8;" x="317.928502" xlink:href="#m41951e689f" y="307.584"/>
      </g>
     </g>
     <g id="text_24">
      <!-- 15.0 -->
      <g transform="translate(306.795689 322.182437)scale(0.1 -0.1)">
       <use xlink:href="#DejaVuSans-49"/>
       <use x="63.623047" xlink:href="#DejaVuSans-53"/>
       <use x="127.246094" xlink:href="#DejaVuSans-46"/>
       <use x="159.033203" xlink:href="#DejaVuSans-48"/>
      </g>
     </g>
    </g>
    <g id="xtick_17">
     <g id="line2d_50">
      <path clip-path="url(#p0c00032468)" d="M 358.61115 307.584 
L 358.61115 186.624 
" style="fill:none;stroke:#b0b0b0;stroke-linecap:square;stroke-width:0.8;"/>
     </g>
     <g id="line2d_51">
      <g>
       <use style="stroke:#000000;stroke-width:0.8;" x="358.61115" xlink:href="#m41951e689f" y="307.584"/>
      </g>
     </g>
     <g id="text_25">
      <!-- 17.5 -->
      <g transform="translate(347.478337 322.182437)scale(0.1 -0.1)">
       <use xlink:href="#DejaVuSans-49"/>
       <use x="63.623047" xlink:href="#DejaVuSans-55"/>
       <use x="127.246094" xlink:href="#DejaVuSans-46"/>
       <use x="159.033203" xlink:href="#DejaVuSans-53"/>
      </g>
     </g>
    </g>
    <g id="xtick_18">
     <g id="line2d_52">
      <path clip-path="url(#p0c00032468)" d="M 399.293798 307.584 
L 399.293798 186.624 
" style="fill:none;stroke:#b0b0b0;stroke-linecap:square;stroke-width:0.8;"/>
     </g>
     <g id="line2d_53">
      <g>
       <use style="stroke:#000000;stroke-width:0.8;" x="399.293798" xlink:href="#m41951e689f" y="307.584"/>
      </g>
     </g>
     <g id="text_26">
      <!-- 20.0 -->
      <g transform="translate(388.160985 322.182437)scale(0.1 -0.1)">
       <use xlink:href="#DejaVuSans-50"/>
       <use x="63.623047" xlink:href="#DejaVuSans-48"/>
       <use x="127.246094" xlink:href="#DejaVuSans-46"/>
       <use x="159.033203" xlink:href="#DejaVuSans-48"/>
      </g>
     </g>
    </g>
    <g id="text_27">
     <!-- time, sec -->
     <g transform="translate(213.255313 335.860562)scale(0.1 -0.1)">
      <defs>
       <path d="M 52 44.1875 
Q 55.375 50.25 60.0625 53.125 
Q 64.75 56 71.09375 56 
Q 79.640625 56 84.28125 50.015625 
Q 88.921875 44.046875 88.921875 33.015625 
L 88.921875 0 
L 79.890625 0 
L 79.890625 32.71875 
Q 79.890625 40.578125 77.09375 44.375 
Q 74.3125 48.1875 68.609375 48.1875 
Q 61.625 48.1875 57.5625 43.546875 
Q 53.515625 38.921875 53.515625 30.90625 
L 53.515625 0 
L 44.484375 0 
L 44.484375 32.71875 
Q 44.484375 40.625 41.703125 44.40625 
Q 38.921875 48.1875 33.109375 48.1875 
Q 26.21875 48.1875 22.15625 43.53125 
Q 18.109375 38.875 18.109375 30.90625 
L 18.109375 0 
L 9.078125 0 
L 9.078125 54.6875 
L 18.109375 54.6875 
L 18.109375 46.1875 
Q 21.1875 51.21875 25.484375 53.609375 
Q 29.78125 56 35.6875 56 
Q 41.65625 56 45.828125 52.96875 
Q 50 49.953125 52 44.1875 
z
" id="DejaVuSans-109"/>
      </defs>
      <use xlink:href="#DejaVuSans-116"/>
      <use x="39.208984" xlink:href="#DejaVuSans-105"/>
      <use x="66.992188" xlink:href="#DejaVuSans-109"/>
      <use x="164.404297" xlink:href="#DejaVuSans-101"/>
      <use x="225.927734" xlink:href="#DejaVuSans-44"/>
      <use x="257.714844" xlink:href="#DejaVuSans-32"/>
      <use x="289.501953" xlink:href="#DejaVuSans-115"/>
      <use x="341.601562" xlink:href="#DejaVuSans-101"/>
      <use x="403.125" xlink:href="#DejaVuSans-99"/>
     </g>
    </g>
   </g>
   <g id="matplotlib.axis_4">
    <g id="ytick_5">
     <g id="line2d_54">
      <path clip-path="url(#p0c00032468)" d="M 57.6 302.052566 
L 414.72 302.052566 
" style="fill:none;stroke:#b0b0b0;stroke-linecap:square;stroke-width:0.8;"/>
     </g>
     <g id="line2d_55">
      <g>
       <use style="stroke:#000000;stroke-width:0.8;" x="57.6" xlink:href="#maa759496d5" y="302.052566"/>
      </g>
     </g>
     <g id="text_28">
      <!-- −1.5 -->
      <g transform="translate(26.317187 305.851785)scale(0.1 -0.1)">
       <use xlink:href="#DejaVuSans-8722"/>
       <use x="83.789062" xlink:href="#DejaVuSans-49"/>
       <use x="147.412109" xlink:href="#DejaVuSans-46"/>
       <use x="179.199219" xlink:href="#DejaVuSans-53"/>
      </g>
     </g>
    </g>
    <g id="ytick_6">
     <g id="line2d_56">
      <path clip-path="url(#p0c00032468)" d="M 57.6 277.755627 
L 414.72 277.755627 
" style="fill:none;stroke:#b0b0b0;stroke-linecap:square;stroke-width:0.8;"/>
     </g>
     <g id="line2d_57">
      <g>
       <use style="stroke:#000000;stroke-width:0.8;" x="57.6" xlink:href="#maa759496d5" y="277.755627"/>
      </g>
     </g>
     <g id="text_29">
      <!-- −1.0 -->
      <g transform="translate(26.317187 281.554846)scale(0.1 -0.1)">
       <use xlink:href="#DejaVuSans-8722"/>
       <use x="83.789062" xlink:href="#DejaVuSans-49"/>
       <use x="147.412109" xlink:href="#DejaVuSans-46"/>
       <use x="179.199219" xlink:href="#DejaVuSans-48"/>
      </g>
     </g>
    </g>
    <g id="ytick_7">
     <g id="line2d_58">
      <path clip-path="url(#p0c00032468)" d="M 57.6 253.458688 
L 414.72 253.458688 
" style="fill:none;stroke:#b0b0b0;stroke-linecap:square;stroke-width:0.8;"/>
     </g>
     <g id="line2d_59">
      <g>
       <use style="stroke:#000000;stroke-width:0.8;" x="57.6" xlink:href="#maa759496d5" y="253.458688"/>
      </g>
     </g>
     <g id="text_30">
      <!-- −0.5 -->
      <g transform="translate(26.317187 257.257907)scale(0.1 -0.1)">
       <use xlink:href="#DejaVuSans-8722"/>
       <use x="83.789062" xlink:href="#DejaVuSans-48"/>
       <use x="147.412109" xlink:href="#DejaVuSans-46"/>
       <use x="179.199219" xlink:href="#DejaVuSans-53"/>
      </g>
     </g>
    </g>
    <g id="ytick_8">
     <g id="line2d_60">
      <path clip-path="url(#p0c00032468)" d="M 57.6 229.161749 
L 414.72 229.161749 
" style="fill:none;stroke:#b0b0b0;stroke-linecap:square;stroke-width:0.8;"/>
     </g>
     <g id="line2d_61">
      <g>
       <use style="stroke:#000000;stroke-width:0.8;" x="57.6" xlink:href="#maa759496d5" y="229.161749"/>
      </g>
     </g>
     <g id="text_31">
      <!-- 0.0 -->
      <g transform="translate(34.696875 232.960968)scale(0.1 -0.1)">
       <use xlink:href="#DejaVuSans-48"/>
       <use x="63.623047" xlink:href="#DejaVuSans-46"/>
       <use x="95.410156" xlink:href="#DejaVuSans-48"/>
      </g>
     </g>
    </g>
    <g id="ytick_9">
     <g id="line2d_62">
      <path clip-path="url(#p0c00032468)" d="M 57.6 204.864811 
L 414.72 204.864811 
" style="fill:none;stroke:#b0b0b0;stroke-linecap:square;stroke-width:0.8;"/>
     </g>
     <g id="line2d_63">
      <g>
       <use style="stroke:#000000;stroke-width:0.8;" x="57.6" xlink:href="#maa759496d5" y="204.864811"/>
      </g>
     </g>
     <g id="text_32">
      <!-- 0.5 -->
      <g transform="translate(34.696875 208.664029)scale(0.1 -0.1)">
       <use xlink:href="#DejaVuSans-48"/>
       <use x="63.623047" xlink:href="#DejaVuSans-46"/>
       <use x="95.410156" xlink:href="#DejaVuSans-53"/>
      </g>
     </g>
    </g>
    <g id="text_33">
     <!-- knee angles, rad -->
     <g transform="translate(20.2375 288.859469)rotate(-90)scale(0.1 -0.1)">
      <defs>
       <path d="M 9.078125 75.984375 
L 18.109375 75.984375 
L 18.109375 31.109375 
L 44.921875 54.6875 
L 56.390625 54.6875 
L 27.390625 29.109375 
L 57.625 0 
L 45.90625 0 
L 18.109375 26.703125 
L 18.109375 0 
L 9.078125 0 
z
" id="DejaVuSans-107"/>
      </defs>
      <use xlink:href="#DejaVuSans-107"/>
      <use x="57.910156" xlink:href="#DejaVuSans-110"/>
      <use x="121.289062" xlink:href="#DejaVuSans-101"/>
      <use x="182.8125" xlink:href="#DejaVuSans-101"/>
      <use x="244.335938" xlink:href="#DejaVuSans-32"/>
      <use x="276.123047" xlink:href="#DejaVuSans-97"/>
      <use x="337.402344" xlink:href="#DejaVuSans-110"/>
      <use x="400.78125" xlink:href="#DejaVuSans-103"/>
      <use x="464.257812" xlink:href="#DejaVuSans-108"/>
      <use x="492.041016" xlink:href="#DejaVuSans-101"/>
      <use x="553.564453" xlink:href="#DejaVuSans-115"/>
      <use x="605.664062" xlink:href="#DejaVuSans-44"/>
      <use x="637.451172" xlink:href="#DejaVuSans-32"/>
      <use x="669.238281" xlink:href="#DejaVuSans-114"/>
      <use x="710.351562" xlink:href="#DejaVuSans-97"/>
      <use x="771.630859" xlink:href="#DejaVuSans-100"/>
     </g>
    </g>
   </g>
   <g id="line2d_64">
    <path clip-path="url(#p0c00032468)" d="M 73.832727 230.229747 
L 76.280198 294.736785 
L 81.162375 254.580086 
L 81.984896 257.570478 
L 83.61054 217.413779 
L 90.926539 243.472914 
L 92.557075 256.288881 
L 94.178653 284.48401 
L 96.618748 249.880897 
L 106.390524 226.812155 
L 108.830922 258.852075 
L 115.329745 243.900112 
L 116.962691 214.423387 
L 120.210925 211.005795 
L 125.911348 255.007285 
L 129.989781 249.0265 
L 134.863729 219.976973 
L 135.673071 222.112967 
L 138.115789 204.597811 
L 140.553211 234.074537 
L 141.369928 256.288881 
L 144.628774 227.666553 
L 149.509317 219.976973 
L 150.320153 216.132182 
L 158.460155 225.957758 
L 163.337719 250.308096 
L 166.596599 217.413779 
L 170.657345 203.316214 
L 178.796136 260.133672 
L 182.05024 207.161005 
L 187.749864 217.413779 
L 201.584198 222.112967 
L 204.833673 241.336919 
L 206.462774 252.016892 
L 208.9051 233.647338 
L 212.162456 246.463306 
L 220.29535 219.976973 
L 223.549381 238.346526 
L 228.433815 267.396053 
L 231.697107 219.976973 
L 239.015496 262.269666 
L 242.268944 238.773725 
L 247.147323 207.588204 
L 254.46447 242.618516 
L 257.733259 233.647338 
L 260.984128 249.0265 
L 270.744055 239.200924 
L 273.179909 260.133672 
L 280.503637 221.685768 
L 283.765334 216.559381 
L 288.64424 246.890505 
L 290.272968 230.656946 
L 295.159475 216.559381 
L 302.477394 239.628123 
L 305.724681 268.67765 
L 306.544844 218.268177 
L 309.798941 256.71608 
L 314.687919 206.733806 
L 317.130183 199.044225 
L 318.74525 234.928935 
L 320.375658 266.541655 
L 322.002928 271.240844 
L 325.254514 229.802548 
L 326.879409 246.463306 
L 328.522163 214.423387 
L 332.579397 212.714591 
L 336.648725 242.618516 
L 338.273589 274.231236 
L 341.524877 224.248962 
L 345.599311 220.83137 
L 348.047868 217.840978 
L 350.483082 220.404172 
L 354.543731 265.687258 
L 356.182938 243.900112 
L 359.425306 242.191317 
L 362.687454 210.578596 
L 366.756847 218.268177 
L 370.011441 245.608908 
L 370.826043 264.405661 
L 372.455214 245.608908 
L 375.704205 237.06493 
L 376.512949 219.976973 
L 378.968528 212.714591 
L 382.212887 217.840978 
L 383.840133 238.773725 
L 396.041327 213.14179 
L 398.487273 213.996188 
" style="fill:none;stroke:#1f77b4;stroke-linecap:square;stroke-width:1.5;"/>
   </g>
   <g id="line2d_65">
    <path clip-path="url(#p0c00032468)" d="M 73.832727 284.47275 
L 76.280198 302.085818 
L 81.162375 252.934667 
L 81.984896 250.655379 
L 83.61054 207.16141 
L 90.926539 235.484633 
L 92.557075 267.333233 
L 94.178653 274.872673 
L 96.618748 254.28819 
L 106.390524 247.139425 
L 108.830922 252.40278 
L 115.329745 246.532607 
L 116.962691 219.863026 
L 120.210925 219.429128 
L 125.911348 254.841531 
L 129.989781 257.700636 
L 134.863729 222.686598 
L 135.673071 230.00776 
L 138.115789 192.122182 
L 140.553211 216.630271 
L 141.369928 257.563709 
L 144.628774 205.156527 
L 149.509317 216.461454 
L 150.320153 210.793128 
L 158.460155 220.071457 
L 163.337719 248.273501 
L 166.596599 215.143836 
L 170.657345 208.295558 
L 178.796136 253.692688 
L 182.05024 202.605315 
L 187.749864 232.549491 
L 201.584198 210.015818 
L 204.833673 231.53398 
L 206.462774 251.446081 
L 208.9051 239.746179 
L 212.162456 235.431655 
L 220.29535 234.403445 
L 223.549381 227.027876 
L 228.433815 272.844945 
L 231.697107 215.880757 
L 239.015496 264.062904 
L 242.268944 231.380899 
L 247.147323 207.795267 
L 254.46447 233.93747 
L 257.733259 238.448752 
L 260.984128 246.29174 
L 270.744055 245.971591 
L 273.179909 264.509486 
L 280.503637 207.991729 
L 283.765334 209.444399 
L 288.64424 238.131359 
L 290.272968 225.474665 
L 295.159475 221.316923 
L 302.477394 229.024683 
L 305.724681 263.091046 
L 306.544844 201.681425 
L 309.798941 258.013154 
L 314.687919 216.543575 
L 317.130183 202.094203 
L 318.74525 234.598943 
L 320.375658 267.44281 
L 322.002928 267.390684 
L 325.254514 227.153746 
L 326.879409 247.496597 
L 328.522163 210.368074 
L 332.579397 211.634373 
L 336.648725 267.586364 
L 338.273589 291.176831 
L 341.524877 198.314548 
L 345.599311 221.068086 
L 348.047868 217.119592 
L 350.483082 217.474179 
L 354.543731 268.78909 
L 356.182938 218.437295 
L 359.425306 248.853443 
L 362.687454 209.889576 
L 366.756847 218.818549 
L 370.011441 231.760461 
L 370.826043 259.427922 
L 372.455214 231.403223 
L 375.704205 251.294627 
L 376.512949 217.982397 
L 378.968528 208.495309 
L 382.212887 216.094984 
L 383.840133 237.628654 
L 396.041327 220.90817 
L 398.487273 212.478738 
" style="fill:none;stroke:#ff7f0e;stroke-linecap:square;stroke-width:1.5;"/>
   </g>
   <g id="line2d_66">
    <path clip-path="url(#p0c00032468)" d="M 73.832727 283.404752 
L 76.280198 236.510783 
L 81.162375 227.516331 
L 81.984896 222.24665 
L 83.61054 218.90938 
L 90.926539 221.173469 
L 92.557075 240.206101 
L 94.178653 219.550412 
L 96.618748 233.569042 
L 106.390524 249.489019 
L 108.830922 222.712454 
L 115.329745 231.794244 
L 116.962691 234.601389 
L 120.210925 237.585082 
L 125.911348 228.995996 
L 129.989781 237.835886 
L 134.863729 231.871375 
L 135.673071 237.056542 
L 138.115789 216.68612 
L 140.553211 211.717483 
L 141.369928 230.436578 
L 144.628774 206.651723 
L 149.509317 225.646231 
L 150.320153 223.822695 
L 158.460155 223.275449 
L 163.337719 227.127154 
L 166.596599 226.891807 
L 170.657345 234.141093 
L 178.796136 222.720766 
L 182.05024 224.60606 
L 187.749864 244.297462 
L 201.584198 217.0646 
L 204.833673 219.358811 
L 206.462774 228.590938 
L 208.9051 235.26059 
L 212.162456 218.130098 
L 220.29535 243.588222 
L 223.549381 217.843099 
L 228.433815 234.610641 
L 231.697107 225.065534 
L 239.015496 230.954988 
L 242.268944 221.768923 
L 247.147323 229.368813 
L 254.46447 220.480704 
L 257.733259 233.963163 
L 260.984128 226.42699 
L 270.744055 235.932416 
L 273.179909 233.537564 
L 280.503637 215.467711 
L 283.765334 222.046767 
L 288.64424 220.402604 
L 290.272968 223.979469 
L 295.159475 233.919291 
L 302.477394 218.55831 
L 305.724681 223.575145 
L 306.544844 212.574997 
L 309.798941 230.458824 
L 314.687919 238.971518 
L 317.130183 232.211727 
L 318.74525 228.831758 
L 320.375658 230.062904 
L 322.002928 225.31159 
L 325.254514 226.512948 
L 326.879409 230.19504 
L 328.522163 225.106437 
L 332.579397 228.081532 
L 336.648725 254.129598 
L 338.273589 246.107345 
L 341.524877 203.227336 
L 345.599311 229.398465 
L 348.047868 228.440364 
L 350.483082 226.231757 
L 354.543731 232.263581 
L 356.182938 203.698932 
L 359.425306 235.823875 
L 362.687454 228.472729 
L 366.756847 229.712122 
L 370.011441 215.313302 
L 370.826043 224.184011 
L 372.455214 214.956065 
L 375.704205 243.391447 
L 376.512949 227.167174 
L 378.968528 224.942468 
L 382.212887 227.415755 
L 383.840133 228.016678 
L 396.041327 236.928129 
L 398.487273 227.6443 
" style="fill:none;stroke:#2ca02c;stroke-linecap:square;stroke-width:1.5;"/>
   </g>
   <g id="patch_9">
    <path d="M 57.6 307.584 
L 57.6 186.624 
" style="fill:none;stroke:#000000;stroke-linecap:square;stroke-linejoin:miter;stroke-width:0.8;"/>
   </g>
   <g id="patch_10">
    <path d="M 414.72 307.584 
L 414.72 186.624 
" style="fill:none;stroke:#000000;stroke-linecap:square;stroke-linejoin:miter;stroke-width:0.8;"/>
   </g>
   <g id="patch_11">
    <path d="M 57.6 307.584 
L 414.72 307.584 
" style="fill:none;stroke:#000000;stroke-linecap:square;stroke-linejoin:miter;stroke-width:0.8;"/>
   </g>
   <g id="patch_12">
    <path d="M 57.6 186.624 
L 414.72 186.624 
" style="fill:none;stroke:#000000;stroke-linecap:square;stroke-linejoin:miter;stroke-width:0.8;"/>
   </g>
   <g id="legend_2">
    <g id="patch_13">
     <path d="M 345.690313 302.584 
L 407.72 302.584 
Q 409.72 302.584 409.72 300.584 
L 409.72 256.993375 
Q 409.72 254.993375 407.72 254.993375 
L 345.690313 254.993375 
Q 343.690313 254.993375 343.690313 256.993375 
L 343.690313 300.584 
Q 343.690313 302.584 345.690313 302.584 
z
" style="fill:#ffffff;opacity:0.8;stroke:#cccccc;stroke-linejoin:miter;"/>
    </g>
    <g id="line2d_67">
     <path d="M 347.690313 263.091812 
L 367.690313 263.091812 
" style="fill:none;stroke:#1f77b4;stroke-linecap:square;stroke-width:1.5;"/>
    </g>
    <g id="line2d_68"/>
    <g id="text_34">
     <!-- U_cur -->
     <g transform="translate(375.690313 266.591812)scale(0.1 -0.1)">
      <use xlink:href="#DejaVuSans-85"/>
      <use x="73.193359" xlink:href="#DejaVuSans-95"/>
      <use x="123.193359" xlink:href="#DejaVuSans-99"/>
      <use x="178.173828" xlink:href="#DejaVuSans-117"/>
      <use x="241.552734" xlink:href="#DejaVuSans-114"/>
     </g>
    </g>
    <g id="line2d_69">
     <path d="M 347.690313 278.048062 
L 367.690313 278.048062 
" style="fill:none;stroke:#ff7f0e;stroke-linecap:square;stroke-width:1.5;"/>
    </g>
    <g id="line2d_70"/>
    <g id="text_35">
     <!-- U_des -->
     <g transform="translate(375.690313 281.548062)scale(0.1 -0.1)">
      <use xlink:href="#DejaVuSans-85"/>
      <use x="73.193359" xlink:href="#DejaVuSans-95"/>
      <use x="123.193359" xlink:href="#DejaVuSans-100"/>
      <use x="186.669922" xlink:href="#DejaVuSans-101"/>
      <use x="248.193359" xlink:href="#DejaVuSans-115"/>
     </g>
    </g>
    <g id="line2d_71">
     <path d="M 347.690313 293.004312 
L 367.690313 293.004312 
" style="fill:none;stroke:#2ca02c;stroke-linecap:square;stroke-width:1.5;"/>
    </g>
    <g id="line2d_72"/>
    <g id="text_36">
     <!-- error -->
     <g transform="translate(375.690313 296.504312)scale(0.1 -0.1)">
      <use xlink:href="#DejaVuSans-101"/>
      <use x="61.523438" xlink:href="#DejaVuSans-114"/>
      <use x="100.886719" xlink:href="#DejaVuSans-114"/>
      <use x="139.75" xlink:href="#DejaVuSans-111"/>
      <use x="200.931641" xlink:href="#DejaVuSans-114"/>
     </g>
    </g>
   </g>
  </g>
 </g>
 <defs>
  <clipPath id="p98e54f10fb">
   <rect height="120.96" width="357.12" x="57.6" y="41.472"/>
  </clipPath>
  <clipPath id="p0c00032468">
   <rect height="120.96" width="357.12" x="57.6" y="186.624"/>
  </clipPath>
 </defs>
</svg>
