<?xml version="1.0" encoding="utf-8" standalone="no"?>
<!DOCTYPE svg PUBLIC "-//W3C//DTD SVG 1.1//EN"
  "http://www.w3.org/Graphics/SVG/1.1/DTD/svg11.dtd">
<!-- Created with matplotlib (https://matplotlib.org/) -->
<svg height="345.6pt" version="1.1" viewBox="0 0 460.8 345.6" width="460.8pt" xmlns="http://www.w3.org/2000/svg" xmlns:xlink="http://www.w3.org/1999/xlink">
 <metadata>
  <rdf:RDF xmlns:cc="http://creativecommons.org/ns#" xmlns:dc="http://purl.org/dc/elements/1.1/" xmlns:rdf="http://www.w3.org/1999/02/22-rdf-syntax-ns#">
   <cc:Work>
    <dc:type rdf:resource="http://purl.org/dc/dcmitype/StillImage"/>
    <dc:date>2021-05-03T16:07:04.473268</dc:date>
    <dc:format>image/svg+xml</dc:format>
    <dc:creator>
     <cc:Agent>
      <dc:title>Matplotlib v3.3.4, https://matplotlib.org/</dc:title>
     </cc:Agent>
    </dc:creator>
   </cc:Work>
  </rdf:RDF>
 </metadata>
 <defs>
  <style type="text/css">*{stroke-linecap:butt;stroke-linejoin:round;}</style>
 </defs>
 <g id="figure_1">
  <g id="patch_1">
   <path d="M 0 345.6 
L 460.8 345.6 
L 460.8 0 
L 0 0 
z
" style="fill:#ffffff;"/>
  </g>
  <g id="axes_1">
   <g id="patch_2">
    <path d="M 57.6 162.432 
L 414.72 162.432 
L 414.72 41.472 
L 57.6 41.472 
z
" style="fill:#ffffff;"/>
   </g>
   <g id="matplotlib.axis_1">
    <g id="xtick_1">
     <g id="line2d_1">
      <path clip-path="url(#p72c35c30bc)" d="M 73.832652 162.432 
L 73.832652 41.472 
" style="fill:none;stroke:#b0b0b0;stroke-linecap:square;stroke-width:0.8;"/>
     </g>
     <g id="line2d_2">
      <defs>
       <path d="M 0 0 
L 0 3.5 
" id="mcc7b2b4354" style="stroke:#000000;stroke-width:0.8;"/>
      </defs>
      <g>
       <use style="stroke:#000000;stroke-width:0.8;" x="73.832652" xlink:href="#mcc7b2b4354" y="162.432"/>
      </g>
     </g>
     <g id="text_1">
      <!-- 0 -->
      <g transform="translate(70.651402 177.030437)scale(0.1 -0.1)">
       <defs>
        <path d="M 31.78125 66.40625 
Q 24.171875 66.40625 20.328125 58.90625 
Q 16.5 51.421875 16.5 36.375 
Q 16.5 21.390625 20.328125 13.890625 
Q 24.171875 6.390625 31.78125 6.390625 
Q 39.453125 6.390625 43.28125 13.890625 
Q 47.125 21.390625 47.125 36.375 
Q 47.125 51.421875 43.28125 58.90625 
Q 39.453125 66.40625 31.78125 66.40625 
z
M 31.78125 74.21875 
Q 44.046875 74.21875 50.515625 64.515625 
Q 56.984375 54.828125 56.984375 36.375 
Q 56.984375 17.96875 50.515625 8.265625 
Q 44.046875 -1.421875 31.78125 -1.421875 
Q 19.53125 -1.421875 13.0625 8.265625 
Q 6.59375 17.96875 6.59375 36.375 
Q 6.59375 54.828125 13.0625 64.515625 
Q 19.53125 74.21875 31.78125 74.21875 
z
" id="DejaVuSans-48"/>
       </defs>
       <use xlink:href="#DejaVuSans-48"/>
      </g>
     </g>
    </g>
    <g id="xtick_2">
     <g id="line2d_3">
      <path clip-path="url(#p72c35c30bc)" d="M 126.195199 162.432 
L 126.195199 41.472 
" style="fill:none;stroke:#b0b0b0;stroke-linecap:square;stroke-width:0.8;"/>
     </g>
     <g id="line2d_4">
      <g>
       <use style="stroke:#000000;stroke-width:0.8;" x="126.195199" xlink:href="#mcc7b2b4354" y="162.432"/>
      </g>
     </g>
     <g id="text_2">
      <!-- 5 -->
      <g transform="translate(123.013949 177.030437)scale(0.1 -0.1)">
       <defs>
        <path d="M 10.796875 72.90625 
L 49.515625 72.90625 
L 49.515625 64.59375 
L 19.828125 64.59375 
L 19.828125 46.734375 
Q 21.96875 47.46875 24.109375 47.828125 
Q 26.265625 48.1875 28.421875 48.1875 
Q 40.625 48.1875 47.75 41.5 
Q 54.890625 34.8125 54.890625 23.390625 
Q 54.890625 11.625 47.5625 5.09375 
Q 40.234375 -1.421875 26.90625 -1.421875 
Q 22.3125 -1.421875 17.546875 -0.640625 
Q 12.796875 0.140625 7.71875 1.703125 
L 7.71875 11.625 
Q 12.109375 9.234375 16.796875 8.0625 
Q 21.484375 6.890625 26.703125 6.890625 
Q 35.15625 6.890625 40.078125 11.328125 
Q 45.015625 15.765625 45.015625 23.390625 
Q 45.015625 31 40.078125 35.4375 
Q 35.15625 39.890625 26.703125 39.890625 
Q 22.75 39.890625 18.8125 39.015625 
Q 14.890625 38.140625 10.796875 36.28125 
z
" id="DejaVuSans-53"/>
       </defs>
       <use xlink:href="#DejaVuSans-53"/>
      </g>
     </g>
    </g>
    <g id="xtick_3">
     <g id="line2d_5">
      <path clip-path="url(#p72c35c30bc)" d="M 178.557745 162.432 
L 178.557745 41.472 
" style="fill:none;stroke:#b0b0b0;stroke-linecap:square;stroke-width:0.8;"/>
     </g>
     <g id="line2d_6">
      <g>
       <use style="stroke:#000000;stroke-width:0.8;" x="178.557745" xlink:href="#mcc7b2b4354" y="162.432"/>
      </g>
     </g>
     <g id="text_3">
      <!-- 10 -->
      <g transform="translate(172.195245 177.030437)scale(0.1 -0.1)">
       <defs>
        <path d="M 12.40625 8.296875 
L 28.515625 8.296875 
L 28.515625 63.921875 
L 10.984375 60.40625 
L 10.984375 69.390625 
L 28.421875 72.90625 
L 38.28125 72.90625 
L 38.28125 8.296875 
L 54.390625 8.296875 
L 54.390625 0 
L 12.40625 0 
z
" id="DejaVuSans-49"/>
       </defs>
       <use xlink:href="#DejaVuSans-49"/>
       <use x="63.623047" xlink:href="#DejaVuSans-48"/>
      </g>
     </g>
    </g>
    <g id="xtick_4">
     <g id="line2d_7">
      <path clip-path="url(#p72c35c30bc)" d="M 230.920291 162.432 
L 230.920291 41.472 
" style="fill:none;stroke:#b0b0b0;stroke-linecap:square;stroke-width:0.8;"/>
     </g>
     <g id="line2d_8">
      <g>
       <use style="stroke:#000000;stroke-width:0.8;" x="230.920291" xlink:href="#mcc7b2b4354" y="162.432"/>
      </g>
     </g>
     <g id="text_4">
      <!-- 15 -->
      <g transform="translate(224.557791 177.030437)scale(0.1 -0.1)">
       <use xlink:href="#DejaVuSans-49"/>
       <use x="63.623047" xlink:href="#DejaVuSans-53"/>
      </g>
     </g>
    </g>
    <g id="xtick_5">
     <g id="line2d_9">
      <path clip-path="url(#p72c35c30bc)" d="M 283.282837 162.432 
L 283.282837 41.472 
" style="fill:none;stroke:#b0b0b0;stroke-linecap:square;stroke-width:0.8;"/>
     </g>
     <g id="line2d_10">
      <g>
       <use style="stroke:#000000;stroke-width:0.8;" x="283.282837" xlink:href="#mcc7b2b4354" y="162.432"/>
      </g>
     </g>
     <g id="text_5">
      <!-- 20 -->
      <g transform="translate(276.920337 177.030437)scale(0.1 -0.1)">
       <defs>
        <path d="M 19.1875 8.296875 
L 53.609375 8.296875 
L 53.609375 0 
L 7.328125 0 
L 7.328125 8.296875 
Q 12.9375 14.109375 22.625 23.890625 
Q 32.328125 33.6875 34.8125 36.53125 
Q 39.546875 41.84375 41.421875 45.53125 
Q 43.3125 49.21875 43.3125 52.78125 
Q 43.3125 58.59375 39.234375 62.25 
Q 35.15625 65.921875 28.609375 65.921875 
Q 23.96875 65.921875 18.8125 64.3125 
Q 13.671875 62.703125 7.8125 59.421875 
L 7.8125 69.390625 
Q 13.765625 71.78125 18.9375 73 
Q 24.125 74.21875 28.421875 74.21875 
Q 39.75 74.21875 46.484375 68.546875 
Q 53.21875 62.890625 53.21875 53.421875 
Q 53.21875 48.921875 51.53125 44.890625 
Q 49.859375 40.875 45.40625 35.40625 
Q 44.1875 33.984375 37.640625 27.21875 
Q 31.109375 20.453125 19.1875 8.296875 
z
" id="DejaVuSans-50"/>
       </defs>
       <use xlink:href="#DejaVuSans-50"/>
       <use x="63.623047" xlink:href="#DejaVuSans-48"/>
      </g>
     </g>
    </g>
    <g id="xtick_6">
     <g id="line2d_11">
      <path clip-path="url(#p72c35c30bc)" d="M 335.645383 162.432 
L 335.645383 41.472 
" style="fill:none;stroke:#b0b0b0;stroke-linecap:square;stroke-width:0.8;"/>
     </g>
     <g id="line2d_12">
      <g>
       <use style="stroke:#000000;stroke-width:0.8;" x="335.645383" xlink:href="#mcc7b2b4354" y="162.432"/>
      </g>
     </g>
     <g id="text_6">
      <!-- 25 -->
      <g transform="translate(329.282883 177.030437)scale(0.1 -0.1)">
       <use xlink:href="#DejaVuSans-50"/>
       <use x="63.623047" xlink:href="#DejaVuSans-53"/>
      </g>
     </g>
    </g>
    <g id="xtick_7">
     <g id="line2d_13">
      <path clip-path="url(#p72c35c30bc)" d="M 388.00793 162.432 
L 388.00793 41.472 
" style="fill:none;stroke:#b0b0b0;stroke-linecap:square;stroke-width:0.8;"/>
     </g>
     <g id="line2d_14">
      <g>
       <use style="stroke:#000000;stroke-width:0.8;" x="388.00793" xlink:href="#mcc7b2b4354" y="162.432"/>
      </g>
     </g>
     <g id="text_7">
      <!-- 30 -->
      <g transform="translate(381.64543 177.030437)scale(0.1 -0.1)">
       <defs>
        <path d="M 40.578125 39.3125 
Q 47.65625 37.796875 51.625 33 
Q 55.609375 28.21875 55.609375 21.1875 
Q 55.609375 10.40625 48.1875 4.484375 
Q 40.765625 -1.421875 27.09375 -1.421875 
Q 22.515625 -1.421875 17.65625 -0.515625 
Q 12.796875 0.390625 7.625 2.203125 
L 7.625 11.71875 
Q 11.71875 9.328125 16.59375 8.109375 
Q 21.484375 6.890625 26.8125 6.890625 
Q 36.078125 6.890625 40.9375 10.546875 
Q 45.796875 14.203125 45.796875 21.1875 
Q 45.796875 27.640625 41.28125 31.265625 
Q 36.765625 34.90625 28.71875 34.90625 
L 20.21875 34.90625 
L 20.21875 43.015625 
L 29.109375 43.015625 
Q 36.375 43.015625 40.234375 45.921875 
Q 44.09375 48.828125 44.09375 54.296875 
Q 44.09375 59.90625 40.109375 62.90625 
Q 36.140625 65.921875 28.71875 65.921875 
Q 24.65625 65.921875 20.015625 65.03125 
Q 15.375 64.15625 9.8125 62.3125 
L 9.8125 71.09375 
Q 15.4375 72.65625 20.34375 73.4375 
Q 25.25 74.21875 29.59375 74.21875 
Q 40.828125 74.21875 47.359375 69.109375 
Q 53.90625 64.015625 53.90625 55.328125 
Q 53.90625 49.265625 50.4375 45.09375 
Q 46.96875 40.921875 40.578125 39.3125 
z
" id="DejaVuSans-51"/>
       </defs>
       <use xlink:href="#DejaVuSans-51"/>
       <use x="63.623047" xlink:href="#DejaVuSans-48"/>
      </g>
     </g>
    </g>
   </g>
   <g id="matplotlib.axis_2">
    <g id="ytick_1">
     <g id="line2d_15">
      <path clip-path="url(#p72c35c30bc)" d="M 57.6 150.467446 
L 414.72 150.467446 
" style="fill:none;stroke:#b0b0b0;stroke-linecap:square;stroke-width:0.8;"/>
     </g>
     <g id="line2d_16">
      <defs>
       <path d="M 0 0 
L -3.5 0 
" id="m5fce38362c" style="stroke:#000000;stroke-width:0.8;"/>
      </defs>
      <g>
       <use style="stroke:#000000;stroke-width:0.8;" x="57.6" xlink:href="#m5fce38362c" y="150.467446"/>
      </g>
     </g>
     <g id="text_8">
      <!-- −0.50 -->
      <g transform="translate(19.954687 154.266664)scale(0.1 -0.1)">
       <defs>
        <path d="M 10.59375 35.5 
L 73.1875 35.5 
L 73.1875 27.203125 
L 10.59375 27.203125 
z
" id="DejaVuSans-8722"/>
        <path d="M 10.6875 12.40625 
L 21 12.40625 
L 21 0 
L 10.6875 0 
z
" id="DejaVuSans-46"/>
       </defs>
       <use xlink:href="#DejaVuSans-8722"/>
       <use x="83.789062" xlink:href="#DejaVuSans-48"/>
       <use x="147.412109" xlink:href="#DejaVuSans-46"/>
       <use x="179.199219" xlink:href="#DejaVuSans-53"/>
       <use x="242.822266" xlink:href="#DejaVuSans-48"/>
      </g>
     </g>
    </g>
    <g id="ytick_2">
     <g id="line2d_17">
      <path clip-path="url(#p72c35c30bc)" d="M 57.6 127.736901 
L 414.72 127.736901 
" style="fill:none;stroke:#b0b0b0;stroke-linecap:square;stroke-width:0.8;"/>
     </g>
     <g id="line2d_18">
      <g>
       <use style="stroke:#000000;stroke-width:0.8;" x="57.6" xlink:href="#m5fce38362c" y="127.736901"/>
      </g>
     </g>
     <g id="text_9">
      <!-- −0.25 -->
      <g transform="translate(19.954687 131.53612)scale(0.1 -0.1)">
       <use xlink:href="#DejaVuSans-8722"/>
       <use x="83.789062" xlink:href="#DejaVuSans-48"/>
       <use x="147.412109" xlink:href="#DejaVuSans-46"/>
       <use x="179.199219" xlink:href="#DejaVuSans-50"/>
       <use x="242.822266" xlink:href="#DejaVuSans-53"/>
      </g>
     </g>
    </g>
    <g id="ytick_3">
     <g id="line2d_19">
      <path clip-path="url(#p72c35c30bc)" d="M 57.6 105.006357 
L 414.72 105.006357 
" style="fill:none;stroke:#b0b0b0;stroke-linecap:square;stroke-width:0.8;"/>
     </g>
     <g id="line2d_20">
      <g>
       <use style="stroke:#000000;stroke-width:0.8;" x="57.6" xlink:href="#m5fce38362c" y="105.006357"/>
      </g>
     </g>
     <g id="text_10">
      <!-- 0.00 -->
      <g transform="translate(28.334375 108.805575)scale(0.1 -0.1)">
       <use xlink:href="#DejaVuSans-48"/>
       <use x="63.623047" xlink:href="#DejaVuSans-46"/>
       <use x="95.410156" xlink:href="#DejaVuSans-48"/>
       <use x="159.033203" xlink:href="#DejaVuSans-48"/>
      </g>
     </g>
    </g>
    <g id="ytick_4">
     <g id="line2d_21">
      <path clip-path="url(#p72c35c30bc)" d="M 57.6 82.275812 
L 414.72 82.275812 
" style="fill:none;stroke:#b0b0b0;stroke-linecap:square;stroke-width:0.8;"/>
     </g>
     <g id="line2d_22">
      <g>
       <use style="stroke:#000000;stroke-width:0.8;" x="57.6" xlink:href="#m5fce38362c" y="82.275812"/>
      </g>
     </g>
     <g id="text_11">
      <!-- 0.25 -->
      <g transform="translate(28.334375 86.075031)scale(0.1 -0.1)">
       <use xlink:href="#DejaVuSans-48"/>
       <use x="63.623047" xlink:href="#DejaVuSans-46"/>
       <use x="95.410156" xlink:href="#DejaVuSans-50"/>
       <use x="159.033203" xlink:href="#DejaVuSans-53"/>
      </g>
     </g>
    </g>
    <g id="ytick_5">
     <g id="line2d_23">
      <path clip-path="url(#p72c35c30bc)" d="M 57.6 59.545268 
L 414.72 59.545268 
" style="fill:none;stroke:#b0b0b0;stroke-linecap:square;stroke-width:0.8;"/>
     </g>
     <g id="line2d_24">
      <g>
       <use style="stroke:#000000;stroke-width:0.8;" x="57.6" xlink:href="#m5fce38362c" y="59.545268"/>
      </g>
     </g>
     <g id="text_12">
      <!-- 0.50 -->
      <g transform="translate(28.334375 63.344486)scale(0.1 -0.1)">
       <use xlink:href="#DejaVuSans-48"/>
       <use x="63.623047" xlink:href="#DejaVuSans-46"/>
       <use x="95.410156" xlink:href="#DejaVuSans-53"/>
       <use x="159.033203" xlink:href="#DejaVuSans-48"/>
      </g>
     </g>
    </g>
    <g id="text_13">
     <!-- thigh angles, rad -->
     <g transform="translate(13.875 144.351219)rotate(-90)scale(0.1 -0.1)">
      <defs>
       <path d="M 18.3125 70.21875 
L 18.3125 54.6875 
L 36.8125 54.6875 
L 36.8125 47.703125 
L 18.3125 47.703125 
L 18.3125 18.015625 
Q 18.3125 11.328125 20.140625 9.421875 
Q 21.96875 7.515625 27.59375 7.515625 
L 36.8125 7.515625 
L 36.8125 0 
L 27.59375 0 
Q 17.1875 0 13.234375 3.875 
Q 9.28125 7.765625 9.28125 18.015625 
L 9.28125 47.703125 
L 2.6875 47.703125 
L 2.6875 54.6875 
L 9.28125 54.6875 
L 9.28125 70.21875 
z
" id="DejaVuSans-116"/>
       <path d="M 54.890625 33.015625 
L 54.890625 0 
L 45.90625 0 
L 45.90625 32.71875 
Q 45.90625 40.484375 42.875 44.328125 
Q 39.84375 48.1875 33.796875 48.1875 
Q 26.515625 48.1875 22.3125 43.546875 
Q 18.109375 38.921875 18.109375 30.90625 
L 18.109375 0 
L 9.078125 0 
L 9.078125 75.984375 
L 18.109375 75.984375 
L 18.109375 46.1875 
Q 21.34375 51.125 25.703125 53.5625 
Q 30.078125 56 35.796875 56 
Q 45.21875 56 50.046875 50.171875 
Q 54.890625 44.34375 54.890625 33.015625 
z
" id="DejaVuSans-104"/>
       <path d="M 9.421875 54.6875 
L 18.40625 54.6875 
L 18.40625 0 
L 9.421875 0 
z
M 9.421875 75.984375 
L 18.40625 75.984375 
L 18.40625 64.59375 
L 9.421875 64.59375 
z
" id="DejaVuSans-105"/>
       <path d="M 45.40625 27.984375 
Q 45.40625 37.75 41.375 43.109375 
Q 37.359375 48.484375 30.078125 48.484375 
Q 22.859375 48.484375 18.828125 43.109375 
Q 14.796875 37.75 14.796875 27.984375 
Q 14.796875 18.265625 18.828125 12.890625 
Q 22.859375 7.515625 30.078125 7.515625 
Q 37.359375 7.515625 41.375 12.890625 
Q 45.40625 18.265625 45.40625 27.984375 
z
M 54.390625 6.78125 
Q 54.390625 -7.171875 48.1875 -13.984375 
Q 42 -20.796875 29.203125 -20.796875 
Q 24.46875 -20.796875 20.265625 -20.09375 
Q 16.0625 -19.390625 12.109375 -17.921875 
L 12.109375 -9.1875 
Q 16.0625 -11.328125 19.921875 -12.34375 
Q 23.78125 -13.375 27.78125 -13.375 
Q 36.625 -13.375 41.015625 -8.765625 
Q 45.40625 -4.15625 45.40625 5.171875 
L 45.40625 9.625 
Q 42.625 4.78125 38.28125 2.390625 
Q 33.9375 0 27.875 0 
Q 17.828125 0 11.671875 7.65625 
Q 5.515625 15.328125 5.515625 27.984375 
Q 5.515625 40.671875 11.671875 48.328125 
Q 17.828125 56 27.875 56 
Q 33.9375 56 38.28125 53.609375 
Q 42.625 51.21875 45.40625 46.390625 
L 45.40625 54.6875 
L 54.390625 54.6875 
z
" id="DejaVuSans-103"/>
       <path id="DejaVuSans-32"/>
       <path d="M 34.28125 27.484375 
Q 23.390625 27.484375 19.1875 25 
Q 14.984375 22.515625 14.984375 16.5 
Q 14.984375 11.71875 18.140625 8.90625 
Q 21.296875 6.109375 26.703125 6.109375 
Q 34.1875 6.109375 38.703125 11.40625 
Q 43.21875 16.703125 43.21875 25.484375 
L 43.21875 27.484375 
z
M 52.203125 31.203125 
L 52.203125 0 
L 43.21875 0 
L 43.21875 8.296875 
Q 40.140625 3.328125 35.546875 0.953125 
Q 30.953125 -1.421875 24.3125 -1.421875 
Q 15.921875 -1.421875 10.953125 3.296875 
Q 6 8.015625 6 15.921875 
Q 6 25.140625 12.171875 29.828125 
Q 18.359375 34.515625 30.609375 34.515625 
L 43.21875 34.515625 
L 43.21875 35.40625 
Q 43.21875 41.609375 39.140625 45 
Q 35.0625 48.390625 27.6875 48.390625 
Q 23 48.390625 18.546875 47.265625 
Q 14.109375 46.140625 10.015625 43.890625 
L 10.015625 52.203125 
Q 14.9375 54.109375 19.578125 55.046875 
Q 24.21875 56 28.609375 56 
Q 40.484375 56 46.34375 49.84375 
Q 52.203125 43.703125 52.203125 31.203125 
z
" id="DejaVuSans-97"/>
       <path d="M 54.890625 33.015625 
L 54.890625 0 
L 45.90625 0 
L 45.90625 32.71875 
Q 45.90625 40.484375 42.875 44.328125 
Q 39.84375 48.1875 33.796875 48.1875 
Q 26.515625 48.1875 22.3125 43.546875 
Q 18.109375 38.921875 18.109375 30.90625 
L 18.109375 0 
L 9.078125 0 
L 9.078125 54.6875 
L 18.109375 54.6875 
L 18.109375 46.1875 
Q 21.34375 51.125 25.703125 53.5625 
Q 30.078125 56 35.796875 56 
Q 45.21875 56 50.046875 50.171875 
Q 54.890625 44.34375 54.890625 33.015625 
z
" id="DejaVuSans-110"/>
       <path d="M 9.421875 75.984375 
L 18.40625 75.984375 
L 18.40625 0 
L 9.421875 0 
z
" id="DejaVuSans-108"/>
       <path d="M 56.203125 29.59375 
L 56.203125 25.203125 
L 14.890625 25.203125 
Q 15.484375 15.921875 20.484375 11.0625 
Q 25.484375 6.203125 34.421875 6.203125 
Q 39.59375 6.203125 44.453125 7.46875 
Q 49.3125 8.734375 54.109375 11.28125 
L 54.109375 2.78125 
Q 49.265625 0.734375 44.1875 -0.34375 
Q 39.109375 -1.421875 33.890625 -1.421875 
Q 20.796875 -1.421875 13.15625 6.1875 
Q 5.515625 13.8125 5.515625 26.8125 
Q 5.515625 40.234375 12.765625 48.109375 
Q 20.015625 56 32.328125 56 
Q 43.359375 56 49.78125 48.890625 
Q 56.203125 41.796875 56.203125 29.59375 
z
M 47.21875 32.234375 
Q 47.125 39.59375 43.09375 43.984375 
Q 39.0625 48.390625 32.421875 48.390625 
Q 24.90625 48.390625 20.390625 44.140625 
Q 15.875 39.890625 15.1875 32.171875 
z
" id="DejaVuSans-101"/>
       <path d="M 44.28125 53.078125 
L 44.28125 44.578125 
Q 40.484375 46.53125 36.375 47.5 
Q 32.28125 48.484375 27.875 48.484375 
Q 21.1875 48.484375 17.84375 46.4375 
Q 14.5 44.390625 14.5 40.28125 
Q 14.5 37.15625 16.890625 35.375 
Q 19.28125 33.59375 26.515625 31.984375 
L 29.59375 31.296875 
Q 39.15625 29.25 43.1875 25.515625 
Q 47.21875 21.78125 47.21875 15.09375 
Q 47.21875 7.46875 41.1875 3.015625 
Q 35.15625 -1.421875 24.609375 -1.421875 
Q 20.21875 -1.421875 15.453125 -0.5625 
Q 10.6875 0.296875 5.421875 2 
L 5.421875 11.28125 
Q 10.40625 8.6875 15.234375 7.390625 
Q 20.0625 6.109375 24.8125 6.109375 
Q 31.15625 6.109375 34.5625 8.28125 
Q 37.984375 10.453125 37.984375 14.40625 
Q 37.984375 18.0625 35.515625 20.015625 
Q 33.0625 21.96875 24.703125 23.78125 
L 21.578125 24.515625 
Q 13.234375 26.265625 9.515625 29.90625 
Q 5.8125 33.546875 5.8125 39.890625 
Q 5.8125 47.609375 11.28125 51.796875 
Q 16.75 56 26.8125 56 
Q 31.78125 56 36.171875 55.265625 
Q 40.578125 54.546875 44.28125 53.078125 
z
" id="DejaVuSans-115"/>
       <path d="M 11.71875 12.40625 
L 22.015625 12.40625 
L 22.015625 4 
L 14.015625 -11.625 
L 7.71875 -11.625 
L 11.71875 4 
z
" id="DejaVuSans-44"/>
       <path d="M 41.109375 46.296875 
Q 39.59375 47.171875 37.8125 47.578125 
Q 36.03125 48 33.890625 48 
Q 26.265625 48 22.1875 43.046875 
Q 18.109375 38.09375 18.109375 28.8125 
L 18.109375 0 
L 9.078125 0 
L 9.078125 54.6875 
L 18.109375 54.6875 
L 18.109375 46.1875 
Q 20.953125 51.171875 25.484375 53.578125 
Q 30.03125 56 36.53125 56 
Q 37.453125 56 38.578125 55.875 
Q 39.703125 55.765625 41.0625 55.515625 
z
" id="DejaVuSans-114"/>
       <path d="M 45.40625 46.390625 
L 45.40625 75.984375 
L 54.390625 75.984375 
L 54.390625 0 
L 45.40625 0 
L 45.40625 8.203125 
Q 42.578125 3.328125 38.25 0.953125 
Q 33.9375 -1.421875 27.875 -1.421875 
Q 17.96875 -1.421875 11.734375 6.484375 
Q 5.515625 14.40625 5.515625 27.296875 
Q 5.515625 40.1875 11.734375 48.09375 
Q 17.96875 56 27.875 56 
Q 33.9375 56 38.25 53.625 
Q 42.578125 51.265625 45.40625 46.390625 
z
M 14.796875 27.296875 
Q 14.796875 17.390625 18.875 11.75 
Q 22.953125 6.109375 30.078125 6.109375 
Q 37.203125 6.109375 41.296875 11.75 
Q 45.40625 17.390625 45.40625 27.296875 
Q 45.40625 37.203125 41.296875 42.84375 
Q 37.203125 48.484375 30.078125 48.484375 
Q 22.953125 48.484375 18.875 42.84375 
Q 14.796875 37.203125 14.796875 27.296875 
z
" id="DejaVuSans-100"/>
      </defs>
      <use xlink:href="#DejaVuSans-116"/>
      <use x="39.208984" xlink:href="#DejaVuSans-104"/>
      <use x="102.587891" xlink:href="#DejaVuSans-105"/>
      <use x="130.371094" xlink:href="#DejaVuSans-103"/>
      <use x="193.847656" xlink:href="#DejaVuSans-104"/>
      <use x="257.226562" xlink:href="#DejaVuSans-32"/>
      <use x="289.013672" xlink:href="#DejaVuSans-97"/>
      <use x="350.292969" xlink:href="#DejaVuSans-110"/>
      <use x="413.671875" xlink:href="#DejaVuSans-103"/>
      <use x="477.148438" xlink:href="#DejaVuSans-108"/>
      <use x="504.931641" xlink:href="#DejaVuSans-101"/>
      <use x="566.455078" xlink:href="#DejaVuSans-115"/>
      <use x="618.554688" xlink:href="#DejaVuSans-44"/>
      <use x="650.341797" xlink:href="#DejaVuSans-32"/>
      <use x="682.128906" xlink:href="#DejaVuSans-114"/>
      <use x="723.242188" xlink:href="#DejaVuSans-97"/>
      <use x="784.521484" xlink:href="#DejaVuSans-100"/>
     </g>
    </g>
   </g>
   <g id="line2d_25">
    <path clip-path="url(#p72c35c30bc)" d="M 73.832727 97.412856 
L 74.363166 105.406014 
L 74.888119 71.035433 
L 79.078427 114.198489 
L 79.60161 107.004646 
L 86.405909 111.800541 
L 88.503739 100.610119 
L 94.256568 111.800541 
L 96.354154 75.032012 
L 98.446464 75.032012 
L 100.540824 76.630644 
L 102.63609 77.42996 
L 106.822316 81.426539 
L 107.873973 114.198489 
L 110.489216 114.198489 
L 116.253236 99.011488 
L 117.294528 77.42996 
L 118.348055 79.827907 
L 118.865333 79.028591 
L 120.959633 79.827907 
L 122.015877 66.239538 
L 124.108701 71.834749 
L 127.773357 83.824487 
L 128.293971 95.014908 
L 130.386361 98.212172 
L 131.43172 112.599857 
L 136.146552 118.994384 
L 137.193677 76.630644 
L 138.240673 75.032012 
L 139.811637 84.623802 
L 143.478697 65.440222 
L 145.573792 56.647748 
L 153.949189 120.593016 
L 156.049771 121.392331 
L 157.616684 117.395752 
L 160.756077 79.827907 
L 164.946951 75.831328 
L 165.995602 63.84159 
L 167.040904 64.640906 
L 170.184175 97.412856 
L 172.284475 95.814224 
L 173.848364 109.402594 
L 174.375836 95.814224 
L 176.992583 126.188227 
L 180.138804 68.637485 
L 180.660669 95.814224 
L 182.751336 79.028591 
L 185.372158 65.440222 
L 186.939612 69.436801 
L 189.030601 57.447063 
L 193.227453 95.014908 
L 194.792725 100.610119 
L 195.318685 107.803962 
L 195.841154 104.606699 
L 197.409512 123.790279 
L 203.699638 71.035433 
L 208.410737 67.83817 
L 212.070649 97.412856 
L 215.736625 95.014908 
L 216.262365 99.810804 
L 222.026761 81.426539 
L 227.786039 73.43338 
L 229.878299 59.845011 
L 231.969788 68.637485 
L 234.065833 103.008067 
L 235.119096 103.807383 
L 236.687898 105.406014 
L 239.298578 121.392331 
L 241.396708 112.599857 
L 245.582087 69.436801 
L 248.732661 67.83817 
L 250.823842 67.038854 
L 252.389856 52.651168 
L 255.533316 95.814224 
L 257.631406 102.208751 
L 259.728922 121.392331 
L 261.290754 123.790279 
L 263.38588 75.032012 
L 266.007748 79.028591 
L 267.581871 71.035433 
L 277.523477 103.008067 
L 278.05485 97.412856 
L 279.623133 107.004646 
L 280.150074 123.790279 
L 287.998813 73.43338 
L 289.57392 79.028591 
L 294.806227 58.246379 
L 295.850041 84.623802 
L 297.428694 99.810804 
L 298.467984 102.208751 
L 300.044367 116.596436 
L 302.666664 118.195068 
L 304.231446 111.800541 
L 305.80506 66.239538 
L 309.996477 77.42996 
L 310.518911 64.640906 
L 312.083109 68.637485 
L 312.610444 63.042274 
L 313.139849 49.453905 
L 313.661362 71.035433 
L 315.224704 69.436801 
L 315.755125 66.239538 
L 319.41688 96.61354 
L 324.134925 120.593016 
L 325.176849 117.395752 
L 326.750645 59.845011 
L 328.315822 79.028591 
L 332.512705 71.035433 
L 334.598947 69.436801 
L 336.176317 67.038854 
L 338.272267 120.593016 
L 338.796312 102.208751 
L 340.881785 111.800541 
L 342.985945 114.997805 
L 345.077904 123.790279 
L 349.789073 74.232696 
L 352.41105 68.637485 
L 353.453064 64.640906 
L 356.076517 63.042274 
L 359.737383 111.001225 
L 361.305396 101.409435 
L 363.922967 118.195068 
L 366.545583 120.593016 
L 370.20712 79.827907 
L 372.306716 64.640906 
L 373.354905 72.634065 
L 375.973567 59.045695 
L 377.014562 58.246379 
L 379.106775 69.436801 
L 380.681193 110.20191 
L 383.823387 94.215593 
L 385.391672 115.797121 
L 386.961833 114.198489 
L 389.587803 65.440222 
L 391.679509 77.42996 
L 394.296031 67.83817 
L 396.391622 56.647748 
L 398.487273 59.045695 
L 398.487273 59.045695 
" style="fill:none;stroke:#1f77b4;stroke-linecap:square;stroke-width:1.5;"/>
   </g>
   <g id="line2d_26">
    <path clip-path="url(#p72c35c30bc)" d="M 73.832727 94.79038 
L 74.363166 148.260994 
L 74.888119 122.962895 
L 79.078427 111.466759 
L 79.60161 113.72695 
L 86.405909 113.997212 
L 88.503739 111.166885 
L 94.256568 115.864232 
L 96.354154 78.526994 
L 98.446464 72.15397 
L 100.540824 70.112946 
L 102.63609 82.661546 
L 106.822316 86.07158 
L 107.873973 98.44077 
L 110.489216 118.200804 
L 116.253236 87.577392 
L 117.294528 75.102713 
L 118.348055 101.645272 
L 118.865333 105.648801 
L 120.959633 69.228091 
L 122.015877 66.015287 
L 124.108701 69.858564 
L 127.773357 83.260416 
L 128.293971 94.48206 
L 130.386361 94.254283 
L 131.43172 111.646855 
L 136.146552 124.539716 
L 137.193677 88.974734 
L 138.240673 70.939837 
L 139.811637 80.143616 
L 143.478697 61.858009 
L 145.573792 63.823369 
L 153.949189 103.396456 
L 156.049771 115.561304 
L 157.616684 93.091168 
L 160.756077 70.84521 
L 164.946951 68.377124 
L 165.995602 62.913708 
L 167.040904 60.280848 
L 170.184175 98.901969 
L 172.284475 110.468037 
L 173.848364 108.492691 
L 174.375836 92.368227 
L 176.992583 121.945522 
L 180.138804 93.841519 
L 180.660669 95.584975 
L 182.751336 68.620565 
L 185.372158 76.462424 
L 186.939612 58.118281 
L 189.030601 61.270364 
L 193.227453 102.802645 
L 194.792725 104.707352 
L 195.318685 106.913381 
L 195.841154 98.537502 
L 197.409512 110.973642 
L 203.699638 64.09317 
L 208.410737 64.813968 
L 212.070649 105.869351 
L 215.736625 103.513285 
L 216.262365 97.655978 
L 222.026761 64.787647 
L 227.786039 71.494572 
L 229.878299 68.945155 
L 231.969788 73.559339 
L 234.065833 99.119017 
L 235.119096 107.912027 
L 236.687898 108.367944 
L 239.298578 100.209156 
L 241.396708 103.160197 
L 245.582087 72.608916 
L 248.732661 69.40256 
L 250.823842 69.177887 
L 252.389856 52.552601 
L 255.533316 98.062967 
L 257.631406 109.799713 
L 259.728922 104.785619 
L 261.290754 100.088694 
L 263.38588 46.970182 
L 266.007748 81.784955 
L 267.581871 83.797341 
L 277.523477 111.59907 
L 278.05485 94.696187 
L 279.623133 104.566746 
L 280.150074 112.399518 
L 287.998813 63.598657 
L 289.57392 75.729776 
L 294.806227 59.69723 
L 295.850041 90.851154 
L 297.428694 99.620012 
L 298.467984 113.300305 
L 300.044367 109.214746 
L 302.666664 93.261949 
L 304.231446 86.431474 
L 305.80506 72.90124 
L 309.996477 76.422556 
L 310.518911 63.335973 
L 312.083109 77.905159 
L 312.610444 58.231085 
L 313.139849 53.210589 
L 313.661362 67.177424 
L 315.224704 62.87591 
L 315.755125 67.503051 
L 319.41688 90.098694 
L 320.990304 97.516016 
L 324.134925 110.681516 
L 325.176849 86.123183 
L 326.750645 58.141389 
L 328.315822 91.699422 
L 332.512705 77.477758 
L 334.598947 59.646602 
L 336.176317 73.500168 
L 338.272267 127.171211 
L 338.796312 82.891462 
L 340.881785 101.533099 
L 342.985945 108.747568 
L 345.077904 119.80371 
L 349.789073 75.931176 
L 352.41105 67.569058 
L 353.453064 70.469509 
L 356.076517 60.391789 
L 359.21544 110.648913 
L 359.737383 99.368794 
L 361.305396 108.09058 
L 363.40459 99.897364 
L 363.922967 122.518067 
L 366.545583 110.830236 
L 369.6817 86.172625 
L 370.20712 91.451998 
L 373.354905 68.538583 
L 375.973567 62.324996 
L 377.014562 63.326426 
L 379.106775 71.250538 
L 380.681193 106.629248 
L 383.823387 77.900853 
L 385.391672 96.143397 
L 386.961833 105.886666 
L 389.587803 64.439904 
L 391.679509 78.336562 
L 394.296031 67.099453 
L 396.391622 70.754744 
L 398.487273 58.828757 
L 398.487273 58.828757 
" style="fill:none;stroke:#ff7f0e;stroke-linecap:square;stroke-width:1.5;"/>
   </g>
   <g id="line2d_27">
    <path clip-path="url(#p72c35c30bc)" d="M 73.832727 102.383881 
L 74.363166 147.861336 
L 74.888119 156.933818 
L 79.078427 102.274627 
L 79.60161 111.728661 
L 86.405909 107.203027 
L 88.503739 115.563122 
L 94.256568 109.070047 
L 96.354154 108.501338 
L 98.446464 102.128314 
L 100.540824 98.488659 
L 102.63609 110.237943 
L 106.822316 109.651398 
L 107.873973 89.248638 
L 110.489216 109.008672 
L 116.253236 93.572261 
L 117.294528 102.67911 
L 118.348055 126.823721 
L 118.865333 131.626566 
L 120.959633 94.40654 
L 122.015877 104.782105 
L 124.108701 103.030172 
L 127.773357 104.442286 
L 128.293971 104.473508 
L 130.386361 101.048468 
L 131.43172 104.053354 
L 136.146552 110.551689 
L 137.193677 117.350447 
L 138.240673 100.914182 
L 139.811637 100.52617 
L 143.478697 101.424144 
L 145.573792 112.181978 
L 153.949189 87.809796 
L 156.049771 99.175329 
L 157.616684 80.701772 
L 160.756077 96.023659 
L 164.946951 97.552153 
L 165.995602 104.078475 
L 167.040904 100.646298 
L 170.184175 106.495469 
L 172.284475 119.660169 
L 173.848364 104.096454 
L 174.375836 101.560359 
L 176.992583 100.763652 
L 180.138804 130.21039 
L 180.660669 104.777107 
L 182.751336 94.59833 
L 185.372158 116.028559 
L 186.939612 93.687837 
L 189.030601 108.829657 
L 193.227453 112.794093 
L 194.792725 109.103589 
L 195.841154 98.93716 
L 197.409512 92.18972 
L 203.699638 98.064094 
L 208.410737 101.982155 
L 212.070649 113.462852 
L 215.736625 113.504733 
L 216.262365 102.851531 
L 222.026761 88.367465 
L 227.786039 103.067548 
L 229.878299 114.1065 
L 231.969788 109.92821 
L 234.065833 101.117307 
L 235.119096 109.111 
L 236.687898 107.968286 
L 239.298578 83.823182 
L 241.396708 95.566697 
L 245.582087 108.178472 
L 248.732661 106.570747 
L 250.823842 107.14539 
L 252.389856 104.907789 
L 255.533316 107.255099 
L 257.631406 112.597318 
L 259.728922 88.399644 
L 261.290754 81.304771 
L 263.38588 76.944526 
L 266.007748 107.76272 
L 267.581871 117.768264 
L 277.523477 113.59736 
L 278.05485 102.289687 
L 279.623133 102.568457 
L 280.150074 93.615595 
L 287.998813 95.171634 
L 289.57392 101.707541 
L 294.806227 106.457207 
L 295.850041 111.233709 
L 297.428694 104.815565 
L 298.467984 116.097911 
L 300.044367 97.624666 
L 302.666664 80.073237 
L 304.231446 79.637289 
L 305.80506 111.668059 
L 309.996477 103.998953 
L 310.518911 103.701424 
L 312.083109 114.27403 
L 312.610444 100.195167 
L 313.139849 108.76304 
L 313.661362 101.148348 
L 315.224704 98.445465 
L 315.755125 106.26987 
L 319.41688 98.49151 
L 320.990304 97.915674 
L 324.134925 95.094857 
L 325.176849 73.733787 
L 326.750645 103.302734 
L 328.315822 117.677187 
L 332.512705 111.448681 
L 334.598947 95.216157 
L 336.176317 111.467671 
L 338.272267 111.584552 
L 338.796312 85.689067 
L 340.881785 94.738914 
L 342.985945 98.75612 
L 345.077904 101.019787 
L 349.789073 106.704836 
L 352.41105 103.937929 
L 353.453064 110.834959 
L 356.076517 102.355871 
L 359.21544 111.048571 
L 359.737383 93.373925 
L 361.305396 111.687501 
L 363.40459 89.905916 
L 363.922967 109.329356 
L 366.545583 95.243577 
L 369.6817 105.755863 
L 370.20712 116.630447 
L 372.306716 116.061226 
L 373.354905 100.910875 
L 375.973567 108.285657 
L 377.014562 110.086403 
L 379.106775 106.820094 
L 380.681193 101.433695 
L 383.823387 88.691617 
L 385.391672 85.352633 
L 386.961833 96.694534 
L 389.587803 104.006039 
L 391.679509 105.912959 
L 394.296031 104.26764 
L 396.391622 119.113353 
L 398.487273 104.789418 
L 398.487273 104.789418 
" style="fill:none;stroke:#2ca02c;stroke-linecap:square;stroke-width:1.5;"/>
   </g>
   <g id="patch_3">
    <path d="M 57.6 162.432 
L 57.6 41.472 
" style="fill:none;stroke:#000000;stroke-linecap:square;stroke-linejoin:miter;stroke-width:0.8;"/>
   </g>
   <g id="patch_4">
    <path d="M 414.72 162.432 
L 414.72 41.472 
" style="fill:none;stroke:#000000;stroke-linecap:square;stroke-linejoin:miter;stroke-width:0.8;"/>
   </g>
   <g id="patch_5">
    <path d="M 57.6 162.432 
L 414.72 162.432 
" style="fill:none;stroke:#000000;stroke-linecap:square;stroke-linejoin:miter;stroke-width:0.8;"/>
   </g>
   <g id="patch_6">
    <path d="M 57.6 41.472 
L 414.72 41.472 
" style="fill:none;stroke:#000000;stroke-linecap:square;stroke-linejoin:miter;stroke-width:0.8;"/>
   </g>
   <g id="legend_1">
    <g id="patch_7">
     <path d="M 205.145156 157.432 
L 267.174844 157.432 
Q 269.174844 157.432 269.174844 155.432 
L 269.174844 111.841375 
Q 269.174844 109.841375 267.174844 109.841375 
L 205.145156 109.841375 
Q 203.145156 109.841375 203.145156 111.841375 
L 203.145156 155.432 
Q 203.145156 157.432 205.145156 157.432 
z
" style="fill:#ffffff;opacity:0.8;stroke:#cccccc;stroke-linejoin:miter;"/>
    </g>
    <g id="line2d_28">
     <path d="M 207.145156 117.939812 
L 227.145156 117.939812 
" style="fill:none;stroke:#1f77b4;stroke-linecap:square;stroke-width:1.5;"/>
    </g>
    <g id="line2d_29"/>
    <g id="text_14">
     <!-- U_cur -->
     <g transform="translate(235.145156 121.439812)scale(0.1 -0.1)">
      <defs>
       <path d="M 8.6875 72.90625 
L 18.609375 72.90625 
L 18.609375 28.609375 
Q 18.609375 16.890625 22.84375 11.734375 
Q 27.09375 6.59375 36.625 6.59375 
Q 46.09375 6.59375 50.34375 11.734375 
Q 54.59375 16.890625 54.59375 28.609375 
L 54.59375 72.90625 
L 64.5 72.90625 
L 64.5 27.390625 
Q 64.5 13.140625 57.4375 5.859375 
Q 50.390625 -1.421875 36.625 -1.421875 
Q 22.796875 -1.421875 15.734375 5.859375 
Q 8.6875 13.140625 8.6875 27.390625 
z
" id="DejaVuSans-85"/>
       <path d="M 50.984375 -16.609375 
L 50.984375 -23.578125 
L -0.984375 -23.578125 
L -0.984375 -16.609375 
z
" id="DejaVuSans-95"/>
       <path d="M 48.78125 52.59375 
L 48.78125 44.1875 
Q 44.96875 46.296875 41.140625 47.34375 
Q 37.3125 48.390625 33.40625 48.390625 
Q 24.65625 48.390625 19.8125 42.84375 
Q 14.984375 37.3125 14.984375 27.296875 
Q 14.984375 17.28125 19.8125 11.734375 
Q 24.65625 6.203125 33.40625 6.203125 
Q 37.3125 6.203125 41.140625 7.25 
Q 44.96875 8.296875 48.78125 10.40625 
L 48.78125 2.09375 
Q 45.015625 0.34375 40.984375 -0.53125 
Q 36.96875 -1.421875 32.421875 -1.421875 
Q 20.0625 -1.421875 12.78125 6.34375 
Q 5.515625 14.109375 5.515625 27.296875 
Q 5.515625 40.671875 12.859375 48.328125 
Q 20.21875 56 33.015625 56 
Q 37.15625 56 41.109375 55.140625 
Q 45.0625 54.296875 48.78125 52.59375 
z
" id="DejaVuSans-99"/>
       <path d="M 8.5 21.578125 
L 8.5 54.6875 
L 17.484375 54.6875 
L 17.484375 21.921875 
Q 17.484375 14.15625 20.5 10.265625 
Q 23.53125 6.390625 29.59375 6.390625 
Q 36.859375 6.390625 41.078125 11.03125 
Q 45.3125 15.671875 45.3125 23.6875 
L 45.3125 54.6875 
L 54.296875 54.6875 
L 54.296875 0 
L 45.3125 0 
L 45.3125 8.40625 
Q 42.046875 3.421875 37.71875 1 
Q 33.40625 -1.421875 27.6875 -1.421875 
Q 18.265625 -1.421875 13.375 4.4375 
Q 8.5 10.296875 8.5 21.578125 
z
M 31.109375 56 
z
" id="DejaVuSans-117"/>
      </defs>
      <use xlink:href="#DejaVuSans-85"/>
      <use x="73.193359" xlink:href="#DejaVuSans-95"/>
      <use x="123.193359" xlink:href="#DejaVuSans-99"/>
      <use x="178.173828" xlink:href="#DejaVuSans-117"/>
      <use x="241.552734" xlink:href="#DejaVuSans-114"/>
     </g>
    </g>
    <g id="line2d_30">
     <path d="M 207.145156 132.896062 
L 227.145156 132.896062 
" style="fill:none;stroke:#ff7f0e;stroke-linecap:square;stroke-width:1.5;"/>
    </g>
    <g id="line2d_31"/>
    <g id="text_15">
     <!-- U_des -->
     <g transform="translate(235.145156 136.396062)scale(0.1 -0.1)">
      <use xlink:href="#DejaVuSans-85"/>
      <use x="73.193359" xlink:href="#DejaVuSans-95"/>
      <use x="123.193359" xlink:href="#DejaVuSans-100"/>
      <use x="186.669922" xlink:href="#DejaVuSans-101"/>
      <use x="248.193359" xlink:href="#DejaVuSans-115"/>
     </g>
    </g>
    <g id="line2d_32">
     <path d="M 207.145156 147.852312 
L 227.145156 147.852312 
" style="fill:none;stroke:#2ca02c;stroke-linecap:square;stroke-width:1.5;"/>
    </g>
    <g id="line2d_33"/>
    <g id="text_16">
     <!-- error -->
     <g transform="translate(235.145156 151.352312)scale(0.1 -0.1)">
      <defs>
       <path d="M 30.609375 48.390625 
Q 23.390625 48.390625 19.1875 42.75 
Q 14.984375 37.109375 14.984375 27.296875 
Q 14.984375 17.484375 19.15625 11.84375 
Q 23.34375 6.203125 30.609375 6.203125 
Q 37.796875 6.203125 41.984375 11.859375 
Q 46.1875 17.53125 46.1875 27.296875 
Q 46.1875 37.015625 41.984375 42.703125 
Q 37.796875 48.390625 30.609375 48.390625 
z
M 30.609375 56 
Q 42.328125 56 49.015625 48.375 
Q 55.71875 40.765625 55.71875 27.296875 
Q 55.71875 13.875 49.015625 6.21875 
Q 42.328125 -1.421875 30.609375 -1.421875 
Q 18.84375 -1.421875 12.171875 6.21875 
Q 5.515625 13.875 5.515625 27.296875 
Q 5.515625 40.765625 12.171875 48.375 
Q 18.84375 56 30.609375 56 
z
" id="DejaVuSans-111"/>
      </defs>
      <use xlink:href="#DejaVuSans-101"/>
      <use x="61.523438" xlink:href="#DejaVuSans-114"/>
      <use x="100.886719" xlink:href="#DejaVuSans-114"/>
      <use x="139.75" xlink:href="#DejaVuSans-111"/>
      <use x="200.931641" xlink:href="#DejaVuSans-114"/>
     </g>
    </g>
   </g>
  </g>
  <g id="axes_2">
   <g id="patch_8">
    <path d="M 57.6 307.584 
L 414.72 307.584 
L 414.72 186.624 
L 57.6 186.624 
z
" style="fill:#ffffff;"/>
   </g>
   <g id="matplotlib.axis_3">
    <g id="xtick_8">
     <g id="line2d_34">
      <path clip-path="url(#pa97a4ee104)" d="M 73.832652 307.584 
L 73.832652 186.624 
" style="fill:none;stroke:#b0b0b0;stroke-linecap:square;stroke-width:0.8;"/>
     </g>
     <g id="line2d_35">
      <g>
       <use style="stroke:#000000;stroke-width:0.8;" x="73.832652" xlink:href="#mcc7b2b4354" y="307.584"/>
      </g>
     </g>
     <g id="text_17">
      <!-- 0 -->
      <g transform="translate(70.651402 322.182437)scale(0.1 -0.1)">
       <use xlink:href="#DejaVuSans-48"/>
      </g>
     </g>
    </g>
    <g id="xtick_9">
     <g id="line2d_36">
      <path clip-path="url(#pa97a4ee104)" d="M 126.195199 307.584 
L 126.195199 186.624 
" style="fill:none;stroke:#b0b0b0;stroke-linecap:square;stroke-width:0.8;"/>
     </g>
     <g id="line2d_37">
      <g>
       <use style="stroke:#000000;stroke-width:0.8;" x="126.195199" xlink:href="#mcc7b2b4354" y="307.584"/>
      </g>
     </g>
     <g id="text_18">
      <!-- 5 -->
      <g transform="translate(123.013949 322.182437)scale(0.1 -0.1)">
       <use xlink:href="#DejaVuSans-53"/>
      </g>
     </g>
    </g>
    <g id="xtick_10">
     <g id="line2d_38">
      <path clip-path="url(#pa97a4ee104)" d="M 178.557745 307.584 
L 178.557745 186.624 
" style="fill:none;stroke:#b0b0b0;stroke-linecap:square;stroke-width:0.8;"/>
     </g>
     <g id="line2d_39">
      <g>
       <use style="stroke:#000000;stroke-width:0.8;" x="178.557745" xlink:href="#mcc7b2b4354" y="307.584"/>
      </g>
     </g>
     <g id="text_19">
      <!-- 10 -->
      <g transform="translate(172.195245 322.182437)scale(0.1 -0.1)">
       <use xlink:href="#DejaVuSans-49"/>
       <use x="63.623047" xlink:href="#DejaVuSans-48"/>
      </g>
     </g>
    </g>
    <g id="xtick_11">
     <g id="line2d_40">
      <path clip-path="url(#pa97a4ee104)" d="M 230.920291 307.584 
L 230.920291 186.624 
" style="fill:none;stroke:#b0b0b0;stroke-linecap:square;stroke-width:0.8;"/>
     </g>
     <g id="line2d_41">
      <g>
       <use style="stroke:#000000;stroke-width:0.8;" x="230.920291" xlink:href="#mcc7b2b4354" y="307.584"/>
      </g>
     </g>
     <g id="text_20">
      <!-- 15 -->
      <g transform="translate(224.557791 322.182437)scale(0.1 -0.1)">
       <use xlink:href="#DejaVuSans-49"/>
       <use x="63.623047" xlink:href="#DejaVuSans-53"/>
      </g>
     </g>
    </g>
    <g id="xtick_12">
     <g id="line2d_42">
      <path clip-path="url(#pa97a4ee104)" d="M 283.282837 307.584 
L 283.282837 186.624 
" style="fill:none;stroke:#b0b0b0;stroke-linecap:square;stroke-width:0.8;"/>
     </g>
     <g id="line2d_43">
      <g>
       <use style="stroke:#000000;stroke-width:0.8;" x="283.282837" xlink:href="#mcc7b2b4354" y="307.584"/>
      </g>
     </g>
     <g id="text_21">
      <!-- 20 -->
      <g transform="translate(276.920337 322.182437)scale(0.1 -0.1)">
       <use xlink:href="#DejaVuSans-50"/>
       <use x="63.623047" xlink:href="#DejaVuSans-48"/>
      </g>
     </g>
    </g>
    <g id="xtick_13">
     <g id="line2d_44">
      <path clip-path="url(#pa97a4ee104)" d="M 335.645383 307.584 
L 335.645383 186.624 
" style="fill:none;stroke:#b0b0b0;stroke-linecap:square;stroke-width:0.8;"/>
     </g>
     <g id="line2d_45">
      <g>
       <use style="stroke:#000000;stroke-width:0.8;" x="335.645383" xlink:href="#mcc7b2b4354" y="307.584"/>
      </g>
     </g>
     <g id="text_22">
      <!-- 25 -->
      <g transform="translate(329.282883 322.182437)scale(0.1 -0.1)">
       <use xlink:href="#DejaVuSans-50"/>
       <use x="63.623047" xlink:href="#DejaVuSans-53"/>
      </g>
     </g>
    </g>
    <g id="xtick_14">
     <g id="line2d_46">
      <path clip-path="url(#pa97a4ee104)" d="M 388.00793 307.584 
L 388.00793 186.624 
" style="fill:none;stroke:#b0b0b0;stroke-linecap:square;stroke-width:0.8;"/>
     </g>
     <g id="line2d_47">
      <g>
       <use style="stroke:#000000;stroke-width:0.8;" x="388.00793" xlink:href="#mcc7b2b4354" y="307.584"/>
      </g>
     </g>
     <g id="text_23">
      <!-- 30 -->
      <g transform="translate(381.64543 322.182437)scale(0.1 -0.1)">
       <use xlink:href="#DejaVuSans-51"/>
       <use x="63.623047" xlink:href="#DejaVuSans-48"/>
      </g>
     </g>
    </g>
    <g id="text_24">
     <!-- time, sec -->
     <g transform="translate(213.255313 335.860562)scale(0.1 -0.1)">
      <defs>
       <path d="M 52 44.1875 
Q 55.375 50.25 60.0625 53.125 
Q 64.75 56 71.09375 56 
Q 79.640625 56 84.28125 50.015625 
Q 88.921875 44.046875 88.921875 33.015625 
L 88.921875 0 
L 79.890625 0 
L 79.890625 32.71875 
Q 79.890625 40.578125 77.09375 44.375 
Q 74.3125 48.1875 68.609375 48.1875 
Q 61.625 48.1875 57.5625 43.546875 
Q 53.515625 38.921875 53.515625 30.90625 
L 53.515625 0 
L 44.484375 0 
L 44.484375 32.71875 
Q 44.484375 40.625 41.703125 44.40625 
Q 38.921875 48.1875 33.109375 48.1875 
Q 26.21875 48.1875 22.15625 43.53125 
Q 18.109375 38.875 18.109375 30.90625 
L 18.109375 0 
L 9.078125 0 
L 9.078125 54.6875 
L 18.109375 54.6875 
L 18.109375 46.1875 
Q 21.1875 51.21875 25.484375 53.609375 
Q 29.78125 56 35.6875 56 
Q 41.65625 56 45.828125 52.96875 
Q 50 49.953125 52 44.1875 
z
" id="DejaVuSans-109"/>
      </defs>
      <use xlink:href="#DejaVuSans-116"/>
      <use x="39.208984" xlink:href="#DejaVuSans-105"/>
      <use x="66.992188" xlink:href="#DejaVuSans-109"/>
      <use x="164.404297" xlink:href="#DejaVuSans-101"/>
      <use x="225.927734" xlink:href="#DejaVuSans-44"/>
      <use x="257.714844" xlink:href="#DejaVuSans-32"/>
      <use x="289.501953" xlink:href="#DejaVuSans-115"/>
      <use x="341.601562" xlink:href="#DejaVuSans-101"/>
      <use x="403.125" xlink:href="#DejaVuSans-99"/>
     </g>
    </g>
   </g>
   <g id="matplotlib.axis_4">
    <g id="ytick_6">
     <g id="line2d_48">
      <path clip-path="url(#pa97a4ee104)" d="M 57.6 292.274439 
L 414.72 292.274439 
" style="fill:none;stroke:#b0b0b0;stroke-linecap:square;stroke-width:0.8;"/>
     </g>
     <g id="line2d_49">
      <g>
       <use style="stroke:#000000;stroke-width:0.8;" x="57.6" xlink:href="#m5fce38362c" y="292.274439"/>
      </g>
     </g>
     <g id="text_25">
      <!-- −2 -->
      <g transform="translate(35.857813 296.073657)scale(0.1 -0.1)">
       <use xlink:href="#DejaVuSans-8722"/>
       <use x="83.789062" xlink:href="#DejaVuSans-50"/>
      </g>
     </g>
    </g>
    <g id="ytick_7">
     <g id="line2d_50">
      <path clip-path="url(#pa97a4ee104)" d="M 57.6 258.882668 
L 414.72 258.882668 
" style="fill:none;stroke:#b0b0b0;stroke-linecap:square;stroke-width:0.8;"/>
     </g>
     <g id="line2d_51">
      <g>
       <use style="stroke:#000000;stroke-width:0.8;" x="57.6" xlink:href="#m5fce38362c" y="258.882668"/>
      </g>
     </g>
     <g id="text_26">
      <!-- −1 -->
      <g transform="translate(35.857813 262.681887)scale(0.1 -0.1)">
       <use xlink:href="#DejaVuSans-8722"/>
       <use x="83.789062" xlink:href="#DejaVuSans-49"/>
      </g>
     </g>
    </g>
    <g id="ytick_8">
     <g id="line2d_52">
      <path clip-path="url(#pa97a4ee104)" d="M 57.6 225.490898 
L 414.72 225.490898 
" style="fill:none;stroke:#b0b0b0;stroke-linecap:square;stroke-width:0.8;"/>
     </g>
     <g id="line2d_53">
      <g>
       <use style="stroke:#000000;stroke-width:0.8;" x="57.6" xlink:href="#m5fce38362c" y="225.490898"/>
      </g>
     </g>
     <g id="text_27">
      <!-- 0 -->
      <g transform="translate(44.2375 229.290117)scale(0.1 -0.1)">
       <use xlink:href="#DejaVuSans-48"/>
      </g>
     </g>
    </g>
    <g id="ytick_9">
     <g id="line2d_54">
      <path clip-path="url(#pa97a4ee104)" d="M 57.6 192.099128 
L 414.72 192.099128 
" style="fill:none;stroke:#b0b0b0;stroke-linecap:square;stroke-width:0.8;"/>
     </g>
     <g id="line2d_55">
      <g>
       <use style="stroke:#000000;stroke-width:0.8;" x="57.6" xlink:href="#m5fce38362c" y="192.099128"/>
      </g>
     </g>
     <g id="text_28">
      <!-- 1 -->
      <g transform="translate(44.2375 195.898346)scale(0.1 -0.1)">
       <use xlink:href="#DejaVuSans-49"/>
      </g>
     </g>
    </g>
    <g id="text_29">
     <!-- knee angles, rad -->
     <g transform="translate(29.778125 288.859469)rotate(-90)scale(0.1 -0.1)">
      <defs>
       <path d="M 9.078125 75.984375 
L 18.109375 75.984375 
L 18.109375 31.109375 
L 44.921875 54.6875 
L 56.390625 54.6875 
L 27.390625 29.109375 
L 57.625 0 
L 45.90625 0 
L 18.109375 26.703125 
L 18.109375 0 
L 9.078125 0 
z
" id="DejaVuSans-107"/>
      </defs>
      <use xlink:href="#DejaVuSans-107"/>
      <use x="57.910156" xlink:href="#DejaVuSans-110"/>
      <use x="121.289062" xlink:href="#DejaVuSans-101"/>
      <use x="182.8125" xlink:href="#DejaVuSans-101"/>
      <use x="244.335938" xlink:href="#DejaVuSans-32"/>
      <use x="276.123047" xlink:href="#DejaVuSans-97"/>
      <use x="337.402344" xlink:href="#DejaVuSans-110"/>
      <use x="400.78125" xlink:href="#DejaVuSans-103"/>
      <use x="464.257812" xlink:href="#DejaVuSans-108"/>
      <use x="492.041016" xlink:href="#DejaVuSans-101"/>
      <use x="553.564453" xlink:href="#DejaVuSans-115"/>
      <use x="605.664062" xlink:href="#DejaVuSans-44"/>
      <use x="637.451172" xlink:href="#DejaVuSans-32"/>
      <use x="669.238281" xlink:href="#DejaVuSans-114"/>
      <use x="710.351562" xlink:href="#DejaVuSans-97"/>
      <use x="771.630859" xlink:href="#DejaVuSans-100"/>
     </g>
    </g>
   </g>
   <g id="line2d_56">
    <path clip-path="url(#pa97a4ee104)" d="M 73.832727 230.040985 
L 74.363166 200.098475 
L 74.888119 234.444296 
L 79.078427 244.718687 
L 79.60161 241.783146 
L 86.405909 221.234365 
L 88.503739 208.317988 
L 94.256568 216.243946 
L 96.354154 238.554052 
L 98.446464 229.160323 
L 100.540824 242.663809 
L 102.63609 226.224783 
L 106.822316 225.637675 
L 107.873973 213.60196 
L 110.489216 209.19865 
L 116.253236 222.115027 
L 117.294528 240.902484 
L 118.348055 245.012241 
L 118.865333 235.031404 
L 120.959633 237.379836 
L 122.015877 242.957363 
L 124.108701 235.031404 
L 127.773357 224.463459 
L 128.293971 222.115027 
L 130.386361 220.940811 
L 131.43172 221.821473 
L 136.146552 216.831054 
L 137.193677 220.353703 
L 138.240673 241.196038 
L 139.811637 235.324958 
L 143.478697 236.20562 
L 145.573792 240.021822 
L 153.949189 205.088893 
L 156.049771 218.298824 
L 157.616684 205.676001 
L 160.756077 239.434714 
L 164.946951 236.499174 
L 165.995602 242.663809 
L 167.040904 241.783146 
L 170.184175 216.5375 
L 172.284475 210.079312 
L 173.848364 200.392029 
L 174.375836 235.324958 
L 176.992583 213.014852 
L 180.138804 235.618512 
L 180.660669 237.966944 
L 182.751336 241.489592 
L 185.372158 240.315376 
L 186.939612 236.20562 
L 189.030601 236.499174 
L 193.227453 218.592378 
L 194.792725 216.5375 
L 195.318685 217.124608 
L 195.841154 219.473041 
L 197.409512 210.66642 
L 203.699638 241.196038 
L 208.410737 232.976526 
L 212.070649 218.298824 
L 215.736625 213.895514 
L 216.262365 220.647257 
L 222.026761 245.012241 
L 227.786039 241.196038 
L 229.878299 244.718687 
L 231.969788 235.324958 
L 234.065833 222.115027 
L 235.119096 211.547082 
L 236.687898 211.840636 
L 239.298578 211.840636 
L 241.396708 214.776176 
L 245.582087 238.260498 
L 248.732661 239.434714 
L 250.823842 245.305795 
L 252.389856 241.783146 
L 255.533316 225.050567 
L 257.631406 215.363284 
L 259.728922 209.492204 
L 261.290754 213.014852 
L 263.38588 240.902484 
L 266.007748 231.80231 
L 267.581871 235.031404 
L 277.523477 217.418162 
L 278.05485 219.179487 
L 279.623133 214.482622 
L 280.150074 211.840636 
L 287.998813 234.444296 
L 289.57392 230.921648 
L 294.806227 237.086282 
L 295.850041 214.776176 
L 297.428694 217.124608 
L 298.467984 212.721298 
L 300.044367 206.850217 
L 302.666664 209.492204 
L 304.231446 213.60196 
L 305.80506 236.499174 
L 309.996477 240.021822 
L 310.518911 233.857188 
L 312.083109 233.563634 
L 312.610444 235.324958 
L 313.139849 248.534889 
L 313.661362 225.050567 
L 315.224704 239.434714 
L 315.755125 234.444296 
L 319.41688 228.866769 
L 320.990304 218.885932 
L 324.134925 203.621123 
L 326.750645 237.379836 
L 328.315822 241.196038 
L 332.512705 240.60893 
L 334.598947 242.370254 
L 336.176317 240.021822 
L 338.272267 211.840636 
L 338.796312 223.289243 
L 340.881785 212.13419 
L 342.985945 214.189068 
L 345.077904 215.06973 
L 349.789073 225.931229 
L 352.41105 233.27008 
L 353.453064 237.086282 
L 356.076517 235.324958 
L 359.21544 213.895514 
L 359.737383 218.885932 
L 361.305396 222.995689 
L 363.40459 213.60196 
L 363.922967 213.308406 
L 366.545583 208.611542 
L 369.6817 241.196038 
L 370.20712 235.324958 
L 372.306716 237.086282 
L 373.354905 232.389418 
L 375.973567 241.196038 
L 377.014562 232.095864 
L 379.106775 229.747431 
L 380.681193 221.527919 
L 383.823387 239.728268 
L 385.391672 222.115027 
L 386.961833 210.079312 
L 389.587803 243.544471 
L 391.679509 235.618512 
L 394.296031 234.444296 
L 396.391622 243.250917 
L 398.487273 242.0767 
L 398.487273 242.0767 
" style="fill:none;stroke:#1f77b4;stroke-linecap:square;stroke-width:1.5;"/>
   </g>
   <g id="line2d_57">
    <path clip-path="url(#pa97a4ee104)" d="M 73.832727 302.085818 
L 74.363166 221.624955 
L 74.888119 209.726744 
L 79.078427 245.289441 
L 79.60161 235.251124 
L 86.405909 219.205632 
L 88.503739 212.374461 
L 94.256568 213.518271 
L 96.354154 238.922624 
L 98.446464 238.889213 
L 100.540824 242.364939 
L 102.63609 211.607667 
L 106.822316 218.402987 
L 107.873973 210.080935 
L 110.489216 222.23784 
L 116.253236 227.178321 
L 117.294528 235.93382 
L 118.348055 241.9361 
L 118.865333 241.443341 
L 120.959633 237.363571 
L 122.015877 243.557815 
L 124.108701 231.858182 
L 127.773357 220.466265 
L 128.293971 223.503117 
L 130.386361 215.645551 
L 131.43172 225.377893 
L 136.146552 223.410824 
L 137.193677 232.404983 
L 138.240673 233.137062 
L 139.811637 241.940266 
L 143.478697 236.118577 
L 145.573792 230.201448 
L 153.949189 213.263123 
L 156.049771 210.949098 
L 157.616684 211.450499 
L 160.756077 242.902099 
L 164.946951 237.452297 
L 165.995602 239.884714 
L 167.040904 242.787177 
L 170.184175 222.52337 
L 172.284475 205.986483 
L 173.848364 192.122182 
L 174.375836 226.76738 
L 176.992583 216.993909 
L 180.138804 231.299865 
L 180.660669 236.253449 
L 182.751336 240.479356 
L 185.372158 234.190994 
L 186.939612 235.605572 
L 189.030601 242.250956 
L 193.227453 214.853047 
L 194.792725 219.670727 
L 195.318685 213.492915 
L 195.841154 224.306409 
L 197.409512 219.570064 
L 203.699638 238.922087 
L 208.410737 225.251194 
L 212.070649 211.849894 
L 216.262365 218.000649 
L 222.026761 254.02136 
L 227.786039 233.550816 
L 229.878299 241.287295 
L 231.969788 237.537627 
L 234.065833 217.010338 
L 235.119096 209.47313 
L 236.687898 209.460448 
L 239.298578 219.596769 
L 241.396708 218.39715 
L 245.582087 238.917534 
L 248.732661 243.893212 
L 250.823842 242.416383 
L 252.389856 239.229495 
L 255.533316 230.241901 
L 257.631406 220.129142 
L 259.728922 218.32219 
L 261.290754 211.083262 
L 263.38588 229.911657 
L 266.007748 223.761027 
L 267.581871 234.290051 
L 277.523477 219.260218 
L 278.05485 222.779352 
L 279.623133 213.282454 
L 280.150074 211.551325 
L 287.998813 244.211117 
L 289.57392 231.276095 
L 294.806227 231.780508 
L 295.850041 216.395609 
L 297.428694 220.28648 
L 298.467984 208.56195 
L 300.044367 219.596808 
L 302.666664 210.587888 
L 304.231446 219.250579 
L 305.80506 235.752058 
L 309.996477 233.565041 
L 310.518911 225.754191 
L 312.083109 234.068393 
L 312.610444 230.964696 
L 313.139849 249.419462 
L 313.661362 226.003284 
L 315.224704 239.110473 
L 315.755125 233.831228 
L 319.41688 221.016593 
L 320.990304 220.306306 
L 324.134925 213.388708 
L 325.176849 218.472941 
L 326.750645 249.87267 
L 328.315822 247.280147 
L 332.512705 229.518237 
L 334.598947 246.826822 
L 336.176317 244.027141 
L 338.272267 206.152872 
L 338.796312 226.615192 
L 340.881785 208.914153 
L 342.985945 211.910526 
L 345.077904 220.656234 
L 349.789073 225.525747 
L 352.41105 233.419221 
L 353.453064 231.095883 
L 356.076517 235.100307 
L 359.21544 210.851015 
L 359.737383 222.352295 
L 361.305396 220.499589 
L 363.40459 213.073213 
L 363.922967 206.646127 
L 366.545583 208.519242 
L 369.6817 241.814389 
L 370.20712 235.119886 
L 372.306716 235.068947 
L 373.354905 241.524684 
L 375.973567 231.342283 
L 377.014562 231.011555 
L 379.106775 221.778163 
L 380.681193 227.754116 
L 383.823387 247.035741 
L 385.391672 226.505596 
L 386.961833 208.991667 
L 389.587803 246.26287 
L 391.679509 240.72916 
L 394.296031 229.222265 
L 396.391622 238.732565 
L 398.487273 250.229752 
L 398.487273 250.229752 
" style="fill:none;stroke:#ff7f0e;stroke-linecap:square;stroke-width:1.5;"/>
   </g>
   <g id="line2d_58">
    <path clip-path="url(#pa97a4ee104)" d="M 73.832727 297.535731 
L 74.888119 200.773346 
L 79.078427 226.061653 
L 79.60161 218.958876 
L 86.405909 223.462166 
L 88.503739 229.547371 
L 94.256568 222.765223 
L 96.354154 225.85947 
L 98.446464 235.219788 
L 100.540824 225.192028 
L 102.63609 210.873782 
L 106.822316 218.25621 
L 107.873973 221.969873 
L 110.489216 238.530088 
L 116.253236 230.554192 
L 117.294528 220.522234 
L 118.348055 222.414757 
L 118.865333 231.902835 
L 120.959633 225.474633 
L 122.015877 226.091351 
L 124.108701 222.317676 
L 127.773357 221.493704 
L 128.293971 226.878989 
L 130.386361 220.195639 
L 131.43172 229.047319 
L 136.146552 232.070668 
L 137.193677 237.542179 
L 138.240673 217.431922 
L 139.811637 232.106206 
L 143.478697 225.403855 
L 145.573792 215.670524 
L 153.949189 233.665128 
L 156.049771 218.141172 
L 157.616684 231.265396 
L 160.756077 228.958283 
L 164.946951 226.444021 
L 165.995602 222.711804 
L 167.040904 226.494929 
L 170.184175 231.476768 
L 172.284475 221.39807 
L 173.848364 217.221051 
L 174.375836 216.93332 
L 176.992583 229.469955 
L 180.138804 221.172251 
L 180.660669 223.777403 
L 182.751336 224.480662 
L 185.372158 219.366516 
L 186.939612 224.89085 
L 189.030601 231.24268 
L 193.227453 221.751566 
L 194.792725 228.624124 
L 195.318685 221.859205 
L 195.841154 230.324266 
L 197.409512 234.394542 
L 203.699638 223.216947 
L 208.410737 217.765567 
L 212.070649 219.041967 
L 215.736625 228.881377 
L 216.262365 222.84429 
L 222.026761 234.500018 
L 227.786039 217.845676 
L 229.878299 222.059506 
L 231.969788 227.703567 
L 234.065833 220.386209 
L 235.119096 223.416947 
L 236.687898 223.11071 
L 239.298578 233.247031 
L 241.396708 229.111872 
L 245.582087 226.147934 
L 248.732661 229.949395 
L 250.823842 222.601486 
L 252.389856 222.937247 
L 255.533316 230.682232 
L 257.631406 230.256756 
L 259.728922 234.320884 
L 261.290754 223.559308 
L 263.38588 214.500071 
L 266.007748 217.449616 
L 267.581871 224.749545 
L 277.523477 227.332954 
L 278.05485 229.090764 
L 279.623133 224.29073 
L 280.150074 225.201587 
L 287.998813 235.257719 
L 289.57392 225.845346 
L 294.806227 220.185124 
L 295.850041 227.110331 
L 297.428694 228.65277 
L 298.467984 221.33155 
L 300.044367 238.237488 
L 302.666664 226.586583 
L 304.231446 231.139517 
L 305.80506 224.743782 
L 309.996477 219.034117 
L 310.518911 217.387901 
L 312.083109 225.995657 
L 312.610444 221.130636 
L 313.139849 226.375471 
L 313.661362 226.443615 
L 315.224704 225.166657 
L 315.755125 224.87783 
L 319.41688 217.640722 
L 320.990304 226.911271 
L 324.134925 235.258483 
L 325.176849 227.426339 
L 326.750645 237.983732 
L 332.512705 214.400205 
L 334.598947 229.947466 
L 336.176317 229.496217 
L 338.272267 219.803134 
L 338.796312 228.816847 
L 340.881785 222.270861 
L 342.985945 223.212356 
L 345.077904 231.077402 
L 349.789073 225.085416 
L 352.41105 225.640039 
L 353.453064 219.500499 
L 356.076517 225.266247 
L 359.21544 222.446399 
L 359.737383 228.957261 
L 361.305396 222.994798 
L 363.40459 224.962151 
L 363.922967 218.828619 
L 366.545583 225.398598 
L 369.6817 226.109249 
L 370.20712 225.285826 
L 372.306716 223.473563 
L 373.354905 234.626164 
L 375.973567 215.637143 
L 377.014562 224.406589 
L 379.106775 217.52163 
L 380.681193 231.717095 
L 383.823387 232.798371 
L 385.391672 229.881467 
L 386.961833 224.403253 
L 389.587803 228.209298 
L 391.679509 230.601546 
L 394.296031 220.268867 
L 396.391622 220.972546 
L 398.487273 233.64395 
L 398.487273 233.64395 
" style="fill:none;stroke:#2ca02c;stroke-linecap:square;stroke-width:1.5;"/>
   </g>
   <g id="patch_9">
    <path d="M 57.6 307.584 
L 57.6 186.624 
" style="fill:none;stroke:#000000;stroke-linecap:square;stroke-linejoin:miter;stroke-width:0.8;"/>
   </g>
   <g id="patch_10">
    <path d="M 414.72 307.584 
L 414.72 186.624 
" style="fill:none;stroke:#000000;stroke-linecap:square;stroke-linejoin:miter;stroke-width:0.8;"/>
   </g>
   <g id="patch_11">
    <path d="M 57.6 307.584 
L 414.72 307.584 
" style="fill:none;stroke:#000000;stroke-linecap:square;stroke-linejoin:miter;stroke-width:0.8;"/>
   </g>
   <g id="patch_12">
    <path d="M 57.6 186.624 
L 414.72 186.624 
" style="fill:none;stroke:#000000;stroke-linecap:square;stroke-linejoin:miter;stroke-width:0.8;"/>
   </g>
   <g id="legend_2">
    <g id="patch_13">
     <path d="M 345.690313 302.584 
L 407.72 302.584 
Q 409.72 302.584 409.72 300.584 
L 409.72 256.993375 
Q 409.72 254.993375 407.72 254.993375 
L 345.690313 254.993375 
Q 343.690313 254.993375 343.690313 256.993375 
L 343.690313 300.584 
Q 343.690313 302.584 345.690313 302.584 
z
" style="fill:#ffffff;opacity:0.8;stroke:#cccccc;stroke-linejoin:miter;"/>
    </g>
    <g id="line2d_59">
     <path d="M 347.690313 263.091812 
L 367.690313 263.091812 
" style="fill:none;stroke:#1f77b4;stroke-linecap:square;stroke-width:1.5;"/>
    </g>
    <g id="line2d_60"/>
    <g id="text_30">
     <!-- U_cur -->
     <g transform="translate(375.690313 266.591812)scale(0.1 -0.1)">
      <use xlink:href="#DejaVuSans-85"/>
      <use x="73.193359" xlink:href="#DejaVuSans-95"/>
      <use x="123.193359" xlink:href="#DejaVuSans-99"/>
      <use x="178.173828" xlink:href="#DejaVuSans-117"/>
      <use x="241.552734" xlink:href="#DejaVuSans-114"/>
     </g>
    </g>
    <g id="line2d_61">
     <path d="M 347.690313 278.048062 
L 367.690313 278.048062 
" style="fill:none;stroke:#ff7f0e;stroke-linecap:square;stroke-width:1.5;"/>
    </g>
    <g id="line2d_62"/>
    <g id="text_31">
     <!-- U_des -->
     <g transform="translate(375.690313 281.548062)scale(0.1 -0.1)">
      <use xlink:href="#DejaVuSans-85"/>
      <use x="73.193359" xlink:href="#DejaVuSans-95"/>
      <use x="123.193359" xlink:href="#DejaVuSans-100"/>
      <use x="186.669922" xlink:href="#DejaVuSans-101"/>
      <use x="248.193359" xlink:href="#DejaVuSans-115"/>
     </g>
    </g>
    <g id="line2d_63">
     <path d="M 347.690313 293.004312 
L 367.690313 293.004312 
" style="fill:none;stroke:#2ca02c;stroke-linecap:square;stroke-width:1.5;"/>
    </g>
    <g id="line2d_64"/>
    <g id="text_32">
     <!-- error -->
     <g transform="translate(375.690313 296.504312)scale(0.1 -0.1)">
      <use xlink:href="#DejaVuSans-101"/>
      <use x="61.523438" xlink:href="#DejaVuSans-114"/>
      <use x="100.886719" xlink:href="#DejaVuSans-114"/>
      <use x="139.75" xlink:href="#DejaVuSans-111"/>
      <use x="200.931641" xlink:href="#DejaVuSans-114"/>
     </g>
    </g>
   </g>
  </g>
 </g>
 <defs>
  <clipPath id="p72c35c30bc">
   <rect height="120.96" width="357.12" x="57.6" y="41.472"/>
  </clipPath>
  <clipPath id="pa97a4ee104">
   <rect height="120.96" width="357.12" x="57.6" y="186.624"/>
  </clipPath>
 </defs>
</svg>
