<?xml version="1.0" encoding="utf-8" standalone="no"?>
<!DOCTYPE svg PUBLIC "-//W3C//DTD SVG 1.1//EN"
  "http://www.w3.org/Graphics/SVG/1.1/DTD/svg11.dtd">
<!-- Created with matplotlib (https://matplotlib.org/) -->
<svg height="345.6pt" version="1.1" viewBox="0 0 460.8 345.6" width="460.8pt" xmlns="http://www.w3.org/2000/svg" xmlns:xlink="http://www.w3.org/1999/xlink">
 <metadata>
  <rdf:RDF xmlns:cc="http://creativecommons.org/ns#" xmlns:dc="http://purl.org/dc/elements/1.1/" xmlns:rdf="http://www.w3.org/1999/02/22-rdf-syntax-ns#">
   <cc:Work>
    <dc:type rdf:resource="http://purl.org/dc/dcmitype/StillImage"/>
    <dc:date>2021-05-03T16:08:47.223768</dc:date>
    <dc:format>image/svg+xml</dc:format>
    <dc:creator>
     <cc:Agent>
      <dc:title>Matplotlib v3.3.4, https://matplotlib.org/</dc:title>
     </cc:Agent>
    </dc:creator>
   </cc:Work>
  </rdf:RDF>
 </metadata>
 <defs>
  <style type="text/css">*{stroke-linecap:butt;stroke-linejoin:round;}</style>
 </defs>
 <g id="figure_1">
  <g id="patch_1">
   <path d="M 0 345.6 
L 460.8 345.6 
L 460.8 0 
L 0 0 
z
" style="fill:#ffffff;"/>
  </g>
  <g id="axes_1">
   <g id="patch_2">
    <path d="M 57.6 162.432 
L 414.72 162.432 
L 414.72 41.472 
L 57.6 41.472 
z
" style="fill:#ffffff;"/>
   </g>
   <g id="matplotlib.axis_1">
    <g id="xtick_1">
     <g id="line2d_1">
      <path clip-path="url(#p3b73ac3927)" d="M 73.832637 162.432 
L 73.832637 41.472 
" style="fill:none;stroke:#b0b0b0;stroke-linecap:square;stroke-width:0.8;"/>
     </g>
     <g id="line2d_2">
      <defs>
       <path d="M 0 0 
L 0 3.5 
" id="mb7fcdf942b" style="stroke:#000000;stroke-width:0.8;"/>
      </defs>
      <g>
       <use style="stroke:#000000;stroke-width:0.8;" x="73.832637" xlink:href="#mb7fcdf942b" y="162.432"/>
      </g>
     </g>
     <g id="text_1">
      <!-- 0 -->
      <g transform="translate(70.651387 177.030437)scale(0.1 -0.1)">
       <defs>
        <path d="M 31.78125 66.40625 
Q 24.171875 66.40625 20.328125 58.90625 
Q 16.5 51.421875 16.5 36.375 
Q 16.5 21.390625 20.328125 13.890625 
Q 24.171875 6.390625 31.78125 6.390625 
Q 39.453125 6.390625 43.28125 13.890625 
Q 47.125 21.390625 47.125 36.375 
Q 47.125 51.421875 43.28125 58.90625 
Q 39.453125 66.40625 31.78125 66.40625 
z
M 31.78125 74.21875 
Q 44.046875 74.21875 50.515625 64.515625 
Q 56.984375 54.828125 56.984375 36.375 
Q 56.984375 17.96875 50.515625 8.265625 
Q 44.046875 -1.421875 31.78125 -1.421875 
Q 19.53125 -1.421875 13.0625 8.265625 
Q 6.59375 17.96875 6.59375 36.375 
Q 6.59375 54.828125 13.0625 64.515625 
Q 19.53125 74.21875 31.78125 74.21875 
z
" id="DejaVuSans-48"/>
       </defs>
       <use xlink:href="#DejaVuSans-48"/>
      </g>
     </g>
    </g>
    <g id="xtick_2">
     <g id="line2d_3">
      <path clip-path="url(#p3b73ac3927)" d="M 143.650074 162.432 
L 143.650074 41.472 
" style="fill:none;stroke:#b0b0b0;stroke-linecap:square;stroke-width:0.8;"/>
     </g>
     <g id="line2d_4">
      <g>
       <use style="stroke:#000000;stroke-width:0.8;" x="143.650074" xlink:href="#mb7fcdf942b" y="162.432"/>
      </g>
     </g>
     <g id="text_2">
      <!-- 5 -->
      <g transform="translate(140.468824 177.030437)scale(0.1 -0.1)">
       <defs>
        <path d="M 10.796875 72.90625 
L 49.515625 72.90625 
L 49.515625 64.59375 
L 19.828125 64.59375 
L 19.828125 46.734375 
Q 21.96875 47.46875 24.109375 47.828125 
Q 26.265625 48.1875 28.421875 48.1875 
Q 40.625 48.1875 47.75 41.5 
Q 54.890625 34.8125 54.890625 23.390625 
Q 54.890625 11.625 47.5625 5.09375 
Q 40.234375 -1.421875 26.90625 -1.421875 
Q 22.3125 -1.421875 17.546875 -0.640625 
Q 12.796875 0.140625 7.71875 1.703125 
L 7.71875 11.625 
Q 12.109375 9.234375 16.796875 8.0625 
Q 21.484375 6.890625 26.703125 6.890625 
Q 35.15625 6.890625 40.078125 11.328125 
Q 45.015625 15.765625 45.015625 23.390625 
Q 45.015625 31 40.078125 35.4375 
Q 35.15625 39.890625 26.703125 39.890625 
Q 22.75 39.890625 18.8125 39.015625 
Q 14.890625 38.140625 10.796875 36.28125 
z
" id="DejaVuSans-53"/>
       </defs>
       <use xlink:href="#DejaVuSans-53"/>
      </g>
     </g>
    </g>
    <g id="xtick_3">
     <g id="line2d_5">
      <path clip-path="url(#p3b73ac3927)" d="M 213.46751 162.432 
L 213.46751 41.472 
" style="fill:none;stroke:#b0b0b0;stroke-linecap:square;stroke-width:0.8;"/>
     </g>
     <g id="line2d_6">
      <g>
       <use style="stroke:#000000;stroke-width:0.8;" x="213.46751" xlink:href="#mb7fcdf942b" y="162.432"/>
      </g>
     </g>
     <g id="text_3">
      <!-- 10 -->
      <g transform="translate(207.10501 177.030437)scale(0.1 -0.1)">
       <defs>
        <path d="M 12.40625 8.296875 
L 28.515625 8.296875 
L 28.515625 63.921875 
L 10.984375 60.40625 
L 10.984375 69.390625 
L 28.421875 72.90625 
L 38.28125 72.90625 
L 38.28125 8.296875 
L 54.390625 8.296875 
L 54.390625 0 
L 12.40625 0 
z
" id="DejaVuSans-49"/>
       </defs>
       <use xlink:href="#DejaVuSans-49"/>
       <use x="63.623047" xlink:href="#DejaVuSans-48"/>
      </g>
     </g>
    </g>
    <g id="xtick_4">
     <g id="line2d_7">
      <path clip-path="url(#p3b73ac3927)" d="M 283.284947 162.432 
L 283.284947 41.472 
" style="fill:none;stroke:#b0b0b0;stroke-linecap:square;stroke-width:0.8;"/>
     </g>
     <g id="line2d_8">
      <g>
       <use style="stroke:#000000;stroke-width:0.8;" x="283.284947" xlink:href="#mb7fcdf942b" y="162.432"/>
      </g>
     </g>
     <g id="text_4">
      <!-- 15 -->
      <g transform="translate(276.922447 177.030437)scale(0.1 -0.1)">
       <use xlink:href="#DejaVuSans-49"/>
       <use x="63.623047" xlink:href="#DejaVuSans-53"/>
      </g>
     </g>
    </g>
    <g id="xtick_5">
     <g id="line2d_9">
      <path clip-path="url(#p3b73ac3927)" d="M 353.102383 162.432 
L 353.102383 41.472 
" style="fill:none;stroke:#b0b0b0;stroke-linecap:square;stroke-width:0.8;"/>
     </g>
     <g id="line2d_10">
      <g>
       <use style="stroke:#000000;stroke-width:0.8;" x="353.102383" xlink:href="#mb7fcdf942b" y="162.432"/>
      </g>
     </g>
     <g id="text_5">
      <!-- 20 -->
      <g transform="translate(346.739883 177.030437)scale(0.1 -0.1)">
       <defs>
        <path d="M 19.1875 8.296875 
L 53.609375 8.296875 
L 53.609375 0 
L 7.328125 0 
L 7.328125 8.296875 
Q 12.9375 14.109375 22.625 23.890625 
Q 32.328125 33.6875 34.8125 36.53125 
Q 39.546875 41.84375 41.421875 45.53125 
Q 43.3125 49.21875 43.3125 52.78125 
Q 43.3125 58.59375 39.234375 62.25 
Q 35.15625 65.921875 28.609375 65.921875 
Q 23.96875 65.921875 18.8125 64.3125 
Q 13.671875 62.703125 7.8125 59.421875 
L 7.8125 69.390625 
Q 13.765625 71.78125 18.9375 73 
Q 24.125 74.21875 28.421875 74.21875 
Q 39.75 74.21875 46.484375 68.546875 
Q 53.21875 62.890625 53.21875 53.421875 
Q 53.21875 48.921875 51.53125 44.890625 
Q 49.859375 40.875 45.40625 35.40625 
Q 44.1875 33.984375 37.640625 27.21875 
Q 31.109375 20.453125 19.1875 8.296875 
z
" id="DejaVuSans-50"/>
       </defs>
       <use xlink:href="#DejaVuSans-50"/>
       <use x="63.623047" xlink:href="#DejaVuSans-48"/>
      </g>
     </g>
    </g>
   </g>
   <g id="matplotlib.axis_2">
    <g id="ytick_1">
     <g id="line2d_11">
      <path clip-path="url(#p3b73ac3927)" d="M 57.6 150.735857 
L 414.72 150.735857 
" style="fill:none;stroke:#b0b0b0;stroke-linecap:square;stroke-width:0.8;"/>
     </g>
     <g id="line2d_12">
      <defs>
       <path d="M 0 0 
L -3.5 0 
" id="m7b4fcff965" style="stroke:#000000;stroke-width:0.8;"/>
      </defs>
      <g>
       <use style="stroke:#000000;stroke-width:0.8;" x="57.6" xlink:href="#m7b4fcff965" y="150.735857"/>
      </g>
     </g>
     <g id="text_6">
      <!-- −0.25 -->
      <g transform="translate(19.954687 154.535075)scale(0.1 -0.1)">
       <defs>
        <path d="M 10.59375 35.5 
L 73.1875 35.5 
L 73.1875 27.203125 
L 10.59375 27.203125 
z
" id="DejaVuSans-8722"/>
        <path d="M 10.6875 12.40625 
L 21 12.40625 
L 21 0 
L 10.6875 0 
z
" id="DejaVuSans-46"/>
       </defs>
       <use xlink:href="#DejaVuSans-8722"/>
       <use x="83.789062" xlink:href="#DejaVuSans-48"/>
       <use x="147.412109" xlink:href="#DejaVuSans-46"/>
       <use x="179.199219" xlink:href="#DejaVuSans-50"/>
       <use x="242.822266" xlink:href="#DejaVuSans-53"/>
      </g>
     </g>
    </g>
    <g id="ytick_2">
     <g id="line2d_13">
      <path clip-path="url(#p3b73ac3927)" d="M 57.6 129.219579 
L 414.72 129.219579 
" style="fill:none;stroke:#b0b0b0;stroke-linecap:square;stroke-width:0.8;"/>
     </g>
     <g id="line2d_14">
      <g>
       <use style="stroke:#000000;stroke-width:0.8;" x="57.6" xlink:href="#m7b4fcff965" y="129.219579"/>
      </g>
     </g>
     <g id="text_7">
      <!-- 0.00 -->
      <g transform="translate(28.334375 133.018798)scale(0.1 -0.1)">
       <use xlink:href="#DejaVuSans-48"/>
       <use x="63.623047" xlink:href="#DejaVuSans-46"/>
       <use x="95.410156" xlink:href="#DejaVuSans-48"/>
       <use x="159.033203" xlink:href="#DejaVuSans-48"/>
      </g>
     </g>
    </g>
    <g id="ytick_3">
     <g id="line2d_15">
      <path clip-path="url(#p3b73ac3927)" d="M 57.6 107.703301 
L 414.72 107.703301 
" style="fill:none;stroke:#b0b0b0;stroke-linecap:square;stroke-width:0.8;"/>
     </g>
     <g id="line2d_16">
      <g>
       <use style="stroke:#000000;stroke-width:0.8;" x="57.6" xlink:href="#m7b4fcff965" y="107.703301"/>
      </g>
     </g>
     <g id="text_8">
      <!-- 0.25 -->
      <g transform="translate(28.334375 111.50252)scale(0.1 -0.1)">
       <use xlink:href="#DejaVuSans-48"/>
       <use x="63.623047" xlink:href="#DejaVuSans-46"/>
       <use x="95.410156" xlink:href="#DejaVuSans-50"/>
       <use x="159.033203" xlink:href="#DejaVuSans-53"/>
      </g>
     </g>
    </g>
    <g id="ytick_4">
     <g id="line2d_17">
      <path clip-path="url(#p3b73ac3927)" d="M 57.6 86.187024 
L 414.72 86.187024 
" style="fill:none;stroke:#b0b0b0;stroke-linecap:square;stroke-width:0.8;"/>
     </g>
     <g id="line2d_18">
      <g>
       <use style="stroke:#000000;stroke-width:0.8;" x="57.6" xlink:href="#m7b4fcff965" y="86.187024"/>
      </g>
     </g>
     <g id="text_9">
      <!-- 0.50 -->
      <g transform="translate(28.334375 89.986242)scale(0.1 -0.1)">
       <use xlink:href="#DejaVuSans-48"/>
       <use x="63.623047" xlink:href="#DejaVuSans-46"/>
       <use x="95.410156" xlink:href="#DejaVuSans-53"/>
       <use x="159.033203" xlink:href="#DejaVuSans-48"/>
      </g>
     </g>
    </g>
    <g id="ytick_5">
     <g id="line2d_19">
      <path clip-path="url(#p3b73ac3927)" d="M 57.6 64.670746 
L 414.72 64.670746 
" style="fill:none;stroke:#b0b0b0;stroke-linecap:square;stroke-width:0.8;"/>
     </g>
     <g id="line2d_20">
      <g>
       <use style="stroke:#000000;stroke-width:0.8;" x="57.6" xlink:href="#m7b4fcff965" y="64.670746"/>
      </g>
     </g>
     <g id="text_10">
      <!-- 0.75 -->
      <g transform="translate(28.334375 68.469965)scale(0.1 -0.1)">
       <defs>
        <path d="M 8.203125 72.90625 
L 55.078125 72.90625 
L 55.078125 68.703125 
L 28.609375 0 
L 18.3125 0 
L 43.21875 64.59375 
L 8.203125 64.59375 
z
" id="DejaVuSans-55"/>
       </defs>
       <use xlink:href="#DejaVuSans-48"/>
       <use x="63.623047" xlink:href="#DejaVuSans-46"/>
       <use x="95.410156" xlink:href="#DejaVuSans-55"/>
       <use x="159.033203" xlink:href="#DejaVuSans-53"/>
      </g>
     </g>
    </g>
    <g id="ytick_6">
     <g id="line2d_21">
      <path clip-path="url(#p3b73ac3927)" d="M 57.6 43.154468 
L 414.72 43.154468 
" style="fill:none;stroke:#b0b0b0;stroke-linecap:square;stroke-width:0.8;"/>
     </g>
     <g id="line2d_22">
      <g>
       <use style="stroke:#000000;stroke-width:0.8;" x="57.6" xlink:href="#m7b4fcff965" y="43.154468"/>
      </g>
     </g>
     <g id="text_11">
      <!-- 1.00 -->
      <g transform="translate(28.334375 46.953687)scale(0.1 -0.1)">
       <use xlink:href="#DejaVuSans-49"/>
       <use x="63.623047" xlink:href="#DejaVuSans-46"/>
       <use x="95.410156" xlink:href="#DejaVuSans-48"/>
       <use x="159.033203" xlink:href="#DejaVuSans-48"/>
      </g>
     </g>
    </g>
    <g id="text_12">
     <!-- thigh angles, rad -->
     <g transform="translate(13.875 144.351219)rotate(-90)scale(0.1 -0.1)">
      <defs>
       <path d="M 18.3125 70.21875 
L 18.3125 54.6875 
L 36.8125 54.6875 
L 36.8125 47.703125 
L 18.3125 47.703125 
L 18.3125 18.015625 
Q 18.3125 11.328125 20.140625 9.421875 
Q 21.96875 7.515625 27.59375 7.515625 
L 36.8125 7.515625 
L 36.8125 0 
L 27.59375 0 
Q 17.1875 0 13.234375 3.875 
Q 9.28125 7.765625 9.28125 18.015625 
L 9.28125 47.703125 
L 2.6875 47.703125 
L 2.6875 54.6875 
L 9.28125 54.6875 
L 9.28125 70.21875 
z
" id="DejaVuSans-116"/>
       <path d="M 54.890625 33.015625 
L 54.890625 0 
L 45.90625 0 
L 45.90625 32.71875 
Q 45.90625 40.484375 42.875 44.328125 
Q 39.84375 48.1875 33.796875 48.1875 
Q 26.515625 48.1875 22.3125 43.546875 
Q 18.109375 38.921875 18.109375 30.90625 
L 18.109375 0 
L 9.078125 0 
L 9.078125 75.984375 
L 18.109375 75.984375 
L 18.109375 46.1875 
Q 21.34375 51.125 25.703125 53.5625 
Q 30.078125 56 35.796875 56 
Q 45.21875 56 50.046875 50.171875 
Q 54.890625 44.34375 54.890625 33.015625 
z
" id="DejaVuSans-104"/>
       <path d="M 9.421875 54.6875 
L 18.40625 54.6875 
L 18.40625 0 
L 9.421875 0 
z
M 9.421875 75.984375 
L 18.40625 75.984375 
L 18.40625 64.59375 
L 9.421875 64.59375 
z
" id="DejaVuSans-105"/>
       <path d="M 45.40625 27.984375 
Q 45.40625 37.75 41.375 43.109375 
Q 37.359375 48.484375 30.078125 48.484375 
Q 22.859375 48.484375 18.828125 43.109375 
Q 14.796875 37.75 14.796875 27.984375 
Q 14.796875 18.265625 18.828125 12.890625 
Q 22.859375 7.515625 30.078125 7.515625 
Q 37.359375 7.515625 41.375 12.890625 
Q 45.40625 18.265625 45.40625 27.984375 
z
M 54.390625 6.78125 
Q 54.390625 -7.171875 48.1875 -13.984375 
Q 42 -20.796875 29.203125 -20.796875 
Q 24.46875 -20.796875 20.265625 -20.09375 
Q 16.0625 -19.390625 12.109375 -17.921875 
L 12.109375 -9.1875 
Q 16.0625 -11.328125 19.921875 -12.34375 
Q 23.78125 -13.375 27.78125 -13.375 
Q 36.625 -13.375 41.015625 -8.765625 
Q 45.40625 -4.15625 45.40625 5.171875 
L 45.40625 9.625 
Q 42.625 4.78125 38.28125 2.390625 
Q 33.9375 0 27.875 0 
Q 17.828125 0 11.671875 7.65625 
Q 5.515625 15.328125 5.515625 27.984375 
Q 5.515625 40.671875 11.671875 48.328125 
Q 17.828125 56 27.875 56 
Q 33.9375 56 38.28125 53.609375 
Q 42.625 51.21875 45.40625 46.390625 
L 45.40625 54.6875 
L 54.390625 54.6875 
z
" id="DejaVuSans-103"/>
       <path id="DejaVuSans-32"/>
       <path d="M 34.28125 27.484375 
Q 23.390625 27.484375 19.1875 25 
Q 14.984375 22.515625 14.984375 16.5 
Q 14.984375 11.71875 18.140625 8.90625 
Q 21.296875 6.109375 26.703125 6.109375 
Q 34.1875 6.109375 38.703125 11.40625 
Q 43.21875 16.703125 43.21875 25.484375 
L 43.21875 27.484375 
z
M 52.203125 31.203125 
L 52.203125 0 
L 43.21875 0 
L 43.21875 8.296875 
Q 40.140625 3.328125 35.546875 0.953125 
Q 30.953125 -1.421875 24.3125 -1.421875 
Q 15.921875 -1.421875 10.953125 3.296875 
Q 6 8.015625 6 15.921875 
Q 6 25.140625 12.171875 29.828125 
Q 18.359375 34.515625 30.609375 34.515625 
L 43.21875 34.515625 
L 43.21875 35.40625 
Q 43.21875 41.609375 39.140625 45 
Q 35.0625 48.390625 27.6875 48.390625 
Q 23 48.390625 18.546875 47.265625 
Q 14.109375 46.140625 10.015625 43.890625 
L 10.015625 52.203125 
Q 14.9375 54.109375 19.578125 55.046875 
Q 24.21875 56 28.609375 56 
Q 40.484375 56 46.34375 49.84375 
Q 52.203125 43.703125 52.203125 31.203125 
z
" id="DejaVuSans-97"/>
       <path d="M 54.890625 33.015625 
L 54.890625 0 
L 45.90625 0 
L 45.90625 32.71875 
Q 45.90625 40.484375 42.875 44.328125 
Q 39.84375 48.1875 33.796875 48.1875 
Q 26.515625 48.1875 22.3125 43.546875 
Q 18.109375 38.921875 18.109375 30.90625 
L 18.109375 0 
L 9.078125 0 
L 9.078125 54.6875 
L 18.109375 54.6875 
L 18.109375 46.1875 
Q 21.34375 51.125 25.703125 53.5625 
Q 30.078125 56 35.796875 56 
Q 45.21875 56 50.046875 50.171875 
Q 54.890625 44.34375 54.890625 33.015625 
z
" id="DejaVuSans-110"/>
       <path d="M 9.421875 75.984375 
L 18.40625 75.984375 
L 18.40625 0 
L 9.421875 0 
z
" id="DejaVuSans-108"/>
       <path d="M 56.203125 29.59375 
L 56.203125 25.203125 
L 14.890625 25.203125 
Q 15.484375 15.921875 20.484375 11.0625 
Q 25.484375 6.203125 34.421875 6.203125 
Q 39.59375 6.203125 44.453125 7.46875 
Q 49.3125 8.734375 54.109375 11.28125 
L 54.109375 2.78125 
Q 49.265625 0.734375 44.1875 -0.34375 
Q 39.109375 -1.421875 33.890625 -1.421875 
Q 20.796875 -1.421875 13.15625 6.1875 
Q 5.515625 13.8125 5.515625 26.8125 
Q 5.515625 40.234375 12.765625 48.109375 
Q 20.015625 56 32.328125 56 
Q 43.359375 56 49.78125 48.890625 
Q 56.203125 41.796875 56.203125 29.59375 
z
M 47.21875 32.234375 
Q 47.125 39.59375 43.09375 43.984375 
Q 39.0625 48.390625 32.421875 48.390625 
Q 24.90625 48.390625 20.390625 44.140625 
Q 15.875 39.890625 15.1875 32.171875 
z
" id="DejaVuSans-101"/>
       <path d="M 44.28125 53.078125 
L 44.28125 44.578125 
Q 40.484375 46.53125 36.375 47.5 
Q 32.28125 48.484375 27.875 48.484375 
Q 21.1875 48.484375 17.84375 46.4375 
Q 14.5 44.390625 14.5 40.28125 
Q 14.5 37.15625 16.890625 35.375 
Q 19.28125 33.59375 26.515625 31.984375 
L 29.59375 31.296875 
Q 39.15625 29.25 43.1875 25.515625 
Q 47.21875 21.78125 47.21875 15.09375 
Q 47.21875 7.46875 41.1875 3.015625 
Q 35.15625 -1.421875 24.609375 -1.421875 
Q 20.21875 -1.421875 15.453125 -0.5625 
Q 10.6875 0.296875 5.421875 2 
L 5.421875 11.28125 
Q 10.40625 8.6875 15.234375 7.390625 
Q 20.0625 6.109375 24.8125 6.109375 
Q 31.15625 6.109375 34.5625 8.28125 
Q 37.984375 10.453125 37.984375 14.40625 
Q 37.984375 18.0625 35.515625 20.015625 
Q 33.0625 21.96875 24.703125 23.78125 
L 21.578125 24.515625 
Q 13.234375 26.265625 9.515625 29.90625 
Q 5.8125 33.546875 5.8125 39.890625 
Q 5.8125 47.609375 11.28125 51.796875 
Q 16.75 56 26.8125 56 
Q 31.78125 56 36.171875 55.265625 
Q 40.578125 54.546875 44.28125 53.078125 
z
" id="DejaVuSans-115"/>
       <path d="M 11.71875 12.40625 
L 22.015625 12.40625 
L 22.015625 4 
L 14.015625 -11.625 
L 7.71875 -11.625 
L 11.71875 4 
z
" id="DejaVuSans-44"/>
       <path d="M 41.109375 46.296875 
Q 39.59375 47.171875 37.8125 47.578125 
Q 36.03125 48 33.890625 48 
Q 26.265625 48 22.1875 43.046875 
Q 18.109375 38.09375 18.109375 28.8125 
L 18.109375 0 
L 9.078125 0 
L 9.078125 54.6875 
L 18.109375 54.6875 
L 18.109375 46.1875 
Q 20.953125 51.171875 25.484375 53.578125 
Q 30.03125 56 36.53125 56 
Q 37.453125 56 38.578125 55.875 
Q 39.703125 55.765625 41.0625 55.515625 
z
" id="DejaVuSans-114"/>
       <path d="M 45.40625 46.390625 
L 45.40625 75.984375 
L 54.390625 75.984375 
L 54.390625 0 
L 45.40625 0 
L 45.40625 8.203125 
Q 42.578125 3.328125 38.25 0.953125 
Q 33.9375 -1.421875 27.875 -1.421875 
Q 17.96875 -1.421875 11.734375 6.484375 
Q 5.515625 14.40625 5.515625 27.296875 
Q 5.515625 40.1875 11.734375 48.09375 
Q 17.96875 56 27.875 56 
Q 33.9375 56 38.25 53.625 
Q 42.578125 51.265625 45.40625 46.390625 
z
M 14.796875 27.296875 
Q 14.796875 17.390625 18.875 11.75 
Q 22.953125 6.109375 30.078125 6.109375 
Q 37.203125 6.109375 41.296875 11.75 
Q 45.40625 17.390625 45.40625 27.296875 
Q 45.40625 37.203125 41.296875 42.84375 
Q 37.203125 48.484375 30.078125 48.484375 
Q 22.953125 48.484375 18.875 42.84375 
Q 14.796875 37.203125 14.796875 27.296875 
z
" id="DejaVuSans-100"/>
      </defs>
      <use xlink:href="#DejaVuSans-116"/>
      <use x="39.208984" xlink:href="#DejaVuSans-104"/>
      <use x="102.587891" xlink:href="#DejaVuSans-105"/>
      <use x="130.371094" xlink:href="#DejaVuSans-103"/>
      <use x="193.847656" xlink:href="#DejaVuSans-104"/>
      <use x="257.226562" xlink:href="#DejaVuSans-32"/>
      <use x="289.013672" xlink:href="#DejaVuSans-97"/>
      <use x="350.292969" xlink:href="#DejaVuSans-110"/>
      <use x="413.671875" xlink:href="#DejaVuSans-103"/>
      <use x="477.148438" xlink:href="#DejaVuSans-108"/>
      <use x="504.931641" xlink:href="#DejaVuSans-101"/>
      <use x="566.455078" xlink:href="#DejaVuSans-115"/>
      <use x="618.554688" xlink:href="#DejaVuSans-44"/>
      <use x="650.341797" xlink:href="#DejaVuSans-32"/>
      <use x="682.128906" xlink:href="#DejaVuSans-114"/>
      <use x="723.242188" xlink:href="#DejaVuSans-97"/>
      <use x="784.521484" xlink:href="#DejaVuSans-100"/>
     </g>
    </g>
   </g>
   <g id="line2d_23">
    <path clip-path="url(#p3b73ac3927)" d="M 73.832727 132.624353 
L 75.23033 83.444289 
L 75.935671 91.010453 
L 77.326396 96.306767 
L 79.426357 132.624353 
L 80.1251 128.841271 
L 82.916326 81.931057 
L 85.003853 68.311962 
L 88.497458 75.121509 
L 89.197965 78.147975 
L 89.896006 100.846466 
L 91.297024 117.492025 
L 94.084106 124.301573 
L 96.877959 128.841271 
L 97.574115 132.624353 
L 103.862353 108.412629 
L 106.651718 81.931057 
L 107.351117 101.603082 
L 108.052144 97.063384 
L 108.747255 93.280302 
L 114.337309 75.878126 
L 116.425494 70.581811 
L 117.817787 103.872931 
L 127.600122 122.78834 
L 128.293009 130.354503 
L 128.997641 154.566227 
L 129.687119 137.920667 
L 130.394601 101.603082 
L 131.79019 89.49722 
L 134.583081 78.904591 
L 140.165095 84.200906 
L 141.563739 75.121509 
L 145.047247 78.904591 
L 145.754299 98.576616 
L 148.5478 111.439095 
L 152.735504 124.301573 
L 159.711105 103.116315 
L 160.415122 135.650818 
L 161.105798 114.46556 
L 165.29802 84.957522 
L 166.698262 86.470755 
L 168.789687 81.17444 
L 173.673394 100.846466 
L 179.262755 122.031724 
L 188.341697 127.328038 
L 189.039517 131.11112 
L 189.739745 92.523686 
L 190.431171 68.311962 
L 193.922519 70.581811 
L 194.62292 72.85166 
L 199.506264 64.52888 
L 200.20782 68.311962 
L 204.391299 117.492025 
L 206.491137 118.248642 
L 207.19203 124.301573 
L 216.269587 124.301573 
L 216.969046 130.354503 
L 220.454717 95.550151 
L 222.546099 92.523686 
L 227.432249 74.364893 
L 228.827681 80.417824 
L 229.526161 95.550151 
L 234.421161 119.005258 
L 236.515016 128.084654 
L 237.208416 140.947133 
L 237.911893 128.084654 
L 242.792081 58.475949 
L 244.192939 134.894202 
L 246.289158 67.555346 
L 249.079033 85.714138 
L 252.565317 71.338428 
L 263.740132 117.492025 
L 264.434523 118.248642 
L 270.020452 91.767069 
L 270.730837 63.772264 
L 279.79552 77.391358 
L 280.496247 65.285497 
L 284.681617 83.444289 
L 286.086501 130.354503 
L 290.273123 111.439095 
L 290.97335 126.571422 
L 296.553493 145.486831 
L 298.657343 70.581811 
L 302.843582 91.767069 
L 303.540354 97.82 
L 309.119654 72.095044 
L 318.197291 115.978793 
L 320.294389 119.761874 
L 323.084087 131.867736 
L 326.572555 68.311962 
L 330.067592 82.687673 
L 330.769141 96.306767 
L 331.460993 97.063384 
L 334.958526 87.227371 
L 344.031582 115.978793 
L 344.732073 108.412629 
L 350.31115 133.380969 
L 353.805854 92.523686 
L 354.503621 62.259031 
L 355.19749 97.82 
L 357.999081 77.391358 
L 360.088415 106.14278 
L 362.87848 84.957522 
L 364.278836 82.687673 
L 364.972725 78.904591 
L 369.16701 94.793535 
L 373.35821 117.492025 
L 374.054532 119.005258 
L 374.747163 127.328038 
L 378.94059 137.164051 
L 380.334547 146.243447 
L 381.036842 128.841271 
L 388.711636 73.608277 
L 389.409114 74.364893 
L 390.114651 90.253837 
L 396.399403 81.17444 
L 397.78795 130.354503 
L 398.487273 112.952327 
" style="fill:none;stroke:#1f77b4;stroke-linecap:square;stroke-width:1.5;"/>
   </g>
   <g id="line2d_24">
    <path clip-path="url(#p3b73ac3927)" d="M 73.832727 81.910462 
L 75.23033 109.765505 
L 75.935671 88.808345 
L 77.326396 87.167582 
L 79.426357 131.866009 
L 80.1251 136.376294 
L 82.916326 83.347489 
L 85.003853 76.589105 
L 88.497458 69.148644 
L 89.197965 81.436326 
L 89.896006 98.347382 
L 91.297024 111.616212 
L 94.084106 120.345529 
L 96.877959 116.200378 
L 97.574115 140.305934 
L 103.862353 118.836579 
L 106.651718 89.434271 
L 107.351117 99.023609 
L 108.052144 90.506849 
L 108.747255 95.776153 
L 114.337309 79.371924 
L 116.425494 68.965405 
L 117.817787 102.584124 
L 127.600122 118.776886 
L 128.293009 112.560444 
L 128.997641 148.68446 
L 129.687119 116.563487 
L 130.394601 56.379757 
L 131.79019 117.211459 
L 134.583081 71.950206 
L 140.165095 86.267279 
L 141.563739 73.416271 
L 145.047247 80.518043 
L 145.754299 109.958508 
L 148.5478 108.235126 
L 152.735504 136.558424 
L 159.711105 104.017232 
L 160.415122 146.151869 
L 161.105798 111.49415 
L 165.29802 63.44455 
L 166.698262 82.20942 
L 168.789687 64.786984 
L 173.673394 101.483259 
L 179.262755 116.46238 
L 188.341697 123.268994 
L 189.039517 111.345294 
L 189.739745 87.989602 
L 190.431171 80.679564 
L 193.922519 77.264365 
L 194.62292 73.675688 
L 199.506264 66.81406 
L 200.20782 65.892775 
L 204.391299 114.761113 
L 206.491137 125.126784 
L 207.19203 116.135168 
L 216.269587 132.912 
L 216.969046 114.417902 
L 220.454717 86.357722 
L 222.546099 92.943689 
L 227.432249 59.26997 
L 228.827681 81.876454 
L 229.526161 105.325617 
L 234.421161 123.729357 
L 236.515016 130.276052 
L 237.208416 139.726645 
L 237.911893 110.184156 
L 242.792081 63.914283 
L 244.192939 133.205473 
L 246.289158 67.81346 
L 249.079033 83.414247 
L 252.565317 68.778763 
L 263.740132 116.772065 
L 264.434523 125.898235 
L 270.020452 74.728811 
L 270.730837 68.067889 
L 279.79552 81.424629 
L 280.496247 74.405497 
L 284.681617 88.668028 
L 286.086501 137.156991 
L 290.273123 117.578749 
L 290.97335 108.18451 
L 296.553493 133.149302 
L 298.657343 75.381939 
L 302.843582 92.056291 
L 303.540354 103.581928 
L 309.119654 82.402722 
L 318.197291 115.510007 
L 320.294389 131.529482 
L 323.084087 140.032099 
L 326.572555 63.008558 
L 330.067592 75.597932 
L 330.769141 81.655523 
L 331.460993 96.237619 
L 334.958526 81.11745 
L 344.031582 101.259872 
L 344.732073 115.419651 
L 350.31115 140.684943 
L 353.805854 99.862236 
L 354.503621 46.970182 
L 355.19749 102.561025 
L 357.999081 76.993071 
L 360.088415 92.742723 
L 362.87848 82.896018 
L 364.278836 66.669433 
L 364.972725 76.164258 
L 369.16701 97.699525 
L 373.35821 120.07831 
L 374.054532 115.000535 
L 374.747163 109.351185 
L 378.94059 146.020461 
L 380.334547 144.593252 
L 381.036842 122.741875 
L 388.711636 84.224622 
L 389.409114 65.215228 
L 390.114651 82.678008 
L 396.399403 84.947659 
L 397.78795 131.298831 
L 398.487273 103.283691 
" style="fill:none;stroke:#ff7f0e;stroke-linecap:square;stroke-width:1.5;"/>
   </g>
   <g id="line2d_25">
    <path clip-path="url(#p3b73ac3927)" d="M 73.832727 78.505688 
L 75.23033 155.540794 
L 75.935671 127.017471 
L 77.326396 120.080394 
L 79.426357 128.461235 
L 80.1251 136.754602 
L 82.916326 130.636011 
L 85.003853 137.496721 
L 88.497458 123.246714 
L 89.197965 132.50793 
L 89.896006 126.720495 
L 91.297024 123.343766 
L 94.084106 125.263535 
L 96.877959 116.578686 
L 97.574115 136.90116 
L 103.862353 139.643529 
L 106.651718 136.722794 
L 107.351117 126.640107 
L 108.052144 122.663044 
L 108.747255 131.71543 
L 114.337309 132.713377 
L 116.425494 127.603172 
L 117.817787 127.930772 
L 127.600122 125.208126 
L 128.293009 111.42552 
L 128.997641 123.337812 
L 129.687119 107.862398 
L 130.394601 83.996254 
L 131.79019 156.933818 
L 134.583081 122.265193 
L 140.165095 131.285953 
L 141.563739 127.51434 
L 145.047247 130.833031 
L 145.754299 140.60147 
L 148.5478 126.01561 
L 152.735504 141.47643 
L 159.711105 130.120496 
L 160.415122 139.72063 
L 161.105798 126.248169 
L 165.29802 107.706607 
L 166.698262 124.958244 
L 168.789687 112.832122 
L 173.673394 129.856372 
L 179.262755 123.650236 
L 188.341697 125.160535 
L 189.039517 109.453754 
L 189.739745 124.685496 
L 190.431171 141.587181 
L 193.922519 135.902133 
L 194.62292 130.043607 
L 199.506264 131.504759 
L 200.20782 126.800392 
L 204.391299 126.488667 
L 206.491137 136.097721 
L 207.19203 121.053175 
L 216.269587 137.830006 
L 216.969046 113.282977 
L 220.454717 120.02715 
L 222.546099 129.639583 
L 227.432249 114.124656 
L 228.827681 130.678209 
L 229.526161 138.995045 
L 234.421161 133.943678 
L 236.515016 131.410977 
L 237.208416 127.999092 
L 237.911893 111.319081 
L 242.792081 134.657912 
L 244.192939 127.53085 
L 246.289158 129.477694 
L 249.079033 126.919688 
L 252.565317 126.659915 
L 263.740132 128.499619 
L 264.434523 136.869172 
L 270.020452 112.181321 
L 270.730837 133.515204 
L 279.79552 133.25285 
L 280.496247 138.33958 
L 284.681617 134.443318 
L 286.086501 136.022067 
L 290.273123 135.359233 
L 290.97335 110.832668 
L 296.553493 116.882051 
L 298.657343 134.019707 
L 302.843582 129.508801 
L 303.540354 134.981507 
L 309.119654 139.527257 
L 318.197291 128.750793 
L 320.294389 140.987186 
L 323.084087 137.383942 
L 326.572555 123.916175 
L 330.067592 122.129838 
L 330.769141 114.568334 
L 331.460993 128.393814 
L 334.958526 123.109657 
L 344.031582 114.500659 
L 344.732073 136.226601 
L 350.31115 136.523553 
L 353.805854 136.558129 
L 354.503621 113.93073 
L 355.19749 133.960604 
L 357.999081 128.821291 
L 360.088415 115.819522 
L 362.87848 127.158075 
L 364.278836 113.20134 
L 364.972725 126.479246 
L 369.16701 132.125569 
L 373.35821 131.805864 
L 374.054532 125.214856 
L 374.747163 111.242726 
L 378.94059 138.07599 
L 380.334547 127.569384 
L 381.036842 123.120183 
L 388.711636 139.835925 
L 389.409114 120.069914 
L 390.114651 121.643751 
L 396.399403 132.992798 
L 397.78795 130.163906 
L 398.487273 119.550943 
" style="fill:none;stroke:#2ca02c;stroke-linecap:square;stroke-width:1.5;"/>
   </g>
   <g id="patch_3">
    <path d="M 57.6 162.432 
L 57.6 41.472 
" style="fill:none;stroke:#000000;stroke-linecap:square;stroke-linejoin:miter;stroke-width:0.8;"/>
   </g>
   <g id="patch_4">
    <path d="M 414.72 162.432 
L 414.72 41.472 
" style="fill:none;stroke:#000000;stroke-linecap:square;stroke-linejoin:miter;stroke-width:0.8;"/>
   </g>
   <g id="patch_5">
    <path d="M 57.6 162.432 
L 414.72 162.432 
" style="fill:none;stroke:#000000;stroke-linecap:square;stroke-linejoin:miter;stroke-width:0.8;"/>
   </g>
   <g id="patch_6">
    <path d="M 57.6 41.472 
L 414.72 41.472 
" style="fill:none;stroke:#000000;stroke-linecap:square;stroke-linejoin:miter;stroke-width:0.8;"/>
   </g>
   <g id="legend_1">
    <g id="patch_7">
     <path d="M 205.145156 94.062625 
L 267.174844 94.062625 
Q 269.174844 94.062625 269.174844 92.062625 
L 269.174844 48.472 
Q 269.174844 46.472 267.174844 46.472 
L 205.145156 46.472 
Q 203.145156 46.472 203.145156 48.472 
L 203.145156 92.062625 
Q 203.145156 94.062625 205.145156 94.062625 
z
" style="fill:#ffffff;opacity:0.8;stroke:#cccccc;stroke-linejoin:miter;"/>
    </g>
    <g id="line2d_26">
     <path d="M 207.145156 54.570437 
L 227.145156 54.570437 
" style="fill:none;stroke:#1f77b4;stroke-linecap:square;stroke-width:1.5;"/>
    </g>
    <g id="line2d_27"/>
    <g id="text_13">
     <!-- U_cur -->
     <g transform="translate(235.145156 58.070437)scale(0.1 -0.1)">
      <defs>
       <path d="M 8.6875 72.90625 
L 18.609375 72.90625 
L 18.609375 28.609375 
Q 18.609375 16.890625 22.84375 11.734375 
Q 27.09375 6.59375 36.625 6.59375 
Q 46.09375 6.59375 50.34375 11.734375 
Q 54.59375 16.890625 54.59375 28.609375 
L 54.59375 72.90625 
L 64.5 72.90625 
L 64.5 27.390625 
Q 64.5 13.140625 57.4375 5.859375 
Q 50.390625 -1.421875 36.625 -1.421875 
Q 22.796875 -1.421875 15.734375 5.859375 
Q 8.6875 13.140625 8.6875 27.390625 
z
" id="DejaVuSans-85"/>
       <path d="M 50.984375 -16.609375 
L 50.984375 -23.578125 
L -0.984375 -23.578125 
L -0.984375 -16.609375 
z
" id="DejaVuSans-95"/>
       <path d="M 48.78125 52.59375 
L 48.78125 44.1875 
Q 44.96875 46.296875 41.140625 47.34375 
Q 37.3125 48.390625 33.40625 48.390625 
Q 24.65625 48.390625 19.8125 42.84375 
Q 14.984375 37.3125 14.984375 27.296875 
Q 14.984375 17.28125 19.8125 11.734375 
Q 24.65625 6.203125 33.40625 6.203125 
Q 37.3125 6.203125 41.140625 7.25 
Q 44.96875 8.296875 48.78125 10.40625 
L 48.78125 2.09375 
Q 45.015625 0.34375 40.984375 -0.53125 
Q 36.96875 -1.421875 32.421875 -1.421875 
Q 20.0625 -1.421875 12.78125 6.34375 
Q 5.515625 14.109375 5.515625 27.296875 
Q 5.515625 40.671875 12.859375 48.328125 
Q 20.21875 56 33.015625 56 
Q 37.15625 56 41.109375 55.140625 
Q 45.0625 54.296875 48.78125 52.59375 
z
" id="DejaVuSans-99"/>
       <path d="M 8.5 21.578125 
L 8.5 54.6875 
L 17.484375 54.6875 
L 17.484375 21.921875 
Q 17.484375 14.15625 20.5 10.265625 
Q 23.53125 6.390625 29.59375 6.390625 
Q 36.859375 6.390625 41.078125 11.03125 
Q 45.3125 15.671875 45.3125 23.6875 
L 45.3125 54.6875 
L 54.296875 54.6875 
L 54.296875 0 
L 45.3125 0 
L 45.3125 8.40625 
Q 42.046875 3.421875 37.71875 1 
Q 33.40625 -1.421875 27.6875 -1.421875 
Q 18.265625 -1.421875 13.375 4.4375 
Q 8.5 10.296875 8.5 21.578125 
z
M 31.109375 56 
z
" id="DejaVuSans-117"/>
      </defs>
      <use xlink:href="#DejaVuSans-85"/>
      <use x="73.193359" xlink:href="#DejaVuSans-95"/>
      <use x="123.193359" xlink:href="#DejaVuSans-99"/>
      <use x="178.173828" xlink:href="#DejaVuSans-117"/>
      <use x="241.552734" xlink:href="#DejaVuSans-114"/>
     </g>
    </g>
    <g id="line2d_28">
     <path d="M 207.145156 69.526687 
L 227.145156 69.526687 
" style="fill:none;stroke:#ff7f0e;stroke-linecap:square;stroke-width:1.5;"/>
    </g>
    <g id="line2d_29"/>
    <g id="text_14">
     <!-- U_des -->
     <g transform="translate(235.145156 73.026687)scale(0.1 -0.1)">
      <use xlink:href="#DejaVuSans-85"/>
      <use x="73.193359" xlink:href="#DejaVuSans-95"/>
      <use x="123.193359" xlink:href="#DejaVuSans-100"/>
      <use x="186.669922" xlink:href="#DejaVuSans-101"/>
      <use x="248.193359" xlink:href="#DejaVuSans-115"/>
     </g>
    </g>
    <g id="line2d_30">
     <path d="M 207.145156 84.482937 
L 227.145156 84.482937 
" style="fill:none;stroke:#2ca02c;stroke-linecap:square;stroke-width:1.5;"/>
    </g>
    <g id="line2d_31"/>
    <g id="text_15">
     <!-- error -->
     <g transform="translate(235.145156 87.982937)scale(0.1 -0.1)">
      <defs>
       <path d="M 30.609375 48.390625 
Q 23.390625 48.390625 19.1875 42.75 
Q 14.984375 37.109375 14.984375 27.296875 
Q 14.984375 17.484375 19.15625 11.84375 
Q 23.34375 6.203125 30.609375 6.203125 
Q 37.796875 6.203125 41.984375 11.859375 
Q 46.1875 17.53125 46.1875 27.296875 
Q 46.1875 37.015625 41.984375 42.703125 
Q 37.796875 48.390625 30.609375 48.390625 
z
M 30.609375 56 
Q 42.328125 56 49.015625 48.375 
Q 55.71875 40.765625 55.71875 27.296875 
Q 55.71875 13.875 49.015625 6.21875 
Q 42.328125 -1.421875 30.609375 -1.421875 
Q 18.84375 -1.421875 12.171875 6.21875 
Q 5.515625 13.875 5.515625 27.296875 
Q 5.515625 40.765625 12.171875 48.375 
Q 18.84375 56 30.609375 56 
z
" id="DejaVuSans-111"/>
      </defs>
      <use xlink:href="#DejaVuSans-101"/>
      <use x="61.523438" xlink:href="#DejaVuSans-114"/>
      <use x="100.886719" xlink:href="#DejaVuSans-114"/>
      <use x="139.75" xlink:href="#DejaVuSans-111"/>
      <use x="200.931641" xlink:href="#DejaVuSans-114"/>
     </g>
    </g>
   </g>
  </g>
  <g id="axes_2">
   <g id="patch_8">
    <path d="M 57.6 307.584 
L 414.72 307.584 
L 414.72 186.624 
L 57.6 186.624 
z
" style="fill:#ffffff;"/>
   </g>
   <g id="matplotlib.axis_3">
    <g id="xtick_6">
     <g id="line2d_32">
      <path clip-path="url(#peef89e348c)" d="M 73.832637 307.584 
L 73.832637 186.624 
" style="fill:none;stroke:#b0b0b0;stroke-linecap:square;stroke-width:0.8;"/>
     </g>
     <g id="line2d_33">
      <g>
       <use style="stroke:#000000;stroke-width:0.8;" x="73.832637" xlink:href="#mb7fcdf942b" y="307.584"/>
      </g>
     </g>
     <g id="text_16">
      <!-- 0 -->
      <g transform="translate(70.651387 322.182437)scale(0.1 -0.1)">
       <use xlink:href="#DejaVuSans-48"/>
      </g>
     </g>
    </g>
    <g id="xtick_7">
     <g id="line2d_34">
      <path clip-path="url(#peef89e348c)" d="M 143.650074 307.584 
L 143.650074 186.624 
" style="fill:none;stroke:#b0b0b0;stroke-linecap:square;stroke-width:0.8;"/>
     </g>
     <g id="line2d_35">
      <g>
       <use style="stroke:#000000;stroke-width:0.8;" x="143.650074" xlink:href="#mb7fcdf942b" y="307.584"/>
      </g>
     </g>
     <g id="text_17">
      <!-- 5 -->
      <g transform="translate(140.468824 322.182437)scale(0.1 -0.1)">
       <use xlink:href="#DejaVuSans-53"/>
      </g>
     </g>
    </g>
    <g id="xtick_8">
     <g id="line2d_36">
      <path clip-path="url(#peef89e348c)" d="M 213.46751 307.584 
L 213.46751 186.624 
" style="fill:none;stroke:#b0b0b0;stroke-linecap:square;stroke-width:0.8;"/>
     </g>
     <g id="line2d_37">
      <g>
       <use style="stroke:#000000;stroke-width:0.8;" x="213.46751" xlink:href="#mb7fcdf942b" y="307.584"/>
      </g>
     </g>
     <g id="text_18">
      <!-- 10 -->
      <g transform="translate(207.10501 322.182437)scale(0.1 -0.1)">
       <use xlink:href="#DejaVuSans-49"/>
       <use x="63.623047" xlink:href="#DejaVuSans-48"/>
      </g>
     </g>
    </g>
    <g id="xtick_9">
     <g id="line2d_38">
      <path clip-path="url(#peef89e348c)" d="M 283.284947 307.584 
L 283.284947 186.624 
" style="fill:none;stroke:#b0b0b0;stroke-linecap:square;stroke-width:0.8;"/>
     </g>
     <g id="line2d_39">
      <g>
       <use style="stroke:#000000;stroke-width:0.8;" x="283.284947" xlink:href="#mb7fcdf942b" y="307.584"/>
      </g>
     </g>
     <g id="text_19">
      <!-- 15 -->
      <g transform="translate(276.922447 322.182437)scale(0.1 -0.1)">
       <use xlink:href="#DejaVuSans-49"/>
       <use x="63.623047" xlink:href="#DejaVuSans-53"/>
      </g>
     </g>
    </g>
    <g id="xtick_10">
     <g id="line2d_40">
      <path clip-path="url(#peef89e348c)" d="M 353.102383 307.584 
L 353.102383 186.624 
" style="fill:none;stroke:#b0b0b0;stroke-linecap:square;stroke-width:0.8;"/>
     </g>
     <g id="line2d_41">
      <g>
       <use style="stroke:#000000;stroke-width:0.8;" x="353.102383" xlink:href="#mb7fcdf942b" y="307.584"/>
      </g>
     </g>
     <g id="text_20">
      <!-- 20 -->
      <g transform="translate(346.739883 322.182437)scale(0.1 -0.1)">
       <use xlink:href="#DejaVuSans-50"/>
       <use x="63.623047" xlink:href="#DejaVuSans-48"/>
      </g>
     </g>
    </g>
    <g id="text_21">
     <!-- time, sec -->
     <g transform="translate(213.255313 335.860562)scale(0.1 -0.1)">
      <defs>
       <path d="M 52 44.1875 
Q 55.375 50.25 60.0625 53.125 
Q 64.75 56 71.09375 56 
Q 79.640625 56 84.28125 50.015625 
Q 88.921875 44.046875 88.921875 33.015625 
L 88.921875 0 
L 79.890625 0 
L 79.890625 32.71875 
Q 79.890625 40.578125 77.09375 44.375 
Q 74.3125 48.1875 68.609375 48.1875 
Q 61.625 48.1875 57.5625 43.546875 
Q 53.515625 38.921875 53.515625 30.90625 
L 53.515625 0 
L 44.484375 0 
L 44.484375 32.71875 
Q 44.484375 40.625 41.703125 44.40625 
Q 38.921875 48.1875 33.109375 48.1875 
Q 26.21875 48.1875 22.15625 43.53125 
Q 18.109375 38.875 18.109375 30.90625 
L 18.109375 0 
L 9.078125 0 
L 9.078125 54.6875 
L 18.109375 54.6875 
L 18.109375 46.1875 
Q 21.1875 51.21875 25.484375 53.609375 
Q 29.78125 56 35.6875 56 
Q 41.65625 56 45.828125 52.96875 
Q 50 49.953125 52 44.1875 
z
" id="DejaVuSans-109"/>
      </defs>
      <use xlink:href="#DejaVuSans-116"/>
      <use x="39.208984" xlink:href="#DejaVuSans-105"/>
      <use x="66.992188" xlink:href="#DejaVuSans-109"/>
      <use x="164.404297" xlink:href="#DejaVuSans-101"/>
      <use x="225.927734" xlink:href="#DejaVuSans-44"/>
      <use x="257.714844" xlink:href="#DejaVuSans-32"/>
      <use x="289.501953" xlink:href="#DejaVuSans-115"/>
      <use x="341.601562" xlink:href="#DejaVuSans-101"/>
      <use x="403.125" xlink:href="#DejaVuSans-99"/>
     </g>
    </g>
   </g>
   <g id="matplotlib.axis_4">
    <g id="ytick_7">
     <g id="line2d_42">
      <path clip-path="url(#peef89e348c)" d="M 57.6 295.663373 
L 414.72 295.663373 
" style="fill:none;stroke:#b0b0b0;stroke-linecap:square;stroke-width:0.8;"/>
     </g>
     <g id="line2d_43">
      <g>
       <use style="stroke:#000000;stroke-width:0.8;" x="57.6" xlink:href="#m7b4fcff965" y="295.663373"/>
      </g>
     </g>
     <g id="text_22">
      <!-- −1.5 -->
      <g transform="translate(26.317187 299.462592)scale(0.1 -0.1)">
       <use xlink:href="#DejaVuSans-8722"/>
       <use x="83.789062" xlink:href="#DejaVuSans-49"/>
       <use x="147.412109" xlink:href="#DejaVuSans-46"/>
       <use x="179.199219" xlink:href="#DejaVuSans-53"/>
      </g>
     </g>
    </g>
    <g id="ytick_8">
     <g id="line2d_44">
      <path clip-path="url(#peef89e348c)" d="M 57.6 273.451566 
L 414.72 273.451566 
" style="fill:none;stroke:#b0b0b0;stroke-linecap:square;stroke-width:0.8;"/>
     </g>
     <g id="line2d_45">
      <g>
       <use style="stroke:#000000;stroke-width:0.8;" x="57.6" xlink:href="#m7b4fcff965" y="273.451566"/>
      </g>
     </g>
     <g id="text_23">
      <!-- −1.0 -->
      <g transform="translate(26.317187 277.250785)scale(0.1 -0.1)">
       <use xlink:href="#DejaVuSans-8722"/>
       <use x="83.789062" xlink:href="#DejaVuSans-49"/>
       <use x="147.412109" xlink:href="#DejaVuSans-46"/>
       <use x="179.199219" xlink:href="#DejaVuSans-48"/>
      </g>
     </g>
    </g>
    <g id="ytick_9">
     <g id="line2d_46">
      <path clip-path="url(#peef89e348c)" d="M 57.6 251.23976 
L 414.72 251.23976 
" style="fill:none;stroke:#b0b0b0;stroke-linecap:square;stroke-width:0.8;"/>
     </g>
     <g id="line2d_47">
      <g>
       <use style="stroke:#000000;stroke-width:0.8;" x="57.6" xlink:href="#m7b4fcff965" y="251.23976"/>
      </g>
     </g>
     <g id="text_24">
      <!-- −0.5 -->
      <g transform="translate(26.317187 255.038978)scale(0.1 -0.1)">
       <use xlink:href="#DejaVuSans-8722"/>
       <use x="83.789062" xlink:href="#DejaVuSans-48"/>
       <use x="147.412109" xlink:href="#DejaVuSans-46"/>
       <use x="179.199219" xlink:href="#DejaVuSans-53"/>
      </g>
     </g>
    </g>
    <g id="ytick_10">
     <g id="line2d_48">
      <path clip-path="url(#peef89e348c)" d="M 57.6 229.027953 
L 414.72 229.027953 
" style="fill:none;stroke:#b0b0b0;stroke-linecap:square;stroke-width:0.8;"/>
     </g>
     <g id="line2d_49">
      <g>
       <use style="stroke:#000000;stroke-width:0.8;" x="57.6" xlink:href="#m7b4fcff965" y="229.027953"/>
      </g>
     </g>
     <g id="text_25">
      <!-- 0.0 -->
      <g transform="translate(34.696875 232.827172)scale(0.1 -0.1)">
       <use xlink:href="#DejaVuSans-48"/>
       <use x="63.623047" xlink:href="#DejaVuSans-46"/>
       <use x="95.410156" xlink:href="#DejaVuSans-48"/>
      </g>
     </g>
    </g>
    <g id="ytick_11">
     <g id="line2d_50">
      <path clip-path="url(#peef89e348c)" d="M 57.6 206.816146 
L 414.72 206.816146 
" style="fill:none;stroke:#b0b0b0;stroke-linecap:square;stroke-width:0.8;"/>
     </g>
     <g id="line2d_51">
      <g>
       <use style="stroke:#000000;stroke-width:0.8;" x="57.6" xlink:href="#m7b4fcff965" y="206.816146"/>
      </g>
     </g>
     <g id="text_26">
      <!-- 0.5 -->
      <g transform="translate(34.696875 210.615365)scale(0.1 -0.1)">
       <use xlink:href="#DejaVuSans-48"/>
       <use x="63.623047" xlink:href="#DejaVuSans-46"/>
       <use x="95.410156" xlink:href="#DejaVuSans-53"/>
      </g>
     </g>
    </g>
    <g id="text_27">
     <!-- knee angles, rad -->
     <g transform="translate(20.2375 288.859469)rotate(-90)scale(0.1 -0.1)">
      <defs>
       <path d="M 9.078125 75.984375 
L 18.109375 75.984375 
L 18.109375 31.109375 
L 44.921875 54.6875 
L 56.390625 54.6875 
L 27.390625 29.109375 
L 57.625 0 
L 45.90625 0 
L 18.109375 26.703125 
L 18.109375 0 
L 9.078125 0 
z
" id="DejaVuSans-107"/>
      </defs>
      <use xlink:href="#DejaVuSans-107"/>
      <use x="57.910156" xlink:href="#DejaVuSans-110"/>
      <use x="121.289062" xlink:href="#DejaVuSans-101"/>
      <use x="182.8125" xlink:href="#DejaVuSans-101"/>
      <use x="244.335938" xlink:href="#DejaVuSans-32"/>
      <use x="276.123047" xlink:href="#DejaVuSans-97"/>
      <use x="337.402344" xlink:href="#DejaVuSans-110"/>
      <use x="400.78125" xlink:href="#DejaVuSans-103"/>
      <use x="464.257812" xlink:href="#DejaVuSans-108"/>
      <use x="492.041016" xlink:href="#DejaVuSans-101"/>
      <use x="553.564453" xlink:href="#DejaVuSans-115"/>
      <use x="605.664062" xlink:href="#DejaVuSans-44"/>
      <use x="637.451172" xlink:href="#DejaVuSans-32"/>
      <use x="669.238281" xlink:href="#DejaVuSans-114"/>
      <use x="710.351562" xlink:href="#DejaVuSans-97"/>
      <use x="771.630859" xlink:href="#DejaVuSans-100"/>
     </g>
    </g>
   </g>
   <g id="line2d_52">
    <path clip-path="url(#peef89e348c)" d="M 73.832727 228.05161 
L 75.23033 259.294591 
L 75.935671 269.058022 
L 77.326396 294.052407 
L 79.426357 262.418889 
L 80.1251 252.26492 
L 82.916326 242.892026 
L 85.003853 241.329877 
L 88.497458 249.140622 
L 89.197965 237.815041 
L 89.896006 217.507104 
L 91.297024 222.974625 
L 94.084106 213.601731 
L 96.877959 213.601731 
L 97.574115 225.708386 
L 103.862353 251.483845 
L 106.651718 246.797398 
L 107.351117 248.359547 
L 108.052144 247.96901 
L 108.747255 242.110951 
L 114.337309 253.436532 
L 116.425494 253.045994 
L 117.817787 226.098923 
L 127.600122 218.288178 
L 128.293009 223.365163 
L 128.997641 193.684331 
L 129.687119 240.158265 
L 130.394601 231.956982 
L 131.79019 265.933724 
L 134.583081 244.844712 
L 140.165095 250.702771 
L 141.563739 242.892026 
L 145.047247 246.797398 
L 145.754299 222.193551 
L 148.5478 224.146237 
L 152.735504 215.16388 
L 159.711105 252.26492 
L 160.415122 235.08128 
L 161.105798 261.637814 
L 165.29802 254.608143 
L 166.698262 246.797398 
L 168.789687 253.827069 
L 173.673394 223.7557 
L 179.262755 218.288178 
L 188.341697 238.205579 
L 189.039517 249.531159 
L 189.739745 230.785371 
L 190.431171 245.625786 
L 193.922519 243.282563 
L 194.62292 240.158265 
L 199.506264 251.483845 
L 200.20782 249.921696 
L 204.391299 218.678716 
L 206.491137 217.116566 
L 207.19203 217.116566 
L 216.269587 251.093308 
L 216.969046 236.643429 
L 220.454717 242.110951 
L 222.546099 241.329877 
L 227.432249 257.732442 
L 228.827681 242.892026 
L 229.526161 226.879998 
L 234.421161 206.962598 
L 236.515016 209.696359 
L 237.208416 224.927312 
L 237.911893 212.820657 
L 242.792081 247.578473 
L 244.192939 244.454175 
L 246.289158 255.389218 
L 249.079033 242.501488 
L 252.565317 244.844712 
L 263.740132 205.400449 
L 264.434523 222.584088 
L 270.020452 231.175908 
L 270.730837 251.093308 
L 279.79552 252.655457 
L 280.496247 238.205579 
L 284.681617 242.892026 
L 286.086501 217.507104 
L 290.273123 210.477433 
L 290.97335 221.412476 
L 296.553493 215.16388 
L 298.657343 232.738057 
L 302.843582 250.312234 
L 303.540354 241.329877 
L 309.119654 254.608143 
L 318.197291 218.678716 
L 320.294389 218.288178 
L 323.084087 206.181523 
L 326.572555 250.702771 
L 330.067592 250.702771 
L 330.769141 236.643429 
L 331.460993 254.998681 
L 334.958526 242.501488 
L 344.031582 223.7557 
L 344.732073 225.317849 
L 350.31115 223.7557 
L 353.805854 226.879998 
L 354.503621 248.359547 
L 355.19749 238.596116 
L 357.999081 246.797398 
L 360.088415 242.892026 
L 362.87848 247.578473 
L 364.278836 249.921696 
L 364.972725 239.767728 
L 369.16701 228.442147 
L 373.35821 216.726029 
L 374.054532 219.069253 
L 374.747163 215.944955 
L 378.94059 192.122182 
L 380.334547 195.637017 
L 381.036842 226.489461 
L 388.711636 249.921696 
L 389.409114 253.045994 
L 390.114651 235.08128 
L 396.399403 241.720414 
L 397.78795 216.335492 
L 398.487273 217.116566 
" style="fill:none;stroke:#1f77b4;stroke-linecap:square;stroke-width:1.5;"/>
   </g>
   <g id="line2d_53">
    <path clip-path="url(#peef89e348c)" d="M 73.832727 301.109475 
L 75.23033 252.573474 
L 75.935671 278.145457 
L 77.326396 290.180808 
L 79.426357 260.420505 
L 80.1251 248.769219 
L 82.916326 241.112154 
L 85.003853 234.265949 
L 88.497458 249.313397 
L 89.197965 231.581689 
L 89.896006 218.288138 
L 91.297024 221.443085 
L 94.084106 212.54747 
L 96.877959 203.28625 
L 97.574115 225.023793 
L 103.862353 254.188594 
L 106.651718 232.720762 
L 107.351117 237.795585 
L 108.052144 246.509303 
L 108.747255 243.769449 
L 114.337309 249.262642 
L 116.425494 253.405942 
L 117.817787 216.06576 
L 127.600122 202.101458 
L 128.293009 241.425629 
L 128.997641 194.963076 
L 129.687119 243.353886 
L 130.394601 257.117907 
L 131.79019 254.179165 
L 134.583081 249.527387 
L 140.165095 244.22699 
L 141.563739 230.152881 
L 145.047247 239.000323 
L 145.754299 220.591498 
L 148.5478 224.523986 
L 152.735504 201.261843 
L 159.711105 253.992728 
L 160.415122 219.620357 
L 161.105798 261.738068 
L 165.29802 260.066333 
L 166.698262 243.267558 
L 168.789687 263.745505 
L 173.673394 223.68959 
L 179.262755 225.291715 
L 188.341697 237.642239 
L 189.039517 250.166467 
L 189.739745 222.775311 
L 190.431171 233.619861 
L 193.922519 245.764333 
L 194.62292 233.474543 
L 199.506264 258.180092 
L 200.20782 247.459441 
L 204.391299 213.395306 
L 206.491137 206.849912 
L 207.19203 224.702462 
L 216.269587 246.345564 
L 216.969046 240.128842 
L 220.454717 249.643587 
L 222.546099 245.629997 
L 227.432249 261.185652 
L 228.827681 229.359557 
L 229.526161 213.21027 
L 234.421161 205.218077 
L 236.515016 205.048224 
L 237.208416 232.839148 
L 237.911893 227.79078 
L 242.792081 240.956353 
L 244.192939 240.035889 
L 246.289158 264.737174 
L 249.079033 256.87113 
L 252.565317 239.722686 
L 263.740132 212.749435 
L 264.434523 233.811354 
L 270.020452 233.147754 
L 270.730837 237.524822 
L 279.79552 253.182368 
L 280.496247 241.297438 
L 284.681617 234.471504 
L 286.086501 201.419583 
L 290.273123 211.546675 
L 290.97335 230.230754 
L 296.553493 213.344604 
L 298.657343 229.170421 
L 302.843582 253.425635 
L 303.540354 226.666983 
L 309.119654 244.314039 
L 318.197291 205.391346 
L 320.294389 210.167964 
L 323.084087 199.796707 
L 326.572555 243.721724 
L 330.067592 242.915021 
L 330.769141 236.073765 
L 331.460993 244.701007 
L 334.958526 239.804559 
L 344.031582 209.036218 
L 344.732073 229.521312 
L 350.31115 209.202757 
L 353.805854 233.314233 
L 354.503621 240.386604 
L 355.19749 239.892801 
L 357.999081 239.769945 
L 360.088415 243.181794 
L 362.87848 235.847992 
L 364.278836 260.564058 
L 364.972725 233.477401 
L 369.16701 218.87535 
L 373.35821 226.057587 
L 374.054532 223.639862 
L 374.747163 215.95744 
L 378.94059 194.850973 
L 380.334547 207.063646 
L 381.036842 226.526046 
L 388.711636 240.079088 
L 389.409114 257.45932 
L 390.114651 242.054281 
L 396.399403 236.997324 
L 397.78795 215.683829 
L 398.487273 224.760586 
" style="fill:none;stroke:#ff7f0e;stroke-linecap:square;stroke-width:1.5;"/>
   </g>
   <g id="line2d_54">
    <path clip-path="url(#peef89e348c)" d="M 73.832727 302.085818 
L 75.23033 222.306837 
L 75.935671 238.115388 
L 77.326396 225.156354 
L 79.426357 227.02957 
L 80.1251 225.532252 
L 82.916326 227.248081 
L 85.003853 221.964025 
L 88.497458 229.200728 
L 89.197965 222.7946 
L 89.896006 229.808987 
L 91.297024 227.496413 
L 94.084106 227.973692 
L 96.877959 218.712472 
L 97.574115 228.34336 
L 103.862353 231.732701 
L 106.651718 214.951317 
L 107.351117 218.463991 
L 108.052144 227.568246 
L 108.747255 230.686451 
L 114.337309 224.854063 
L 116.425494 229.3879 
L 117.817787 218.994789 
L 127.600122 212.841232 
L 128.293009 247.088419 
L 128.997641 230.306698 
L 129.687119 232.223574 
L 130.394601 254.188877 
L 131.79019 217.273393 
L 134.583081 233.710628 
L 140.165095 222.552172 
L 141.563739 216.288809 
L 145.047247 221.230878 
L 145.754299 227.4259 
L 148.5478 229.405702 
L 152.735504 215.125916 
L 159.711105 230.755761 
L 160.415122 213.567029 
L 161.105798 229.128207 
L 165.29802 234.486143 
L 166.698262 225.498112 
L 168.789687 238.946389 
L 173.673394 228.961843 
L 179.262755 236.03149 
L 188.341697 228.464614 
L 189.039517 229.663261 
L 189.739745 221.017893 
L 190.431171 217.022028 
L 193.922519 231.509723 
L 194.62292 222.344231 
L 199.506264 235.7242 
L 200.20782 226.565698 
L 204.391299 223.744544 
L 206.491137 218.761298 
L 207.19203 236.613849 
L 216.269587 224.280209 
L 216.969046 232.513366 
L 220.454717 236.560589 
L 222.546099 233.328073 
L 227.432249 232.481163 
L 228.827681 215.495484 
L 229.526161 215.358225 
L 234.421161 227.283432 
L 236.515016 224.379818 
L 237.208416 236.939789 
L 237.911893 243.998076 
L 242.792081 222.405833 
L 244.192939 224.609667 
L 246.289158 238.375909 
L 249.079033 243.397594 
L 252.565317 223.905927 
L 263.740132 236.37694 
L 264.434523 240.255219 
L 270.020452 230.999799 
L 270.730837 215.459467 
L 279.79552 229.554864 
L 280.496247 232.119812 
L 284.681617 220.607432 
L 286.086501 212.940432 
L 290.273123 230.097195 
L 290.97335 237.846231 
L 296.553493 227.208677 
L 298.657343 225.460317 
L 302.843582 232.141354 
L 303.540354 214.36506 
L 309.119654 218.733848 
L 318.197291 215.740584 
L 320.294389 220.907738 
L 323.084087 222.643137 
L 326.572555 222.046906 
L 330.067592 221.240203 
L 330.769141 228.458289 
L 331.460993 218.730279 
L 334.958526 226.331023 
L 344.031582 214.308471 
L 344.732073 233.231416 
L 350.31115 214.47501 
L 353.805854 235.462188 
L 354.503621 221.05501 
L 355.19749 230.324638 
L 357.999081 222.0005 
L 360.088415 229.317722 
L 362.87848 217.297473 
L 364.278836 239.670314 
L 364.972725 222.737627 
L 369.16701 219.461156 
L 373.35821 238.359511 
L 374.054532 233.598562 
L 374.747163 229.040438 
L 378.94059 231.756745 
L 380.334547 240.454582 
L 381.036842 229.064538 
L 388.711636 219.185344 
L 389.409114 233.441278 
L 390.114651 236.000954 
L 396.399403 224.304863 
L 397.78795 228.376289 
L 398.487273 236.671973 
" style="fill:none;stroke:#2ca02c;stroke-linecap:square;stroke-width:1.5;"/>
   </g>
   <g id="patch_9">
    <path d="M 57.6 307.584 
L 57.6 186.624 
" style="fill:none;stroke:#000000;stroke-linecap:square;stroke-linejoin:miter;stroke-width:0.8;"/>
   </g>
   <g id="patch_10">
    <path d="M 414.72 307.584 
L 414.72 186.624 
" style="fill:none;stroke:#000000;stroke-linecap:square;stroke-linejoin:miter;stroke-width:0.8;"/>
   </g>
   <g id="patch_11">
    <path d="M 57.6 307.584 
L 414.72 307.584 
" style="fill:none;stroke:#000000;stroke-linecap:square;stroke-linejoin:miter;stroke-width:0.8;"/>
   </g>
   <g id="patch_12">
    <path d="M 57.6 186.624 
L 414.72 186.624 
" style="fill:none;stroke:#000000;stroke-linecap:square;stroke-linejoin:miter;stroke-width:0.8;"/>
   </g>
   <g id="legend_2">
    <g id="patch_13">
     <path d="M 345.690313 302.584 
L 407.72 302.584 
Q 409.72 302.584 409.72 300.584 
L 409.72 256.993375 
Q 409.72 254.993375 407.72 254.993375 
L 345.690313 254.993375 
Q 343.690313 254.993375 343.690313 256.993375 
L 343.690313 300.584 
Q 343.690313 302.584 345.690313 302.584 
z
" style="fill:#ffffff;opacity:0.8;stroke:#cccccc;stroke-linejoin:miter;"/>
    </g>
    <g id="line2d_55">
     <path d="M 347.690313 263.091812 
L 367.690313 263.091812 
" style="fill:none;stroke:#1f77b4;stroke-linecap:square;stroke-width:1.5;"/>
    </g>
    <g id="line2d_56"/>
    <g id="text_28">
     <!-- U_cur -->
     <g transform="translate(375.690313 266.591812)scale(0.1 -0.1)">
      <use xlink:href="#DejaVuSans-85"/>
      <use x="73.193359" xlink:href="#DejaVuSans-95"/>
      <use x="123.193359" xlink:href="#DejaVuSans-99"/>
      <use x="178.173828" xlink:href="#DejaVuSans-117"/>
      <use x="241.552734" xlink:href="#DejaVuSans-114"/>
     </g>
    </g>
    <g id="line2d_57">
     <path d="M 347.690313 278.048062 
L 367.690313 278.048062 
" style="fill:none;stroke:#ff7f0e;stroke-linecap:square;stroke-width:1.5;"/>
    </g>
    <g id="line2d_58"/>
    <g id="text_29">
     <!-- U_des -->
     <g transform="translate(375.690313 281.548062)scale(0.1 -0.1)">
      <use xlink:href="#DejaVuSans-85"/>
      <use x="73.193359" xlink:href="#DejaVuSans-95"/>
      <use x="123.193359" xlink:href="#DejaVuSans-100"/>
      <use x="186.669922" xlink:href="#DejaVuSans-101"/>
      <use x="248.193359" xlink:href="#DejaVuSans-115"/>
     </g>
    </g>
    <g id="line2d_59">
     <path d="M 347.690313 293.004312 
L 367.690313 293.004312 
" style="fill:none;stroke:#2ca02c;stroke-linecap:square;stroke-width:1.5;"/>
    </g>
    <g id="line2d_60"/>
    <g id="text_30">
     <!-- error -->
     <g transform="translate(375.690313 296.504312)scale(0.1 -0.1)">
      <use xlink:href="#DejaVuSans-101"/>
      <use x="61.523438" xlink:href="#DejaVuSans-114"/>
      <use x="100.886719" xlink:href="#DejaVuSans-114"/>
      <use x="139.75" xlink:href="#DejaVuSans-111"/>
      <use x="200.931641" xlink:href="#DejaVuSans-114"/>
     </g>
    </g>
   </g>
  </g>
 </g>
 <defs>
  <clipPath id="p3b73ac3927">
   <rect height="120.96" width="357.12" x="57.6" y="41.472"/>
  </clipPath>
  <clipPath id="peef89e348c">
   <rect height="120.96" width="357.12" x="57.6" y="186.624"/>
  </clipPath>
 </defs>
</svg>
